<svg width="168" height="159" viewBox="0 0 168 159" fill="none" xmlns="http://www.w3.org/2000/svg">
<g clip-path="url(#clip0_2216_234252)">
<path d="M191.571 139.583H-22.0518V139.69H191.571V139.583Z" fill="#E6E6E6"/>
<path d="M139.301 144.098H124.604V144.204H139.301V144.098Z" fill="#E6E6E6"/>
<path d="M25.3886 144.149H17.1172V144.255H25.3886V144.149Z" fill="#E6E6E6"/>
<path d="M85.187 143.901H68.4219V144.008H85.187V143.901Z" fill="#E6E6E6"/>
<path d="M67.9939 142.384H60.5V142.49H67.9939V142.384Z" fill="#E6E6E6"/>
<path d="M159.34 142.435H136.7V142.542H159.34V142.435Z" fill="#E6E6E6"/>
<path d="M79.2055 120.572H-3.29127C-3.93754 120.57 -4.55696 120.314 -5.01354 119.857C-5.47012 119.401 -5.72656 118.782 -5.72656 118.138V2.43419C-5.72094 1.79309 -5.46202 1.18009 -5.00604 0.728339C-4.55006 0.276591 -3.93386 0.0225826 -3.29127 0.0214844H79.2055C79.8525 0.0214844 80.473 0.277925 80.9305 0.734393C81.388 1.19086 81.645 1.80996 81.645 2.45551V118.138C81.645 118.783 81.388 119.402 80.9305 119.859C80.473 120.315 79.8525 120.572 79.2055 120.572ZM-3.29127 0.106739C-3.90921 0.107869 -4.50146 0.353579 -4.93801 0.789939C-5.37457 1.2263 -5.61975 1.81765 -5.61975 2.43419V118.138C-5.61975 118.754 -5.37457 119.345 -4.93801 119.782C-4.50146 120.218 -3.90921 120.464 -3.29127 120.465H79.2055C79.8238 120.464 80.4165 120.218 80.8537 119.782C81.2909 119.346 81.5371 118.755 81.5382 118.138V2.43419C81.5371 1.81726 81.2909 1.22592 80.8537 0.789679C80.4165 0.353441 79.8238 0.107866 79.2055 0.106739H-3.29127Z" fill="#E6E6E6"/>
<path d="M171.622 120.572H89.1212C88.4745 120.57 87.8547 120.314 87.3974 119.857C86.9402 119.401 86.6828 118.783 86.6816 118.138V2.43419C86.6884 1.7927 86.9483 1.1797 87.4049 0.728072C87.8616 0.276442 88.4782 0.0225706 89.1212 0.0214844H171.622C172.264 0.0237029 172.879 0.278207 173.334 0.729835C173.789 1.18146 174.048 1.79382 174.053 2.43419V118.138C174.053 118.782 173.797 119.399 173.342 119.856C172.886 120.312 172.268 120.569 171.622 120.572ZM89.1212 0.106739C88.5029 0.107866 87.9102 0.353441 87.4729 0.789679C87.0357 1.22592 86.7896 1.81726 86.7885 2.43419V118.138C86.7896 118.755 87.0357 119.346 87.4729 119.782C87.9102 120.218 88.5029 120.464 89.1212 120.465H171.622C172.241 120.464 172.833 120.218 173.27 119.782C173.708 119.346 173.954 118.755 173.955 118.138V2.43419C173.954 1.81726 173.708 1.22592 173.27 0.789679C172.833 0.353441 172.241 0.107866 171.622 0.106739H89.1212Z" fill="#E6E6E6"/>
<path d="M158.686 7.96338H100.461V75.6556H158.686V7.96338Z" fill="#E0E0E0"/>
<path d="M160.267 7.96289H101.2V75.6551H160.267V7.96289Z" fill="#F5F5F5"/>
<path d="M158.686 75.6509H100.461V79.4447H158.686V75.6509Z" fill="#E0E0E0"/>
<path d="M167.503 75.6509H111.897V79.4447H167.503V75.6509Z" fill="#F5F5F5"/>
<path d="M158.054 72.7819V10.8315L103.418 10.8315V72.7819H158.054Z" fill="#FAFAFA"/>
<path d="M111.274 72.7819L124.28 10.8315H141.327L128.321 72.7819H111.274Z" fill="white"/>
<path d="M131.081 72.7819L144.082 10.8315H151.781L138.78 72.7819H131.081Z" fill="white"/>
<path d="M98.7988 7.865V31.9665H105.208C105.208 31.9665 116.688 24.4939 119.307 9.11824C119.369 8.75206 119.35 8.3768 119.252 8.01853C119.154 7.66027 118.979 7.32759 118.739 7.04363C118.499 6.75967 118.2 6.53124 117.863 6.37421C117.526 6.21718 117.158 6.13532 116.786 6.13432H100.551C100.321 6.13264 100.094 6.17613 99.8821 6.2623C99.67 6.34847 99.4769 6.47561 99.3142 6.63643C99.1514 6.79725 99.0221 6.98857 98.9336 7.19941C98.8452 7.41025 98.7994 7.63644 98.7988 7.865Z" fill="#E0E0E0"/>
<path d="M98.7988 70.6V33.9106H105.208C105.208 33.9106 108.882 41.3193 112.543 49.8362C113.517 52.1023 113.912 54.5741 113.692 57.0299C113.473 59.4858 112.645 61.8488 111.285 63.9069C109.924 65.9651 108.072 67.654 105.896 68.8222C103.72 69.9904 101.287 70.6013 98.8159 70.6H98.7988Z" fill="#E0E0E0"/>
<path d="M105.002 31.9663H99.0334C98.6795 31.9663 98.3926 32.2526 98.3926 32.6057V33.2707C98.3926 33.6238 98.6795 33.9101 99.0334 33.9101H105.002C105.356 33.9101 105.643 33.6238 105.643 33.2707V32.6057C105.643 32.2526 105.356 31.9663 105.002 31.9663Z" fill="#F5F5F5"/>
<path d="M162.091 7.86503V31.9665H155.683C155.683 31.9665 144.198 24.494 141.584 9.11828C141.522 8.75245 141.54 8.37755 141.638 8.01959C141.736 7.66163 141.91 7.32917 142.15 7.04529C142.389 6.7614 142.688 6.53288 143.024 6.37558C143.361 6.21829 143.728 6.13597 144.1 6.13436H160.335C160.565 6.13211 160.793 6.17519 161.005 6.2611C161.218 6.34701 161.411 6.47407 161.575 6.63494C161.738 6.79582 161.868 6.98733 161.956 7.19845C162.045 7.40957 162.091 7.63612 162.091 7.86503Z" fill="#E0E0E0"/>
<path d="M162.134 70.6083V33.9189H155.725C155.725 33.9189 152.051 41.3233 148.385 49.8445C147.418 52.1113 147.029 54.5817 147.251 57.0353C147.474 59.4889 148.303 61.8492 149.663 63.9056C151.023 65.9619 152.872 67.6502 155.045 68.8198C157.218 69.9894 159.648 70.6039 162.117 70.6083H162.134Z" fill="#E0E0E0"/>
<path d="M155.874 33.9106H161.843C162.196 33.9106 162.483 33.6244 162.483 33.2712V32.6062C162.483 32.2531 162.196 31.9668 161.843 31.9668H155.874C155.52 31.9668 155.233 32.2531 155.233 32.6062V33.2712C155.233 33.6244 155.52 33.9106 155.874 33.9106Z" fill="#F5F5F5"/>
<path d="M63.7774 37.7852H38.1299V65.7956H63.7774V37.7852Z" fill="#E0E0E0"/>
<path d="M67.3835 37.7852H39.5186V65.7956H67.3835V37.7852Z" fill="#FAFAFA"/>
<path d="M64.5078 62.9309V40.6538H42.3893V62.9309H64.5078Z" fill="white"/>
<path d="M47.5898 51.7924C47.591 50.397 48.1474 49.059 49.1368 48.0726C50.1262 47.0863 51.4677 46.5322 52.8663 46.5322H54.0541C55.452 46.5334 56.7923 47.0879 57.7808 48.0742C58.7693 49.0604 59.3251 50.3977 59.3263 51.7924C59.3263 52.4832 59.1899 53.1672 58.9249 53.8054C58.66 54.4436 58.2716 55.0235 57.7821 55.512C57.2925 56.0004 56.7113 56.3879 56.0716 56.6522C55.432 56.9166 54.7464 57.0527 54.0541 57.0527H52.8663C52.1736 57.0532 51.4876 56.9176 50.8474 56.6535C50.2073 56.3894 49.6256 56.002 49.1355 55.5135C48.6455 55.025 48.2568 54.4449 47.9916 53.8064C47.7264 53.1679 47.5898 52.4836 47.5898 51.7924Z" fill="#F5F5F5"/>
<path d="M17.3576 44.469C13.7883 44.469 10.3651 43.0543 7.84123 40.5361C5.31733 38.018 3.89941 34.6026 3.89941 31.0414C3.89941 27.4802 5.31733 24.0648 7.84123 21.5466C10.3651 19.0285 13.7883 17.6138 17.3576 17.6138H19.7887V44.469H17.3576Z" fill="#E0E0E0"/>
<path d="M19.7885 44.469C27.2166 44.469 33.2382 38.4611 33.2382 31.0499C33.2382 23.6388 27.2166 17.6309 19.7885 17.6309C12.3605 17.6309 6.33887 23.6388 6.33887 31.0499C6.33887 38.4611 12.3605 44.469 19.7885 44.469Z" fill="#FAFAFA"/>
<path d="M19.7883 41.1696C25.39 41.1696 29.9311 36.6389 29.9311 31.0499C29.9311 25.4609 25.39 20.9302 19.7883 20.9302C14.1866 20.9302 9.64551 25.4609 9.64551 31.0499C9.64551 36.6389 14.1866 41.1696 19.7883 41.1696Z" fill="white"/>
<path d="M23.967 34.8354L18.9854 31.3656L20.5662 23.7012L21.9761 23.991L20.5875 30.7304L24.7916 33.6547L23.967 34.8354Z" fill="#E0E0E0"/>
<path d="M128.483 91.6699H110.15V141.092H128.483V91.6699Z" fill="#E0E0E0"/>
<path d="M123.587 141.093H128.483V132.908H118.456L123.587 141.093Z" fill="#FAFAFA"/>
<path d="M18.5743 91.6699H0.241211V141.092H18.5743V91.6699Z" fill="#E0E0E0"/>
<path d="M128.488 91.6699H14.3027V138.274H128.488V91.6699Z" fill="#FAFAFA"/>
<path d="M19.199 141.093H14.3027V132.908H24.3302L19.199 141.093Z" fill="#FAFAFA"/>
<path d="M124.69 95.6772H18.1006V112.83H124.69V95.6772Z" fill="#F0F0F0"/>
<path d="M124.69 116.978H18.1006V134.131H124.69V116.978Z" fill="#F0F0F0"/>
<path d="M109.061 95.6772H18.1006V112.83H109.061V95.6772Z" fill="#E0E0E0"/>
<path d="M46.1112 97.9917H40.5784C40.5784 97.9917 41.5397 101.304 41.5397 103.252C41.5397 105.2 37.3313 112.835 43.3469 112.835C49.3625 112.835 45.1499 105.2 45.1499 103.252C45.1499 101.304 46.1112 97.9917 46.1112 97.9917Z" fill="#FAFAFA"/>
<path d="M24.3291 103.747V106.76C24.3291 110.102 27.5676 112.835 31.5239 112.835H35.0914C39.0477 112.835 42.2862 110.102 42.2862 106.76V103.747H24.3291Z" fill="#F0F0F0"/>
<path d="M109.061 116.978H18.1006V134.131H109.061V116.978Z" fill="#E0E0E0"/>
<path d="M69.1858 133.82H77.7051V119.664H69.1858V133.82Z" fill="white"/>
<path d="M76.377 134.042H76.958V119.885H76.377V134.042Z" fill="#E6E6E6"/>
<path d="M77.0005 134.148H78.4873C78.6006 134.148 78.6924 134.057 78.6924 133.944V119.979C78.6924 119.866 78.6006 119.774 78.4873 119.774H77.0005C76.8872 119.774 76.7954 119.866 76.7954 119.979V133.944C76.7954 134.057 76.8872 134.148 77.0005 134.148Z" fill="#EBEBEB"/>
<path d="M76.7954 126.416H78.6924V123.057H76.7954V126.416Z" fill="white"/>
<path d="M76.7954 129.523H78.6924V127.451H76.7954V129.523Z" fill="white"/>
<path d="M68.7511 134.148H76.4287C76.542 134.148 76.6338 134.057 76.6338 133.944V119.979C76.6338 119.866 76.542 119.774 76.4287 119.774H68.7511C68.6379 119.774 68.546 119.866 68.546 119.979V133.944C68.546 134.057 68.6379 134.148 68.7511 134.148Z" fill="#EBEBEB"/>
<path d="M65.0293 133.786H74.4287V118.167H65.0293V133.786Z" fill="white"/>
<path d="M72.9718 134.029H73.6084V118.411H72.9718V134.029Z" fill="#E6E6E6"/>
<path d="M73.6564 134.148H75.297C75.4221 134.148 75.5234 134.047 75.5234 133.923V118.517C75.5234 118.392 75.4221 118.291 75.297 118.291H73.6564C73.5313 118.291 73.4299 118.392 73.4299 118.517V133.923C73.4299 134.047 73.5313 134.148 73.6564 134.148Z" fill="#F0F0F0"/>
<path d="M73.4299 123.884H75.5234V123.342H73.4299V123.884Z" fill="white"/>
<path d="M73.4299 125.453H75.5234V124.911H73.4299V125.453Z" fill="white"/>
<path d="M73.4299 127.017H75.5234V126.476H73.4299V127.017Z" fill="white"/>
<path d="M64.5556 134.148H73.0236C73.1486 134.148 73.25 134.047 73.25 133.923V118.517C73.25 118.392 73.1486 118.291 73.0236 118.291H64.5556C64.4305 118.291 64.3291 118.392 64.3291 118.517V133.923C64.3291 134.047 64.4305 134.148 64.5556 134.148Z" fill="#F0F0F0"/>
<path d="M53.4512 128.709C53.452 129.185 53.3114 129.65 53.0471 130.046C52.7829 130.442 52.4068 130.751 51.9666 130.933C51.5264 131.116 51.0417 131.164 50.574 131.072C50.1063 130.979 49.6766 130.751 49.3391 130.415C49.0017 130.079 48.7718 129.65 48.6785 129.184C48.5851 128.717 48.6326 128.234 48.8148 127.794C48.9971 127.355 49.306 126.979 49.7023 126.715C50.0987 126.45 50.5647 126.309 51.0415 126.309C51.6798 126.309 52.2921 126.562 52.7439 127.012C53.1956 127.462 53.45 128.072 53.4512 128.709Z" fill="#FAFAFA"/>
<path d="M49.3454 129.856C49.3454 130.228 49.2349 130.591 49.0279 130.9C48.8209 131.209 48.5266 131.45 48.1823 131.593C47.838 131.735 47.4592 131.772 47.0937 131.7C46.7282 131.627 46.3925 131.448 46.129 131.185C45.8655 130.922 45.6861 130.587 45.6134 130.223C45.5407 129.858 45.578 129.48 45.7206 129.137C45.8632 128.793 46.1047 128.499 46.4145 128.293C46.7244 128.086 47.0886 127.976 47.4613 127.976C47.9607 127.977 48.4392 128.176 48.7924 128.528C49.1455 128.88 49.3443 129.358 49.3454 129.856Z" fill="#FAFAFA"/>
<path d="M57.5742 129.856C57.5742 130.331 57.4329 130.796 57.1681 131.192C56.9033 131.587 56.527 131.895 56.0867 132.077C55.6464 132.259 55.1619 132.307 54.6944 132.214C54.227 132.121 53.7977 131.892 53.4607 131.556C53.1237 131.22 52.8942 130.791 52.8012 130.325C52.7082 129.859 52.7559 129.375 52.9383 128.936C53.1207 128.496 53.4295 128.121 53.8258 127.857C54.2221 127.593 54.688 127.452 55.1645 127.452C55.8033 127.453 56.4155 127.706 56.8672 128.157C57.3188 128.608 57.5731 129.219 57.5742 129.856Z" fill="#FAFAFA"/>
<path d="M61.5215 129.153C61.5215 129.628 61.3801 130.093 61.1154 130.488C60.8506 130.884 60.4743 131.192 60.034 131.374C59.5936 131.556 59.1091 131.603 58.6417 131.511C58.1743 131.418 57.7449 131.189 57.4079 130.853C57.0709 130.516 56.8414 130.088 56.7484 129.622C56.6555 129.155 56.7032 128.672 56.8856 128.233C57.068 127.793 57.3768 127.418 57.7731 127.154C58.1693 126.89 58.6352 126.749 59.1118 126.749C59.7509 126.749 60.3638 127.002 60.8157 127.453C61.2676 127.904 61.5215 128.515 61.5215 129.153Z" fill="#FAFAFA"/>
<path d="M40.8301 129.464C40.8301 129.464 41.1591 134.153 53.8354 134.153C66.5118 134.153 66.8407 129.464 66.8407 129.464H40.8301Z" fill="#F5F5F5"/>
<path d="M76.377 108.146C76.377 108.146 76.9025 112.835 96.9915 112.835C117.081 112.835 117.602 108.146 117.602 108.146H76.377Z" fill="white"/>
<path d="M84.7594 158.834C130.51 158.834 167.598 156.674 167.598 154.009C167.598 151.344 130.51 149.183 84.7594 149.183C39.009 149.183 1.9209 151.344 1.9209 154.009C1.9209 156.674 39.009 158.834 84.7594 158.834Z" fill="#F5F5F5"/>
<path d="M40.7193 90.1043C49.7559 81.0882 49.7559 66.4704 40.7193 57.4543C31.6827 48.4383 17.0315 48.4383 7.99497 57.4543C-1.0416 66.4704 -1.0416 81.0882 7.99497 90.1043C17.0315 99.1203 31.6827 99.1203 40.7193 90.1043Z" fill="#FFC100"/>
<path opacity="0.4" d="M40.7193 90.1043C49.7559 81.0882 49.7559 66.4704 40.7193 57.4543C31.6827 48.4383 17.0315 48.4383 7.99497 57.4543C-1.0416 66.4704 -1.0416 81.0882 7.99497 90.1043C17.0315 99.1203 31.6827 99.1203 40.7193 90.1043Z" fill="black"/>
<path opacity="0.2" d="M43.5127 77.0391C45.3171 66.4845 38.2042 56.4688 27.6255 54.6684C17.0468 52.8681 7.00822 59.9648 5.20377 70.5195C3.39932 81.0741 10.5123 91.0898 21.091 92.8902C31.6697 94.6905 41.7082 87.5938 43.5127 77.0391Z" fill="black"/>
<path d="M44.4428 75.6361C45.164 65.3574 37.3971 56.4417 27.0951 55.7222C16.793 55.0027 7.85697 62.7519 7.13582 73.0305C6.41468 83.3091 14.1815 92.2249 24.4836 92.9444C34.7856 93.6639 43.7217 85.9147 44.4428 75.6361Z" fill="#FFC100"/>
<path opacity="0.4" d="M44.4428 75.6361C45.164 65.3574 37.3971 56.4417 27.0951 55.7222C16.793 55.0027 7.85697 62.7519 7.13582 73.0305C6.41468 83.3091 14.1815 92.2249 24.4836 92.9444C34.7856 93.6639 43.7217 85.9147 44.4428 75.6361Z" fill="black"/>
<path d="M32.0416 72.0023L33.2593 77.2668C33.311 77.4678 33.3202 77.6773 33.2863 77.882C33.2525 78.0868 33.1764 78.2823 33.0627 78.4561C32.9523 78.6337 32.8073 78.7875 32.6363 78.9083C32.4654 79.0291 32.2719 79.1145 32.0672 79.1594L27.4274 80.2294L28.2819 83.9337C28.3321 84.1339 28.3399 84.3424 28.3045 84.5457C28.2692 84.7491 28.1916 84.9428 28.0768 85.1145C27.9664 85.2892 27.821 85.4393 27.6497 85.5552C27.4784 85.6711 27.2848 85.7504 27.0813 85.788C26.8774 85.8389 26.6654 85.8486 26.4577 85.8164C26.25 85.7842 26.0509 85.7107 25.8722 85.6004C25.6941 85.4959 25.5399 85.3555 25.4192 85.1881C25.2986 85.0208 25.2142 84.8302 25.1715 84.6285L24.317 80.8816L19.7156 81.943C19.5173 81.9908 19.3114 81.998 19.1102 81.9643C18.909 81.9306 18.7167 81.8567 18.5449 81.7469C18.3664 81.6424 18.2116 81.5021 18.0902 81.3348C17.9689 81.1675 17.8837 80.9769 17.84 80.775C17.7914 80.5758 17.7838 80.3689 17.8175 80.1667C17.8513 79.9645 17.9258 79.7712 18.0365 79.5985C18.1421 79.422 18.2832 79.2691 18.4508 79.1495C18.6185 79.03 18.8091 78.9463 19.0106 78.9037L29.7772 76.427L29.2731 74.2402L18.5364 76.7084C18.3376 76.7589 18.1307 76.7688 17.928 76.7373C17.7253 76.7058 17.5311 76.6336 17.3572 76.5251C17.1789 76.4183 17.0248 76.2755 16.9049 76.106C16.785 75.9364 16.7019 75.7438 16.6608 75.5404L15.4474 70.2972C15.354 69.8942 15.4249 69.4706 15.6444 69.1197C15.8639 68.7688 16.2142 68.5192 16.6181 68.4259L21.1981 67.373L20.3436 63.6644C20.2941 63.4683 20.2845 63.2643 20.3153 63.0644C20.3461 62.8645 20.4168 62.6728 20.5231 62.5007C20.6358 62.3142 20.7871 62.1538 20.9668 62.0303C21.1466 61.9068 21.3507 61.823 21.5656 61.7845C21.7631 61.7366 21.9684 61.7293 22.1689 61.763C22.3695 61.7967 22.561 61.8707 22.7319 61.9806C22.9074 62.0883 23.0592 62.2303 23.1781 62.398C23.2971 62.5658 23.3808 62.7559 23.4241 62.9568L24.2786 66.6611L28.9783 65.5869C29.1816 65.5378 29.3927 65.5302 29.5991 65.5646C29.8054 65.5991 30.0026 65.6748 30.1788 65.7872C30.3571 65.8895 30.5122 66.0275 30.6342 66.1926C30.7563 66.3577 30.8427 66.5462 30.888 66.7463C30.9781 67.1586 30.9029 67.5897 30.6785 67.9473C30.4542 68.305 30.0985 68.5609 29.6875 68.6603L18.9209 71.137L19.3909 73.311L30.119 70.8428C30.3223 70.7937 30.5335 70.7862 30.7398 70.8206C30.9461 70.855 31.1433 70.9307 31.3196 71.0432C31.5007 71.1435 31.6586 71.2807 31.7831 71.4459C31.9075 71.6112 31.9956 71.8008 32.0416 72.0023Z" fill="#FFC100"/>
<g opacity="0.7">
<path d="M32.0416 72.0023L33.2593 77.2668C33.311 77.4678 33.3202 77.6773 33.2863 77.882C33.2525 78.0868 33.1764 78.2823 33.0627 78.4561C32.9523 78.6337 32.8073 78.7875 32.6363 78.9083C32.4654 79.0291 32.2719 79.1145 32.0672 79.1594L27.4274 80.2294L28.2819 83.9337C28.3321 84.1339 28.3399 84.3424 28.3045 84.5457C28.2692 84.7491 28.1916 84.9428 28.0768 85.1145C27.9664 85.2892 27.821 85.4393 27.6497 85.5552C27.4784 85.6711 27.2848 85.7504 27.0813 85.788C26.8774 85.8389 26.6654 85.8486 26.4577 85.8164C26.25 85.7842 26.0509 85.7107 25.8722 85.6004C25.6941 85.4959 25.5399 85.3555 25.4192 85.1881C25.2986 85.0208 25.2142 84.8302 25.1715 84.6285L24.317 80.8816L19.7156 81.943C19.5173 81.9908 19.3114 81.998 19.1102 81.9643C18.909 81.9306 18.7167 81.8567 18.5449 81.7469C18.3664 81.6424 18.2116 81.5021 18.0902 81.3348C17.9689 81.1675 17.8837 80.9769 17.84 80.775C17.7914 80.5758 17.7838 80.3689 17.8175 80.1667C17.8513 79.9645 17.9258 79.7712 18.0365 79.5985C18.1421 79.422 18.2832 79.2691 18.4508 79.1495C18.6185 79.03 18.8091 78.9463 19.0106 78.9037L29.7772 76.427L29.2731 74.2402L18.5364 76.7084C18.3376 76.7589 18.1307 76.7688 17.928 76.7373C17.7253 76.7058 17.5311 76.6336 17.3572 76.5251C17.1789 76.4183 17.0248 76.2755 16.9049 76.106C16.785 75.9364 16.7019 75.7438 16.6608 75.5404L15.4474 70.2972C15.354 69.8942 15.4249 69.4706 15.6444 69.1197C15.8639 68.7688 16.2142 68.5192 16.6181 68.4259L21.1981 67.373L20.3436 63.6644C20.2941 63.4683 20.2845 63.2643 20.3153 63.0644C20.3461 62.8645 20.4168 62.6728 20.5231 62.5007C20.6358 62.3142 20.7871 62.1538 20.9668 62.0303C21.1466 61.9068 21.3507 61.823 21.5656 61.7845C21.7631 61.7366 21.9684 61.7293 22.1689 61.763C22.3695 61.7967 22.561 61.8707 22.7319 61.9806C22.9074 62.0883 23.0592 62.2303 23.1781 62.398C23.2971 62.5658 23.3808 62.7559 23.4241 62.9568L24.2786 66.6611L28.9783 65.5869C29.1816 65.5378 29.3927 65.5302 29.5991 65.5646C29.8054 65.5991 30.0026 65.6748 30.1788 65.7872C30.3571 65.8895 30.5122 66.0275 30.6342 66.1926C30.7563 66.3577 30.8427 66.5462 30.888 66.7463C30.9781 67.1586 30.9029 67.5897 30.6785 67.9473C30.4542 68.305 30.0985 68.5609 29.6875 68.6603L18.9209 71.137L19.3909 73.311L30.119 70.8428C30.3223 70.7937 30.5335 70.7862 30.7398 70.8206C30.9461 70.855 31.1433 70.9307 31.3196 71.0432C31.5007 71.1435 31.6586 71.2807 31.7831 71.4459C31.9075 71.6112 31.9956 71.8008 32.0416 72.0023Z" fill="white"/>
</g>
<path d="M73.736 55.4193C79.4931 48.6223 78.6374 38.4558 71.8249 32.7118C65.0124 26.9679 54.8227 27.8216 49.0657 34.6186C43.3086 41.4157 44.1643 51.5822 50.9768 57.3261C57.7893 63.0701 67.979 62.2164 73.736 55.4193Z" fill="#FFC100"/>
<path opacity="0.4" d="M73.736 55.4193C79.4931 48.6223 78.6374 38.4558 71.8249 32.7118C65.0124 26.9679 54.8227 27.8216 49.0657 34.6186C43.3086 41.4157 44.1643 51.5822 50.9768 57.3261C57.7893 63.0701 67.979 62.2164 73.736 55.4193Z" fill="black"/>
<path opacity="0.2" d="M71.8524 53.6273C76.6243 47.8681 75.8133 39.3397 70.041 34.5786C64.2686 29.8176 55.7208 30.6267 50.9489 36.386C46.177 42.1452 46.988 50.6736 52.7603 55.4346C58.5327 60.1957 67.0805 59.3865 71.8524 53.6273Z" fill="black"/>
<path d="M72.2624 53.769C76.6282 48.0696 75.5367 39.9182 69.8243 35.5622C64.1119 31.2063 55.9419 32.2954 51.576 37.9948C47.2101 43.6942 48.3017 51.8456 54.0141 56.2016C59.7265 60.5575 67.8965 59.4684 72.2624 53.769Z" fill="#FFC100"/>
<path opacity="0.4" d="M72.2624 53.769C76.6282 48.0696 75.5367 39.9182 69.8243 35.5622C64.1119 31.2063 55.9419 32.2954 51.576 37.9948C47.2101 43.6942 48.3017 51.8456 54.0141 56.2016C59.7265 60.5575 67.8965 59.4684 72.2624 53.769Z" fill="black"/>
<path d="M66.7381 46.3405L65.8195 49.9979C65.7862 50.137 65.7241 50.2676 65.6373 50.3814C65.5505 50.4951 65.4408 50.5896 65.3153 50.6586C65.1886 50.7356 65.0476 50.7862 64.9007 50.8074C64.7539 50.8286 64.6043 50.8201 64.4609 50.7823L61.2608 49.9766L60.6114 52.5342C60.5783 52.674 60.5165 52.8053 60.4296 52.9198C60.3428 53.0343 60.233 53.1295 60.1072 53.1992C59.9861 53.2743 59.8508 53.324 59.7098 53.3452C59.5688 53.3665 59.4249 53.3588 59.2869 53.3228C59.1448 53.2895 59.0107 53.2282 58.8926 53.1426C58.7745 53.057 58.6747 52.9487 58.599 52.8241C58.5219 52.7024 58.4708 52.5662 58.4487 52.4239C58.4267 52.2817 58.4342 52.1364 58.4709 51.9971L59.1246 49.3969L55.9202 48.6168C55.7814 48.5836 55.6507 48.5227 55.5362 48.4377C55.4216 48.3527 55.3255 48.2454 55.2537 48.1223C55.1765 48.0015 55.1252 47.866 55.1031 47.7244C55.0811 47.5828 55.0887 47.4381 55.1255 47.2996C55.1575 47.1594 55.218 47.0273 55.3032 46.9115C55.3885 46.7956 55.4967 46.6985 55.6212 46.6261C55.744 46.5513 55.8808 46.5021 56.0233 46.4816C56.1658 46.4611 56.3109 46.4696 56.45 46.5067L63.9268 48.3781L64.3113 46.8605L56.8559 44.9935C56.7163 44.9623 56.5846 44.9026 56.4692 44.8183C56.3537 44.7339 56.257 44.6267 56.1851 44.5033C56.1077 44.3817 56.057 44.2451 56.0364 44.1026C56.0158 43.96 56.0257 43.8147 56.0655 43.6763L56.9798 40.0316C57.0142 39.8927 57.0759 39.762 57.1613 39.647C57.2466 39.532 57.354 39.4351 57.4772 39.3617C57.6003 39.2884 57.7368 39.2401 57.8788 39.2198C58.0208 39.1994 58.1654 39.2073 58.3042 39.243L61.4744 40.0359L62.1238 37.4783C62.1552 37.3339 62.2163 37.1976 62.3031 37.0779C62.3899 36.9582 62.5006 36.8578 62.6282 36.7829C62.7558 36.708 62.8976 36.6603 63.0447 36.6428C63.1917 36.6253 63.3407 36.6383 63.4825 36.6811C63.6202 36.713 63.7497 36.773 63.863 36.8573C63.9763 36.9417 64.0707 37.0486 64.1404 37.1713C64.216 37.2929 64.266 37.4285 64.2873 37.57C64.3086 37.7114 64.3008 37.8557 64.2643 37.9941L63.6149 40.5517L66.862 41.3659C67.0044 41.3998 67.1385 41.4623 67.256 41.5495C67.3735 41.6367 67.472 41.7468 67.5456 41.8731C67.6234 41.9929 67.6757 42.1274 67.6993 42.2682C67.7228 42.409 67.717 42.5531 67.6823 42.6916C67.6466 42.8336 67.5829 42.9671 67.4949 43.0842C67.4068 43.2013 67.2962 43.2997 67.1696 43.3736C67.0434 43.452 66.9025 43.5037 66.7556 43.5257C66.6086 43.5477 66.4587 43.5395 66.3151 43.5015L58.834 41.6302L58.4581 43.1392L65.9092 45.002C66.0517 45.0359 66.1857 45.0984 66.3032 45.1856C66.4207 45.2728 66.5192 45.3829 66.5928 45.5093C66.6751 45.6294 66.7307 45.7658 66.7557 45.9092C66.7808 46.0525 66.7748 46.1996 66.7381 46.3405Z" fill="#FFC100"/>
<g opacity="0.7">
<path d="M66.7381 46.3405L65.8195 49.9979C65.7862 50.137 65.7241 50.2676 65.6373 50.3814C65.5505 50.4951 65.4408 50.5896 65.3153 50.6586C65.1886 50.7356 65.0476 50.7862 64.9007 50.8074C64.7539 50.8286 64.6043 50.8201 64.4609 50.7823L61.2608 49.9766L60.6114 52.5342C60.5783 52.674 60.5165 52.8053 60.4296 52.9198C60.3428 53.0343 60.233 53.1295 60.1072 53.1992C59.9861 53.2743 59.8508 53.324 59.7098 53.3452C59.5688 53.3665 59.4249 53.3588 59.2869 53.3228C59.1448 53.2895 59.0107 53.2282 58.8926 53.1426C58.7745 53.057 58.6747 52.9487 58.599 52.8241C58.5219 52.7024 58.4708 52.5662 58.4487 52.4239C58.4267 52.2817 58.4342 52.1364 58.4709 51.9971L59.1246 49.3969L55.9202 48.6168C55.7814 48.5836 55.6507 48.5227 55.5362 48.4377C55.4216 48.3527 55.3255 48.2454 55.2537 48.1223C55.1765 48.0015 55.1252 47.866 55.1031 47.7244C55.0811 47.5828 55.0887 47.4381 55.1255 47.2996C55.1575 47.1594 55.218 47.0273 55.3032 46.9115C55.3885 46.7956 55.4967 46.6985 55.6212 46.6261C55.744 46.5513 55.8808 46.5021 56.0233 46.4816C56.1658 46.4611 56.3109 46.4696 56.45 46.5067L63.9268 48.3781L64.3113 46.8605L56.8559 44.9935C56.7163 44.9623 56.5846 44.9026 56.4692 44.8183C56.3537 44.7339 56.257 44.6267 56.1851 44.5033C56.1077 44.3817 56.057 44.2451 56.0364 44.1026C56.0158 43.96 56.0257 43.8147 56.0655 43.6763L56.9798 40.0316C57.0142 39.8927 57.0759 39.762 57.1613 39.647C57.2466 39.532 57.354 39.4351 57.4772 39.3617C57.6003 39.2884 57.7368 39.2401 57.8788 39.2198C58.0208 39.1994 58.1654 39.2073 58.3042 39.243L61.4744 40.0359L62.1238 37.4783C62.1552 37.3339 62.2163 37.1976 62.3031 37.0779C62.3899 36.9582 62.5006 36.8578 62.6282 36.7829C62.7558 36.708 62.8976 36.6603 63.0447 36.6428C63.1917 36.6253 63.3407 36.6383 63.4825 36.6811C63.6202 36.713 63.7497 36.773 63.863 36.8573C63.9763 36.9417 64.0707 37.0486 64.1404 37.1713C64.216 37.2929 64.266 37.4285 64.2873 37.57C64.3086 37.7114 64.3008 37.8557 64.2643 37.9941L63.6149 40.5517L66.862 41.3659C67.0044 41.3998 67.1385 41.4623 67.256 41.5495C67.3735 41.6367 67.472 41.7468 67.5456 41.8731C67.6234 41.9929 67.6757 42.1274 67.6993 42.2682C67.7228 42.409 67.717 42.5531 67.6823 42.6916C67.6466 42.8336 67.5829 42.9671 67.4949 43.0842C67.4068 43.2013 67.2962 43.2997 67.1696 43.3736C67.0434 43.452 66.9025 43.5037 66.7556 43.5257C66.6086 43.5477 66.4587 43.5395 66.3151 43.5015L58.834 41.6302L58.4581 43.1392L65.9092 45.002C66.0517 45.0359 66.1857 45.0984 66.3032 45.1856C66.4207 45.2728 66.5192 45.3829 66.5928 45.5093C66.6751 45.6294 66.7307 45.7658 66.7557 45.9092C66.7808 46.0525 66.7748 46.1996 66.7381 46.3405Z" fill="white"/>
</g>
<path d="M22.0659 142.384H21.6387V147.197H22.0659V142.384Z" fill="#FFC100"/>
<path opacity="0.1" d="M22.0659 142.384H21.6387V147.197H22.0659V142.384Z" fill="black"/>
<path d="M147.88 104.254H147.453V110.849H147.88V104.254Z" fill="#FFC100"/>
<path d="M147.88 114.31H147.453V117.886H147.88V114.31Z" fill="#FFC100"/>
<path opacity="0.1" d="M147.88 104.254H147.453V110.849H147.88V104.254Z" fill="black"/>
<path opacity="0.1" d="M147.88 114.31H147.453V117.886H147.88V114.31Z" fill="black"/>
<path d="M139.961 75.6597H29.5648C26.0136 75.6597 23.1348 78.5319 23.1348 82.0751V146.549C23.1348 150.092 26.0136 152.964 29.5648 152.964H139.961C143.512 152.964 146.391 150.092 146.391 146.549V82.0751C146.391 78.5319 143.512 75.6597 139.961 75.6597Z" fill="#FFC100"/>
<path opacity="0.2" d="M139.961 75.6597H29.5648C26.0136 75.6597 23.1348 78.5319 23.1348 82.0751V146.549C23.1348 150.092 26.0136 152.964 29.5648 152.964H139.961C143.512 152.964 146.391 150.092 146.391 146.549V82.0751C146.391 78.5319 143.512 75.6597 139.961 75.6597Z" fill="black"/>
<path d="M126.437 102.579C128.553 102.579 130.582 101.74 132.078 100.248C133.574 98.7552 134.414 96.7309 134.414 94.6202C134.414 92.5094 133.574 90.4851 132.078 88.9926C130.582 87.5001 128.553 86.6616 126.437 86.6616H116.141C114.025 86.6616 111.996 87.5001 110.5 88.9926C109.004 90.4851 108.164 92.5094 108.164 94.6202C108.164 96.7309 109.004 98.7552 110.5 100.248C111.996 101.74 114.025 102.579 116.141 102.579H126.437Z" fill="#FFC100"/>
<path d="M56.8785 102.575H37.8789C36.3499 102.575 35.1104 103.811 35.1104 105.337V117.729C35.1104 119.254 36.3499 120.491 37.8789 120.491H56.8785C58.4075 120.491 59.647 119.254 59.647 117.729V105.337C59.647 103.811 58.4075 102.575 56.8785 102.575Z" fill="#FFC100"/>
<path opacity="0.3" d="M56.8785 102.575H37.8789C36.3499 102.575 35.1104 103.811 35.1104 105.337V117.729C35.1104 119.254 36.3499 120.491 37.8789 120.491H56.8785C58.4075 120.491 59.647 119.254 59.647 117.729V105.337C59.647 103.811 58.4075 102.575 56.8785 102.575Z" fill="white"/>
<path d="M70.0248 84.7051H37.0714C35.9884 84.7051 35.1104 85.5801 35.1104 86.6595C35.1104 87.739 35.9884 88.614 37.0714 88.614H70.0248C71.1079 88.614 71.9859 87.739 71.9859 86.6595C71.9859 85.5801 71.1079 84.7051 70.0248 84.7051Z" fill="#FFC100"/>
<path opacity="0.3" d="M70.0248 84.7051H37.0714C35.9884 84.7051 35.1104 85.5801 35.1104 86.6595C35.1104 87.739 35.9884 88.614 37.0714 88.614H70.0248C71.1079 88.614 71.9859 87.739 71.9859 86.6595C71.9859 85.5801 71.1079 84.7051 70.0248 84.7051Z" fill="white"/>
<path d="M52.8068 129.383H37.9857C36.3977 129.383 35.1104 130.667 35.1104 132.252V134.933C35.1104 136.517 36.3977 137.802 37.9857 137.802H52.8068C54.3949 137.802 55.6822 136.517 55.6822 134.933V132.252C55.6822 130.667 54.3949 129.383 52.8068 129.383Z" fill="#FFC100"/>
<path opacity="0.3" d="M52.8068 129.383H37.9857C36.3977 129.383 35.1104 130.667 35.1104 132.252V134.933C35.1104 136.517 36.3977 137.802 37.9857 137.802H52.8068C54.3949 137.802 55.6822 136.517 55.6822 134.933V132.252C55.6822 130.667 54.3949 129.383 52.8068 129.383Z" fill="white"/>
<path d="M79.048 129.383H64.2269C62.6389 129.383 61.3516 130.667 61.3516 132.252V134.933C61.3516 136.517 62.6389 137.802 64.2269 137.802H79.048C80.6361 137.802 81.9234 136.517 81.9234 134.933V132.252C81.9234 130.667 80.6361 129.383 79.048 129.383Z" fill="#FFC100"/>
<path opacity="0.3" d="M79.048 129.383H64.2269C62.6389 129.383 61.3516 130.667 61.3516 132.252V134.933C61.3516 136.517 62.6389 137.802 64.2269 137.802H79.048C80.6361 137.802 81.9234 136.517 81.9234 134.933V132.252C81.9234 130.667 80.6361 129.383 79.048 129.383Z" fill="white"/>
<path d="M105.293 129.383H90.472C88.884 129.383 87.5967 130.667 87.5967 132.252V134.933C87.5967 136.517 88.884 137.802 90.472 137.802H105.293C106.881 137.802 108.169 136.517 108.169 134.933V132.252C108.169 130.667 106.881 129.383 105.293 129.383Z" fill="#FFC100"/>
<path opacity="0.3" d="M105.293 129.383H90.472C88.884 129.383 87.5967 130.667 87.5967 132.252V134.933C87.5967 136.517 88.884 137.802 90.472 137.802H105.293C106.881 137.802 108.169 136.517 108.169 134.933V132.252C108.169 130.667 106.881 129.383 105.293 129.383Z" fill="white"/>
<path d="M131.534 129.383H116.713C115.125 129.383 113.838 130.667 113.838 132.252V134.933C113.838 136.517 115.125 137.802 116.713 137.802H131.534C133.122 137.802 134.41 136.517 134.41 134.933V132.252C134.41 130.667 133.122 129.383 131.534 129.383Z" fill="#FFC100"/>
<path opacity="0.3" d="M131.534 129.383H116.713C115.125 129.383 113.838 130.667 113.838 132.252V134.933C113.838 136.517 115.125 137.802 116.713 137.802H131.534C133.122 137.802 134.41 136.517 134.41 134.933V132.252C134.41 130.667 133.122 129.383 131.534 129.383Z" fill="white"/>
<path d="M103.132 47.687C102.119 50.5387 100.995 53.2967 99.8034 56.0547C98.597 58.8593 97.2127 61.5845 95.6591 64.2136C95.4498 64.5503 95.2319 64.8871 95.0055 65.2239L94.8388 65.4754L94.6124 65.7865C94.4586 65.9826 94.3133 66.1531 94.1851 66.3194C93.6468 66.9181 93.0763 67.4873 92.4762 68.0245C91.3354 69.0774 90.1733 70.0322 88.9984 70.9743C86.64 72.8414 84.2303 74.5891 81.7352 76.2473L80.2441 74.4015L86.5246 68.2248C87.5629 67.1975 88.5925 66.1616 89.5538 65.1258C90.0281 64.61 90.4895 64.0814 90.8697 63.5955C90.9637 63.4761 91.0449 63.3568 91.1175 63.2545L91.2072 63.1095L91.3312 62.8879C91.4978 62.5937 91.6729 62.3081 91.8353 62.0055C93.1427 59.5544 94.2962 56.8902 95.4071 54.1876C96.5179 51.4851 97.586 48.7612 98.6114 46.0586L103.132 47.687Z" fill="#E4897B"/>
<path d="M104.332 45.6325C105.302 48.4629 99.6023 56.788 99.6023 56.788L94.1592 53.7658C95.0867 51.1682 96.1827 48.6336 97.4404 46.1781C99.3459 42.5803 103.268 42.5249 104.332 45.6325Z" fill="#FFC100"/>
<path opacity="0.7" d="M104.332 45.6325C105.302 48.4629 99.6023 56.788 99.6023 56.788L94.1592 53.7658C95.0867 51.1682 96.1827 48.6336 97.4404 46.1781C99.3459 42.5803 103.268 42.5249 104.332 45.6325Z" fill="white"/>
<path opacity="0.31" d="M104.413 45.9858C103.191 45.4018 101.785 45.892 100.302 48.228C98.8199 50.5639 97.5596 54.4643 97.4229 55.5769L99.6061 56.7833C99.6061 56.7833 104.865 49.0933 104.413 45.9858Z" fill="#FFC100"/>
<path d="M100.644 43.4668C100.644 43.4668 96.577 53.0111 99.5079 70.7824H116.448C116.658 68.1864 115.461 55.5304 118.396 43.3048C116.532 42.9426 114.645 42.7034 112.748 42.5887C110.351 42.4522 107.947 42.4522 105.549 42.5887C103.894 42.7564 102.255 43.0499 100.644 43.4668Z" fill="#FFC100"/>
<path opacity="0.7" d="M100.644 43.4668C100.644 43.4668 96.577 53.0111 99.5079 70.7824H116.448C116.658 68.1864 115.461 55.5304 118.396 43.3048C116.532 42.9426 114.645 42.7034 112.748 42.5887C110.351 42.4522 107.947 42.4522 105.549 42.5887C103.894 42.7564 102.255 43.0499 100.644 43.4668Z" fill="white"/>
<path d="M122.447 146.497L119.939 148.739L115.158 143.777L117.67 141.535L122.447 146.497Z" fill="#E4897B"/>
<path d="M113.847 151.165H110.681L110.271 143.846H113.436L113.847 151.165Z" fill="#E4897B"/>
<path d="M115.162 143.777L117.623 146.335L120.135 144.093L117.674 141.535L115.162 143.777Z" fill="#CE6F64"/>
<path d="M113.436 143.85H110.271L110.484 147.623H113.65L113.436 143.85Z" fill="#CE6F64"/>
<path d="M99.5081 70.7823C99.5081 70.7823 96.1713 93.8267 95.0348 106.368C94.1205 116.432 115.931 146.437 115.931 146.437L120.148 142.477C120.148 142.477 104.221 115.575 105.447 104.373C106.635 93.524 110.659 70.7695 110.659 70.7695L99.5081 70.7823Z" fill="#FFC100"/>
<path opacity="0.7" d="M99.5081 70.7823C99.5081 70.7823 96.1713 93.8267 95.0348 106.368C94.1205 116.432 115.931 146.437 115.931 146.437L120.148 142.477C120.148 142.477 104.221 115.575 105.447 104.373C106.635 93.524 110.659 70.7695 110.659 70.7695L99.5081 70.7823Z" fill="black"/>
<path opacity="0.2" d="M105.448 104.385C106.059 98.797 107.426 90.0414 108.601 82.8715C107.985 81.6694 106.259 79.2354 106.259 79.2354C104.713 84.568 101.35 104.671 106.148 131.82C111.147 139.86 115.932 146.45 115.932 146.45L116.586 136.083C111.967 127.413 104.597 112.131 105.448 104.385Z" fill="black"/>
<path d="M105.532 70.7827C105.532 70.7827 105.233 94.9311 105.746 103.981C106.305 113.887 109.125 146.711 109.125 146.711H114.927C114.927 146.711 114.752 114.689 115.094 104.885C115.474 94.2278 116.457 70.7827 116.457 70.7827H105.532Z" fill="#FFC100"/>
<path opacity="0.7" d="M105.532 70.7827C105.532 70.7827 105.233 94.9311 105.746 103.981C106.305 113.887 109.125 146.711 109.125 146.711H114.927C114.927 146.711 114.752 114.689 115.094 104.885C115.474 94.2278 116.457 70.7827 116.457 70.7827H105.532Z" fill="black"/>
<path d="M110.515 150.802H114.074C114.133 150.8 114.191 150.821 114.235 150.861C114.279 150.901 114.306 150.956 114.309 151.016L114.484 153.825C114.485 153.898 114.471 153.971 114.443 154.039C114.415 154.107 114.375 154.169 114.323 154.221C114.272 154.273 114.21 154.315 114.142 154.343C114.075 154.372 114.002 154.387 113.929 154.387C112.69 154.366 112.096 154.294 110.532 154.294C109.571 154.294 105.478 154.396 104.149 154.396C102.82 154.396 102.867 153.083 103.418 152.964C105.943 152.431 109.075 151.685 109.972 150.994C110.127 150.872 110.318 150.805 110.515 150.802Z" fill="#263238"/>
<path d="M119.247 147.844L122.298 145.793C122.347 145.754 122.409 145.732 122.473 145.732C122.536 145.732 122.598 145.754 122.648 145.793L124.981 148.142C125.026 148.194 125.06 148.255 125.079 148.321C125.098 148.387 125.103 148.456 125.092 148.524C125.082 148.592 125.056 148.657 125.018 148.714C124.979 148.771 124.929 148.819 124.87 148.854C122.921 150.35 121.516 151.48 120.405 152.725C119.123 154.178 118.431 154.387 115.44 154.387C114.056 154.387 113.274 153.223 113.838 153.044C118.82 151.471 117.487 150.785 118.7 148.479C118.827 148.225 119.015 148.007 119.247 147.844Z" fill="#263238"/>
<path d="M80.9618 74.0049L77.6592 74.12L78.3513 76.7032C78.3513 76.7032 81.8035 77.0101 82.1111 75.97L80.9618 74.0049Z" fill="#E4897B"/>
<path d="M74.0957 75.659L76.4114 77.006L78.3511 76.7033L77.6589 74.1201L74.0957 75.659Z" fill="#E4897B"/>
<path opacity="0.31" d="M114.612 46.3225C114.261 48.3345 114.727 53.1429 116.457 58.71C116.593 53.9403 117.149 49.1918 118.119 44.5194V44.4938C117.008 44.383 114.949 44.4341 114.612 46.3225Z" fill="#FFC100"/>
<path d="M112.317 34.4985C111.783 36.8089 111.181 41.0461 112.744 42.5977C112.744 42.5977 112.069 44.5117 107.763 44.5117C103.029 44.5117 105.545 42.5977 105.545 42.5977C108.151 41.9839 108.151 40.0699 107.763 38.2753L112.317 34.4985Z" fill="#E4897B"/>
<path d="M107.643 44.5024L106.361 45.8623L106.989 47.1752L108.011 47.2221L108.882 45.9688L107.643 44.5024Z" fill="#FFC100"/>
<path d="M110.463 36.0371L107.768 38.2623C107.865 38.6825 107.925 39.1104 107.947 39.5411C108.938 39.4004 110.331 38.3177 110.472 37.2861C110.547 36.8729 110.545 36.4492 110.463 36.0371Z" fill="#CE6F64"/>
<path d="M106.699 26.6635C105.08 27.2134 103.786 31.4975 105.674 32.6314C107.562 33.7652 109.776 25.6192 106.699 26.6635Z" fill="#263238"/>
<path d="M113.33 32.0765C112.364 35.0604 111.954 36.8635 110.006 38.087C109.377 38.49 108.65 38.7139 107.904 38.7344C107.157 38.755 106.419 38.5714 105.769 38.2036C105.119 37.8357 104.582 37.2976 104.217 36.6475C103.851 35.9973 103.671 35.2598 103.696 34.5148C103.734 31.646 105.306 27.2298 108.617 26.6756C109.331 26.5382 110.068 26.5902 110.755 26.8265C111.443 27.0628 112.055 27.475 112.533 28.0219C113.01 28.5689 113.335 29.2313 113.475 29.9429C113.615 30.6544 113.565 31.3902 113.33 32.0765Z" fill="#E4897B"/>
<path d="M115.723 27.0894C114.757 29.4169 117.005 27.473 116.424 30.2353C116.048 32.0342 112.792 36.3438 111.536 35.9516C110.28 35.5595 110.293 32.5031 111.895 30.3419C112.818 29.1014 110.822 27.6947 106.341 27.8439C101.859 27.9931 99.1501 25.4781 105.106 23.6323C105.106 23.6323 102.91 24.9111 104.213 25.3374C106.059 26.0237 117.658 22.426 115.723 27.0894Z" fill="#263238"/>
<path d="M114.868 28.1548C114.821 28.1548 115.872 27.8948 116.431 26.0234C116.431 26.0533 116.248 28.8113 114.868 28.1548Z" fill="#263238"/>
<path d="M106.481 24.0459C103.725 24.8984 104.866 25.8576 106.007 26.0963L108.622 25.0732C104.648 25.5975 106.481 24.0459 106.481 24.0459Z" fill="#263238"/>
<path d="M113.859 35.7217C113.286 36.2773 112.522 36.593 111.723 36.6041C110.667 36.6041 110.441 35.6066 111.009 34.7711C111.513 34.0209 112.667 33.1172 113.598 33.5221C114.53 33.9271 114.56 35.0354 113.859 35.7217Z" fill="#E4897B"/>
<path d="M108.463 31.9111C108.399 32.1583 108.215 32.3374 108.036 32.2948C107.856 32.2521 107.792 32.0262 107.856 31.779C107.92 31.5317 108.104 31.3527 108.284 31.3996C108.463 31.4465 108.527 31.6639 108.463 31.9111Z" fill="#263238"/>
<path d="M105.644 31.2922C105.58 31.5395 105.396 31.7185 105.216 31.6759C105.037 31.6332 104.973 31.4116 105.037 31.1643C105.101 30.9171 105.28 30.7381 105.464 30.7807C105.648 30.8233 105.695 31.045 105.644 31.2922Z" fill="#263238"/>
<path d="M106.507 31.6123C106.021 32.3025 105.447 32.9259 104.798 33.4666C104.941 33.6248 105.116 33.7499 105.313 33.8331C105.509 33.9163 105.721 33.9556 105.934 33.9483L106.507 31.6123Z" fill="#DE5753"/>
<path d="M106.976 34.8472C106.799 34.847 106.623 34.827 106.451 34.7875C106.432 34.7825 106.415 34.7704 106.405 34.7538C106.395 34.7372 106.391 34.7172 106.395 34.698C106.4 34.6791 106.412 34.6628 106.429 34.6525C106.446 34.6422 106.466 34.6387 106.485 34.6426C106.799 34.7125 107.126 34.7105 107.44 34.6367C107.753 34.5628 108.046 34.4191 108.296 34.2163C108.311 34.2025 108.33 34.1948 108.35 34.1948C108.37 34.1948 108.389 34.2025 108.403 34.2163C108.417 34.2306 108.425 34.2497 108.425 34.2696C108.425 34.2895 108.417 34.3086 108.403 34.3229C108.006 34.6637 107.5 34.8499 106.976 34.8472Z" fill="#263238"/>
<path d="M109.582 31.1984C109.553 31.1989 109.525 31.1907 109.5 31.1747C109.476 31.1587 109.457 31.1358 109.446 31.1089C109.375 30.9379 109.265 30.7863 109.124 30.6668C108.982 30.5474 108.814 30.4636 108.634 30.4226C108.614 30.42 108.595 30.4135 108.578 30.4035C108.561 30.3935 108.546 30.3801 108.534 30.3642C108.522 30.3484 108.513 30.3303 108.508 30.311C108.504 30.2918 108.503 30.2717 108.506 30.2521C108.512 30.2129 108.533 30.1776 108.565 30.1537C108.597 30.1299 108.637 30.1193 108.677 30.1242C108.907 30.171 109.122 30.2731 109.304 30.4217C109.485 30.5703 109.628 30.7608 109.719 30.9768C109.727 30.9946 109.732 31.014 109.733 31.0337C109.733 31.0534 109.73 31.073 109.723 31.0913C109.716 31.1097 109.705 31.1264 109.691 31.1404C109.677 31.1544 109.66 31.1655 109.642 31.1729C109.624 31.1857 109.604 31.1944 109.582 31.1984Z" fill="#263238"/>
<path d="M104.691 30.0694C104.657 30.0691 104.623 30.0571 104.597 30.0353C104.566 30.0096 104.547 29.9729 104.543 29.9331C104.539 29.8932 104.551 29.8534 104.576 29.8222C104.726 29.6353 104.918 29.4855 105.135 29.3842C105.353 29.2829 105.591 29.233 105.832 29.2382C105.851 29.2398 105.87 29.2452 105.888 29.2543C105.905 29.2633 105.921 29.2757 105.934 29.2908C105.946 29.3058 105.956 29.3232 105.962 29.342C105.968 29.3608 105.97 29.3805 105.968 29.4001C105.967 29.42 105.962 29.4394 105.953 29.4572C105.944 29.4749 105.932 29.4907 105.917 29.5035C105.902 29.5163 105.884 29.5258 105.865 29.5315C105.846 29.5372 105.826 29.5389 105.806 29.5365C105.614 29.5345 105.424 29.5765 105.25 29.6593C105.077 29.7421 104.925 29.8634 104.806 30.014C104.793 30.0314 104.775 30.0454 104.755 30.055C104.735 30.0647 104.713 30.0696 104.691 30.0694Z" fill="#263238"/>
<path d="M119.218 45.4829C119.551 45.9987 119.829 46.4548 120.111 46.9493C120.393 47.4438 120.662 47.9212 120.927 48.4157C121.448 49.4004 121.94 50.4064 122.388 51.4337C123.329 53.5368 124.036 55.7368 124.495 57.994L124.537 58.2114L124.559 58.318L124.589 58.497C124.625 58.7355 124.644 58.9763 124.644 59.2174C124.64 59.6213 124.597 60.0238 124.516 60.4195C124.371 61.0722 124.162 61.709 123.892 62.3207C123.413 63.3925 122.841 64.4208 122.183 65.3941C120.941 67.245 119.527 68.976 117.962 70.5648L116.104 69.0771C117.138 67.2783 118.167 65.4112 119.03 63.5825C119.455 62.7079 119.817 61.8049 120.115 60.8799C120.237 60.4941 120.32 60.0971 120.363 59.6949C120.378 59.5631 120.378 59.4302 120.363 59.2984C120.363 59.2601 120.363 59.226 120.338 59.2217C120.312 59.2174 120.338 59.2217 120.338 59.2004L120.312 59.1151L120.261 58.9404C119.991 58.0001 119.67 57.0752 119.299 56.1696C118.923 55.2446 118.505 54.3238 118.065 53.4073C117.625 52.4909 117.15 51.5872 116.663 50.6835C116.424 50.2316 116.172 49.784 115.92 49.3407L115.168 48.0619L119.218 45.4829Z" fill="#E4897B"/>
<path d="M109.395 151.348C109.181 151.37 108.968 151.31 108.796 151.182C108.748 151.129 108.714 151.064 108.698 150.994C108.681 150.924 108.683 150.851 108.702 150.781C108.712 150.735 108.733 150.691 108.763 150.655C108.794 150.618 108.833 150.59 108.878 150.572C109.266 150.419 110.159 151.033 110.262 151.101C110.275 151.109 110.284 151.12 110.29 151.134C110.295 151.148 110.296 151.163 110.292 151.178C110.29 151.192 110.283 151.205 110.273 151.216C110.263 151.227 110.25 151.234 110.236 151.237C109.96 151.304 109.678 151.341 109.395 151.348ZM109.023 150.696C108.993 150.691 108.963 150.691 108.933 150.696C108.911 150.704 108.892 150.718 108.878 150.736C108.864 150.754 108.855 150.775 108.852 150.798C108.836 150.843 108.833 150.891 108.842 150.937C108.851 150.984 108.872 151.027 108.903 151.063C109.049 151.208 109.463 151.225 110.031 151.114C109.729 150.905 109.385 150.764 109.023 150.7V150.696Z" fill="white"/>
<path d="M110.219 151.241H110.181C109.865 151.054 109.395 150.389 109.467 150.048C109.48 149.985 109.514 149.929 109.562 149.888C109.611 149.847 109.673 149.824 109.737 149.822C109.793 149.815 109.85 149.82 109.904 149.838C109.958 149.856 110.008 149.885 110.049 149.924C110.369 150.235 110.296 151.143 110.296 151.182C110.295 151.195 110.29 151.207 110.283 151.217C110.275 151.227 110.265 151.236 110.254 151.241H110.219ZM109.792 149.963H109.758C109.651 149.963 109.626 150.027 109.617 150.069C109.57 150.295 109.882 150.794 110.155 151.024C110.195 150.678 110.123 150.329 109.95 150.027C109.929 150.006 109.903 149.989 109.876 149.978C109.848 149.967 109.818 149.962 109.788 149.963H109.792Z" fill="white"/>
<path d="M117.196 149.558C117.117 149.56 117.038 149.546 116.965 149.515C116.909 149.493 116.859 149.457 116.82 149.411C116.78 149.365 116.752 149.31 116.739 149.251C116.728 149.215 116.727 149.177 116.735 149.14C116.743 149.104 116.761 149.07 116.786 149.042C117.072 148.697 118.572 148.799 118.743 148.812C118.759 148.813 118.774 148.818 118.786 148.828C118.799 148.838 118.807 148.852 118.811 148.867C118.814 148.883 118.813 148.899 118.807 148.913C118.801 148.928 118.79 148.94 118.777 148.948C118.3 149.262 117.761 149.47 117.196 149.558ZM118.102 148.936C117.576 148.936 117.025 148.987 116.901 149.136C116.894 149.148 116.89 149.161 116.89 149.174C116.89 149.188 116.894 149.201 116.901 149.213C116.908 149.25 116.925 149.284 116.948 149.313C116.972 149.342 117.003 149.365 117.038 149.379C117.277 149.477 117.815 149.315 118.495 148.953L118.102 148.936Z" fill="white"/>
<path d="M118.739 148.961C118.311 148.961 117.35 148.633 117.277 148.292C117.277 148.207 117.277 148.087 117.482 147.989C118.217 147.644 118.786 148.804 118.811 148.842C118.816 148.854 118.819 148.867 118.819 148.88C118.819 148.894 118.816 148.907 118.811 148.919C118.804 148.932 118.794 148.943 118.781 148.95C118.768 148.958 118.753 148.962 118.739 148.961ZM117.752 148.079C117.679 148.078 117.607 148.094 117.542 148.126C117.453 148.168 117.41 148.215 117.418 148.258C117.461 148.458 118.153 148.74 118.606 148.799C118.469 148.569 118.14 148.079 117.752 148.079Z" fill="white"/>
<path d="M116.948 68.3868L113.812 67.8369L115.432 71.4816C115.432 71.4816 118.307 71.4816 118.179 69.9811L116.948 68.3868Z" fill="#E4897B"/>
<path d="M111.441 69.6656L112.924 72.6112L115.415 71.4773L113.796 67.8369L111.441 69.6656Z" fill="#E4897B"/>
<path d="M120.405 142.247L115.676 146.693L114.15 145.06L119.564 140.141L120.405 142.247Z" fill="#FFC100"/>
<path opacity="0.6" d="M120.405 142.247L115.676 146.693L114.15 145.06L119.564 140.141L120.405 142.247Z" fill="white"/>
<path d="M115.159 146.71H108.891L108.545 144.515L115.462 144.856L115.159 146.71Z" fill="#FFC100"/>
<path opacity="0.6" d="M115.159 146.71H108.891L108.545 144.515L115.462 144.856L115.159 146.71Z" fill="white"/>
<path d="M118.397 43.305C121.388 43.7313 124.451 54.0983 124.451 54.0983L118.042 57.6449C118.042 57.6449 115.441 52.7172 114.197 49.0597C112.894 45.2275 115.197 42.8361 118.397 43.305Z" fill="#FFC100"/>
<path opacity="0.7" d="M118.397 43.305C121.388 43.7313 124.451 54.0983 124.451 54.0983L118.042 57.6449C118.042 57.6449 115.441 52.7172 114.197 49.0597C112.894 45.2275 115.197 42.8361 118.397 43.305Z" fill="white"/>
<path opacity="0.2" d="M107.643 44.5024L106.361 45.8623L106.989 47.1752L108.011 47.2221L108.882 45.9688L107.643 44.5024Z" fill="black"/>
<path d="M107.101 46.9409C107.101 46.9409 104.67 56.9882 104.576 59.0769C104.443 61.95 105.648 66.8564 105.648 66.8564C105.648 66.8564 107.357 62.777 107.707 58.9874C108.058 55.1978 107.797 49.068 107.955 46.9409H107.101Z" fill="#FFC100"/>
<path opacity="0.2" d="M107.101 46.9409C107.101 46.9409 104.67 56.9882 104.576 59.0769C104.443 61.95 105.648 66.8564 105.648 66.8564C105.648 66.8564 107.357 62.777 107.707 58.9874C108.058 55.1978 107.797 49.068 107.955 46.9409H107.101Z" fill="black"/>
<path d="M107.643 44.5023C108.129 45.2887 108.411 46.184 108.463 47.1069C108.463 47.1069 113.795 45.2313 113.543 42.4818C113.543 42.4818 112.787 42.0342 112.308 41.6719C112.308 41.6719 112.129 43.4025 107.643 44.5023Z" fill="#FFC100"/>
<path opacity="0.6" d="M107.643 44.5023C108.129 45.2887 108.411 46.184 108.463 47.1069C108.463 47.1069 113.795 45.2313 113.543 42.4818C113.543 42.4818 112.787 42.0342 112.308 41.6719C112.308 41.6719 112.129 43.4025 107.643 44.5023Z" fill="white"/>
<path d="M107.643 44.5026C107.153 45.247 106.8 46.0727 106.6 46.9409C106.6 46.9409 104.186 45.3125 104.913 42.5972C105.355 42.4193 105.811 42.2768 106.276 42.1709C106.276 42.1709 105.959 43.9271 107.643 44.5026Z" fill="#FFC100"/>
<path opacity="0.6" d="M107.643 44.5026C107.153 45.247 106.8 46.0727 106.6 46.9409C106.6 46.9409 104.186 45.3125 104.913 42.5972C105.355 42.4193 105.811 42.2768 106.276 42.1709C106.276 42.1709 105.959 43.9271 107.643 44.5026Z" fill="white"/>
</g>
<defs>
<clipPath id="clip0_2216_234252">
<rect width="167.48" height="159" fill="white" transform="translate(0.165039)"/>
</clipPath>
</defs>
</svg>
