<svg width="170" height="159" viewBox="0 0 170 159" fill="none" xmlns="http://www.w3.org/2000/svg">
<path d="M5.3623 117.237L25.4907 116.996L45.6167 116.905L85.8686 116.734L126.121 116.905L146.247 116.996L166.375 117.237L146.247 117.489L126.121 117.569L85.8686 117.74L45.6167 117.569L25.4907 117.479L5.3623 117.237Z" fill="#263238"/>
<path d="M87.3782 145.918C131.563 145.918 167.381 141.412 167.381 135.854C167.381 130.297 131.563 125.791 87.3782 125.791C43.1936 125.791 7.375 130.297 7.375 135.854C7.375 141.412 43.1936 145.918 87.3782 145.918Z" fill="#EBEBEB"/>
<path d="M50.1802 139.1C49.4393 139.342 28.3304 139.068 27.5354 138.547C27.2174 138.353 27.0871 135.274 27.0266 131.551V131.433C27.0107 130.667 27.0012 129.875 27.0012 129.077C27.0012 128.965 27.0012 128.854 27.0012 128.759C26.9694 123.384 27.0553 117.807 27.0553 117.807L41.1745 117.947L40.7515 128.79L40.7356 129.22L40.6498 131.465V131.697C40.6498 131.697 48.6824 135.414 49.4997 136.079C50.317 136.744 50.9275 138.865 50.1802 139.1Z" fill="#DD6A57"/>
<path d="M43.8367 133.134C43.7827 133.118 43.7542 133.099 43.751 133.083L43.8367 133.134Z" fill="#FFC727"/>
<path d="M50.1779 139.1C49.4402 139.338 28.3313 139.068 27.5332 138.543C27.2629 138.375 27.1198 135.923 27.0498 132.765C30.9167 133.573 45.9072 136.603 46.3174 135.309C46.4796 134.807 45.1981 133.935 44.3872 133.442C46.6132 134.498 49.0554 135.707 49.4752 136.063C50.2924 136.74 50.9284 138.864 50.1779 139.1Z" fill="#FFC727"/>
<path opacity="0.1" d="M36.9361 139.068C32.1852 138.953 27.9018 138.775 27.5488 138.543C27.2785 138.375 27.1354 135.923 27.0654 132.765C27.6156 132.876 28.3883 133.039 29.3137 133.223L36.9361 139.068Z" fill="black"/>
<path d="M22.7217 56.989C22.7217 56.989 25.9017 92.6591 26.4073 95.3811C26.525 96.0012 26.6013 99.372 26.649 103.703C26.7571 113.161 26.6935 130.212 26.6935 130.212H41.5727C41.5727 130.212 41.1307 100.666 40.4724 95.2317C39.8142 89.7971 35.6039 56.9922 35.6039 56.9922L22.7217 56.989Z" fill="#37474F"/>
<path d="M40.8982 127.62C38.5768 127.572 39.2446 127.553 36.9232 127.531C35.7879 127.531 28.3181 127.455 27.256 127.63C27.2337 127.63 27.2337 127.674 27.256 127.677C28.3181 127.852 35.7879 127.789 36.9232 127.776C39.2446 127.754 38.5768 127.734 40.8982 127.687C40.9053 127.685 40.9115 127.68 40.9159 127.674C40.9203 127.668 40.9227 127.661 40.9227 127.653C40.9227 127.646 40.9203 127.639 40.9159 127.633C40.9115 127.627 40.9053 127.622 40.8982 127.62Z" fill="#263238"/>
<path d="M29.52 110.728L29.4723 104.253C29.4564 102.164 29.4723 100.072 29.361 97.9824C29.1574 93.7562 28.2988 89.5968 27.6915 85.4183C27.0841 81.2397 26.5721 77.0358 26.1015 72.835C25.5831 68.1222 25.1252 63.3999 24.6418 58.684C24.6418 58.6522 24.5878 58.6522 24.591 58.684C25.2937 67.1078 26.076 75.538 27.2399 83.9014C27.5325 85.9832 27.8505 88.0619 28.1939 90.1374C28.5437 92.2362 28.8871 94.3382 29.0525 96.4624C29.2179 98.5866 29.2433 100.625 29.2624 102.711L29.3292 109.179C29.3737 113.971 29.4214 121.346 29.4659 126.135C29.4659 126.154 29.4736 126.173 29.4873 126.187C29.501 126.2 29.5196 126.208 29.539 126.208C29.5584 126.208 29.577 126.2 29.5908 126.187C29.6045 126.173 29.6122 126.154 29.6122 126.135C29.5836 121.858 29.5518 115.002 29.52 110.728Z" fill="#263238"/>
<path d="M19.583 56.989C19.583 56.989 25.8889 92.6591 26.4073 95.3811C26.5249 96.0013 26.6013 99.372 26.649 103.703L33.7563 56.989H19.583Z" fill="#263238"/>
<path d="M32.901 140.359C32.1473 140.547 11.1084 138.769 10.3516 138.2C10.0622 137.987 10.1385 134.905 10.3516 131.204C10.3516 131.166 10.3516 131.124 10.3516 131.086C10.3929 130.32 10.4375 129.531 10.4947 128.733C10.4947 128.622 10.4947 128.514 10.5138 128.415C10.8636 123.054 11.3438 117.495 11.3438 117.495L25.4153 118.614L24.2164 129.398L24.1719 129.827L23.927 132.053L23.8984 132.288C23.8984 132.288 31.6481 136.565 32.4144 137.287C33.1808 138.009 33.6578 140.178 32.901 140.359Z" fill="#DD6A57"/>
<path d="M32.8998 140.359C32.1429 140.547 11.1104 138.769 10.3504 138.2C10.1023 138.018 10.1214 135.742 10.2613 132.768C13.5177 133.601 29.2205 137.538 29.7039 136.266C29.8024 135.99 29.4685 135.583 29.017 135.185C30.6451 136.139 32.1111 137.007 32.4259 137.3C33.1828 138.012 33.6534 140.175 32.8998 140.359Z" fill="#FFC727"/>
<path d="M24.5345 131.016L9.66797 130.38C9.66797 130.38 13.7256 97.7598 13.802 95.7533C13.9133 92.7736 15.3411 80.4702 16.5431 70.5104C16.5431 70.5104 14.2662 65.1044 18.5274 56.97H35.6104C35.6104 56.97 34.4656 64.7228 32.5035 69.6391C31.1873 70.0987 29.9162 70.6789 28.7066 71.3722C28.7066 71.3722 27.0053 93.5813 26.9417 96.3511C26.8241 101.833 24.5345 131.016 24.5345 131.016Z" fill="#37474F"/>
<path d="M24.1425 128.291C21.8275 128.145 22.4921 128.154 20.1739 128.033C19.0386 127.973 11.5879 127.594 10.513 127.715C10.4908 127.715 10.4876 127.757 10.513 127.76C11.5656 127.982 19.0291 128.234 20.1643 128.272C22.4857 128.348 21.8179 128.3 24.1425 128.348C24.1838 128.361 24.187 128.294 24.1425 128.291Z" fill="#263238"/>
<path d="M19.659 57.7045C18.7782 59.6125 17.9577 61.6191 17.6493 63.7115C17.4261 65.956 17.6764 68.2223 18.3839 70.3641C18.3839 70.3641 18.2598 72.1226 18.1263 73.2451C17.9927 74.3677 17.8623 75.5029 17.732 76.6318C17.4712 78.913 17.2083 81.1941 16.9433 83.4752C16.4218 88.012 15.9013 92.552 15.3819 97.0951C14.8625 101.638 14.3484 106.179 13.8396 110.718C13.334 115.247 12.7934 119.772 12.345 124.306C12.2878 124.872 12.2337 125.435 12.1797 126.001C12.1797 126.055 12.2719 126.068 12.2783 126.001C12.8825 121.476 13.3976 116.942 13.9382 112.407C14.4788 107.872 14.9972 103.379 15.5282 98.8632C16.0593 94.3476 16.5808 89.7875 17.1023 85.2465C17.6175 80.7722 18.1962 76.2979 18.6383 71.8173C18.6905 71.2986 18.7033 70.7766 18.6764 70.2559C18.6764 70.2559 17.7224 67.0759 17.8401 65.0153C17.9577 62.8624 18.4761 61.2279 19.2425 59.2468C19.4333 58.7507 19.6336 58.2546 19.8244 57.7617C19.8626 57.6759 19.7036 57.6123 19.659 57.7045Z" fill="#263238"/>
<path d="M33.1584 69.3244C31.6168 69.8831 30.1271 70.5758 28.7064 71.3945C28.6957 71.4009 28.6877 71.411 28.684 71.4229C28.6802 71.4348 28.681 71.4477 28.6861 71.459C28.6912 71.4704 28.7003 71.4795 28.7117 71.4846C28.723 71.4897 28.7359 71.4905 28.7478 71.4868C30.2455 70.8508 31.7719 70.2148 33.2347 69.5024C33.2538 69.4896 33.2678 69.4706 33.2743 69.4485C33.2808 69.4265 33.2795 69.4029 33.2704 69.3818C33.2614 69.3607 33.2452 69.3434 33.2248 69.3329C33.2043 69.3224 33.1809 69.3194 33.1584 69.3244Z" fill="#263238"/>
<path d="M31.065 66.8342C31.2113 65.9407 31.3321 65.0439 31.4084 64.144C31.5638 62.4654 31.5457 60.7753 31.3544 59.1005C31.3518 59.0911 31.3462 59.0828 31.3384 59.0769C31.3307 59.071 31.3212 59.0678 31.3114 59.0678C31.3017 59.0678 31.2922 59.071 31.2844 59.0769C31.2767 59.0828 31.2711 59.0911 31.2685 59.1005C31.3064 61.4288 31.1703 63.7567 30.8615 66.0647C30.6929 67.1745 30.1332 68.844 31.2939 69.0126C32.4546 69.1811 33.2401 66.3922 33.3832 65.6258C33.7529 63.4466 33.8373 61.2284 33.6344 59.0273C33.6344 58.9733 33.539 58.9637 33.539 59.0273C33.5391 60.6989 33.4553 62.3695 33.2878 64.0327C33.2178 64.8054 32.5977 69.0698 31.259 68.7582C31.0364 68.7041 30.9219 68.4847 30.8869 68.1476C30.8927 67.7063 30.9525 67.2674 31.065 66.8406" fill="#263238"/>
<path d="M31.2978 68.8661C31.1728 69.1536 31.0666 69.4489 30.9798 69.7502C30.8933 69.9819 30.8512 70.2279 30.8558 70.4752C30.8558 70.5229 30.9226 70.5293 30.948 70.4975C31.0894 70.2786 31.1966 70.0395 31.266 69.7883C31.3678 69.5149 31.4759 69.2446 31.584 68.9679C31.5907 68.9491 31.5936 68.9292 31.5926 68.9093C31.5916 68.8893 31.5867 68.8698 31.5781 68.8518C31.5695 68.8338 31.5575 68.8176 31.5427 68.8043C31.5279 68.7909 31.5106 68.7806 31.4918 68.7739C31.473 68.7672 31.4531 68.7643 31.4332 68.7653C31.4133 68.7664 31.3937 68.7713 31.3757 68.7798C31.3577 68.7884 31.3416 68.8004 31.3282 68.8152C31.3148 68.8301 31.3045 68.8473 31.2978 68.8661Z" fill="#263238"/>
<path d="M26.4421 25.9937C23.6755 28.366 24.4451 31.8258 23.2907 33.7052C22.5816 34.8532 20.2793 36.0648 19.8213 37.3877C19.0709 39.5596 20.9121 40.3419 20.4987 41.5217C19.9167 43.1975 17.6748 43.0671 17.271 45.8051C16.8671 48.5431 19.8818 51.456 27.0304 52.2446C34.179 53.0333 38.1095 50.4161 38.3639 48.0915C38.6183 45.767 36.2429 44.9942 36.0807 43.2611C35.9789 42.1513 37.4449 41.3817 37.5212 39.3402C37.5975 37.2986 35.6132 36.6372 35.3207 34.9041C35.0281 33.171 35.9567 28.9607 33.4127 26.811C30.8687 24.6613 27.819 24.8203 26.4421 25.9937Z" fill="#263238"/>
<path d="M26.7597 26.054C25.9855 26.6032 25.355 27.3307 24.9216 28.1751C24.4737 29.0695 24.1312 30.0128 23.9008 30.9862C23.7794 31.5662 23.5927 32.1305 23.3443 32.6684C23.1009 33.1175 22.7776 33.5184 22.3903 33.8514C21.6176 34.551 20.6954 35.0821 19.999 35.8707C19.3026 36.6593 18.8319 37.6102 19.0927 38.6246C19.2358 39.1779 19.6015 39.6263 19.8273 40.1415C20.053 40.6566 20.1262 41.2354 19.7064 41.6424C19.3503 41.989 18.8319 42.148 18.4344 42.431C18.0342 42.7094 17.6819 43.0509 17.3914 43.4423C17.0962 43.8297 16.8852 44.2745 16.7718 44.7481C16.6585 45.2218 16.6453 45.7139 16.7331 46.193C17.1561 48.419 19.2421 49.691 21.1851 50.4764L21.9928 50.7944C22.0342 50.8103 22.0692 50.7499 22.0278 50.7309C20.0944 49.8659 17.8493 48.8515 17.1084 46.6891C16.9384 46.2196 16.8787 45.7173 16.9338 45.221C16.9889 44.7247 17.1575 44.2478 17.4264 43.8271C17.6997 43.4097 18.0467 43.0455 18.4503 42.7522C18.8383 42.4629 19.2867 42.2879 19.6842 42.0145C19.8801 41.89 20.0395 41.7158 20.1462 41.5097C20.2528 41.3036 20.303 41.0729 20.2915 40.841C20.2293 40.3364 20.0484 39.8536 19.7637 39.4323C19.4643 38.9904 19.3058 38.4683 19.3089 37.9345C19.3662 37.4144 19.5641 36.9197 19.8813 36.5035C20.4823 35.6513 21.3727 35.0948 22.1709 34.4492C22.9891 33.8487 23.5985 33.0068 23.9136 32.042C24.0598 31.53 24.1521 31.0053 24.2793 30.4901C24.3968 30.0121 24.5401 29.5408 24.7086 29.0782C25.0241 28.1469 25.5397 27.296 26.2191 26.5851C26.4002 26.4053 26.5983 26.2434 26.8105 26.1017C26.8201 26.0763 26.7978 26.0381 26.7597 26.054Z" fill="#263238"/>
<path d="M38.6917 46.3869C38.6068 46.0097 38.4419 45.6551 38.2084 45.347C37.9603 45.029 37.6582 44.7651 37.3816 44.4757C37.1016 44.2183 36.899 43.8879 36.7965 43.5217C36.7521 43.0737 36.8645 42.6242 37.1145 42.2497C37.3547 41.8492 37.5672 41.4327 37.7505 41.0031C37.9082 40.5755 37.9994 40.1261 38.0208 39.6707C38.0603 38.7317 37.8093 37.8034 37.3021 37.0122C37.0572 36.6116 36.7837 36.2331 36.5389 35.8356C36.2651 35.4032 36.0512 34.9358 35.9029 34.446C35.5849 33.3711 35.5117 32.22 35.2478 31.1451C34.971 30.0167 34.5777 28.9201 34.0744 27.8729C34.0744 27.8475 34.0235 27.8729 34.0362 27.8952C34.476 28.8335 34.8171 29.8151 35.0538 30.824C35.2796 31.778 35.3718 32.7574 35.5372 33.7241C35.6114 34.1993 35.7329 34.6659 35.8997 35.117C36.0751 35.5339 36.288 35.9341 36.5357 36.3126C37.0191 37.1013 37.5183 37.8772 37.6519 38.8121C37.7849 39.7309 37.6234 40.6683 37.1908 41.4897C36.8155 42.1988 36.2877 42.9811 36.6152 43.8143C36.895 44.5202 37.5692 44.9432 38.0112 45.5251C38.2468 45.8466 38.4118 46.2141 38.4957 46.6037C38.5795 46.9933 38.5802 47.3962 38.4978 47.7861C38.1098 49.7863 36.1064 50.7816 34.227 50.8802C34.2168 50.8829 34.2079 50.8889 34.2014 50.8972C34.195 50.9056 34.1915 50.9158 34.1915 50.9263C34.1915 50.9369 34.195 50.9471 34.2014 50.9554C34.2079 50.9638 34.2168 50.9697 34.227 50.9724C35.8584 50.9534 37.636 50.2347 38.4024 48.7051C38.7644 47.9892 38.8667 47.1698 38.6917 46.3869Z" fill="#263238"/>
<path d="M30.5766 43.1276C31.5942 45.8115 36.3642 55.5996 39.9449 56.3659C43.9485 57.2214 51.7109 54.1399 56.7035 51.9903C58.497 51.2143 54.1213 45.0261 52.1497 44.3042C50.9668 43.8685 42.7338 48.1202 40.9116 48.1202C39.8845 48.1202 37.5694 44.3392 32.9903 40.7712C30.4844 38.7964 29.2092 39.5183 30.5766 43.1276Z" fill="#DD6A57"/>
<path d="M55.4406 52.3621C56.5123 52.0441 62.5606 50.2983 63.7786 49.5001C64.9965 48.7019 68.326 46.0816 67.7949 45.0862C67.2638 44.0909 66.2303 44.7682 66.2303 44.7682C66.2303 44.7682 67.4642 43.439 66.8282 42.485C66.1922 41.531 64.6244 42.6504 64.6244 42.6504C64.6244 42.6504 65.7915 41.2003 65.1014 40.294C64.4114 39.3877 63.0122 40.7773 63.0122 40.7773C63.0122 40.7773 64.1411 39.5053 63.257 38.9934C62.1949 38.386 60.3791 40.9713 58.9672 41.7695C58.6492 41.9508 52.2129 44.9908 52.2129 44.9908L55.4406 52.3621Z" fill="#DD6A57"/>
<path d="M63.1429 40.6597C61.8041 42.5677 60.8915 43.156 58.7768 44.0337C58.7354 44.0496 58.7545 44.1164 58.799 44.1005C60.9455 43.4327 62.1985 42.8476 63.251 40.7202C63.2892 40.6152 63.2097 40.5707 63.1429 40.6597Z" fill="#263238"/>
<path d="M64.7384 42.4978C63.1738 44.3486 62.1944 45.0068 60.0447 46.0848C60.0129 46.1007 60.0447 46.1548 60.0669 46.1421C62.2611 45.2581 63.5013 44.6443 64.8179 42.59C64.8783 42.4978 64.8083 42.4119 64.7384 42.4978Z" fill="#263238"/>
<path d="M66.1193 44.8128C64.4753 46.495 63.4259 47.2614 61.2094 48.0437C61.204 48.0451 61.1989 48.0477 61.1945 48.0511C61.19 48.0545 61.1863 48.0588 61.1834 48.0637C61.1778 48.0735 61.1763 48.0852 61.1792 48.0961C61.1822 48.1071 61.1893 48.1165 61.1992 48.1221C61.209 48.1278 61.2207 48.1293 61.2317 48.1264C63.5722 47.5508 64.8887 46.6 66.1639 44.8669C66.2529 44.7492 66.2211 44.7047 66.1193 44.8128Z" fill="#263238"/>
<path d="M50.3496 44.8383C50.3496 44.8383 52.105 42.1958 53.1258 41.3721C54.1465 40.5485 59.0724 38.8854 59.4858 39.9284C60.0264 41.2767 57.3742 42.7904 55.9878 43.3724C55.9878 43.3724 57.2598 46.4888 55.5775 47.9929C53.8953 49.497 50.3496 44.8383 50.3496 44.8383Z" fill="#DD6A57"/>
<path d="M59.514 40.3386C59.1229 41.9286 57.2403 42.5646 55.927 43.2197C55.9071 43.2284 55.8897 43.2418 55.8762 43.2587C55.8627 43.2757 55.8535 43.2957 55.8494 43.3169C55.8454 43.3382 55.8465 43.3602 55.8528 43.3809C55.8592 43.4016 55.8704 43.4205 55.8856 43.4359C56.3245 44.7779 56.5566 46.7972 55.6599 47.9897C55.6565 47.9966 55.6554 48.0045 55.6569 48.012C55.6584 48.0196 55.6624 48.0264 55.6682 48.0315C55.674 48.0366 55.6813 48.0396 55.689 48.0401C55.6967 48.0406 55.7043 48.0385 55.7107 48.0342C56.846 46.8894 56.7792 44.886 56.2036 43.4455C57.5615 42.7904 59.4218 42.0685 59.5299 40.3418L59.514 40.3386Z" fill="#263238"/>
<path d="M37.979 57.1003L40.1414 47.3313C37.9624 44.9176 35.6501 42.6276 33.2154 40.4721C29.7015 37.4352 28.0288 37.7595 30.134 43.1687C32.2391 48.5779 35.346 54.8425 37.979 57.1003Z" fill="#FFC727"/>
<path d="M37.979 57.1003L40.1414 47.3313C37.9624 44.9176 35.6501 42.6276 33.2154 40.4721C29.7015 37.4352 28.0288 37.7595 30.134 43.1687C32.2391 48.5779 35.346 54.8425 37.979 57.1003Z" fill="#FFC727"/>
<path d="M38.9166 47.1213C38.5445 48.4569 38.2234 49.7957 37.9435 51.1535C37.8036 51.834 37.6732 52.5177 37.5524 53.2046C37.4284 53.901 37.352 54.607 37.2344 55.3098C37.2344 55.3416 37.2789 55.3479 37.2853 55.3098C37.5397 53.9424 37.8418 52.5782 38.1216 51.2108L38.9516 47.1276C38.9707 47.1054 38.9261 47.0927 38.9166 47.1213Z" fill="#263238"/>
<path d="M30.8945 44.7049C30.987 44.9202 31.0502 45.1469 31.0821 45.3791C31.0821 45.4172 31.0821 45.4554 31.0821 45.4967C31.0121 45.3187 30.939 45.1469 30.8658 44.972C30.8677 44.8823 30.8772 44.793 30.8945 44.7049ZM36.7075 44.1071C36.6548 44.5709 36.7216 45.0405 36.9015 45.4713C36.9349 45.2404 36.9349 45.0058 36.9015 44.7749C36.8629 44.5436 36.7922 44.3188 36.6916 44.1071H36.7075ZM34.7423 51.1031C34.7088 51.3329 34.7088 51.5664 34.7423 51.7963C34.7734 52.0276 34.8365 52.2534 34.9299 52.4673C34.9649 52.2365 34.9649 52.0017 34.9299 51.7709C34.8949 51.5396 34.8263 51.3146 34.7264 51.1031H34.7423ZM36.5803 48.928C37.0442 48.9849 37.5149 48.918 37.9445 48.734C37.7136 48.7005 37.479 48.7005 37.2481 48.734C37.0119 48.7644 36.7814 48.8298 36.5644 48.928H36.5803ZM29.4348 39.7855C29.6659 39.8174 29.9002 39.8174 30.1313 39.7855C30.3625 39.7561 30.5885 39.694 30.8022 39.601C30.5713 39.5676 30.3368 39.5676 30.1058 39.601C29.8695 39.6305 29.6383 39.6926 29.4189 39.7855H29.4348ZM32.6148 48.8548C32.6127 48.861 32.6127 48.8677 32.6148 48.8739C32.6225 48.8597 32.6289 48.8448 32.6339 48.8294C32.6219 48.8359 32.6111 48.8445 32.6021 48.8548H32.6148ZM38.5265 52.321C38.3417 52.4638 38.1779 52.6319 38.0399 52.8203C37.8978 53.0041 37.7831 53.2076 37.6997 53.4245C37.8841 53.2836 38.047 53.1165 38.183 52.9284C38.3256 52.7431 38.4412 52.5387 38.5265 52.321ZM34.914 47.1853C34.7715 47.0014 34.6046 46.8377 34.4179 46.6988C34.2325 46.5572 34.028 46.4427 33.8105 46.3585C34.1025 46.723 34.4821 47.0075 34.914 47.1853ZM33.5943 42.0274C33.4086 42.169 33.2438 42.336 33.1046 42.5234C32.962 42.7076 32.8464 42.911 32.7611 43.1276C33.1282 42.838 33.4151 42.4592 33.5943 42.0274Z" fill="white"/>
<path d="M30.1346 43.1688C32.2398 48.5748 35.3339 54.8426 37.9797 57.1004L38.8701 53.0777L29.3778 38.8535C29.0185 39.4323 29.2156 40.8124 30.1346 43.1688Z" fill="#263238"/>
<path d="M36.2115 59.4823C36.2115 59.4823 29.4572 61.0723 16.6641 59.9752C16.6641 59.9752 21.6662 44.0084 25.6953 39.7027C27.5301 37.7438 29.3205 38.0427 30.8405 39.3052C31.2189 39.6232 35.9285 45.5793 36.3133 47.659C36.6663 49.4939 35.1748 51.5323 35.1748 51.5323L36.2115 59.4823Z" fill="#FFC727"/>
<path d="M31.066 45.3788C31.0994 45.6087 31.0994 45.8422 31.066 46.072C30.9726 45.8595 30.9105 45.6346 30.8816 45.4042C30.8465 45.1734 30.8465 44.9386 30.8816 44.7078C30.9738 44.9218 31.0359 45.1477 31.066 45.3788ZM31.1837 56.1622C31.1517 56.3932 31.1517 56.6276 31.1837 56.8586C31.2122 57.0904 31.2754 57.3166 31.3713 57.5296C31.4032 57.2985 31.4032 57.0642 31.3713 56.8332C31.3409 56.6017 31.2777 56.3758 31.1837 56.1622ZM34.5004 58.2324C34.4434 58.6962 34.5104 59.167 34.6944 59.5966C34.7263 59.3655 34.7263 59.1312 34.6944 58.9002C34.6624 58.6693 34.5971 58.4444 34.5004 58.2324ZM23.7584 48.7719C23.7233 49.0027 23.7233 49.2375 23.7584 49.4683C23.7873 49.6986 23.8494 49.9235 23.9428 50.1361C23.9763 49.9062 23.9763 49.6727 23.9428 49.4428C23.9123 49.2118 23.8503 48.986 23.7584 48.7719ZM34.7262 51.1028C34.6927 51.3327 34.6927 51.5662 34.7262 51.796C34.7573 52.0273 34.8204 52.2531 34.9138 52.467C34.9488 52.2362 34.9488 52.0014 34.9138 51.7706C34.8839 51.5401 34.8207 51.3152 34.7262 51.1028ZM26.8143 46.8861C27.0453 46.9196 27.2798 46.9196 27.5108 46.8861C27.742 46.8568 27.968 46.7947 28.1817 46.7017C27.9508 46.6682 27.7163 46.6682 27.4853 46.7017C27.2543 46.7321 27.0285 46.7942 26.8143 46.8861ZM22.833 53.6436C23.2979 53.7009 23.7697 53.6339 24.2004 53.4496C23.9694 53.4162 23.7349 53.4162 23.504 53.4496C23.2722 53.482 23.0463 53.5473 22.833 53.6436ZM29.4633 53.1062C29.6943 53.1381 29.9287 53.1381 30.1597 53.1062C30.391 53.0769 30.6169 53.0148 30.8307 52.9218C30.5997 52.8883 30.3652 52.8883 30.1343 52.9218C29.903 52.9511 29.6771 53.0132 29.4633 53.1062ZM17.4365 59.3167C17.6665 59.3486 17.8998 59.3486 18.1298 59.3167C18.3612 59.2883 18.5873 59.2261 18.8007 59.1323C18.3369 59.0753 17.8661 59.1423 17.4365 59.3263V59.3167ZM29.4188 39.8011C29.6498 39.833 29.8841 39.833 30.1152 39.8011C30.3465 39.7718 30.5724 39.7097 30.7862 39.6166C30.5552 39.5832 30.3207 39.5832 30.0897 39.6166C29.8595 39.6425 29.6339 39.6992 29.4188 39.7852V39.8011ZM27.1673 41.0222C26.9826 41.1639 26.8189 41.3309 26.6808 41.5183C26.5386 41.7032 26.424 41.9078 26.3405 42.1257C26.5243 41.9828 26.6871 41.8147 26.8239 41.6264C26.9671 41.4427 27.0828 41.2392 27.1673 41.0222ZM21.1253 49.6495C20.9399 49.7904 20.776 49.9575 20.6388 50.1456C20.4956 50.3304 20.3799 50.535 20.2953 50.753C20.6619 50.4623 20.9477 50.0824 21.1253 49.6495ZM32.6178 48.845C32.4324 48.9858 32.2685 49.1529 32.1313 49.3411C31.9881 49.5259 31.8724 49.7305 31.7879 49.9485C32.1545 49.6578 32.4402 49.2778 32.6178 48.845ZM26.8716 55.275C26.6876 55.4175 26.524 55.5844 26.385 55.771C26.2435 55.9564 26.1289 56.1609 26.0448 56.3784C26.2295 56.2356 26.3933 56.0675 26.5313 55.8792C26.6791 55.6922 26.798 55.4843 26.8843 55.2622L26.8716 55.275ZM33.2316 42.3642L33.0917 42.5359C32.9485 42.7196 32.8328 42.9231 32.7482 43.1401C32.9345 42.999 33.0985 42.8307 33.2348 42.6408C33.2666 42.5963 33.2952 42.5518 33.3302 42.5073L33.2316 42.3642ZM34.9011 47.1978C34.7586 47.0138 34.5917 46.8501 34.405 46.7112C34.2196 46.5697 34.0151 46.4551 33.7976 46.371C34.0896 46.7355 34.4692 47.0199 34.9011 47.1978ZM20.2731 55.2145C20.1303 55.0297 19.9622 54.866 19.7738 54.728C19.5901 54.5848 19.3866 54.4691 19.1696 54.3846C19.3104 54.57 19.4776 54.7339 19.6657 54.8711C19.8574 55.0093 20.0671 55.1206 20.289 55.2018L20.2731 55.2145ZM35.2191 55.4658C34.9303 55.0973 34.5498 54.8111 34.1156 54.6358C34.2567 54.8221 34.425 54.9861 34.6149 55.1223C34.8013 55.2616 35.007 55.373 35.2254 55.453L35.2191 55.4658ZM24.9095 45.4742C24.7659 45.2902 24.5979 45.1265 24.4103 44.9877C24.2265 44.8455 24.0229 44.7309 23.8061 44.6474C23.947 44.8319 24.1141 44.9947 24.3021 45.1308C24.4874 45.2733 24.6919 45.3889 24.9095 45.4742ZM29.1516 59.7842C28.8597 59.4197 28.48 59.1352 28.0482 58.9574C28.189 59.1428 28.3561 59.3067 28.5443 59.4439C28.7296 59.5855 28.9341 59.7 29.1516 59.7842ZM27.8796 50.9883C27.7438 50.8019 27.5809 50.6369 27.3963 50.4986C27.2115 50.3554 27.0069 50.2397 26.7889 50.1552C27.0796 50.5217 27.4595 50.8075 27.8924 50.9851L27.8796 50.9883ZM23.081 58.0543C22.7924 57.6869 22.4133 57.4009 21.9807 57.2243C22.1216 57.4097 22.2887 57.5736 22.4768 57.7108C22.6641 57.853 22.8708 57.9676 23.0906 58.0511L23.081 58.0543Z" fill="white"/>
<path d="M33.8637 43.264C34.2748 43.8165 34.6559 44.3908 35.0053 44.9844C34.8622 44.6505 34.7255 44.3134 34.6078 43.9667H34.6301C34.7541 44.2116 34.8813 44.4533 34.983 44.7077C35.0848 44.9621 35.1643 45.1656 35.2502 45.3946C35.6477 46.0942 36.1119 46.8001 36.3123 47.5856C36.4804 48.2943 36.4651 49.0341 36.2678 49.7353C36.1646 50.0967 36.024 50.4462 35.848 50.7783C35.7088 51.0799 35.5231 51.3578 35.2979 51.6019C35.4282 52.3365 35.5141 53.0838 35.6159 53.8279C35.7354 54.5498 35.8108 55.2783 35.8416 56.0094C35.8416 56.0195 35.8376 56.0292 35.8305 56.0364C35.8233 56.0436 35.8136 56.0476 35.8035 56.0476C35.7934 56.0476 35.7837 56.0436 35.7765 56.0364C35.7693 56.0292 35.7653 56.0195 35.7653 56.0094L35.7176 55.8568C35.715 55.853 35.7136 55.8486 35.7136 55.844C35.7136 55.8395 35.715 55.8351 35.7176 55.8313C35.5768 55.1556 35.4707 54.4731 35.3996 53.7866C35.3042 53.0806 35.1261 51.6115 35.123 51.6051C35.1198 51.5987 35.46 50.9882 35.5904 50.7084C35.7525 50.3672 35.8824 50.0116 35.9784 49.6462C36.1821 48.9591 36.1975 48.2298 36.0229 47.5347C35.7745 46.792 35.4416 46.0803 35.0307 45.4136C34.6332 44.7013 34.223 43.9954 33.8128 43.2894C33.8001 43.2703 33.8446 43.2481 33.8637 43.264Z" fill="#263238"/>
<path d="M24.6297 40.7933C21.2907 45.3153 14.9116 56.0128 17.0518 58.3692C20.572 62.2424 29.0372 65.5178 31.6798 66.2365C32.8182 66.5545 36.6278 58.2229 35.5466 57.5774C34.2492 56.7983 25.183 54.0253 25.2085 53.2558C25.2085 52.8169 26.1625 49.1472 26.9416 44.4408C27.8351 38.9807 26.2229 38.6405 24.6297 40.7933Z" fill="#DD6A57"/>
<path d="M32.1466 56.846C32.1466 56.846 34.1882 56.1845 36.3283 55.2146C37.5208 54.674 39.6482 53.9426 40.7072 53.9426C42.2972 53.9426 48.9052 54.9857 48.689 56.5947C48.4918 58.0512 42.9236 56.4389 42.9236 56.4389C42.9236 56.4389 48.7017 57.5583 48.1293 59.2691C47.5569 60.98 41.5181 58.3151 41.5181 58.3151C41.5181 58.3151 47.417 59.6062 46.5616 61.2789C45.9256 62.5509 40.297 60.4457 40.297 60.4457C40.297 60.4457 45.3595 61.5937 44.749 62.9198C44.078 64.3889 38.7706 62.7798 38.7706 62.7798C36.6559 65.8962 33.3836 67.111 31.075 66.0521C30.7029 65.8899 32.1466 56.846 32.1466 56.846Z" fill="#DD6A57"/>
<path d="M40.9521 55.9109C41.6358 56.019 42.3259 56.1239 42.9968 56.2925C43.6678 56.461 44.3324 56.6518 44.9843 56.884C45.8412 57.1676 46.6628 57.5485 47.4329 58.0192C46.0051 57.2846 43.6169 56.6423 42.9428 56.4737C42.2686 56.3052 41.6135 56.1049 40.9457 55.9363C40.9298 55.9331 40.9362 55.9109 40.9521 55.9109Z" fill="#263238"/>
<path d="M40.3003 58.3213C41.1653 58.4962 42.0302 58.6393 42.8888 58.8524C43.7474 59.0654 44.5329 59.3421 45.3692 59.6124C45.4328 59.6346 45.401 59.6633 45.3374 59.6442C44.4884 59.4057 43.687 59.253 42.8379 59.0241C41.9889 58.7951 41.1494 58.5375 40.2939 58.3404L40.3003 58.3213Z" fill="#263238"/>
<path d="M39.3718 60.2868C40.704 60.5248 42.0083 60.8988 43.2641 61.403C43.3277 61.4284 43.2832 61.457 43.2164 61.4379C41.9285 61.0436 40.9205 60.7224 39.3623 60.3345C39.34 60.3281 39.3432 60.2836 39.3718 60.2868Z" fill="#263238"/>
<path d="M37.595 54.6961C37.9351 54.4937 38.2927 54.3224 38.6635 54.1841C39.0053 54.0409 39.3571 53.9229 39.7161 53.8311C40.4935 53.633 41.3039 53.6005 42.0947 53.7357C43.9906 54.0449 45.8386 54.5975 47.5929 55.3798C47.6216 55.3798 47.612 55.4497 47.5929 55.4402C46.1047 55.0395 44.4797 54.4035 42.206 54.0601C41.4279 53.9243 40.6314 53.9318 39.856 54.0824C39.4582 54.1743 39.0655 54.2868 38.6794 54.4194C38.3328 54.5307 37.9925 54.6834 37.6395 54.7629C37.6307 54.7688 37.6198 54.7709 37.6094 54.7688C37.599 54.7667 37.5898 54.7606 37.5839 54.7517C37.578 54.7429 37.5758 54.732 37.5779 54.7216C37.58 54.7112 37.5862 54.702 37.595 54.6961Z" fill="#263238"/>
<path d="M16.2246 56.8332L25.4879 53.0649C26.2378 49.9014 26.8101 46.6984 27.202 43.4709C27.7076 38.8535 26.4896 37.661 23.2333 42.4628C19.977 47.2646 16.5839 53.3734 16.2246 56.8332Z" fill="#FFC727"/>
<path d="M23.7012 42.2656C23.6547 42.1634 23.6185 42.0569 23.5931 41.9476C23.6333 41.8882 23.6747 41.831 23.7171 41.7759C23.7332 41.9391 23.7278 42.1038 23.7012 42.2656ZM23.7584 48.7719C23.7234 49.0027 23.7234 49.2375 23.7584 49.4683C23.7873 49.6986 23.8495 49.9236 23.9429 50.1361C23.9763 49.9062 23.9763 49.6727 23.9429 49.4429C23.9124 49.2118 23.8503 48.986 23.7584 48.7719ZM22.833 53.6436C23.298 53.7009 23.7698 53.6339 24.2004 53.4497C23.9695 53.4162 23.7349 53.4162 23.504 53.4497C23.2722 53.482 23.0463 53.5473 22.833 53.6436ZM20.8392 46.2215L20.7247 46.4091H20.8265C21.0578 46.3803 21.2838 46.3181 21.4974 46.2247C21.2794 46.1902 21.0575 46.1891 20.8392 46.2215ZM27.1674 41.0222C26.9827 41.1639 26.8189 41.3309 26.6808 41.5183C26.5386 41.7032 26.424 41.9078 26.3406 42.1257C26.5244 41.9828 26.6871 41.8147 26.8239 41.6264C26.9671 41.4427 27.0828 41.2392 27.1674 41.0222ZM21.1254 49.6496C20.9399 49.7904 20.776 49.9575 20.6388 50.1456C20.4956 50.3304 20.3799 50.535 20.2954 50.753C20.662 50.4623 20.9478 50.0824 21.1254 49.6496ZM20.2763 55.2146C20.1335 55.0298 19.9655 54.866 19.7771 54.728C19.5934 54.5848 19.3898 54.4691 19.1729 54.3846C19.3137 54.57 19.4808 54.7339 19.6689 54.8711C19.8596 55.0091 20.0682 55.1203 20.289 55.2018L20.2763 55.2146ZM24.9096 45.4742C24.7659 45.2902 24.598 45.1265 24.4103 44.9877C24.2265 44.8455 24.023 44.7309 23.8061 44.6474C23.947 44.8319 24.1141 44.9947 24.3022 45.1308C24.4874 45.2733 24.6919 45.389 24.9096 45.4742Z" fill="white"/>
<path d="M27.1196 46.3327C26.9895 46.6007 26.8831 46.8795 26.8016 47.1659C26.7666 47.2613 26.738 47.3599 26.7062 47.4553C26.7857 46.921 26.862 46.3836 26.9351 45.8462C26.9351 45.8112 26.8874 45.7953 26.8811 45.8462C26.6457 47.0578 25.5677 52.7436 25.52 53.0362C25.4914 53.0362 25.202 53.2047 25.1861 53.2015C25.1702 53.1984 25.1861 53.2619 25.2084 53.2492C25.2306 53.2365 25.5804 53.0807 25.5804 53.0775C25.6981 52.8199 26.5344 48.4824 26.6298 47.9545C26.6428 47.9319 26.6544 47.9085 26.6648 47.8846C26.6934 47.8083 26.7189 47.7319 26.7475 47.6588C26.8016 47.5189 26.8461 47.379 26.897 47.239C27.0076 46.9521 27.0979 46.6578 27.1673 46.3582C27.1706 46.3518 27.1714 46.3444 27.1693 46.3376C27.1672 46.3307 27.1625 46.325 27.1561 46.3216C27.1498 46.3182 27.1424 46.3175 27.1355 46.3196C27.1287 46.3217 27.1229 46.3264 27.1196 46.3327Z" fill="#263238"/>
<path d="M25.3225 52.0218C24.9554 52.1074 24.5933 52.2136 24.2381 52.3398C23.8788 52.4542 23.5162 52.5592 23.1569 52.6768C22.4668 52.9026 21.7831 53.1475 21.0994 53.4019C19.7256 53.8949 18.3776 54.4574 17.0608 55.0873C17.0322 55.0873 17.0608 55.1477 17.0831 55.1382C18.4791 54.6484 19.8529 54.0951 21.2394 53.5768L23.2873 52.8168L24.3081 52.4288C24.6483 52.3048 25.014 52.2062 25.3384 52.0504C25.3575 52.044 25.3416 52.0186 25.3225 52.0218Z" fill="#263238"/>
<path d="M27.3551 39.1906C27.4314 39.5373 29.05 41.7887 30.6241 41.7346C31.1361 41.7156 31.1583 38.9108 31.1583 38.9108L31.206 38.7041L31.8866 35.8103L28.503 33.5843L28.0165 33.2917C28.0165 33.2917 27.8798 34.0963 27.7239 35.098C27.7239 35.1425 27.708 35.1902 27.7017 35.2411C27.6953 35.292 27.6794 35.3492 27.6731 35.4033C27.6476 35.5527 27.6222 35.7213 27.5999 35.858C27.5777 35.9947 27.5649 36.087 27.5522 36.211C27.5395 36.335 27.5236 36.4527 27.5045 36.5735C27.3938 37.4413 27.3439 38.3159 27.3551 39.1906Z" fill="#DD6A57"/>
<path d="M27.7139 35.098C27.9996 35.9173 28.4606 36.6644 29.0648 37.2872C29.6689 37.91 30.4016 38.3936 31.2119 38.7041L31.8924 35.8103L28.5089 33.5843L28.0223 33.2917C28.0223 33.2917 27.8792 34.0963 27.7139 35.098Z" fill="#263238"/>
<path d="M36.0681 31.2343C36.7359 36.4082 33.7149 37.394 32.5988 37.5371C31.5843 37.6675 28.1213 37.9823 26.9193 32.9038C25.7172 27.8254 27.9114 25.8824 30.2106 25.4595C32.5097 25.0365 35.3972 26.0764 36.0681 31.2343Z" fill="#DD6A57"/>
<path d="M35.2218 30.436C35.1015 30.4297 34.9815 30.417 34.8625 30.3978C34.7344 30.4038 34.6079 30.3669 34.5032 30.2929C34.4753 30.2628 34.458 30.2245 34.454 30.1837C34.45 30.143 34.4594 30.102 34.4809 30.0671C34.5334 30.0042 34.6018 29.9566 34.679 29.9292C34.7562 29.9018 34.8393 29.8956 34.9197 29.9113C35.0881 29.9182 35.2478 29.9873 35.3681 30.1052C35.3941 30.1335 35.4113 30.1687 35.4176 30.2066C35.4239 30.2445 35.4189 30.2834 35.4034 30.3186C35.3879 30.3537 35.3624 30.3835 35.3301 30.4044C35.2979 30.4252 35.2602 30.4362 35.2218 30.436Z" fill="#263238"/>
<path d="M31.6638 30.8049C31.7792 30.7741 31.8928 30.7369 32.0041 30.6936C32.1271 30.6699 32.2389 30.6061 32.3221 30.5124C32.3438 30.4781 32.3534 30.4376 32.3494 30.3972C32.3453 30.3569 32.3279 30.319 32.2998 30.2898C32.235 30.2388 32.1577 30.2064 32.076 30.1957C31.9943 30.1851 31.9112 30.1967 31.8355 30.2293C31.6734 30.2712 31.5327 30.3721 31.4412 30.5124C31.4204 30.5462 31.4104 30.5856 31.4124 30.6253C31.4143 30.665 31.4283 30.7032 31.4524 30.7348C31.4764 30.7665 31.5095 30.7901 31.5472 30.8026C31.585 30.8151 31.6256 30.8159 31.6638 30.8049Z" fill="#263238"/>
<path d="M32.6211 31.991C32.6211 31.991 32.5957 32.01 32.5989 32.0259C32.6561 32.3757 32.6625 32.786 32.3604 32.945C32.3604 32.945 32.3604 32.9672 32.3604 32.964C32.7451 32.8591 32.7324 32.3121 32.6211 31.991Z" fill="#263238"/>
<path d="M32.2584 31.6635C31.686 31.6953 31.791 32.8369 32.322 32.8083C32.8531 32.7797 32.7386 31.6381 32.2584 31.6635Z" fill="#263238"/>
<path d="M32.0394 31.7462C31.9472 31.8193 31.8581 31.9402 31.7405 31.9656C31.6228 31.991 31.4861 31.8797 31.3843 31.7748H31.3652C31.3843 31.991 31.4893 32.2105 31.7246 32.22C31.9599 32.2295 32.0776 32.0228 32.1125 31.7971C32.1189 31.7716 32.0776 31.7144 32.0394 31.7462Z" fill="#263238"/>
<path d="M34.5797 31.7368C34.5797 31.7368 34.6083 31.7368 34.6115 31.7654C34.6274 32.1216 34.7101 32.5223 35.0408 32.6145V32.6336C34.6433 32.6113 34.5416 32.0771 34.5797 31.7368Z" fill="#263238"/>
<path d="M34.8661 31.3392C35.4321 31.2501 35.572 32.3886 35.0473 32.4713C34.5226 32.5539 34.3923 31.4155 34.8661 31.3392Z" fill="#263238"/>
<path d="M35.1134 31.3867C35.2088 31.4344 35.3106 31.533 35.4314 31.5266C35.5523 31.5203 35.6349 31.3867 35.7017 31.2595C35.7017 31.2595 35.7017 31.2595 35.7208 31.2595C35.7526 31.4758 35.7208 31.7111 35.5046 31.7779C35.2883 31.8446 35.1547 31.6697 35.0752 31.4599C35.0498 31.4312 35.0721 31.3645 35.1134 31.3867Z" fill="#263238"/>
<path d="M32.8468 34.8977C32.9359 34.9772 33.0249 35.0885 33.1648 35.0917C33.2959 35.0838 33.4239 35.048 33.5401 34.9867C33.5401 34.9867 33.5655 34.9867 33.5591 34.9867C33.5114 35.0587 33.4452 35.1165 33.3674 35.154C33.2896 35.1915 33.2031 35.2073 33.1171 35.1998C33.044 35.1844 32.9769 35.1479 32.9244 35.0947C32.8718 35.0416 32.836 34.9742 32.8214 34.9009C32.8023 34.8945 32.8341 34.8881 32.8468 34.8977Z" fill="#263238"/>
<path d="M34.1915 33.4698C34.1915 33.4698 34.3187 33.9882 34.3441 34.2362C34.3441 34.2616 34.2869 34.2775 34.2042 34.2903C33.9949 34.3517 33.7727 34.3545 33.5619 34.2985C33.3511 34.2424 33.1597 34.1296 33.0085 33.9723C32.9894 33.95 33.0085 33.9214 33.0435 33.9341C33.3823 34.1183 33.7718 34.1874 34.1533 34.1313C34.1533 34.0613 33.9053 33.2504 33.9466 33.2409C34.1417 33.2395 34.3362 33.263 34.5254 33.3108C34.2901 32.2201 33.8894 31.1739 33.6668 30.0863C33.6663 30.0787 33.6683 30.0711 33.6725 30.0647C33.6767 30.0584 33.6829 30.0536 33.6901 30.051C33.6973 30.0485 33.7052 30.0484 33.7125 30.0508C33.7197 30.0531 33.726 30.0578 33.7304 30.064C34.2011 31.1703 34.5601 32.3208 34.802 33.4984C34.8275 33.6352 34.2964 33.5016 34.1915 33.4698Z" fill="#263238"/>
<path d="M27.4114 33.0375C28.251 33.0088 28.2446 31.2408 28.2446 31.2408C28.2446 31.2408 29.9364 31.0563 30.2194 28.56C30.2543 29.2945 30.0729 30.0232 29.6979 30.6556C29.6979 30.6556 32.6457 30.0037 33.622 27.3675C33.622 27.3675 33.2626 28.6936 32.8429 29.1992C33.5739 28.883 34.176 28.328 34.5505 27.6251C34.5505 27.6251 35.2374 29.0052 35.6826 29.3582C35.6826 29.3582 34.9703 24.1525 30.1971 25.2528C30.1971 25.2528 27.192 25.7966 26.3811 28.3152C25.5702 30.8337 27.4114 33.0375 27.4114 33.0375Z" fill="#263238"/>
<path d="M31.8672 34.0043C31.5645 34.0066 31.2672 33.9239 31.0091 33.7657C30.751 33.6075 30.5424 33.3801 30.4071 33.1093C30.2717 32.8385 30.2151 32.5352 30.2435 32.2338C30.2719 31.9324 30.3843 31.645 30.5678 31.4043C30.7514 31.1635 30.9988 30.9791 31.2819 30.8719C31.565 30.7647 31.8725 30.7391 32.1695 30.7979C32.4664 30.8568 32.7409 30.9977 32.9618 31.2047C33.1827 31.4117 33.3411 31.6766 33.419 31.9691C33.5285 32.3849 33.4685 32.8271 33.252 33.1986C33.0355 33.5701 32.6804 33.8405 32.2647 33.9502C32.1348 33.9838 32.0014 34.0019 31.8672 34.0043ZM31.8481 30.9801C31.7312 30.981 31.6148 30.996 31.5015 31.0246C31.1544 31.114 30.8544 31.3324 30.6626 31.6353C30.4709 31.9382 30.4018 32.3028 30.4695 32.6548C30.5371 33.0068 30.7365 33.3198 31.0268 33.53C31.3172 33.7402 31.6768 33.8318 32.0323 33.7861C32.3879 33.7404 32.7127 33.5609 32.9405 33.2842C33.1683 33.0074 33.2821 32.6542 33.2586 32.2965C33.2351 31.9388 33.0761 31.6036 32.8141 31.359C32.552 31.1144 32.2066 30.9789 31.8481 30.9801Z" fill="#FFC727"/>
<path d="M35.5531 33.5205C34.9171 33.5205 34.3669 32.8845 34.2588 32.0545C34.2032 31.6552 34.2732 31.2484 34.4591 30.8907C34.5294 30.7316 34.6396 30.5935 34.7791 30.4896C34.9186 30.3857 35.0825 30.3197 35.255 30.298C35.4275 30.2762 35.6027 30.2994 35.7636 30.3654C35.9245 30.4314 36.0656 30.5378 36.1732 30.6744C36.4421 30.9759 36.61 31.354 36.6533 31.7556C36.7646 32.6397 36.3194 33.4283 35.658 33.511C35.6234 33.5173 35.5883 33.5205 35.5531 33.5205ZM35.3623 30.5059H35.2828C35.1462 30.5296 35.0173 30.5855 34.9066 30.669C34.796 30.7525 34.7069 30.8612 34.6468 30.9861C34.483 31.3053 34.423 31.6677 34.475 32.0227C34.5704 32.7891 35.0888 33.3583 35.6326 33.2947C36.1763 33.2311 36.5357 32.5474 36.4371 31.7779C36.3983 31.4238 36.2505 31.0904 36.0142 30.8239C35.9334 30.7287 35.8337 30.6513 35.7215 30.5966C35.6093 30.5418 35.487 30.511 35.3623 30.5059Z" fill="#FFC727"/>
<path d="M33.3904 32.1626L33.2314 32.0164C33.4477 31.781 33.9787 31.4344 34.4239 31.8033L34.284 31.9718C33.8865 31.6379 33.4095 32.1404 33.3904 32.1626Z" fill="#FFC727"/>
<path d="M26.6049 33.4951L26.4014 33.422C26.4363 33.3266 26.7575 32.4902 27.225 32.3535C27.6925 32.2168 30.2555 32.115 30.3796 32.1086V32.3281C29.3437 32.3496 28.3097 32.4271 27.2822 32.5602C26.9769 32.6524 26.6907 33.2662 26.6049 33.4951Z" fill="#FFC727"/>
<path d="M27.1582 34.8149C27.2364 34.8415 27.3175 34.8586 27.3999 34.8658C27.482 34.8786 27.5657 34.8786 27.6479 34.8658C27.7535 34.8511 27.8545 34.813 27.9436 34.7545C28.0146 34.711 28.0789 34.6574 28.1344 34.5955C28.2142 34.5012 28.2767 34.3935 28.3189 34.2775L27.9723 32.8973C27.9723 32.8973 26.7639 31.3073 26.0452 31.7557C25.3265 32.2041 26.2773 34.5287 27.1582 34.8149Z" fill="#DD6A57"/>
<path d="M26.3311 32.4363V32.4585C26.9671 32.6811 27.2851 33.2313 27.5426 33.8037C27.5044 33.7446 27.4539 33.6944 27.3945 33.6566C27.3352 33.6188 27.2684 33.5942 27.1986 33.5846C27.1289 33.5749 27.058 33.5804 26.9906 33.6007C26.9232 33.6209 26.8609 33.6554 26.8081 33.7019C26.8081 33.7019 26.8081 33.7401 26.8271 33.7337C26.9325 33.6947 27.0474 33.6896 27.1558 33.7193C27.2642 33.7489 27.3606 33.8118 27.4313 33.8991C27.5535 34.0444 27.6601 34.2021 27.7493 34.3697C27.7811 34.4238 27.8797 34.3888 27.8543 34.3284C27.8161 33.527 27.1674 32.4713 26.3311 32.4363Z" fill="#263238"/>
<path d="M27.2182 34.5923C27.2296 34.6386 27.2545 34.6806 27.2897 34.7129C27.3249 34.7451 27.3689 34.7662 27.4161 34.7735C27.4633 34.7808 27.5116 34.7739 27.5549 34.7538C27.5982 34.7336 27.6346 34.7011 27.6594 34.6603C27.6842 34.6195 27.6964 34.5723 27.6944 34.5246C27.6924 34.4768 27.6763 34.4308 27.6482 34.3922C27.62 34.3536 27.5811 34.3243 27.5363 34.3078C27.4914 34.2913 27.4427 34.2885 27.3963 34.2997C27.3343 34.3155 27.2809 34.355 27.2476 34.4097C27.2143 34.4643 27.2038 34.5299 27.2182 34.5923Z" fill="white"/>
<path d="M26.7058 34.2488C26.7178 34.2921 26.7459 34.3291 26.7844 34.3521C26.8229 34.3752 26.8687 34.3826 26.9125 34.3728C26.9568 34.3623 26.995 34.3346 27.0189 34.2958C27.0427 34.2571 27.0502 34.2104 27.0397 34.1661C27.0345 34.1443 27.025 34.1237 27.0117 34.1056C26.9985 34.0875 26.9817 34.0722 26.9625 34.0606C26.9432 34.0491 26.9218 34.0415 26.8996 34.0383C26.8774 34.0351 26.8547 34.0364 26.833 34.0421C26.7888 34.0527 26.7505 34.0804 26.7266 34.1192C26.7028 34.1579 26.6953 34.2046 26.7058 34.2488Z" fill="white"/>
<path d="M31.1647 39.1335L30.3856 41.4994L27.3328 38.7646L26.5791 39.7504C26.5791 39.7504 29.6828 44.2024 29.686 43.9989L30.5096 41.9478L31.9724 43.2453L31.6353 39.7791L31.1647 39.1335Z" fill="#EBEBEB"/>
<path d="M31.9014 41.5246C31.8283 40.9522 31.7678 40.3766 31.6661 39.8105C31.6661 39.7915 31.6311 39.7819 31.6279 39.8105C31.5484 40.3702 31.8442 42.5517 31.876 43.0764C31.8155 43.0223 30.5245 41.9411 30.5149 41.9602C30.3273 42.2782 29.7231 43.7824 29.6849 43.9191C29.1952 43.21 27.3222 40.6405 26.753 39.9791C26.7339 39.96 26.7053 39.9791 26.718 40.0013C27.16 40.7518 29.6436 44.2148 29.6754 44.2021C30.0007 43.4964 30.2873 42.7734 30.534 42.0365C30.7566 42.275 32.0668 43.5025 32.0668 43.4167C32.0453 42.7835 31.9901 42.1519 31.9014 41.5246Z" fill="#263238"/>
<path d="M91.2467 44.345H54.4668V91.5616H91.2467V44.345Z" fill="#EBEBEB"/>
<path d="M91.2463 91.5619L72.8849 91.6255L54.4664 91.6605H54.3646V91.5587L54.3105 44.3421V44.2021H54.4664L91.2463 44.2403H91.3671V44.358L91.313 67.9854L91.2463 91.5619ZM91.2463 91.5619L91.1667 67.9218L91.1286 44.3452L91.2463 44.4661L54.4664 44.5011L54.6222 44.3452L54.5649 91.5619L54.4664 91.4601L72.8309 91.4983L91.2463 91.5619Z" fill="#DBDBDB"/>
<path d="M58.4893 54.4383L72.8565 54.4001L87.2237 54.4383L72.8565 54.4733L58.4893 54.4383Z" fill="#C7C7C7"/>
<path d="M58.4893 55.6087L72.8565 55.5737L87.2237 55.6087L72.8565 55.6469L58.4893 55.6087Z" fill="#C7C7C7"/>
<path d="M58.4893 56.7821L72.8565 56.7439L87.2237 56.7821L72.8565 56.817L58.4893 56.7821Z" fill="#C7C7C7"/>
<path d="M58.4893 57.9522L72.8565 57.9172L87.2237 57.9522L72.8565 57.9872L58.4893 57.9522Z" fill="#C7C7C7"/>
<path d="M58.4893 59.1256L72.8565 59.0874L87.2237 59.1256L72.8565 59.1605L58.4893 59.1256Z" fill="#C7C7C7"/>
<path d="M58.4893 60.2957L72.8565 60.2607L87.2237 60.2957L72.8565 60.3307L58.4893 60.2957Z" fill="#C7C7C7"/>
<path d="M58.4893 61.4664L72.8565 61.4314L87.2237 61.4664L72.8565 61.5045L58.4893 61.4664Z" fill="#C7C7C7"/>
<path d="M58.4893 62.6397L72.8565 62.6047L87.2237 62.6397L72.8565 62.6747L58.4893 62.6397Z" fill="#C7C7C7"/>
<path d="M58.4893 63.8099L72.8565 63.7749L87.2237 63.8099L72.8565 63.848L58.4893 63.8099Z" fill="#C7C7C7"/>
<path d="M58.4893 64.9832L72.8565 64.9451L87.2237 64.9832L72.8565 65.0182L58.4893 64.9832Z" fill="#C7C7C7"/>
<path d="M58.4893 66.1534L72.8565 66.1184L87.2237 66.1534L72.8565 66.1915L58.4893 66.1534Z" fill="#C7C7C7"/>
<path d="M58.4893 67.3267L72.8565 67.2886L87.2237 67.3267L72.8565 67.3617L58.4893 67.3267Z" fill="#C7C7C7"/>
<path d="M58.4893 68.4971L72.8565 68.4622L87.2237 68.4971L72.8565 68.5353L58.4893 68.4971Z" fill="#C7C7C7"/>
<path d="M58.4893 69.6705L72.8565 69.6323L87.2237 69.6705L72.8565 69.7055L58.4893 69.6705Z" fill="#C7C7C7"/>
<path d="M58.4893 70.8409L72.8565 70.8059L87.2237 70.8409L72.8565 70.879L58.4893 70.8409Z" fill="#C7C7C7"/>
<path d="M63.7076 67.2886H61.5293V72.2049H63.7076V67.2886Z" fill="#FFC727"/>
<path d="M67.7496 64.6653H65.5713V72.2051H67.7496V64.6653Z" fill="#FFC727"/>
<path d="M71.7916 61.73H69.6133V72.2081H71.7916V61.73Z" fill="#FFC727"/>
<path d="M75.8336 60.4709H73.6553V72.2083H75.8336V60.4709Z" fill="#FFC727"/>
<path d="M79.8746 58.2227H77.6963V72.2083H79.8746V58.2227Z" fill="#FFC727"/>
<path d="M83.9166 55.9998H81.7383V72.205H83.9166V55.9998Z" fill="#FFC727"/>
<path d="M59.2683 53.6147L59.3256 58.2639L59.3637 62.9099C59.3923 66.0104 59.3987 69.1077 59.4051 72.2082L59.2683 72.0715H66.2643L73.2603 72.0874L80.2563 72.1319L87.2523 72.2114L80.2563 72.2909L73.2603 72.3354H66.2643H59.2683H59.1348V72.2018C59.1348 69.1024 59.1475 66.003 59.1729 62.9035L59.2143 58.2575L59.2683 53.6147Z" fill="#C7C7C7"/>
<path d="M63.7076 73.1907H61.5293V73.3878H63.7076V73.1907Z" fill="#C7C7C7"/>
<path d="M67.7496 73.1907H65.5713V73.3878H67.7496V73.1907Z" fill="#C7C7C7"/>
<path d="M71.7916 73.1907H69.6133V73.3878H71.7916V73.1907Z" fill="#C7C7C7"/>
<path d="M75.8336 73.1907H73.6553V73.3878H75.8336V73.1907Z" fill="#C7C7C7"/>
<path d="M79.8746 73.1907H77.6963V73.3878H79.8746V73.1907Z" fill="#C7C7C7"/>
<path d="M83.9166 73.1907H81.7383V73.3878H83.9166V73.1907Z" fill="#C7C7C7"/>
<path d="M61.7744 67.909C62.8382 67.893 63.9001 67.8134 64.9544 67.6705C66.0117 67.5326 67.0614 67.3416 68.0994 67.0981C70.1698 66.6311 72.1783 65.9235 74.0842 64.9897C75.9952 64.0691 77.7583 62.8687 79.3153 61.4281L79.611 61.161L79.8909 60.878L80.4442 60.3088C80.7876 59.9049 81.1565 59.5201 81.4682 59.0908C82.1281 58.2552 82.7255 57.3719 83.2553 56.4482H83.2712C81.8238 59.3382 79.6673 61.8141 77.0034 63.6446C76.1216 64.2566 75.1946 64.8009 74.2305 65.2727C70.3519 67.1269 66.0875 68.0306 61.7903 67.909H61.7744Z" fill="#263238"/>
<path d="M83.8656 57.9715L83.5636 58.0478L83.1915 56.5596L81.7351 57.0398L81.6396 56.744L83.4141 56.1621L83.8656 57.9715Z" fill="#263238"/>
<path d="M57.8759 80.7275H87.8379V79.516H57.8759V80.7275Z" fill="#DBDBDB"/>
<path d="M57.8752 83.79H74.7451V82.5785H57.8752V83.79Z" fill="#DBDBDB"/>
<path d="M64.4201 50.7749H81.29V49.5633H64.4201V50.7749Z" fill="#DBDBDB"/>
<path d="M84.2949 103.073L48.2655 110.476L38.7637 64.2265L65.5138 58.7314L76.6025 65.6384L84.2949 103.073Z" fill="#FFC727"/>
<path opacity="0.8" d="M84.2949 103.073L48.2655 110.476L38.7637 64.2265L65.5138 58.7314L76.6025 65.6384L84.2949 103.073Z" fill="white"/>
<path d="M65.5137 58.7314L76.6023 65.6384L67.3231 67.5432L65.5137 58.7314Z" fill="#FFC727"/>
<path d="M44.1163 72.4511L64.1484 68.3354L63.9046 67.1487L43.8724 71.2643L44.1163 72.4511Z" fill="#DBDBDB"/>
<path d="M44.7305 75.4479L64.7627 71.3323L64.5189 70.1455L44.4867 74.2611L44.7305 75.4479Z" fill="#DBDBDB"/>
<path d="M45.3506 78.4438L65.3828 74.3281L65.139 73.1413L45.1068 77.257L45.3506 78.4438Z" fill="#DBDBDB"/>
<path d="M45.9665 81.4422L75.3154 75.4124L75.0716 74.2256L45.7227 80.2554L45.9665 81.4422Z" fill="#DBDBDB"/>
<path d="M46.6392 84.2815L76.002 78.2891L75.7596 77.1017L46.3969 83.0941L46.6392 84.2815Z" fill="#DBDBDB"/>
<path d="M47.1979 87.4353L76.5469 81.4055L76.303 80.2187L46.9541 86.2485L47.1979 87.4353Z" fill="#DBDBDB"/>
<path d="M47.8151 90.4344L77.1641 84.4045L76.9202 83.2178L47.5713 89.2476L47.8151 90.4344Z" fill="#DBDBDB"/>
<path d="M48.4303 93.4312L77.7793 87.4014L77.5355 86.2146L48.1865 92.2444L48.4303 93.4312Z" fill="#DBDBDB"/>
<path d="M49.0446 96.4309L78.3936 90.4011L78.1497 89.2143L48.8008 95.2441L49.0446 96.4309Z" fill="#DBDBDB"/>
<path d="M49.6598 99.4273L79.0088 93.3975L78.765 92.2107L49.416 98.2405L49.6598 99.4273Z" fill="#DBDBDB"/>
<path d="M50.28 102.423L79.6289 96.3936L79.3851 95.2068L50.0361 101.237L50.28 102.423Z" fill="#DBDBDB"/>
<path d="M50.8952 105.423L80.2441 99.3933L80.0003 98.2065L50.6514 104.236L50.8952 105.423Z" fill="#DBDBDB"/>
<path d="M158.172 69.4574L117.815 72.3958C113.22 54.9248 118.133 37.4539 114.562 19.983L154.913 17.0447C159.511 34.5156 154.595 51.9865 158.172 69.4574Z" fill="#EBEBEB"/>
<path d="M158.171 69.4576L117.839 72.5041H117.744C117.734 72.4717 117.725 72.4388 117.719 72.4055C113.098 54.9377 118.002 37.4668 114.405 19.9959C114.405 19.945 114.383 19.891 114.37 19.8401H114.529L154.886 16.9495H154.998C155.007 16.9871 155.017 17.0242 155.03 17.0608C159.587 34.5094 154.623 51.9835 158.171 69.4576ZM158.171 69.4576C154.546 51.9899 159.443 34.5221 154.807 17.0544L154.947 17.1562L114.593 20.1422L114.717 19.9705C118.282 37.4605 113.337 54.9155 117.897 72.3896L117.773 72.2974L158.171 69.4576Z" fill="#DBDBDB"/>
<path d="M119.435 27.4692L142.092 25.8379C142.143 26.2852 142.187 26.7336 142.226 27.183L119.54 28.8176C119.508 28.366 119.473 27.9176 119.435 27.4692Z" fill="#DBDBDB"/>
<path d="M119.659 30.8679L142.387 29.2334C142.414 29.6807 142.44 30.1291 142.463 30.5785L119.713 32.2131C119.697 31.7647 119.678 31.3163 119.659 30.8679Z" fill="#DBDBDB"/>
<path d="M119.765 34.2646L142.546 32.6301C142.546 33.0785 142.568 33.5269 142.578 33.9753L119.777 35.6161C119.777 35.1614 119.771 34.713 119.765 34.2646Z" fill="#DBDBDB"/>
<path d="M119.777 37.6611L153.208 35.2698C153.208 35.7182 153.208 36.1665 153.208 36.6149L119.758 39.0063C119.771 38.5579 119.777 38.1095 119.777 37.6611Z" fill="#DBDBDB"/>
<path d="M119.734 41.0571L153.206 38.6658L153.187 40.0109L119.705 42.4055L119.734 41.0571Z" fill="#DBDBDB"/>
<path d="M119.654 44.4566L153.146 42.062C153.146 42.5104 153.127 42.9588 153.114 43.4072L119.616 45.7922C119.632 45.3533 119.645 44.9049 119.654 44.4566Z" fill="#DBDBDB"/>
<path d="M119.573 47.8525L153.062 45.4739C153.062 45.9223 153.043 46.3738 153.03 46.8222L119.548 49.2136C119.557 48.7493 119.564 48.3009 119.573 47.8525Z" fill="#DBDBDB"/>
<path d="M119.523 51.249L153.005 48.8577C153.005 49.306 152.989 49.7544 152.983 50.2028L119.529 52.5942C119.516 52.1521 119.516 51.6974 119.523 51.249Z" fill="#DBDBDB"/>
<path d="M119.526 54.645L152.948 52.2537C152.948 52.702 152.948 53.1504 152.948 53.5988L119.558 55.9933C119.539 55.545 119.533 55.0966 119.526 54.645Z" fill="#DBDBDB"/>
<path d="M119.616 58.0449L152.978 55.6504C152.978 56.0988 152.997 56.5472 153.013 56.9987L119.683 59.3901C119.658 58.9427 119.635 58.4944 119.616 58.0449Z" fill="#DBDBDB"/>
<path d="M119.822 61.4409L153.098 59.0464C153.12 59.4979 153.149 59.9463 153.177 60.3947L119.934 62.7861C119.895 62.3282 119.857 61.8893 119.822 61.4409Z" fill="#DBDBDB"/>
<path d="M120.172 64.8372L153.342 62.4458C153.384 62.8942 153.428 63.3426 153.479 63.7909L120.356 66.1855C120.29 65.7371 120.229 65.2855 120.172 64.8372Z" fill="#DBDBDB"/>
<path d="M152.432 88.1591C138.517 85.7996 124.759 83.4432 111.159 81.09C112.937 63.8258 121.65 46.5743 121.205 29.3228C135.12 31.6823 148.878 34.0419 162.478 36.4014C160.713 53.6529 151.987 70.914 152.432 88.1591Z" fill="#FFC727"/>
<path opacity="0.8" d="M152.432 88.1591C138.517 85.7996 124.759 83.4432 111.159 81.09C112.937 63.8258 121.65 46.5743 121.205 29.3228C135.12 31.6823 148.878 34.0419 162.478 36.4014C160.713 53.6529 151.987 70.914 152.432 88.1591Z" fill="white"/>
<path d="M124.627 37.6384C132.17 38.9507 139.678 40.263 147.151 41.5753C147.075 42.0205 146.995 42.4625 146.912 42.9045C139.454 41.5943 131.968 40.2821 124.452 38.9677C124.516 38.5256 124.573 38.0836 124.627 37.6384Z" fill="#DBDBDB"/>
<path d="M124.144 40.9934C131.626 42.3057 139.081 43.618 146.509 44.9302C146.414 45.3754 146.318 45.8175 146.22 46.2595C138.81 44.9493 131.375 43.637 123.912 42.3226C123.992 41.8806 124.068 41.4386 124.144 40.9934Z" fill="#DBDBDB"/>
<path d="M123.521 44.3481L145.755 48.285C145.647 48.727 145.542 49.1722 145.437 49.6142C138.06 48.2998 130.663 46.9875 123.247 45.6774C123.336 45.2354 123.432 44.7933 123.521 44.3481Z" fill="#DBDBDB"/>
<path d="M122.795 47.7C133.632 49.6249 144.433 51.5478 155.199 53.4685C155.081 53.9105 154.96 54.3525 154.839 54.7977C144.076 52.877 133.289 50.9552 122.477 49.0324C122.572 48.5904 122.677 48.1483 122.795 47.7Z" fill="#DBDBDB"/>
<path d="M121.96 51.0579C132.755 52.9828 143.527 54.9057 154.278 56.8264C154.157 57.2684 154.036 57.7104 153.912 58.1556L121.616 52.3871C121.731 51.9451 121.842 51.5158 121.96 51.0579Z" fill="#DBDBDB"/>
<path d="M121.075 54.4131L153.349 60.1816C153.228 60.6236 153.104 61.0656 152.983 61.5108L120.716 55.7423C120.837 55.3003 120.958 54.8551 121.075 54.4131Z" fill="#DBDBDB"/>
<path d="M120.159 57.7678L152.436 63.5363C152.315 63.9784 152.197 64.4204 152.08 64.8624C141.302 62.9417 130.538 61.0199 119.79 59.0971C119.914 58.655 120.035 58.2098 120.159 57.7678Z" fill="#DBDBDB"/>
<path d="M119.235 61.1228C129.992 63.0435 140.767 64.9653 151.56 66.8881C151.448 67.3333 151.337 67.7754 151.242 68.2174C140.43 66.2967 129.643 64.3749 118.882 62.452C118.98 62.01 119.111 61.5648 119.235 61.1228Z" fill="#DBDBDB"/>
<path d="M118.343 64.4775C129.117 66.3983 139.922 68.32 150.76 70.2429C150.658 70.6881 150.56 71.1301 150.461 71.5721C139.598 69.6514 128.775 67.7296 117.993 65.8068C118.092 65.3616 118.209 64.9196 118.343 64.4775Z" fill="#DBDBDB"/>
<path d="M117.466 67.8325C128.278 69.7532 139.13 71.675 150.023 73.5979C149.934 74.0431 149.851 74.4851 149.768 74.9271C138.836 73.0064 127.96 71.0846 117.142 69.1618C117.247 68.7166 117.355 68.2745 117.466 67.8325Z" fill="#DBDBDB"/>
<path d="M116.674 71.1843C127.533 73.1093 138.451 75.0321 149.428 76.9528C149.355 77.3949 149.288 77.8401 149.224 78.2821C138.209 76.3614 127.263 74.4353 116.388 72.504C116.48 72.0715 116.575 71.6295 116.674 71.1843Z" fill="#DBDBDB"/>
<path d="M115.98 74.5391C126.905 76.4619 137.896 78.3847 148.954 80.3076C148.903 80.7496 148.858 81.1948 148.817 81.6368C137.708 79.7119 126.684 77.789 115.745 75.8683C115.818 75.4263 115.898 74.9843 115.98 74.5391Z" fill="#DBDBDB"/>
<path d="M135.599 81.0869H64.2744V132.787H135.599V81.0869Z" fill="#FFC727"/>
<path d="M89.4759 75.7317H64.2744V81.0868H90.9228L89.4759 75.7317Z" fill="#FFC727"/>
<g opacity="0.1">
<path d="M135.6 81.0869H64.2754V132.787H135.6V81.0869Z" fill="black"/>
<path d="M89.4769 75.7317H64.2754V81.0868H90.9238L89.4769 75.7317Z" fill="black"/>
</g>
<path d="M135.112 113.44C121.187 109.455 107.574 105.519 94.1699 101.62C97.5407 85.863 106.985 70.4273 107.628 54.4382C121.54 58.1938 135.144 61.9494 148.554 65.7209C145.123 81.7258 135.691 97.3078 135.112 113.44Z" fill="#EBEBEB"/>
<path d="M135.113 113.44C121.188 109.487 107.565 105.576 94.1513 101.709L94.0527 101.68L94.0718 101.591C97.4299 85.8313 106.855 70.3892 107.466 54.3938C107.466 54.3461 107.466 54.2953 107.466 54.2476L107.628 54.2921C121.55 58.0572 135.161 61.8319 148.555 65.6192L148.666 65.651C148.666 65.6828 148.666 65.7178 148.644 65.7528C145.19 81.7546 135.73 97.3334 135.113 113.44ZM135.113 113.44C135.653 97.3079 145.057 81.7259 148.431 65.6892C148.459 65.7337 148.488 65.7782 148.52 65.8228C135.126 62.0672 121.525 58.3211 107.622 54.5815L107.79 54.4797C107.113 70.4656 97.6525 85.8949 94.2658 101.645L94.1895 101.531C107.58 105.458 121.207 109.427 135.113 113.44Z" fill="#DBDBDB"/>
<path d="M132.909 84.1651C130.839 89.6951 124.565 92.7765 118.711 91.0466C112.856 89.3167 109.788 83.475 111.807 77.9768C113.826 72.4786 119.865 69.3495 125.799 71.0444C131.733 72.7394 135.005 78.6319 132.909 84.1651Z" fill="#455A64"/>
<path d="M122.365 81.0644C119.964 83.8055 117.534 86.5403 115.165 89.2751C113.452 88.0137 112.198 86.228 111.592 84.1889C110.986 82.1499 111.061 79.9688 111.807 77.9766C113.798 72.5038 119.903 69.3588 125.799 71.0442C131.695 72.7296 134.999 78.6762 132.916 84.1649C129.399 83.1282 125.882 82.0947 122.365 81.0644Z" fill="#DBDBDB"/>
<path d="M122.365 81.0643C124.457 83.8786 126.527 86.6929 128.642 89.5168C127.199 90.4826 125.562 91.1202 123.846 91.3845C122.131 91.6488 120.377 91.5333 118.711 91.0463C112.866 89.3323 109.807 83.4398 111.807 77.9765C113.807 72.5133 119.904 69.3587 125.799 71.0441C131.695 72.7295 134.999 78.6761 132.916 84.1648C129.399 83.1281 125.882 82.0946 122.365 81.0643Z" fill="#DBDBDB"/>
<path d="M122.365 81.0644L111.302 82.9088C111.056 81.2483 111.23 79.5527 111.807 77.9766C113.798 72.5038 119.904 69.3588 125.799 71.0442C131.695 72.7296 134.999 78.6762 132.916 84.1649C129.399 83.1282 125.882 82.0947 122.365 81.0644Z" fill="#FFC727"/>
<path d="M110.776 61.374C116.43 62.9449 122.043 64.5169 127.614 66.09C127.515 66.5002 127.417 66.9072 127.312 67.3143C121.757 65.7391 116.169 64.1661 110.547 62.5951C110.626 62.1881 110.712 61.7811 110.776 61.374Z" fill="#DBDBDB"/>
<path d="M109.5 92.8752C116.948 95.0737 124.436 97.2795 131.964 99.4928C131.852 99.8999 131.741 100.307 131.646 100.714C124.084 98.4943 116.573 96.2853 109.112 94.0868C109.233 93.683 109.367 93.2791 109.5 92.8752Z" fill="#DBDBDB"/>
<path d="M108.527 95.9309C116.024 98.1357 123.572 100.351 131.172 102.577C131.077 102.984 130.984 103.394 130.895 103.801C123.263 101.569 115.688 99.3494 108.168 97.1425C108.286 96.7386 108.403 96.3348 108.527 95.9309Z" fill="#DBDBDB"/>
<path d="M107.657 98.9902C115.212 101.206 122.834 103.432 130.521 105.668C130.444 106.075 130.371 106.485 130.305 106.896C122.577 104.651 114.923 102.419 107.342 100.202C107.444 99.8011 107.549 99.3941 107.657 98.9902Z" fill="#DBDBDB"/>
<path d="M105.097 92.907L102.388 92.112L102.798 90.9036L105.504 91.7017C105.367 92.1024 105.231 92.5063 105.097 92.907Z" fill="#FFC727"/>
<path d="M104.134 95.9595L101.405 95.1581C101.529 94.7574 101.656 94.3536 101.784 93.9497L104.506 94.7511C104.379 95.1517 104.255 95.5556 104.134 95.9595Z" fill="#455A64"/>
<path d="M103.274 99.0156L100.536 98.2111C100.644 97.8072 100.756 97.4065 100.87 97.0027L103.611 97.804C103.49 98.2068 103.378 98.6107 103.274 99.0156Z" fill="#DBDBDB"/>
<path d="M135.412 132.787H64.0873L58.5859 85.3765H129.91L135.412 132.787Z" fill="#FFC727"/>
<path d="M83.2181 80.4668H58.0166L58.5858 85.3767H85.2342L83.2181 80.4668Z" fill="#FFC727"/>
<path d="M107.361 49.0865C107.249 48.672 107.195 48.2438 107.202 47.8145C107.193 47.385 107.247 46.9566 107.361 46.5425C107.574 47.3772 107.574 48.2518 107.361 49.0865Z" fill="#263238"/>
<path d="M104.772 49.8339C104.469 49.5307 104.208 49.1872 103.999 48.8131C103.779 48.4451 103.612 48.0479 103.503 47.6333C103.806 47.9362 104.066 48.2798 104.276 48.6541C104.496 49.0221 104.663 49.4193 104.772 49.8339Z" fill="#263238"/>
<path d="M102.909 51.7735C102.494 51.6643 102.097 51.4973 101.729 51.2774C101.353 51.0698 101.01 50.8096 100.708 50.5046C101.123 50.6138 101.52 50.7808 101.888 51.0007C102.261 51.211 102.605 51.4709 102.909 51.7735Z" fill="#263238"/>
<path d="M102.264 54.3781C101.429 54.5907 100.554 54.5907 99.7197 54.3781C100.555 54.1698 101.429 54.1698 102.264 54.3781Z" fill="#263238"/>
<path d="M103.011 56.9761C102.708 57.2796 102.365 57.5396 101.99 57.7488C101.622 57.9687 101.225 58.1357 100.811 58.2449C101.426 57.6432 102.183 57.2058 103.011 56.9729V56.9761Z" fill="#263238"/>
<path d="M104.95 58.8301C104.841 59.2445 104.674 59.6416 104.454 60.0099C104.246 60.3837 103.986 60.7263 103.682 61.0275C103.791 60.6139 103.958 60.2178 104.178 59.8509C104.386 59.4762 104.647 59.1326 104.95 58.8301Z" fill="#263238"/>
<path d="M107.564 59.488C107.777 60.3227 107.777 61.1974 107.564 62.032C107.351 61.1974 107.351 60.3227 107.564 59.488Z" fill="#263238"/>
<path d="M110.153 58.7378C110.456 59.0416 110.716 59.385 110.926 59.7586C111.146 60.1266 111.313 60.5238 111.422 60.9384C111.117 60.6367 110.857 60.2929 110.649 59.9176C110.429 59.5495 110.262 59.1524 110.153 58.7378Z" fill="#263238"/>
<path d="M112.019 56.7979C112.433 56.907 112.829 57.074 113.196 57.2939C113.568 57.5031 113.909 57.7632 114.21 58.0667C113.382 57.8352 112.626 57.3976 112.013 56.7947L112.019 56.7979Z" fill="#263238"/>
<path d="M112.662 54.1841C113.077 54.0736 113.505 54.0201 113.934 54.0251C114.364 54.0164 114.792 54.07 115.206 54.1841C114.792 54.2982 114.364 54.3517 113.934 54.3431C113.505 54.3481 113.077 54.2946 112.662 54.1841Z" fill="#263238"/>
<path d="M111.914 51.5987C112.217 51.2952 112.561 51.0351 112.935 50.8259C113.302 50.6035 113.699 50.4353 114.115 50.3267C113.813 50.6316 113.469 50.8918 113.094 51.0994C112.725 51.319 112.328 51.487 111.914 51.5987Z" fill="#263238"/>
<path d="M109.975 49.7318C110.084 49.3172 110.251 48.9201 110.471 48.552C110.678 48.1767 110.939 47.8329 111.243 47.5312C111.134 47.9458 110.967 48.343 110.747 48.711C110.538 49.0853 110.278 49.4289 109.975 49.7318Z" fill="#263238"/>
<path d="M108.658 106.962H125C125.478 105.941 125.754 104.836 125.811 103.709V90.6299H109.469V103.89C109.469 105.204 108.658 106.962 108.658 106.962Z" fill="#455A64"/>
<path d="M111.47 94.4839C113.378 94.3249 115.314 94.2899 117.235 94.2804C119.156 94.2708 121.08 94.3249 123 94.4839C121.092 94.6397 119.156 94.6778 117.235 94.6842C115.314 94.6906 113.39 94.6397 111.47 94.4839Z" fill="white"/>
<path d="M111.47 96.6367C113.2 96.4809 114.926 96.4427 116.656 96.4332C118.386 96.4236 120.113 96.4777 121.84 96.6367C120.113 96.7957 118.383 96.8307 116.656 96.8402C114.93 96.8498 113.2 96.7957 111.47 96.6367Z" fill="white"/>
<path d="M111.47 98.7928C112.98 98.6338 114.494 98.5989 116.004 98.5893C117.519 98.5809 119.034 98.6489 120.542 98.7928C119.029 98.9487 117.518 98.9868 116.004 98.9932C114.491 98.9995 112.98 98.9487 111.47 98.7928Z" fill="white"/>
<path d="M111.47 100.946C113.378 100.79 115.314 100.752 117.235 100.742C119.156 100.732 121.08 100.787 123 100.946C121.092 101.105 119.156 101.14 117.235 101.149C115.314 101.159 113.39 101.105 111.47 100.946Z" fill="white"/>
</svg>
