<svg width="159" height="158" viewBox="0 0 159 158" fill="none" xmlns="http://www.w3.org/2000/svg">
<path d="M12.2051 148.064C55.031 147.871 103.075 147.868 145.901 148.064C103.075 148.259 55.031 148.256 12.2051 148.064Z" fill="#263238"/>
<path d="M131.477 99.4673C131.063 100.825 130.974 102.288 131.183 103.69C131.625 106.65 133.852 108.996 134.335 111.912C134.275 112.262 134.202 112.616 134.108 112.967C134.108 112.973 134.108 112.979 134.101 112.986C134.101 112.986 134.101 112.992 134.101 112.995C134.101 112.995 134.101 113.001 134.101 113.005C134.101 113.02 134.117 113.03 134.127 113.036C134.149 112.995 134.164 112.954 134.183 112.916C134.218 112.843 134.253 112.771 134.281 112.695C134.329 112.591 134.367 112.487 134.408 112.379C134.42 112.385 134.433 112.332 134.433 112.319C135.519 109.325 134.521 106.005 134.016 102.967C133.725 101.23 133.849 99.4768 133.59 97.7459C133.526 97.3321 133.53 96.5488 132.936 96.7068C132.266 96.8868 131.647 98.9114 131.48 99.4673H131.477Z" fill="#455A64"/>
<path d="M131.916 102.022C131.727 105.623 135.049 108.775 134.279 112.373C134.253 112.474 134.231 112.575 134.203 112.676C134.184 112.745 134.165 112.815 134.143 112.884C134.133 112.916 134.124 112.941 134.114 112.973C134.114 112.979 134.114 112.985 134.108 112.992C134.108 112.992 134.108 112.998 134.108 113.001C134.108 113.001 134.108 113.007 134.108 113.011C134.108 113.026 134.124 113.036 134.133 113.042C134.14 113.042 134.143 113.042 134.146 113.042C134.159 113.042 134.168 113.036 134.174 113.02C134.215 112.913 134.253 112.805 134.285 112.698C134.37 112.433 134.43 112.167 134.468 111.902C134.816 110.32 134.73 108.744 134.395 107.079C133.985 105.035 133.464 103.055 133.091 100.986C133.044 100.73 133.044 99.726 132.633 99.8587C132.115 100.029 131.938 101.608 131.916 102.025V102.022ZM132.093 101.485C132.124 101.283 132.387 99.9282 132.721 100.07C132.92 100.152 132.946 101.179 132.977 101.324C133.097 101.883 133.217 102.436 133.337 102.992C133.593 104.164 133.855 105.332 134.108 106.501C134.418 107.948 134.613 109.394 134.509 110.831C134.323 107.679 131.569 104.754 132.093 101.485Z" fill="white"/>
<path d="M130.613 134.046C130.613 134.093 130.654 134.16 130.718 134.119C133.446 132.363 136.848 133.793 139.675 132.224C140.809 131.592 141.791 130.707 142.707 129.801C143.383 129.131 144.062 128.421 144.555 127.603C144.621 127.492 144.969 127.047 144.912 126.826C144.479 125.142 140.108 127.988 139.378 128.392C136.52 129.953 133.904 131.374 131.403 133.373C131.141 133.579 130.882 133.793 130.623 134.014C130.613 134.021 130.613 134.033 130.616 134.049L130.613 134.046Z" fill="#455A64"/>
<path d="M130.613 134.047C130.714 133.983 130.812 133.92 130.91 133.86C132.786 132.96 134.874 132.641 136.889 132.129C138.923 131.608 140.664 130.759 142.173 129.284C142.439 129.021 143.547 128.023 143.222 127.521C142.928 127.069 141.813 127.941 141.542 128.096C139.511 129.233 137.527 130.386 135.411 131.365C134.056 131.99 132.688 132.616 131.4 133.374C131.138 133.579 130.879 133.794 130.62 134.015C130.61 134.021 130.61 134.034 130.613 134.05V134.047ZM131.886 133.285C133.377 132.452 134.947 131.753 136.501 131.018C137.568 130.512 138.611 129.966 139.634 129.375C140.193 129.05 140.749 128.718 141.311 128.396C141.595 128.235 141.876 128.077 142.161 127.925C142.303 127.846 142.77 127.578 142.89 127.793C143.212 128.377 140.079 131.352 136.191 132.12C134.732 132.407 133.257 132.733 131.886 133.282V133.285Z" fill="white"/>
<path d="M135.152 128.879C135.152 128.879 135.146 128.908 135.156 128.917C135.165 128.927 135.181 128.93 135.197 128.917C135.254 128.86 135.31 128.807 135.367 128.753C135.573 128.551 135.772 128.342 135.967 128.134C136.002 128.093 136.04 128.058 136.075 128.02C136.087 128.02 136.097 128.017 136.106 128.007C138.286 125.778 141.589 125.098 143.447 122.515C144.274 121.365 144.798 120.032 145.196 118.68C145.367 118.096 146.207 116.312 145.471 115.85C144.9 115.49 144.003 116.274 143.63 116.605C142.442 117.66 141.602 119.132 140.775 120.471C139.963 121.779 139.227 123.128 138.456 124.454C137.739 125.686 136.905 126.785 136.018 127.862C135.737 128.203 135.449 128.544 135.156 128.889L135.152 128.879Z" fill="#455A64"/>
<path d="M135.152 128.879C135.152 128.879 135.145 128.908 135.155 128.917C135.335 128.731 135.512 128.545 135.692 128.358C135.581 128.488 135.471 128.62 135.363 128.75C135.569 128.548 135.768 128.339 135.963 128.131C136.058 128.02 136.156 127.91 136.254 127.799C137.502 126.586 138.85 125.484 140.272 124.47C140.979 123.965 141.579 123.393 142.081 122.673C142.994 121.362 144.412 118.283 144.138 117.815C143.847 117.319 143.294 118.333 143.136 118.548C141.867 120.279 140.837 122.158 139.472 123.823C138.553 124.941 137.625 126.053 136.696 127.161C136.462 127.389 136.232 127.619 136.011 127.856C135.73 128.197 135.442 128.538 135.148 128.883L135.152 128.879ZM143.932 117.926C144.172 118.027 143.806 118.854 143.711 119.072C143.25 120.124 142.745 121.188 142.179 122.193C141.579 123.257 140.72 123.962 139.735 124.653C138.926 125.222 138.133 125.85 137.378 126.526C138.301 125.481 139.213 124.429 140.066 123.333C140.774 122.42 141.386 121.451 142.012 120.481C142.325 119.998 142.634 119.514 142.966 119.044C143.054 118.914 143.714 117.837 143.932 117.929" fill="white"/>
<path d="M118.908 142.631C118.908 142.631 118.917 142.657 118.93 142.657C118.942 142.657 118.955 142.654 118.958 142.635C118.971 142.565 118.987 142.499 118.999 142.426C119.05 142.173 119.091 141.921 119.129 141.668C119.135 141.621 119.145 141.576 119.148 141.529C119.157 141.52 119.16 141.513 119.164 141.504C119.644 138.765 121.731 136.599 121.795 133.759C121.823 132.496 121.539 131.251 121.147 130.054C120.976 129.54 120.695 127.802 119.922 127.834C119.318 127.859 119.053 128.886 118.946 129.318C118.604 130.692 118.728 132.202 118.794 133.601C118.857 134.972 118.993 136.337 119.094 137.701C119.189 138.968 119.129 140.196 119.018 141.441C118.983 141.832 118.942 142.23 118.901 142.628L118.908 142.631Z" fill="#455A64"/>
<path d="M118.908 142.631C118.908 142.631 118.918 142.656 118.93 142.656C118.968 142.429 119.006 142.201 119.044 141.974C119.028 142.126 119.012 142.277 119 142.426C119.05 142.173 119.091 141.92 119.129 141.668C119.145 141.538 119.158 141.409 119.174 141.276C119.483 139.754 119.919 138.263 120.45 136.8C120.715 136.071 120.87 135.348 120.876 134.564C120.889 133.14 120.377 130.158 119.941 129.953C119.477 129.732 119.581 130.758 119.575 130.995C119.515 132.909 119.704 134.811 119.54 136.725C119.429 138.01 119.303 139.296 119.18 140.584C119.123 140.869 119.069 141.156 119.025 141.44C118.99 141.832 118.949 142.23 118.908 142.628V142.631ZM119.36 139.776C119.511 138.541 119.65 137.306 119.726 136.071C119.786 135.044 119.748 134.018 119.72 132.991C119.704 132.476 119.692 131.965 119.698 131.453C119.698 131.314 119.641 130.187 119.846 130.146C120.074 130.098 120.222 130.891 120.263 131.099C120.453 132.107 120.62 133.143 120.709 134.169C120.803 135.256 120.525 136.207 120.149 137.211C119.84 138.035 119.575 138.901 119.36 139.776Z" fill="white"/>
<path d="M118.592 144.905C118.64 144.905 118.712 144.886 118.804 144.833C121.593 143.765 124.647 143.718 127.452 142.65C128.677 142.183 129.837 141.497 130.712 140.503C131.084 140.079 132.382 138.614 132.095 137.938C131.242 135.897 121.824 142.325 118.728 144.637C118.665 144.669 118.618 144.7 118.586 144.735C118.491 144.823 118.507 144.902 118.592 144.909V144.905Z" fill="#455A64"/>
<path d="M118.593 144.906C118.802 144.792 119.007 144.675 119.219 144.564C119.894 144.293 120.58 144.034 121.278 143.813C122.383 143.465 123.52 143.257 124.645 142.976C126.401 142.534 128.021 141.697 129.351 140.462C129.642 140.196 130.501 139.486 130.314 138.99C130.144 138.538 129.439 138.983 129.19 139.1C125.649 140.79 122.203 142.733 118.77 144.64C118.707 144.672 118.647 144.7 118.59 144.732C118.495 144.82 118.511 144.899 118.596 144.906H118.593ZM120.236 144.005C121.581 143.273 122.927 142.546 124.272 141.826C125.33 141.261 126.385 140.702 127.446 140.146C127.971 139.871 128.492 139.59 129.019 139.325C129.228 139.22 130.033 138.81 130.109 139.1C130.182 139.369 129.629 139.934 129.528 140.038C127.936 141.674 125.896 142.518 123.71 143.004C122.529 143.266 121.36 143.582 120.232 144.005H120.236Z" fill="white"/>
<path d="M131.961 121.324C131.939 121.362 131.936 121.4 131.949 121.432C131.965 121.479 132.015 121.514 132.069 121.517C132.094 121.523 132.123 121.517 132.151 121.511C132.167 121.511 132.183 121.511 132.198 121.495C133.515 120.206 135.527 119.006 136.882 117.771C137.921 116.82 138.777 115.686 139.498 114.473C140.294 113.134 140.979 111.681 141.424 110.184C141.636 109.47 142.252 107.784 141.671 107.079C140.48 105.633 138.07 110.892 137.726 111.479C135.79 114.755 133.86 118.03 131.958 121.324H131.961Z" fill="#455A64"/>
<path d="M131.949 121.431C131.965 121.479 132.016 121.513 132.069 121.517C132.148 121.406 132.224 121.292 132.303 121.182C132.818 120.575 133.333 119.972 133.885 119.394C134.779 118.453 135.803 117.638 136.665 116.668C138.168 114.978 140.989 109.596 140.177 109.059C139.754 108.778 139.233 109.887 139.078 110.149C138.471 111.185 138.001 112.291 137.379 113.323C136.731 114.407 136.021 115.449 135.31 116.491C134.217 118.096 133.115 119.697 132.041 121.314C132.009 121.352 131.981 121.39 131.949 121.428V121.431ZM133.029 120.127C134.002 118.709 134.962 117.281 135.926 115.857C136.589 114.871 137.246 113.876 137.84 112.846C138.168 112.268 138.465 111.675 138.762 111.078C138.907 110.79 139.053 110.497 139.217 110.215C139.359 109.975 139.886 108.968 140.123 109.337C140.351 109.691 139.646 111.283 139.479 111.653C139.204 112.253 138.923 112.846 138.617 113.431C138.017 114.58 137.325 115.692 136.453 116.662C135.581 117.625 134.564 118.44 133.683 119.397C133.462 119.637 133.241 119.88 133.026 120.13L133.029 120.127Z" fill="white"/>
<path d="M116.164 123.945C118.586 126.58 122.5 127.312 123.924 131.927C123.927 131.946 123.949 131.946 123.959 131.933C123.965 131.933 123.968 131.924 123.965 131.917C123.877 131.453 123.772 130.989 123.646 130.528C122.989 128.048 121.83 125.638 120.295 123.607C119.366 122.388 118.27 121.286 117.023 120.402C116.385 119.95 115.001 118.797 114.205 118.974C112.484 119.359 115.721 123.468 116.164 123.948V123.945Z" fill="#455A64"/>
<path d="M116.309 122.325C117.285 124.239 119.221 125.48 120.702 126.971C121.722 127.998 122.651 129.122 123.384 130.363C123.586 130.881 123.775 131.403 123.959 131.936C123.965 131.936 123.968 131.927 123.965 131.921C123.876 131.456 123.772 130.992 123.646 130.531C123.63 130.506 123.617 130.48 123.605 130.458C123.09 129.04 122.376 127.679 121.593 126.431C120.491 124.675 119.142 123.07 117.597 121.69C117.332 121.45 116.451 120.405 115.993 120.673C115.554 120.929 116.173 122.063 116.309 122.328V122.325ZM116.145 120.837C116.479 120.711 118.033 122.256 118.643 122.887C119.957 124.242 121.094 125.768 122.019 127.41C122.427 128.13 122.771 128.863 123.084 129.612C122.563 128.835 121.972 128.105 121.331 127.417C119.995 125.986 118.324 124.839 117.111 123.301C116.795 122.9 116.517 122.464 116.309 121.993C116.227 121.807 115.841 120.951 116.145 120.837Z" fill="white"/>
<path d="M119.171 109.575C119.013 110.857 118.997 112.165 119.146 113.45C119.43 115.964 120.311 118.317 121.679 120.437C121.704 120.475 121.726 120.513 121.751 120.55C121.774 120.674 121.796 120.797 121.827 120.917C121.834 120.945 121.837 120.971 121.846 120.999L121.853 121.018C121.872 121.037 121.909 121.031 121.906 120.993C121.906 120.841 121.906 120.689 121.913 120.538C121.96 117.417 122.538 114.363 122.121 111.239C122.026 110.557 121.584 106.091 120.024 106.855C119.297 107.209 119.25 108.921 119.171 109.575Z" fill="#455A64"/>
<path d="M119.794 110.2C119.687 112.123 120.192 114.186 120.587 116.059C120.893 117.515 121.222 119.002 121.68 120.433C121.714 120.55 121.755 120.67 121.793 120.784C121.803 120.825 121.815 120.869 121.828 120.913C121.834 120.948 121.841 120.98 121.853 121.014C121.872 121.033 121.91 121.027 121.907 120.989C121.907 120.838 121.907 120.686 121.913 120.534C121.882 120.421 121.85 120.307 121.819 120.19C121.591 118.494 121.613 116.788 121.626 115.067C121.632 114.138 121.62 113.213 121.537 112.288C121.458 111.397 121.417 110.44 121.139 109.584C121.019 109.211 120.767 108.472 120.242 108.747C119.8 108.977 119.813 109.789 119.788 110.197L119.794 110.2ZM120.94 109.552C121.269 110.563 121.319 111.751 121.392 112.806C121.465 113.816 121.452 114.833 121.443 115.847C121.433 116.921 121.421 118.014 121.518 119.088C121.149 117.736 120.792 116.381 120.53 114.991C120.325 113.905 120.141 112.815 120.015 111.716C119.949 111.151 119.908 110.582 119.958 110.01C119.974 109.808 119.996 109.606 120.04 109.41C120.176 108.785 120.792 109.094 120.94 109.549V109.552Z" fill="white"/>
<path d="M138.327 101.47C138.314 101.52 138.308 101.568 138.295 101.618C138.279 101.697 138.352 101.735 138.412 101.723C138.444 101.713 138.469 101.691 138.478 101.653C138.5 101.565 138.519 101.473 138.542 101.381C138.557 101.306 138.576 101.233 138.592 101.16C138.658 101.04 138.731 100.92 138.81 100.807C139.638 99.5559 141.071 98.4978 142.044 97.4271C142.932 96.4574 143.769 95.4372 144.448 94.3065C145.133 93.1631 145.67 91.9155 145.841 90.5826C145.885 90.2257 146.056 89.3192 145.607 89.095C145.042 88.8107 144.179 89.8941 143.873 90.1752C142.821 91.1575 141.927 92.3008 141.176 93.5263C139.663 95.9868 138.889 98.6683 138.327 101.473V101.47Z" fill="#455A64"/>
<path d="M138.579 100.847C138.485 101.049 138.396 101.258 138.327 101.469C138.314 101.52 138.308 101.567 138.295 101.618C138.279 101.697 138.352 101.735 138.412 101.722C138.421 101.687 138.434 101.649 138.447 101.615C138.478 101.536 138.51 101.457 138.542 101.378C138.624 101.182 138.715 100.992 138.81 100.803C139.145 100.136 139.549 99.5111 140.023 98.8731C140.816 97.8118 141.649 96.7822 142.404 95.6925C142.783 95.1461 145.689 90.939 144.546 90.5378C144.331 90.4589 144.123 90.7494 144.009 90.8663C143.605 91.2864 143.276 91.7854 142.963 92.275C142.234 93.4152 141.548 94.5838 140.898 95.7714C140.007 97.4075 139.214 99.0942 138.576 100.844L138.579 100.847ZM140.658 96.5042C141.214 95.4524 141.801 94.4196 142.417 93.4026C142.717 92.9067 143.017 92.4076 143.342 91.9276C143.504 91.6907 144.322 90.6231 144.546 90.7621C144.874 90.9674 144.094 92.6287 143.857 93.0773C143.586 93.5889 143.292 94.0848 142.982 94.5712C142.36 95.5535 141.675 96.4947 140.967 97.417C140.345 98.2351 139.6 99.1036 139.018 100.045C139.499 98.8352 140.051 97.6571 140.655 96.501L140.658 96.5042Z" fill="white"/>
<path d="M128.334 116.106C128.35 116.156 128.366 116.201 128.381 116.251C128.407 116.327 128.489 116.324 128.533 116.283C128.558 116.261 128.568 116.226 128.555 116.188C128.527 116.1 128.501 116.011 128.473 115.923C128.451 115.847 128.429 115.777 128.407 115.705C128.407 115.566 128.407 115.427 128.416 115.288C128.501 113.791 129.212 112.155 129.519 110.743C129.8 109.457 130.011 108.156 130.03 106.836C130.049 105.503 129.888 104.151 129.367 102.916C129.225 102.584 128.918 101.716 128.419 101.747C127.788 101.785 127.586 103.156 127.462 103.554C127.049 104.931 126.846 106.368 126.809 107.805C126.733 110.692 127.409 113.402 128.331 116.109L128.334 116.106Z" fill="#455A64"/>
<path d="M128.243 115.443C128.262 115.667 128.29 115.892 128.338 116.106C128.353 116.157 128.369 116.201 128.385 116.252C128.41 116.328 128.492 116.324 128.537 116.283C128.527 116.245 128.518 116.211 128.511 116.173C128.502 116.088 128.486 116.005 128.477 115.92C128.451 115.708 128.432 115.5 128.42 115.288C128.375 114.546 128.41 113.801 128.502 113.011C128.657 111.694 128.859 110.386 128.966 109.063C129.02 108.4 129.424 103.302 128.233 103.529C128.009 103.57 127.974 103.924 127.933 104.085C127.794 104.651 127.76 105.248 127.737 105.829C127.681 107.181 127.671 108.539 127.706 109.891C127.756 111.754 127.917 113.611 128.243 115.443ZM127.861 110.642C127.813 109.452 127.804 108.264 127.826 107.076C127.835 106.498 127.845 105.914 127.886 105.336C127.905 105.049 128.079 103.716 128.341 103.725C128.729 103.738 128.887 105.567 128.909 106.072C128.931 106.65 128.925 107.228 128.903 107.803C128.859 108.965 128.735 110.121 128.59 111.274C128.464 112.294 128.255 113.419 128.224 114.524C128.034 113.235 127.917 111.94 127.861 110.639V110.642Z" fill="white"/>
<path d="M121.526 118.2C121.943 120.91 122.455 123.56 123.169 126.207C123.721 128.247 124.277 130.319 124.356 132.442C124.451 134.981 123.715 137.799 122.426 140.234C123.172 139.403 123.908 138.56 124.637 137.701C126.122 135.96 127.597 134.17 128.652 132.126C128.756 131.924 128.851 131.719 128.945 131.513C128.936 131.501 128.933 131.485 128.936 131.463C129.542 128.693 129.691 125.983 129.47 123.241C129.005 121.795 128.434 120.496 127.679 119.126C126.933 117.774 126.22 116.457 125.825 114.953C125.803 114.868 125.923 114.817 125.957 114.903C126.716 116.893 128.276 118.829 129.192 120.891C129.138 120.55 129.084 120.212 129.021 119.868C128.424 116.602 127.294 113.324 128.487 110.058C128.529 109.947 128.683 110.023 128.649 110.13C127.524 113.766 129.293 117.771 129.817 121.384C130.209 124.072 130.338 126.965 129.688 129.643C130.19 128.172 130.544 126.646 130.885 125.127C132.938 115.964 135.316 106.852 139.77 98.5228C139.814 98.4407 139.943 98.4976 139.902 98.5828C135.341 107.619 133.535 117.442 131.16 127.18C131.131 127.29 131.103 127.401 131.074 127.511C131.864 126.226 132.909 125.051 133.939 124.05C133.993 123.999 134.075 124.062 134.027 124.122C132.723 125.796 131.725 127.628 130.547 129.375C130.114 130.736 129.574 132.053 128.844 133.298C127.973 134.779 126.915 136.131 125.812 137.445C127.673 135.885 129.549 134.346 131.299 132.647C133.939 130.082 136.459 127.36 138.74 124.463C138.771 124.422 138.835 124.473 138.803 124.517C136.554 127.65 134.138 130.626 131.4 133.348C129.084 135.651 126.602 137.998 123.822 139.766C121.166 142.824 118.327 145.897 114.966 148.136C114.805 148.244 114.656 148.023 114.795 147.896C115.411 147.35 116.015 146.791 116.612 146.229C117.193 144.934 117.995 143.746 118.51 142.404C119.116 140.824 119.524 139.204 119.742 137.53C119.757 137.407 119.937 137.439 119.931 137.559C119.792 139.839 119.28 142.647 118.061 144.826C118.911 143.986 119.745 143.133 120.56 142.262C122.742 138.929 124.163 134.969 123.687 130.979C123.44 128.93 122.853 126.949 122.373 124.95C121.836 122.72 121.561 120.493 121.368 118.213C121.359 118.115 121.504 118.099 121.52 118.197L121.526 118.2Z" fill="#455A64"/>
<path d="M112.812 26.9834H21.5762V148.168H112.812V26.9834Z" fill="#FFC727"/>
<g opacity="0.4">
<path d="M112.812 26.9834H21.5762V148.168H112.812V26.9834Z" fill="black"/>
</g>
<path d="M115.291 26.9834H24.0547V148.168H115.291V26.9834Z" fill="#FFC727"/>
<g opacity="0.2">
<path d="M115.291 26.9834H24.0547V148.168H115.291V26.9834Z" fill="black"/>
</g>
<path d="M109.25 31.8225L28.7148 32.8486L30.1059 142.019L110.641 140.993L109.25 31.8225Z" fill="#EBEBEB"/>
<path d="M29.3588 31.4799L26.9961 140.634L107.519 142.377L109.881 33.2229L29.3588 31.4799Z" fill="#DBDBDB"/>
<path d="M108.704 32.3311H28.1621V141.511H108.704V32.3311Z" fill="white"/>
<path d="M44.1975 105.392H37.3594V112.23H44.1975V105.392Z" fill="#EBEBEB"/>
<path d="M70.0474 105.392H47.8906V106.393H70.0474V105.392Z" fill="#C7C7C7"/>
<path d="M99.5098 107.338H47.8906V108.34H99.5098V107.338Z" fill="#EBEBEB"/>
<path d="M99.5098 109.284H47.8906V110.285H99.5098V109.284Z" fill="#EBEBEB"/>
<path d="M99.5098 111.229H47.8906V112.231H99.5098V111.229Z" fill="#EBEBEB"/>
<path d="M37.8613 108.459C38.114 108.671 38.3541 108.889 38.5909 109.11C38.831 109.331 39.0584 109.561 39.2921 109.786C39.7533 110.241 40.1955 110.711 40.6345 111.185L39.8512 111.235C40.4702 109.937 41.1904 108.696 41.98 107.499C42.378 106.902 42.7949 106.318 43.2434 105.752C43.6951 105.187 44.1657 104.637 44.7026 104.123C44.4973 104.836 44.2288 105.512 43.9414 106.172C43.6508 106.833 43.3287 107.477 42.9844 108.105C42.2927 109.362 41.5315 110.575 40.6692 111.728L40.2397 112.303L39.8828 111.779C39.5195 111.245 39.1658 110.705 38.8278 110.155C38.6636 109.877 38.4899 109.603 38.3288 109.318C38.1677 109.037 38.0066 108.753 37.8613 108.459Z" fill="#FFC727"/>
<path d="M44.1975 116.709H37.3594V123.547H44.1975V116.709Z" fill="#EBEBEB"/>
<path d="M70.0474 116.709H47.8906V117.71H70.0474V116.709Z" fill="#C7C7C7"/>
<path d="M99.5098 118.655H47.8906V119.656H99.5098V118.655Z" fill="#EBEBEB"/>
<path d="M99.5098 120.601H47.8906V121.602H99.5098V120.601Z" fill="#EBEBEB"/>
<path d="M99.5098 122.546H47.8906V123.547H99.5098V122.546Z" fill="#EBEBEB"/>
<path d="M77.541 59.7495H58.7891V60.7508H77.541V59.7495Z" fill="#C7C7C7"/>
<path d="M99.5083 61.6948H58.7891V62.6961H99.5083V61.6948Z" fill="#EBEBEB"/>
<path d="M99.5083 63.6406H58.7891V64.6419H99.5083V63.6406Z" fill="#EBEBEB"/>
<path d="M99.5083 67.5322H58.7891V68.5335H99.5083V67.5322Z" fill="#EBEBEB"/>
<path d="M76.4955 69.4775H58.7891V70.4788H76.4955V69.4775Z" fill="#EBEBEB"/>
<path d="M108.704 43.3252H28.1621V52.8449H108.704V43.3252Z" fill="#FFC727"/>
<path d="M42.9082 45.5645C42.9082 45.2897 43.1198 45.0781 43.3946 45.0781C43.6694 45.0781 43.8905 45.2897 43.8905 45.5645V50.7792C43.8905 51.054 43.6599 51.2656 43.3946 51.2656C43.1293 51.2656 42.9082 51.054 42.9082 50.7792V45.5645Z" fill="white"/>
<path d="M46.5149 50.7794C46.5149 51.0447 46.2938 51.2658 46.038 51.2658C45.7632 51.2658 45.5516 51.0447 45.5516 50.7794V45.6342C45.5421 45.4826 45.6148 45.3247 45.7474 45.2268C45.9685 45.0752 46.2686 45.1194 46.4202 45.3341L49.2755 49.2854V45.6437C49.2755 45.3878 49.4871 45.1667 49.7524 45.1667C50.0177 45.1667 50.2388 45.3878 50.2388 45.6437V50.7794C50.2388 51.0447 50.0177 51.2658 49.7524 51.2658C49.6103 51.2658 49.4776 51.1963 49.3892 51.0889C49.3702 51.07 49.3544 51.0542 49.3449 51.0352L46.5149 47.1092V50.7794Z" fill="white"/>
<path d="M52.1624 49.7278C52.3203 49.5319 52.6141 49.5067 52.8068 49.6646C53.1952 49.9836 53.868 50.3531 54.4965 50.3468C54.9387 50.3468 55.3367 50.2142 55.602 50.0183C55.8673 49.8225 55.981 49.6014 55.981 49.3803C55.981 49.2666 55.9558 49.1845 55.9021 49.0961C55.8484 49.0076 55.7694 48.9192 55.6368 48.8308C55.3809 48.6634 54.9482 48.5117 54.4271 48.4138H54.4081C53.9912 48.3349 53.6027 48.2275 53.2679 48.0696C52.9331 47.9116 52.6394 47.6905 52.4467 47.381C52.314 47.1694 52.2445 46.9199 52.2445 46.6577C52.2445 46.1271 52.5446 45.666 52.952 45.3659C53.369 45.0658 53.9059 44.8984 54.4808 44.8984C55.3304 44.8984 55.9558 45.3154 56.4074 45.6059C56.6096 45.7481 56.6727 46.0292 56.5306 46.2345C56.398 46.4461 56.1137 46.5093 55.9021 46.3671C55.4504 46.0671 55.0177 45.8018 54.4776 45.8018C54.0796 45.8018 53.7259 45.925 53.4858 46.1018C53.2458 46.2787 53.151 46.4745 53.151 46.6577C53.151 46.7651 53.17 46.8346 53.2142 46.9041C53.2584 46.9736 53.3374 47.0557 53.4542 47.1346C53.6848 47.2926 54.0828 47.4347 54.5597 47.5231H54.5787C55.0303 47.6116 55.4441 47.7253 55.7978 47.8958C56.1611 48.0727 56.4801 48.3033 56.6822 48.6286C56.8149 48.8402 56.8938 49.1055 56.8938 49.3803C56.8938 49.9457 56.5748 50.4321 56.1326 50.7511C55.6999 51.0701 55.1251 51.2565 54.4965 51.2565C53.5427 51.247 52.7373 50.7701 52.2319 50.3721C52.0361 50.2142 52.0108 49.9204 52.1624 49.7278Z" fill="white"/>
<path d="M60.8169 51.2656C59.3925 51.2656 58.2617 50.1159 58.2617 48.7104V45.5645C58.2617 45.2897 58.4733 45.0781 58.7481 45.0781C59.0229 45.0781 59.244 45.2897 59.244 45.5645V48.7104C59.244 49.5758 59.9515 50.2833 60.8169 50.2833C61.6824 50.2833 62.3899 49.5758 62.3899 48.7104V45.5645C62.3899 45.2897 62.611 45.0781 62.8857 45.0781C63.1605 45.0781 63.3722 45.2897 63.3722 45.5645V48.7104C63.3722 50.1159 62.2319 51.2656 60.8169 51.2656Z" fill="white"/>
<path d="M69.3186 50.5328C69.407 50.7887 69.2649 51.0635 69.0091 51.1519C68.9743 51.1614 68.9017 51.1772 68.8132 51.1772H68.8038C68.7153 51.1772 68.5827 51.1582 68.4595 51.0793C68.3458 51.0098 68.2479 50.8929 68.1752 50.7697C68.052 50.5139 67.9889 50.1949 67.9889 49.7085C67.9794 49.5411 67.9447 49.4242 67.8815 49.3294C67.8278 49.2315 67.7236 49.1431 67.6162 49.0736C67.4298 48.9504 67.1993 48.8778 67.1203 48.862H66.078V50.7792C66.078 51.0445 65.8569 51.2656 65.5821 51.2656C65.3073 51.2656 65.0957 51.0445 65.0957 50.7792V45.5645C65.0957 45.2897 65.3073 45.0781 65.5821 45.0781H67.1645C68.2163 45.0781 69.0564 45.9278 69.0564 46.9795C69.0564 47.5639 68.7911 48.0755 68.3679 48.4293C68.4816 48.5177 68.589 48.6251 68.6774 48.7578C68.8543 49.0136 68.968 49.3421 68.968 49.7116C68.9585 49.9769 68.987 50.1443 69.0028 50.2328C69.1449 50.277 69.2586 50.3844 69.3123 50.5328H69.3186ZM68.0805 46.9795C68.0805 46.4679 67.673 46.0604 67.1708 46.0604H66.0843V47.8829H67.1708C67.6762 47.8829 68.0805 47.4754 68.0805 46.9795Z" fill="white"/>
<path d="M73.909 49.8094H71.7612L71.3285 50.9591C71.2495 51.1549 71.0632 51.2686 70.8673 51.2686C70.8042 51.2686 70.7536 51.2591 70.6999 51.2433C70.4441 51.1454 70.3209 50.8643 70.4093 50.6053L72.3613 45.397C72.4403 45.2011 72.6361 45.0779 72.8287 45.0874C73.0309 45.0779 73.2172 45.2011 73.2962 45.397L75.2482 50.6053C75.3366 50.8611 75.2134 51.1454 74.9576 51.2433C74.9133 51.2623 74.8502 51.2686 74.7902 51.2686C74.5943 51.2686 74.4111 51.1549 74.3385 50.9591L73.9058 49.8094H73.909ZM73.5457 48.8365L72.8287 46.9351L72.1118 48.8365H73.5426H73.5457Z" fill="white"/>
<path d="M77.4368 50.7794C77.4368 51.0447 77.2157 51.2658 76.9599 51.2658C76.6851 51.2658 76.4735 51.0447 76.4735 50.7794V45.6342C76.464 45.4826 76.5367 45.3247 76.6693 45.2268C76.8904 45.0752 77.1905 45.1194 77.3421 45.3341L80.1973 49.2854V45.6437C80.1973 45.3878 80.409 45.1667 80.6743 45.1667C80.9396 45.1667 81.1607 45.3878 81.1607 45.6437V50.7794C81.1607 51.0447 80.9396 51.2658 80.6743 51.2658C80.5321 51.2658 80.3995 51.1963 80.311 51.0889C80.2921 51.07 80.2763 51.0542 80.2668 51.0352L77.4368 47.1092V50.7794Z" fill="white"/>
<path d="M83.0059 48.0851C83.0153 46.3353 84.4809 44.9108 86.2496 44.9014C87.0266 44.9014 87.7341 45.1572 88.2932 45.5899C88.5048 45.7668 88.5395 46.0763 88.3816 46.2974C88.2047 46.5185 87.8762 46.5533 87.6741 46.3953C87.2856 46.0763 86.7992 45.9089 86.2496 45.9089C85.64 45.9089 85.0747 46.1553 84.6578 46.5469C84.2598 46.9544 84.0134 47.485 84.0134 48.0851C84.0134 48.6852 84.2598 49.2348 84.6578 49.6233C85.0747 50.0118 85.64 50.2613 86.2496 50.2613C86.7992 50.2613 87.2761 50.0939 87.6741 49.7749C87.8762 49.6233 88.2047 49.6612 88.3816 49.8728C88.5395 50.0939 88.5048 50.4129 88.2932 50.5803C87.7373 51.013 87.0298 51.2689 86.2496 51.2689C84.4809 51.2689 83.0153 49.8444 83.0059 48.0851Z" fill="white"/>
<path d="M90.093 50.7792V45.5645C90.093 45.2897 90.3046 45.0781 90.5794 45.0781H93.4694C93.7253 45.0781 93.9558 45.2897 93.9558 45.5645C93.9558 45.8393 93.7253 46.0604 93.4694 46.0604H91.0721V47.6776H93.1315C93.3968 47.6776 93.6179 47.9081 93.6179 48.164C93.6179 48.4388 93.3968 48.6598 93.1315 48.6598H91.0721V50.2865H93.4694C93.7253 50.2865 93.9558 50.5076 93.9558 50.7824C93.9558 51.0571 93.7253 51.2688 93.4694 51.2688H90.6047C90.5857 51.2688 90.5857 51.2593 90.5857 51.2593L90.5762 51.2688C90.3015 51.2688 90.0898 51.0477 90.0898 50.7824L90.093 50.7792Z" fill="white"/>
<path d="M99.6801 99.1549H37.1895V84.0542H99.6801V99.1549ZM37.5306 98.7696H99.339V84.4395H37.5306V98.7696Z" fill="#EBEBEB"/>
<path d="M99.5089 92.9512H37.3594V93.3365H99.5089V92.9512Z" fill="#EBEBEB"/>
<path d="M99.5089 87.1494H37.3594V87.5347H99.5089V87.1494Z" fill="#EBEBEB"/>
<path d="M57.8177 84.2466H57.4766V98.962H57.8177V84.2466Z" fill="#EBEBEB"/>
<path d="M79.3939 84.2466H79.0527V98.962H79.3939V84.2466Z" fill="#EBEBEB"/>
<path d="M40.9062 85.8226C42.0054 85.7436 43.1046 85.7057 44.2037 85.6741C45.3029 85.6394 46.402 85.633 47.5012 85.6299C48.6003 85.633 49.6995 85.6394 50.7986 85.6741L52.4474 85.7278C52.9969 85.7594 53.5465 85.7783 54.0961 85.8226C53.5465 85.8668 52.9969 85.8857 52.4474 85.9173L50.7986 85.971C49.6995 86.0057 48.6003 86.0121 47.5012 86.0152C46.402 86.0089 45.3029 86.0057 44.2037 85.971C43.1046 85.9394 42.0054 85.9015 40.9062 85.8226Z" fill="#C7C7C7"/>
<path d="M61.8379 85.8226C62.937 85.7436 64.0362 85.7057 65.1354 85.6741C66.2345 85.6394 67.3337 85.633 68.4328 85.6299C69.532 85.633 70.6311 85.6394 71.7303 85.6741L73.379 85.7278C73.9286 85.7594 74.4782 85.7783 75.0277 85.8226C74.4782 85.8668 73.9286 85.8857 73.379 85.9173L71.7303 85.971C70.6311 86.0057 69.532 86.0121 68.4328 86.0152C67.3337 86.0089 66.2345 86.0057 65.1354 85.971C64.0362 85.9394 62.937 85.9015 61.8379 85.8226Z" fill="#C7C7C7"/>
<path d="M82.8984 85.8226C83.9976 85.7436 85.0967 85.7057 86.1959 85.6741C87.2951 85.6394 88.3942 85.633 89.4934 85.6299C90.5925 85.633 91.6917 85.6394 92.7908 85.6741L94.4396 85.7278C94.9891 85.7594 95.5387 85.7783 96.0883 85.8226C95.5387 85.8668 94.9891 85.8857 94.4396 85.9173L92.7908 85.971C91.6917 86.0057 90.5925 86.0121 89.4934 86.0152C88.3942 86.0089 87.2951 86.0057 86.1959 85.971C85.0967 85.9394 83.9976 85.9015 82.8984 85.8226Z" fill="#C7C7C7"/>
<path d="M40.9062 89.534C42.0054 89.455 43.1046 89.4171 44.2037 89.3855C45.3029 89.3508 46.402 89.3445 47.5012 89.3413C48.6003 89.3445 49.6995 89.3508 50.7986 89.3855L52.4474 89.4392C52.9969 89.4708 53.5465 89.4898 54.0961 89.534C53.5465 89.5782 52.9969 89.5971 52.4474 89.6287L50.7986 89.6824C49.6995 89.7172 48.6003 89.7235 47.5012 89.7266C46.402 89.7203 45.3029 89.7172 44.2037 89.6824C43.1046 89.6508 42.0054 89.6129 40.9062 89.534Z" fill="#EBEBEB"/>
<path d="M61.8379 89.534C62.937 89.455 64.0362 89.4171 65.1354 89.3855C66.2345 89.3508 67.3337 89.3445 68.4328 89.3413C69.532 89.3445 70.6311 89.3508 71.7303 89.3855L73.379 89.4392C73.9286 89.4708 74.4782 89.4898 75.0277 89.534C74.4782 89.5782 73.9286 89.5971 73.379 89.6287L71.7303 89.6824C70.6311 89.7172 69.532 89.7235 68.4328 89.7266C67.3337 89.7203 66.2345 89.7172 65.1354 89.6824C64.0362 89.6508 62.937 89.6129 61.8379 89.534Z" fill="#EBEBEB"/>
<path d="M82.8984 89.534C83.9976 89.455 85.0967 89.4171 86.1959 89.3855C87.2951 89.3508 88.3942 89.3445 89.4934 89.3413C90.5925 89.3445 91.6917 89.3508 92.7908 89.3855L94.4396 89.4392C94.9891 89.4708 95.5387 89.4898 96.0883 89.534C95.5387 89.5782 94.9891 89.5971 94.4396 89.6287L92.7908 89.6824C91.6917 89.7172 90.5925 89.7235 89.4934 89.7266C88.3942 89.7203 87.2951 89.7172 86.1959 89.6824C85.0967 89.6508 83.9976 89.6129 82.8984 89.534Z" fill="#EBEBEB"/>
<path d="M40.9062 91.0276C42.0054 90.9487 43.1046 90.9108 44.2037 90.8792C45.3029 90.8444 46.402 90.8381 47.5012 90.835C48.6003 90.8381 49.6995 90.8444 50.7986 90.8792L52.4474 90.9329C52.9969 90.9645 53.5465 90.9834 54.0961 91.0276C53.5465 91.0719 52.9969 91.0908 52.4474 91.1224L50.7986 91.1761C49.6995 91.2108 48.6003 91.2171 47.5012 91.2203C46.402 91.214 45.3029 91.2108 44.2037 91.1761C43.1046 91.1445 42.0054 91.1066 40.9062 91.0276Z" fill="#EBEBEB"/>
<path d="M61.8379 91.0276C62.937 90.9487 64.0362 90.9108 65.1354 90.8792C66.2345 90.8444 67.3337 90.8381 68.4328 90.835C69.532 90.8381 70.6311 90.8444 71.7303 90.8792L73.379 90.9329C73.9286 90.9645 74.4782 90.9834 75.0277 91.0276C74.4782 91.0719 73.9286 91.0908 73.379 91.1224L71.7303 91.1761C70.6311 91.2108 69.532 91.2171 68.4328 91.2203C67.3337 91.214 66.2345 91.2108 65.1354 91.1761C64.0362 91.1445 62.937 91.1066 61.8379 91.0276Z" fill="#EBEBEB"/>
<path d="M82.8984 91.0276C83.9976 90.9487 85.0967 90.9108 86.1959 90.8792C87.2951 90.8444 88.3942 90.8381 89.4934 90.835C90.5925 90.8381 91.6917 90.8444 92.7908 90.8792L94.4396 90.9329C94.9891 90.9645 95.5387 90.9834 96.0883 91.0276C95.5387 91.0719 94.9891 91.0908 94.4396 91.1224L92.7908 91.1761C91.6917 91.2108 90.5925 91.2171 89.4934 91.2203C88.3942 91.214 87.2951 91.2108 86.1959 91.1761C85.0967 91.1445 83.9976 91.1066 82.8984 91.0276Z" fill="#EBEBEB"/>
<path d="M40.9062 95.0145C42.0054 94.9355 43.1046 94.8976 44.2037 94.866C45.3029 94.8313 46.402 94.8249 47.5012 94.8218C48.6003 94.8249 49.6995 94.8313 50.7986 94.866L52.4474 94.9197C52.9969 94.9513 53.5465 94.9702 54.0961 95.0145C53.5465 95.0587 52.9969 95.0776 52.4474 95.1092L50.7986 95.1629C49.6995 95.1976 48.6003 95.204 47.5012 95.2071C46.402 95.2008 45.3029 95.1976 44.2037 95.1629C43.1046 95.1313 42.0054 95.0934 40.9062 95.0145Z" fill="#EBEBEB"/>
<path d="M61.8379 95.0145C62.937 94.9355 64.0362 94.8976 65.1354 94.866C66.2345 94.8313 67.3337 94.8249 68.4328 94.8218C69.532 94.8249 70.6311 94.8313 71.7303 94.866L73.379 94.9197C73.9286 94.9513 74.4782 94.9702 75.0277 95.0145C74.4782 95.0587 73.9286 95.0776 73.379 95.1092L71.7303 95.1629C70.6311 95.1976 69.532 95.204 68.4328 95.2071C67.3337 95.2008 66.2345 95.1976 65.1354 95.1629C64.0362 95.1313 62.937 95.0934 61.8379 95.0145Z" fill="#EBEBEB"/>
<path d="M82.8984 95.0145C83.9976 94.9355 85.0967 94.8976 86.1959 94.866C87.2951 94.8313 88.3942 94.8249 89.4934 94.8218C90.5925 94.8249 91.6917 94.8313 92.7908 94.866L94.4396 94.9197C94.9891 94.9513 95.5387 94.9702 96.0883 95.0145C95.5387 95.0587 94.9891 95.0776 94.4396 95.1092L92.7908 95.1629C91.6917 95.1976 90.5925 95.204 89.4934 95.2071C88.3942 95.2008 87.2951 95.1976 86.1959 95.1629C85.0967 95.1313 83.9976 95.0934 82.8984 95.0145Z" fill="#EBEBEB"/>
<path d="M40.9062 96.5047C42.0054 96.4257 43.1046 96.3878 44.2037 96.3562C45.3029 96.3215 46.402 96.3152 47.5012 96.312C48.6003 96.3152 49.6995 96.3215 50.7986 96.3562L52.4474 96.4099C52.9969 96.4415 53.5465 96.4605 54.0961 96.5047C53.5465 96.5489 52.9969 96.5679 52.4474 96.5994L50.7986 96.6531C49.6995 96.6879 48.6003 96.6942 47.5012 96.6973C46.402 96.691 45.3029 96.6879 44.2037 96.6531C43.1046 96.6215 42.0054 96.5836 40.9062 96.5047Z" fill="#EBEBEB"/>
<path d="M61.8379 96.5047C62.937 96.4257 64.0362 96.3878 65.1354 96.3562C66.2345 96.3215 67.3337 96.3152 68.4328 96.312C69.532 96.3152 70.6311 96.3215 71.7303 96.3562L73.379 96.4099C73.9286 96.4415 74.4782 96.4605 75.0277 96.5047C74.4782 96.5489 73.9286 96.5679 73.379 96.5994L71.7303 96.6531C70.6311 96.6879 69.532 96.6942 68.4328 96.6973C67.3337 96.691 66.2345 96.6879 65.1354 96.6531C64.0362 96.6215 62.937 96.5836 61.8379 96.5047Z" fill="#EBEBEB"/>
<path d="M82.8984 96.5047C83.9976 96.4257 85.0967 96.3878 86.1959 96.3562C87.2951 96.3215 88.3942 96.3152 89.4934 96.312C90.5925 96.3152 91.6917 96.3215 92.7908 96.3562L94.4396 96.4099C94.9891 96.4415 95.5387 96.4605 96.0883 96.5047C95.5387 96.5489 94.9891 96.5679 94.4396 96.5994L92.7908 96.6531C91.6917 96.6879 90.5925 96.6942 89.4934 96.6973C88.3942 96.691 87.2951 96.6879 86.1959 96.6531C85.0967 96.6215 83.9976 96.5836 82.8984 96.5047Z" fill="#EBEBEB"/>
<path d="M95.2164 34.9523H41.6484C41.6484 29.3302 46.2061 24.7725 51.8282 24.7725H85.0366C90.6587 24.7725 95.2164 29.3302 95.2164 34.9523Z" fill="#C7C7C7"/>
<path d="M80.5293 18.1772H55.9783L54.8887 24.7722H81.979L80.5293 18.1772ZM68.4323 22.9213C67.6332 22.9213 66.9857 22.277 66.9857 21.4747C66.9857 20.6756 67.6363 20.0281 68.4323 20.0281C69.2282 20.0281 69.8789 20.6788 69.8789 21.4747C69.8789 22.2706 69.2345 22.9213 68.4323 22.9213Z" fill="#C7C7C7"/>
<path d="M81.979 24.7724H54.8887L55.1319 23.2974H81.6537L81.979 24.7724Z" fill="#A6A6A6"/>
<path d="M52.5665 62.6836C52.5665 62.6836 51.1578 73.9594 48.8427 76.4957C46.0632 79.5404 44.0481 79.0951 42.9268 80.6617C41.8056 79.0888 39.7873 79.5373 37.0078 76.4925C34.6926 73.9562 33.2871 62.6804 33.2871 62.6804C39.3861 59.7209 42.9268 56.4014 42.9268 56.4014C43.0342 56.5056 46.5622 59.7652 52.5665 62.6804V62.6836Z" fill="#FFC727"/>
<path opacity="0.1" d="M42.9268 56.4077V80.6617C41.8056 79.0888 39.7873 79.5373 37.0078 76.4925C34.6926 73.9562 33.2871 62.6804 33.2871 62.6804C39.3861 59.7209 42.9268 56.4014 42.9268 56.4014V56.4077Z" fill="black"/>
<path d="M34.7805 63.5897C34.7805 63.5897 35.9713 73.1126 37.9232 75.2572C40.2731 77.8313 41.9755 77.4523 42.9231 78.7789C43.8706 77.4523 45.5762 77.8313 47.923 75.2572C49.8781 73.1126 51.0657 63.5897 51.0657 63.5897C45.9142 61.0882 42.9231 58.2866 42.9231 58.2866C42.9231 58.2866 39.9288 61.0882 34.7773 63.5897H34.7805Z" fill="#FFC727"/>
<path opacity="0.2" d="M51.0696 63.5897C51.0696 63.5897 49.8788 73.1126 47.9237 75.2572C45.577 77.8282 43.8745 77.4555 42.9238 78.7757V58.2866C43.0154 58.3719 45.9939 61.1261 51.0664 63.5897H51.0696Z" fill="white"/>
<path d="M42.2156 72.3613L39.4961 69.5313L40.5037 68.5616L42.0039 70.1219L45.2351 65.1631L46.4069 65.9274L42.2156 72.3613Z" fill="white"/>
<path d="M111.588 64.7139H112.934V12.1345H111.588V64.7139Z" fill="#DBDBDB"/>
<path d="M111.283 9.33368H113.238L112.847 4.09375H111.678L111.283 9.33368Z" fill="#DBDBDB"/>
<path d="M116.795 72.1588C113.182 72.1588 111.293 69.3478 111.293 66.5746V60.4756H113.258V66.5746C113.258 67.9201 114.003 70.1974 116.798 70.1974C119.271 70.1974 120.074 67.7338 120.074 66.543V63.1793H122.038V66.543C122.038 67.4622 121.735 68.8677 120.882 70.0584C119.9 71.4324 118.488 72.162 116.801 72.162L116.795 72.1588Z" fill="#263238"/>
<path d="M71.2188 34.2412C71.2188 34.2412 77.4189 31.4427 81.2627 31.5438C85.1003 31.6544 92.0869 34.2412 92.0869 34.2412C92.0869 34.2412 98.4354 31.7586 102.368 31.6575C106.3 31.547 112.263 34.2412 112.263 34.2412C112.263 34.2412 118.227 31.5438 122.159 31.6575C126.091 31.7586 132.43 34.2412 132.43 34.2412C132.43 34.2412 139.417 31.6575 143.264 31.5438C147.108 31.4396 153.308 34.2412 153.308 34.2412C146.928 21.5156 131.824 8.69531 112.263 8.69531C92.7028 8.69531 77.5926 21.5156 71.2188 34.2412Z" fill="#FFC727"/>
<path opacity="0.4" d="M71.2188 34.2412C71.2188 34.2412 77.4189 31.4427 81.2627 31.5438C85.1003 31.6544 92.0869 34.2412 92.0869 34.2412C92.0869 34.2412 98.4354 31.7586 102.368 31.6575C106.3 31.547 112.263 34.2412 112.263 34.2412C112.263 34.2412 118.227 31.5438 122.159 31.6575C126.091 31.7586 132.43 34.2412 132.43 34.2412C132.43 34.2412 139.417 31.6575 143.264 31.5438C147.108 31.4396 153.308 34.2412 153.308 34.2412C146.928 21.5156 131.824 8.69531 112.263 8.69531C92.7028 8.69531 77.5926 21.5156 71.2188 34.2412Z" fill="white"/>
<g opacity="0.1">
<path d="M71.2188 34.2414C72.5643 32.6559 73.935 31.0893 75.3437 29.5605C76.7429 28.0224 78.1674 26.5094 79.6361 25.0407C82.5704 22.1065 85.5993 19.2418 88.9663 16.8382C90.6403 15.6285 92.3996 14.5293 94.3136 13.7776C96.2277 12.9816 98.1922 12.3152 100.166 11.6677C102.14 11.0329 104.143 10.4706 106.161 9.98108C108.176 9.47572 110.21 9.04301 112.263 8.69873C108.126 9.1725 104.042 10.0853 100.04 11.2603C98.0375 11.8446 96.0634 12.5363 94.1273 13.3101C92.1595 14.0682 90.3466 15.1768 88.6473 16.3896C86.9512 17.6183 85.3498 18.9638 83.8053 20.3693C82.264 21.7749 80.7637 23.2278 79.3361 24.747C76.465 27.7665 73.7424 30.9282 71.2219 34.2414H71.2188Z" fill="black"/>
<path d="M92.0969 34.2412C92.4664 32.8767 92.8771 31.5249 93.3477 30.1951C93.8025 28.8591 94.3015 27.542 94.8574 26.2502C95.9818 23.6823 97.2326 21.1176 98.9635 18.9446C100.713 16.7684 102.908 14.9681 105.16 13.2909C106.291 12.4508 107.457 11.658 108.644 10.8968C109.826 10.1229 111.035 9.3965 112.264 8.69531C109.702 9.8987 107.251 11.3358 104.914 12.9466C102.586 14.5669 100.372 16.3894 98.5339 18.5972C98.0854 19.1531 97.659 19.7437 97.3021 20.3596C96.9199 20.9629 96.5756 21.5851 96.2377 22.2136C95.5839 23.477 94.9743 24.7625 94.4626 26.0891C93.4393 28.7359 92.6117 31.4585 92.0938 34.2412H92.0969Z" fill="black"/>
<path d="M112.263 34.2412C112.377 32.1123 112.43 29.9835 112.475 27.8547C112.519 25.7259 112.516 23.5971 112.538 21.4682C112.516 19.3394 112.519 17.2106 112.475 15.0818L112.399 11.8885C112.352 10.8241 112.326 9.75972 112.263 8.69531C112.2 9.75972 112.175 10.8241 112.127 11.8885L112.051 15.0818C112.007 17.2106 112.01 19.3394 111.988 21.4682C112.01 23.5971 112.007 25.7259 112.051 27.8547C112.096 29.9835 112.149 32.1123 112.263 34.2412Z" fill="black"/>
<path d="M153.307 34.2414C150.787 30.9282 148.064 27.7665 145.193 24.747C143.765 23.2278 142.265 21.778 140.724 20.3693C139.179 18.9638 137.578 17.6183 135.882 16.3896C134.182 15.1736 132.369 14.065 130.402 13.3101C128.462 12.5331 126.491 11.8446 124.489 11.2603C120.487 10.0853 116.403 9.1725 112.266 8.69873C114.319 9.04301 116.353 9.47256 118.368 9.98108C120.386 10.4706 122.389 11.0329 124.363 11.6677C126.334 12.3152 128.298 12.9816 130.215 13.7776C132.133 14.5293 133.889 15.6285 135.563 16.8382C138.93 19.2418 141.959 22.1097 144.893 25.0407C146.361 26.5094 147.786 28.0224 149.185 29.5605C150.594 31.0893 151.965 32.6559 153.31 34.2414H153.307Z" fill="black"/>
<path d="M132.43 34.2412C131.912 31.4585 131.084 28.7359 130.061 26.0891C129.549 24.7625 128.94 23.477 128.286 22.2136C127.948 21.5883 127.604 20.9629 127.222 20.3596C126.861 19.7437 126.435 19.1562 125.99 18.5972C124.155 16.3894 121.937 14.5669 119.61 12.9466C117.272 11.3358 114.821 9.8987 112.26 8.69531C113.488 9.3965 114.698 10.1229 115.879 10.8968C117.067 11.658 118.236 12.4476 119.363 13.2909C121.615 14.9681 123.81 16.7684 125.56 18.9446C127.291 21.1176 128.542 23.6823 129.666 26.2502C130.222 27.542 130.721 28.8623 131.176 30.1951C131.647 31.5249 132.057 32.8767 132.427 34.2412H132.43Z" fill="black"/>
</g>
<path opacity="0.1" d="M153.305 34.2386C153.119 34.1565 147.048 31.4465 143.264 31.5476C139.417 31.6581 132.431 34.2418 132.431 34.2418C132.431 34.2418 126.089 31.7623 122.159 31.6581C118.227 31.5444 112.264 34.2418 112.264 34.2418C112.264 34.2418 106.301 31.5444 102.368 31.6581C98.6824 31.7529 92.8708 33.9417 92.1602 34.2133C92.8203 33.8975 98.6224 31.178 102.179 30.8369C105.96 30.4768 112.264 33.0005 112.264 33.0005C112.264 33.0005 117.883 30.2684 122.349 29.962C126.812 29.6525 131.622 32.2803 131.973 32.0971C132.32 31.9171 137.431 28.0795 140.769 27.9027C148.485 27.4889 137.772 15.594 128.101 11.6333C139.872 16.1436 148.782 25.2116 153.305 34.2323V34.2386Z" fill="black"/>
<g opacity="0.2">
<path d="M90.832 17.0022C93.043 16.3137 95.614 16.6011 97.5849 17.8266C95.3676 17.4507 93.0746 17.1823 90.832 17.0022Z" fill="white"/>
<path d="M133.69 17.0022C131.445 17.1854 129.155 17.4507 126.938 17.8266C128.912 16.6011 131.479 16.3137 133.69 17.0022Z" fill="white"/>
<path d="M101.486 18.4963C104.452 17.3087 107.945 17.2992 110.908 18.4963C107.756 18.1678 104.638 18.171 101.486 18.4963Z" fill="white"/>
<path d="M123.531 18.4963C120.379 18.171 117.258 18.1678 114.109 18.4963C117.072 17.2992 120.568 17.3087 123.531 18.4963Z" fill="white"/>
</g>
<path d="M58.2652 101.018L55.9501 111.621C55.849 111.934 56.0101 112.18 56.3133 112.171L61.7396 111.997C62.0428 111.987 62.3713 111.725 62.4755 111.413L64.7907 100.81C64.8949 100.497 64.7307 100.251 64.4275 100.26L59.0012 100.434C58.698 100.443 58.3695 100.705 58.2652 101.018Z" fill="#A6A6A6"/>
<path d="M58.9059 100.99L56.5907 111.593C56.4896 111.905 56.6507 112.152 56.9539 112.142L62.3802 111.969C62.6834 111.959 63.0119 111.697 63.1161 111.384L65.4313 100.781C65.5355 100.469 65.3713 100.222 65.0681 100.232L59.6418 100.405C59.3386 100.415 59.0101 100.677 58.9059 100.99Z" fill="#C7C7C7"/>
<path d="M60.4106 101.426C60.4106 101.682 60.2084 101.89 59.9526 101.89C59.6967 101.89 59.4883 101.688 59.4883 101.432C59.4883 101.176 59.6904 100.968 59.9463 100.968C60.2021 100.968 60.4106 101.17 60.4106 101.426Z" fill="#263238"/>
<path d="M41.2768 117.767C44.4985 124.239 51.5893 132.577 54.4445 132.549C55.8027 132.536 58.2347 132.805 59.9814 131.204C63.7905 127.71 66.8921 121.125 67.4701 117.382C67.6754 116.052 61.1595 113.327 60.2309 114.429C58.0578 117.009 55.5784 122.028 55.1836 122.006C53.7212 121.927 47.9002 117.303 43.8352 114.043C38.9016 110.089 39.9913 115.187 41.2736 117.764L41.2768 117.767Z" fill="#D3766A"/>
<path d="M67.4692 110.528C66.7238 107.853 66.1237 107.278 66.6954 104.688C67.0712 102.989 66.1458 102.019 64.9772 103.403C63.0663 105.667 63.3032 109.322 63.7485 110.566L67.4692 110.532V110.528Z" fill="#D3766A"/>
<path d="M67.1802 118.545C67.1802 118.545 68.2951 114.767 67.7866 111.836C67.4329 109.808 66.1726 105.488 60.4273 103.321C59.066 102.806 56.7603 103.043 58.6807 104.688C60.0452 105.857 61.2643 106.189 61.9339 107.013C61.9339 107.013 59.0376 107.661 58.5765 109.044C58.3712 109.663 57.8468 111.365 57.6289 112.749C57.6289 112.749 57.9163 112.878 58.308 112.989C58.308 112.989 57.9984 114.325 59.006 116.147L67.1833 118.542L67.1802 118.545Z" fill="#D3766A"/>
<path d="M67.1383 109.957C66.3013 109.278 64.501 107.872 62.628 107.231C60.5465 106.52 56.3489 105.712 55.8404 107.253C55.4677 108.384 57.0438 108.832 57.0438 108.832C57.0438 108.832 55.2371 108.864 55.1234 109.96C55.0192 110.958 56.2605 111.233 56.2605 111.233C56.2605 111.233 55.1676 111.441 55.2529 112.42C55.354 113.598 57.6281 112.97 58.762 114.075C59.0178 114.322 67.1383 109.96 67.1383 109.96V109.957Z" fill="#D3766A"/>
<path d="M62.2432 109.556C61.3494 109.047 59.0279 108.412 57.076 108.804C57.0317 108.813 57.0159 108.851 57.057 108.851C59.2964 108.877 61.3683 109.328 62.2369 109.575C62.2496 109.578 62.2527 109.562 62.2432 109.556Z" fill="#263238"/>
<path d="M61.4654 111.634C60.6505 111.273 58.2248 110.727 56.2634 111.191C56.2192 111.201 56.2066 111.242 56.2476 111.239C58.5881 111.169 60.5811 111.46 61.4623 111.652C61.4749 111.652 61.4781 111.637 61.4686 111.634H61.4654Z" fill="#263238"/>
<path d="M44.2402 123.639L49.597 118.017C49.597 118.017 45.592 114.36 42.6483 112.932C39.7077 111.504 39.2277 113.415 40.4468 116.359C41.666 119.303 44.237 123.639 44.237 123.639H44.2402Z" fill="#EBEBEB"/>
<path d="M43.0483 113.137H39.9309C39.9719 113.021 40.0319 112.913 40.1014 112.825H42.4166C42.4892 112.859 42.5682 112.894 42.6472 112.932C42.7798 112.995 42.9125 113.065 43.0483 113.137ZM44.119 113.766H39.8203C39.8203 113.864 39.8203 113.968 39.8298 114.079H44.6023C44.4412 113.971 44.2801 113.867 44.119 113.766ZM45.5056 114.704H39.9182C39.9372 114.805 39.9624 114.909 39.9909 115.017H45.9351C45.793 114.912 45.6509 114.808 45.5056 114.704ZM46.7564 115.642H40.1772C40.212 115.746 40.2467 115.847 40.2878 115.955H47.1512C47.0248 115.851 46.8922 115.746 46.7564 115.642ZM47.9218 116.58H40.5404C40.5847 116.681 40.6289 116.785 40.6763 116.893H48.2977C48.1777 116.792 48.0545 116.688 47.9218 116.58ZM49.0336 117.518H40.9574L41.109 117.831H49.3905C49.2989 117.752 49.1789 117.648 49.0336 117.518ZM41.4122 118.456C41.4659 118.561 41.5164 118.668 41.5701 118.772H48.8757L49.1758 118.456H41.4122ZM41.8891 119.398C41.9428 119.502 41.9997 119.609 42.0502 119.71H47.9818L48.2787 119.398H41.8891ZM42.385 120.336C42.4387 120.44 42.4956 120.544 42.5524 120.648H47.088L47.3849 120.336H42.385ZM42.8904 121.274C42.9504 121.381 43.0072 121.485 43.0641 121.586H46.1941L46.491 121.274H42.8904ZM43.4178 122.212C43.4778 122.322 43.5347 122.427 43.5915 122.524H45.3003L45.5972 122.212H43.4178ZM43.9516 123.15C44.0243 123.279 44.0874 123.387 44.1316 123.466H44.4001L44.7033 123.15H43.9516Z" fill="#DBDBDB"/>
<path d="M47.9905 117.155C47.0872 117.951 44.7057 120.187 43.357 121.852C43.3475 121.861 43.3854 121.899 43.3949 121.89C44.7341 120.683 47.2166 118.084 48.0442 117.209C48.06 117.193 48.0063 117.139 47.9905 117.155Z" fill="#263238"/>
<path d="M123.101 150.55C122.277 150.866 98.361 151.301 97.4261 150.765C97.325 150.705 97.3534 149.65 96.9997 146.917C96.9807 146.788 96.4375 146.279 95.5847 145.566C92.3851 142.884 84.8711 137.234 84.8711 137.234L96.807 126.864L108.373 138.232L111.38 141.188C111.38 141.188 121.153 146.466 122.119 147.161C123.079 147.862 123.926 150.228 123.101 150.547V150.55Z" fill="#D3766A"/>
<path d="M123.099 150.546C122.277 150.865 98.3613 151.298 97.4232 150.764C97.3222 150.704 97.3506 149.649 97 146.917C100.755 147.514 117.524 147.83 119.242 147.148C120.783 146.532 117.84 144.735 117.221 144.375C119.507 145.632 121.69 146.851 122.119 147.163C123.08 147.861 123.923 150.23 123.099 150.546Z" fill="#263238"/>
<path d="M105.822 134.255L93.1285 145.515C93.1285 145.515 79.8976 132.063 77.1718 131.959C75.801 131.905 53.9032 144.135 43.5497 145.202C36.2062 145.96 31.7148 136.621 31.7148 136.621L47.9526 130.342C59.2884 124.754 72.0614 114.72 79.787 115.655C88.176 116.672 105.826 134.258 105.826 134.258L105.822 134.255Z" fill="#37474F"/>
<path d="M101.766 132.647C99.6905 134.492 100.259 133.936 98.2029 135.802C97.1953 136.715 92.1259 141.298 91.33 142.306C91.311 142.328 91.3426 142.359 91.3679 142.344C92.4355 141.627 97.4069 136.939 98.3955 136.008C100.417 134.103 99.8169 134.631 101.819 132.704C101.857 132.669 101.807 132.612 101.766 132.647Z" fill="#263238"/>
<path d="M91.169 141.721C88.2853 139.179 78.8352 130.897 78.4498 130.591C78.1403 130.344 77.8276 130.019 77.4675 129.852C77.158 129.71 76.8548 129.788 76.5579 129.924C76.122 130.126 75.6925 130.351 75.2597 130.562C74.407 130.979 73.5542 131.393 72.7014 131.81C69.3976 133.424 66.1096 135.079 62.7806 136.639C59.5779 138.14 56.3278 139.551 52.9829 140.704C49.6571 141.851 46.2175 142.726 42.721 143.152C42.2915 143.206 41.8587 143.25 41.426 143.291C41.3944 143.291 41.3944 143.342 41.426 143.342C44.8625 143.174 48.242 142.473 51.5269 141.462C54.8401 140.442 58.0523 139.122 61.2013 137.672C64.464 136.172 67.6794 134.564 70.8947 132.966C72.5908 132.123 74.2869 131.27 75.9894 130.436C76.3747 130.246 76.9243 129.836 77.3665 130.041C77.556 130.13 77.717 130.284 77.875 130.417C78.0645 130.575 78.2508 130.73 78.4403 130.888C79.17 131.494 90.7521 141.472 91.1343 141.759C91.1627 141.781 91.2006 141.743 91.1722 141.718L91.169 141.721Z" fill="#263238"/>
<path opacity="0.1" d="M77.1205 131.959C75.3644 132.145 53.7982 144.138 43.5458 145.199C36.2055 145.957 31.7109 136.615 31.7109 136.615L37.2636 134.467L77.1205 131.959Z" fill="black"/>
<path d="M32.2223 133.949C32.2223 133.949 30.4598 144.147 35.5576 148.155C40.6586 152.164 74.865 151.68 80.5345 149.848C86.204 148.016 86.3808 138.866 80.1839 136.747C74.2901 134.732 52.3703 133.75 51.7512 133.503C51.5964 133.44 53.9748 132.016 53.9653 131.927L48.2579 130.184L32.2223 133.949Z" fill="#37474F"/>
<path d="M39.9626 133.693C39.9563 133.648 39.8868 133.664 39.8868 133.705C39.8932 134.858 39.4636 136.071 38.7087 136.946C37.8401 137.947 36.5609 138.509 35.4018 139.097C35.2912 139.154 35.3734 139.327 35.4902 139.293C36.1977 139.081 36.8926 138.771 37.5401 138.411C38.1276 138.083 38.6708 137.669 39.0814 137.129C39.8395 136.137 40.1711 134.931 39.9658 133.693H39.9626Z" fill="#263238"/>
<path d="M51.3372 132.429C51.0783 132.098 50.7971 131.785 50.5255 131.463C49.8875 130.702 49.2463 129.941 48.5767 129.208C48.5136 129.138 48.3904 129.236 48.4472 129.312C48.8989 129.903 49.3758 130.471 49.8433 131.046C50.0833 131.34 50.3265 131.634 50.5697 131.927C50.7971 132.199 51.0783 132.471 51.2457 132.786C51.4194 133.112 51.192 133.393 50.8508 133.428C50.5476 133.459 50.2665 133.304 50.036 133.127C49.5085 132.723 49.0916 132.142 48.6525 131.649C48.3841 131.346 48.1156 131.043 47.8408 130.746C47.5502 130.427 47.2407 130.127 46.9501 129.811C46.9312 129.792 46.8964 129.821 46.9122 129.843C47.1649 130.19 47.3986 130.553 47.6513 130.901C47.904 131.248 48.163 131.592 48.422 131.934C48.6683 132.256 48.9273 132.572 49.1895 132.884C49.4137 133.146 49.6696 133.405 49.9696 133.582C50.456 133.867 51.2962 133.93 51.5552 133.301C51.6815 132.992 51.5236 132.679 51.3341 132.436L51.3372 132.429Z" fill="#263238"/>
<path d="M79.7572 149.883C77.8052 149.918 75.8533 150.031 73.9013 150.076C71.9652 150.117 70.029 150.129 68.0929 150.11C64.2048 150.072 63.472 149.924 59.5934 149.655C55.6705 149.384 51.4413 148.995 47.5469 148.455C45.6834 148.196 43.7946 147.981 41.9501 147.587C40.2887 147.23 38.7821 146.538 37.5376 145.332C35.014 142.884 34.0349 139.286 33.6306 135.85C33.5769 135.389 33.5327 134.927 33.4948 134.463C33.4948 134.432 33.4442 134.432 33.4474 134.463C33.6748 137.988 34.2244 141.661 36.4385 144.495C37.3987 145.72 38.6179 146.724 40.0486 147.299C41.7921 147.997 43.7283 148.162 45.5728 148.411C49.483 148.942 53.7312 149.352 57.6635 149.655C61.6211 149.962 62.4328 150.155 66.3999 150.211C70.3701 150.271 74.3435 150.211 78.3074 150.019C78.7907 149.993 79.2739 149.965 79.7572 149.924C79.7856 149.924 79.7856 149.88 79.7572 149.88V149.883Z" fill="#263238"/>
<path d="M70.3094 134.978C69.0807 134.798 63.7871 134.16 62.5395 134.053C60.0664 133.844 58.2218 133.655 55.7424 133.538C54.3337 133.472 52.9282 133.465 51.5164 133.484C51.4721 133.484 51.4753 133.551 51.5164 133.554C53.9958 133.778 56.4752 133.936 58.9578 134.1C61.434 134.265 68.8849 135.045 70.2904 135.162C70.3946 135.171 70.4136 134.994 70.3094 134.978Z" fill="#263238"/>
<path d="M54.2516 131.804C53.2535 132.215 52.3186 132.755 51.4058 133.327C50.5056 133.892 49.5865 134.483 48.7716 135.168C48.7495 135.187 48.7779 135.215 48.8032 135.206C49.7697 134.761 50.6951 134.202 51.6143 133.665C52.5365 133.128 53.4557 132.578 54.3084 131.934C54.3685 131.89 54.3306 131.77 54.2484 131.801L54.2516 131.804Z" fill="#263238"/>
<path d="M51.4384 132.558C51.1857 133.449 31.4484 137.217 30.7188 137.028C30.7188 137.028 31.4452 127.031 33.3624 118.945C35.4123 110.285 40.1058 111.836 41.8461 112.913C43.9086 114.192 48.3936 119.482 48.8264 120.572C49.5433 122.375 48.2926 124.729 48.2926 124.729L51.4384 132.555V132.558Z" fill="#EBEBEB"/>
<path d="M40.1288 112.199H37.9905C38.7422 112 39.4781 112.044 40.1288 112.199ZM41.8438 112.916C41.7964 112.888 41.7459 112.856 41.6922 112.824H36.6576C36.5218 112.919 36.3891 113.02 36.2596 113.137H42.1691C42.0554 113.052 41.9449 112.979 41.8438 112.916ZM42.9461 113.766H35.6469C35.5616 113.864 35.4763 113.968 35.3942 114.078H43.2967C43.1767 113.968 43.0598 113.864 42.9461 113.766ZM43.9537 114.704H34.9741C34.9141 114.805 34.8509 114.909 34.7941 115.016H44.2664C44.1621 114.909 44.0579 114.805 43.9537 114.704ZM44.8696 115.642H34.4719C34.4245 115.743 34.3772 115.847 34.3298 115.955H45.1634L44.8696 115.642ZM45.7319 116.58H34.0739C34.036 116.681 33.9981 116.785 33.9602 116.893H46.0099C45.9183 116.788 45.8267 116.684 45.7319 116.58ZM46.5531 117.518H33.7486C33.717 117.619 33.6854 117.723 33.657 117.831H46.8184L46.5531 117.518ZM47.3333 118.456H33.4833C33.4549 118.56 33.4296 118.665 33.4043 118.772H47.5859C47.5038 118.668 47.4185 118.563 47.3333 118.456ZM48.066 119.397H33.2559C33.2306 119.502 33.2085 119.606 33.1832 119.71H48.2903C48.224 119.612 48.1482 119.508 48.066 119.397ZM48.8241 120.575C48.7988 120.509 48.7577 120.43 48.704 120.335H33.0443L32.9779 120.648H48.8525C48.843 120.623 48.8335 120.601 48.8241 120.575ZM49.0073 121.273H32.8484C32.8295 121.378 32.8074 121.482 32.7884 121.586H49.0357C49.0357 121.482 49.0231 121.378 49.0073 121.273ZM32.6652 122.211C32.6431 122.316 32.6242 122.42 32.6052 122.524H48.9946C49.0073 122.42 49.0199 122.316 49.0294 122.211H32.6652ZM32.4884 123.15C32.4694 123.254 32.4505 123.358 32.4315 123.465H48.7862C48.8178 123.364 48.8462 123.26 48.8746 123.15H32.4884ZM32.321 124.091C32.302 124.195 32.2862 124.299 32.2673 124.403H48.4451C48.483 124.315 48.5272 124.211 48.5746 124.091H32.321ZM48.4103 125.029H32.1631C32.1441 125.133 32.1283 125.237 32.1125 125.342H48.5366L48.4103 125.029ZM48.7862 125.967H32.0146C31.9957 126.071 31.9799 126.175 31.9641 126.28H48.9125L48.7862 125.967ZM49.1652 126.905H31.8725C31.8535 127.009 31.8377 127.113 31.8251 127.218H49.2884L49.1652 126.905ZM49.5411 127.843H31.7335C31.7177 127.947 31.7051 128.052 31.6893 128.156H49.6674L49.5411 127.843ZM49.9201 128.784H31.604C31.5882 128.889 31.5756 128.993 31.5629 129.097H50.0432L49.9201 128.784ZM50.2959 129.722H31.4808C31.4682 129.827 31.4524 129.931 31.4398 130.035H50.4223L50.2959 129.722ZM50.6718 130.66H31.364L31.3261 130.973H50.7981L50.6718 130.66ZM51.0508 131.599H31.2502C31.2376 131.703 31.2281 131.807 31.2155 131.911H51.1771L51.0508 131.599ZM51.4267 132.537H31.146C31.1334 132.641 31.1207 132.745 31.1113 132.849H50.9592C51.2466 132.732 51.414 132.635 51.4361 132.559L51.4267 132.537ZM31.0449 133.478C31.0323 133.585 31.0197 133.689 31.0102 133.791H47.6617C48.1039 133.683 48.5177 133.579 48.8999 133.478H31.0449ZM30.947 134.416C30.9376 134.523 30.9281 134.628 30.9154 134.729H43.5178C44.0042 134.624 44.4843 134.52 44.9518 134.416H30.947ZM30.8586 135.354C30.8491 135.461 30.8396 135.566 30.8302 135.667H38.8969C39.4213 135.566 39.9519 135.461 40.4857 135.354H30.8586ZM30.7733 136.292C30.7638 136.409 30.7575 136.516 30.748 136.605H33.8149C34.3582 136.513 34.952 136.406 35.5868 136.292H30.7733Z" fill="#DBDBDB"/>
<path d="M49.0387 121.002C48.8618 120.414 48.5302 119.88 48.1701 119.388C47.7721 118.848 47.3458 118.326 46.9099 117.815C46.8941 117.799 46.8815 117.78 46.8657 117.764C46.8341 117.698 46.8025 117.632 46.7677 117.568C46.7046 117.448 46.6351 117.332 46.5624 117.218C46.414 116.981 46.2403 116.754 46.0666 116.532C46.0539 116.517 46.0318 116.532 46.0413 116.548C46.1866 116.798 46.3382 117.047 46.4961 117.29C46.5277 117.338 46.5561 117.388 46.5877 117.436C46.1771 116.962 45.7539 116.498 45.299 116.068C45.2864 116.055 45.2643 116.074 45.2738 116.087C46.0918 117.123 46.9573 118.118 47.7374 119.182C48.0943 119.666 48.4417 120.174 48.666 120.733C48.9092 121.34 48.9724 121.965 48.8776 122.613C48.8239 122.973 48.7323 123.329 48.6218 123.677C48.5049 124.037 48.4038 124.403 48.2807 124.757C48.2712 124.782 48.3154 124.801 48.3249 124.776C48.6249 124.17 48.9092 123.585 49.064 122.922C49.2124 122.29 49.225 121.627 49.0387 121.002Z" fill="#263238"/>
<path d="M34.9266 115.395C31.1649 121.333 27.8485 132.091 30.6879 133.816C34.5129 136.137 41.9322 137.009 50.7886 136.2C52.0141 136.087 52.9111 126.475 51.5971 126.526C49.9421 126.592 38.3662 127.319 38.0156 127C37.7187 126.728 38.2525 121.968 38.3283 117.028C38.4199 111.251 36.0037 113.699 34.9266 115.395Z" fill="#D3766A"/>
<path d="M50.6588 126.599C50.6588 126.599 54.3668 126.062 56.8052 125.825C58.1665 125.692 60.5227 125.673 61.565 126.033C63.1285 126.573 69.3191 129.824 68.5642 131.343C67.8788 132.717 62.9137 129.249 62.9137 129.249C62.9137 129.249 68.2326 132.306 67.105 133.81C65.9774 135.313 60.8891 130.648 60.8891 130.648C60.8891 130.648 66.2838 133.914 64.8751 135.278C63.8107 136.311 58.9624 132.344 58.9624 132.344C58.9624 132.344 63.5801 135.184 62.5315 136.292C61.3724 137.518 56.6694 134.138 56.6694 134.138C53.5267 136.507 51.0631 136.352 49.3227 136.03C48.9027 135.951 50.6588 126.602 50.6588 126.602V126.599Z" fill="#D3766A"/>
<path d="M61.1442 128.074C61.7822 128.412 62.4297 128.746 63.0361 129.138C63.6425 129.53 64.2332 129.943 64.8017 130.392C66.1914 131.488 66.8895 132.391 66.8421 132.341C65.6766 131.131 63.532 129.694 62.9256 129.302C62.3223 128.911 61.7348 128.491 61.1315 128.096C61.1157 128.086 61.1315 128.064 61.1473 128.074H61.1442Z" fill="#263238"/>
<path d="M59.6878 130.234C60.4837 130.699 61.2923 131.131 62.0661 131.634C62.8368 132.133 63.5253 132.673 64.2613 133.222C64.3181 133.263 64.2771 133.282 64.2171 133.241C63.459 132.72 62.7199 132.3 61.9587 131.788C61.1975 131.28 60.4521 130.737 59.6752 130.256C59.6625 130.25 59.6752 130.231 59.6878 130.238V130.234Z" fill="#263238"/>
<path d="M58.1061 131.864C59.36 132.512 60.4907 133.393 61.5804 134.28C61.6341 134.325 61.5804 134.34 61.5204 134.299C60.3802 133.475 59.4927 132.818 58.084 131.908C58.0619 131.896 58.0808 131.851 58.1061 131.864Z" fill="#263238"/>
<path d="M49.0664 126.662C49.6413 126.567 50.2161 126.494 50.7909 126.422C51.3658 126.346 51.9406 126.286 52.5155 126.223C53.0903 126.166 53.6652 126.103 54.2432 126.055C54.8212 126.002 55.396 125.948 55.9772 125.91C55.4118 126.046 54.8401 126.144 54.2653 126.235C53.6936 126.327 53.1156 126.393 52.5407 126.46C51.9627 126.517 51.3879 126.57 50.8067 126.602C50.2287 126.637 49.6476 126.665 49.0664 126.662Z" fill="#263238"/>
<path d="M30.9368 122.521L38.6403 123.491C38.6403 123.491 39.2025 118.096 38.6024 114.881C38.0023 111.665 36.1798 112.417 34.5374 115.146C32.895 117.875 30.9336 122.521 30.9336 122.521H30.9368Z" fill="#EBEBEB"/>
<path d="M37.9051 113.137H36.2059C36.4112 112.989 36.6101 112.882 36.7997 112.825H37.4598C37.6209 112.878 37.7693 112.983 37.9051 113.137ZM38.2873 113.766H35.5331C35.4447 113.864 35.3594 113.968 35.2709 114.079H38.401C38.3663 113.965 38.3284 113.861 38.2873 113.766ZM38.6032 114.881C38.5905 114.821 38.581 114.761 38.5684 114.704H34.8193C34.753 114.805 34.6866 114.909 34.6203 115.017H38.6253C38.6189 114.972 38.6126 114.925 38.6032 114.881ZM38.72 115.642H34.2539C34.1939 115.746 34.1339 115.851 34.077 115.955H38.7548C38.7453 115.851 38.7326 115.746 38.72 115.642ZM38.8116 116.58H33.7391C33.6822 116.684 33.6254 116.789 33.5717 116.893H38.8306L38.8116 116.58ZM38.8621 117.518H33.2495C33.199 117.622 33.1453 117.727 33.0947 117.831H38.8716L38.8621 117.518ZM38.8779 118.456H32.7852C32.7347 118.561 32.6841 118.668 32.6336 118.772H38.8811C38.8811 118.668 38.8811 118.564 38.8811 118.456H38.8779ZM32.3367 119.398C32.2893 119.502 32.2388 119.606 32.1914 119.71H38.8685C38.8685 119.609 38.8748 119.505 38.8748 119.398H32.3367ZM31.904 120.336C31.8535 120.443 31.8061 120.547 31.7619 120.648H38.8369C38.8432 120.547 38.8464 120.443 38.8495 120.336H31.904ZM31.4808 121.274C31.4302 121.384 31.386 121.488 31.3418 121.586H38.7895C38.7958 121.485 38.8021 121.381 38.8085 121.274H31.4808ZM31.0702 122.212L30.9375 122.521H38.7232C38.7326 122.427 38.7421 122.322 38.7484 122.212H31.0702ZM35.9311 123.15L38.4389 123.466H38.6442C38.6442 123.418 38.66 123.311 38.6726 123.15H35.9311Z" fill="#DBDBDB"/>
<path d="M38.4225 122.054C37.2381 121.833 34.0133 121.327 31.8687 121.286C31.856 121.286 31.8497 121.337 31.8624 121.34C33.6343 121.656 37.2128 122.016 38.4131 122.129C38.4352 122.129 38.4446 122.057 38.4225 122.054Z" fill="#263238"/>
<path d="M39.1923 119.044C39.1923 119.044 39.1765 119.031 39.1734 119.044C39.1007 119.319 39.0407 119.593 38.9902 119.871C38.9902 119.287 38.9744 118.703 38.946 118.118C38.946 118.096 38.9144 118.099 38.9144 118.118C38.8038 119.868 38.6522 121.621 38.5796 123.374C38.3964 123.406 38.21 123.434 38.0237 123.45C37.9921 123.45 37.9921 123.497 38.0237 123.501C38.2321 123.504 38.4406 123.523 38.6459 123.545C38.6933 123.551 38.7533 123.532 38.7596 123.475C38.9017 122.461 38.9681 121.435 38.9839 120.405C39.0249 120.241 39.066 120.074 39.0944 119.906C39.145 119.616 39.1797 119.334 39.1892 119.041L39.1923 119.044Z" fill="#263238"/>
<path d="M34.7617 97.6006C34.7617 97.6006 32.2349 98.0649 31.4137 100.093C30.5925 102.117 31.758 103.475 33.6278 104.353C35.4976 105.235 38.1981 105.453 39.3731 103.867C41.2492 101.334 38.8425 97.9449 37.2664 97.5722C35.6903 97.1995 34.7617 97.6006 34.7617 97.6006Z" fill="#263238"/>
<path d="M34.7607 97.6006C32.9888 98.2418 30.4968 99.5746 31.0432 101.817C31.5138 103.33 33.3362 104.202 34.7133 104.761C33.172 104.407 31.2264 103.545 30.7084 101.912C30.0514 99.4862 32.7393 97.9638 34.7607 97.6006Z" fill="#263238"/>
<path d="M33.5601 109.176C33.5601 109.176 35.051 109.148 35.9037 107.651C36.7565 106.154 35.9827 104.973 34.6088 104.094C33.238 103.216 30.7586 102.629 29.7984 104.568C28.6961 106.795 30.4048 108.842 31.5987 109.296C32.7895 109.748 33.5601 109.18 33.5601 109.18V109.176Z" fill="#263238"/>
<path d="M33.0325 109.256C34.4727 108.921 36.5479 108.144 36.352 106.343C36.1341 105.112 34.817 104.256 33.8 103.665C34.9812 104.095 36.4089 104.957 36.6521 106.296C36.9206 108.267 34.6559 109.189 33.0293 109.252L33.0325 109.256Z" fill="#263238"/>
<path d="M31.904 114.107C31.904 114.107 31.7177 114.123 31.4239 114.107C32.0083 112.907 31.863 112.083 31.863 112.083C31.5945 112.951 31.067 113.618 30.6754 114.022C30.2111 113.933 29.6804 113.766 29.2004 113.447C28.0096 112.654 27.3242 111.426 27.3242 111.426C28.5118 109.249 29.9142 108.621 30.5838 108.441C30.8301 108.374 30.9786 108.368 30.9786 108.368L32.8547 109.006C33.8054 111.388 31.904 114.107 31.904 114.107Z" fill="#263238"/>
<path d="M31.077 108.444C29.5957 108.482 28.3418 109.363 27.4921 110.522C27.369 110.689 27.2584 110.863 27.1289 111.031C27.211 110.838 27.2995 110.645 27.3942 110.459C28.0922 109.167 29.5736 108.156 31.077 108.444Z" fill="#263238"/>
<path d="M38.0637 98.6553C36.9993 98.1689 35.859 98.7248 35.1515 100.272C34.3177 102.095 35.2716 103.412 36.3328 103.898C37.3972 104.385 38.5122 103.406 39.0491 101.599C39.4945 100.111 39.2828 99.2143 38.0605 98.6553H38.0637Z" fill="#FFC727"/>
<path d="M37.3779 113.147C37.498 113.507 39.4689 115.724 41.1397 115.487C41.683 115.408 41.3924 112.424 41.3924 112.424L41.4208 112.199L41.8251 109.047L37.9781 107.057L37.4253 106.798C37.4253 106.798 37.3716 107.667 37.3148 108.753C37.3148 108.804 37.3085 108.855 37.3053 108.908C37.3021 108.968 37.2958 109.028 37.2927 109.085C37.2832 109.246 37.2737 109.414 37.2674 109.578C37.2611 109.704 37.2548 109.824 37.2548 109.957C37.2516 110.089 37.2484 110.219 37.2453 110.352C37.2327 111.656 37.3274 112.998 37.3748 113.153L37.3779 113.147Z" fill="#D3766A"/>
<path d="M37.3184 108.75C38.4333 111.125 40.4895 111.947 41.4244 112.199L41.8287 109.047L37.9816 107.057L37.4289 106.798C37.4289 106.798 37.3752 107.667 37.3184 108.753V108.75Z" fill="#263238"/>
<path d="M46.1055 103.823C46.9835 109.334 43.784 110.481 42.5964 110.67C41.5162 110.841 37.8239 111.286 36.3773 105.898C34.9339 100.509 37.2175 98.3583 39.6653 97.8372C42.1131 97.316 45.2274 98.3141 46.1055 103.826V103.823Z" fill="#D3766A"/>
<path d="M44.9543 103.144C44.8216 103.141 44.7016 103.115 44.5721 103.097C44.4268 103.078 44.3068 103.078 44.1899 102.977C44.1267 102.923 44.1204 102.8 44.1678 102.736C44.2784 102.585 44.4647 102.563 44.6416 102.579C44.8342 102.597 44.9795 102.658 45.1154 102.793C45.248 102.923 45.1248 103.15 44.9511 103.144H44.9543Z" fill="#263238"/>
<path d="M41.3069 103.58C41.4364 103.554 41.5502 103.507 41.6765 103.466C41.8186 103.422 41.9355 103.399 42.0302 103.279C42.0808 103.216 42.0681 103.093 42.0081 103.039C41.8723 102.91 41.686 102.919 41.5154 102.967C41.3291 103.017 41.1996 103.106 41.0859 103.261C40.9785 103.412 41.1364 103.614 41.3069 103.576V103.58Z" fill="#263238"/>
<path d="M42.1688 104.916C42.1688 104.916 42.1404 104.938 42.1436 104.954C42.1973 105.33 42.1973 105.769 41.8688 105.933C41.8593 105.939 41.8625 105.958 41.8751 105.955C42.2857 105.851 42.2826 105.267 42.1688 104.919V104.916Z" fill="#263238"/>
<path d="M41.7894 104.562C41.1767 104.584 41.2651 105.807 41.8337 105.788C42.3927 105.769 42.3043 104.543 41.7894 104.562Z" fill="#263238"/>
<path d="M41.5527 104.644C41.4516 104.719 41.3537 104.849 41.2273 104.871C41.0789 104.896 40.9589 104.776 40.8515 104.659C40.842 104.647 40.8294 104.659 40.8325 104.675C40.8452 104.909 40.9525 105.143 41.2084 105.162C41.439 105.177 41.5906 104.956 41.6316 104.716C41.6379 104.672 41.5969 104.609 41.5558 104.64L41.5527 104.644Z" fill="#263238"/>
<path d="M44.341 104.597C44.341 104.597 44.3726 104.612 44.3726 104.628C44.3852 105.007 44.4642 105.44 44.8148 105.544C44.8243 105.547 44.8243 105.566 44.8148 105.566C44.3916 105.535 44.2936 104.96 44.3442 104.597H44.341Z" fill="#263238"/>
<path d="M44.6544 104.177C45.2608 104.091 45.3872 105.311 44.8249 105.39C44.2722 105.468 44.1459 104.249 44.6544 104.177Z" fill="#263238"/>
<path d="M44.9187 104.23C45.0229 104.284 45.1303 104.391 45.244 104.388C45.3798 104.382 45.462 104.24 45.5346 104.104C45.5409 104.091 45.5536 104.097 45.5536 104.116C45.5851 104.35 45.5315 104.6 45.3135 104.669C45.1145 104.732 44.944 104.546 44.8619 104.322C44.8461 104.281 44.8745 104.211 44.9155 104.233L44.9187 104.23Z" fill="#263238"/>
<path d="M42.3806 107.834C42.4754 107.919 42.567 108.039 42.7059 108.049C42.8386 108.055 42.9902 107.992 43.1102 107.941C43.1228 107.935 43.1355 107.948 43.126 107.96C43.0312 108.109 42.8259 108.207 42.6491 108.178C42.4754 108.153 42.3869 108.008 42.3427 107.85C42.3364 107.828 42.3648 107.818 42.3774 107.831L42.3806 107.834Z" fill="#263238"/>
<path d="M43.8457 106.33C43.8457 106.33 43.972 106.889 43.9941 107.155C43.9941 107.18 43.9341 107.196 43.8425 107.212C43.8394 107.212 43.8362 107.215 43.833 107.212C43.3687 107.325 42.8792 107.202 42.5602 106.842C42.5381 106.817 42.5696 106.788 42.5981 106.801C42.9708 107.028 43.3656 107.063 43.7825 107.035C43.7951 106.959 43.5361 106.084 43.5772 106.078C43.7225 106.052 44.0162 106.128 44.1931 106.163C43.9657 104.991 43.5488 103.867 43.3403 102.695C43.334 102.654 43.394 102.635 43.4098 102.673C43.9278 103.823 44.2215 105.165 44.4868 106.368C44.5216 106.517 43.9562 106.365 43.8457 106.327V106.33Z" fill="#263238"/>
<path d="M36.7934 106.097C38.0978 105.93 37.8073 103.877 37.8073 103.877C37.8073 103.877 39.2696 103.542 39.0517 101.138C39.0517 101.138 39.9582 102.484 42.0049 102.503C42.4376 102.506 40.8647 101.599 40.8647 101.599C40.8647 101.599 42.7787 102.91 45.8646 101.893C46.0825 101.821 45.1508 98.5483 42.5134 97.7492C39.8761 96.9501 37.7251 97.9008 36.4049 99.6759C36.4049 99.6759 34.6993 100.762 34.7309 102.512C34.7625 104.262 36.2849 106.16 36.7934 106.097Z" fill="#263238"/>
<path d="M37.3172 106.179C37.3172 106.179 35.978 104.53 35.22 105.02C34.462 105.51 35.558 107.964 36.5087 108.242C37.4594 108.52 37.7342 107.645 37.7342 107.645L37.3172 106.182V106.179Z" fill="#D3766A"/>
<path d="M35.5539 105.715C35.5539 105.715 35.5381 105.737 35.5539 105.74C36.2203 105.955 36.6057 106.533 36.8899 107.139C36.6783 106.912 36.4067 106.801 36.1035 107.054C36.0877 107.067 36.1035 107.092 36.1224 107.089C36.3846 107.013 36.5804 107.045 36.7731 107.244C36.912 107.386 37.0131 107.569 37.1142 107.736C37.1489 107.793 37.25 107.752 37.2247 107.689L37.2184 107.673C37.1742 106.846 36.4477 105.734 35.5539 105.715Z" fill="#263238"/>
</svg>
