<svg width="162" height="159" viewBox="0 0 162 159" fill="none" xmlns="http://www.w3.org/2000/svg">
<g clip-path="url(#clip0_2216_232669)">
<path d="M172.532 137.127H-6.76562V137.217H172.532V137.127Z" fill="#EBEBEB"/>
<path d="M154.567 142.896H142.69V142.986H154.567V142.896Z" fill="#EBEBEB"/>
<path d="M112.009 143.872H108.893V143.962H112.009V143.872Z" fill="#EBEBEB"/>
<path d="M142.331 139.569H135.449V139.659H142.331V139.569Z" fill="#EBEBEB"/>
<path d="M27.5346 140.172H12.0469V140.262H27.5346V140.172Z" fill="#EBEBEB"/>
<path d="M32.9984 140.172H30.7285V140.262H32.9984V140.172Z" fill="#EBEBEB"/>
<path d="M73.9722 141.685H40.3789V141.774H73.9722V141.685Z" fill="#EBEBEB"/>
<path d="M78.2218 121.134H8.98052C8.43809 121.133 7.9182 120.917 7.53498 120.533C7.15176 120.149 6.93652 119.629 6.93652 119.086V21.7528C6.94125 21.2135 7.15856 20.6978 7.54127 20.3178C7.92399 19.9377 8.44118 19.7241 8.98052 19.7231H78.2218C78.7648 19.7231 79.2856 19.9389 79.6696 20.3229C80.0536 20.7069 80.2694 21.2277 80.2694 21.7707V119.086C80.2694 119.629 80.0536 120.15 79.6696 120.534C79.2856 120.918 78.7648 121.134 78.2218 121.134ZM8.98052 19.7949C8.46187 19.7958 7.96478 20.0025 7.59837 20.3696C7.23196 20.7367 7.02617 21.2341 7.02617 21.7528V119.086C7.02617 119.605 7.23196 120.103 7.59837 120.47C7.96478 120.837 8.46187 121.043 8.98052 121.044H78.2218C78.7408 121.043 79.2382 120.837 79.6052 120.47C79.9722 120.103 80.1788 119.605 80.1797 119.086V21.7528C80.1788 21.2338 79.9722 20.7364 79.6052 20.3694C79.2382 20.0024 78.7408 19.7958 78.2218 19.7949H8.98052Z" fill="#EBEBEB"/>
<path d="M155.789 121.134H86.5437C86.0009 121.133 85.4807 120.917 85.0969 120.533C84.7131 120.149 84.497 119.629 84.4961 119.086V21.7528C84.5018 21.2132 84.7199 20.6975 85.1032 20.3176C85.4864 19.9376 86.004 19.7241 86.5437 19.7231H155.789C156.327 19.725 156.844 19.9391 157.225 20.319C157.607 20.699 157.824 21.2141 157.829 21.7528V119.086C157.829 119.628 157.614 120.148 157.232 120.532C156.849 120.916 156.33 121.132 155.789 121.134ZM86.5437 19.7949C86.0247 19.7958 85.5272 20.0024 85.1603 20.3694C84.7933 20.7364 84.5867 21.2338 84.5857 21.7528V119.086C84.5867 119.605 84.7933 120.103 85.1603 120.47C85.5272 120.837 86.0247 121.043 86.5437 121.044H155.789C156.307 121.043 156.805 120.837 157.172 120.47C157.539 120.103 157.745 119.605 157.746 119.086V21.7528C157.745 21.2338 157.539 20.7364 157.172 20.3694C156.805 20.0024 156.307 19.7958 155.789 19.7949H86.5437Z" fill="#EBEBEB"/>
<path d="M85.8784 137.127H96.2383V100.22H85.8784V137.127Z" fill="#E6E6E6"/>
<path d="M87.8427 137.127H85.874V133.706H89.9046L87.8427 137.127Z" fill="#F0F0F0"/>
<path d="M144.986 137.127H155.346V100.22H144.986V137.127Z" fill="#E6E6E6"/>
<path d="M85.8781 136.227H146.703V100.217H85.8781V136.227Z" fill="#F0F0F0"/>
<path d="M126.646 102.358V134.229H144.677V102.358H126.646Z" fill="#E6E6E6"/>
<path d="M133.879 104.186H137.443C138.237 104.172 139.018 103.98 139.727 103.624C140.437 103.267 141.057 102.756 141.542 102.128H129.78C130.266 102.756 130.886 103.267 131.596 103.623C132.305 103.979 133.085 104.172 133.879 104.186Z" fill="#F0F0F0"/>
<path d="M107.271 102.361V134.233H125.302V102.361H107.271Z" fill="#E6E6E6"/>
<path d="M114.321 104.186H117.889C118.68 104.17 119.456 103.976 120.163 103.62C120.869 103.264 121.486 102.754 121.97 102.128H110.226C110.71 102.756 111.33 103.267 112.039 103.623C112.748 103.979 113.528 104.172 114.321 104.186Z" fill="#F0F0F0"/>
<path d="M87.8965 102.361V134.233H105.927V102.361H87.8965Z" fill="#E6E6E6"/>
<path d="M94.9467 104.186H98.5148C99.3073 104.171 100.086 103.978 100.795 103.622C101.503 103.266 102.122 102.755 102.606 102.128H90.8516C91.3364 102.756 91.9562 103.267 92.665 103.623C93.3738 103.979 94.1536 104.172 94.9467 104.186Z" fill="#F0F0F0"/>
<path d="M144.733 137.127H146.699V133.706H142.668L144.733 137.127Z" fill="#F0F0F0"/>
<path d="M20.7209 90.6245L90.2275 90.6245L90.2275 31.4455L20.7209 31.4455L20.7209 90.6245Z" fill="#E6E6E6"/>
<path d="M19.1571 90.6245L89.5459 90.6245L89.5459 31.4455L19.1571 31.4455L19.1571 90.6245Z" fill="#F5F5F5"/>
<path d="M86.7383 87.7841V34.2852L21.9651 34.2852V87.7841H86.7383Z" fill="#FAFAFA"/>
<path d="M78.7913 87.7841L53.2988 34.2852H44.6387L70.1312 87.7841H78.7913Z" fill="white"/>
<path d="M67.6787 87.7841L42.1825 34.2852H36.2227L61.7152 87.7841H67.6787Z" fill="white"/>
<path d="M46.0195 87.7806V34.2817H42.6702V87.7806H46.0195Z" fill="#E6E6E6"/>
<path d="M68.2812 87.7806V34.2817H64.932V87.7806H68.2812Z" fill="#E6E6E6"/>
<path d="M45.4141 89.5876V32.1729H41.179V89.5876H45.4141Z" fill="#F5F5F5"/>
<path d="M67.6748 89.5876V32.1729H63.4398V89.5876H67.6748Z" fill="#F5F5F5"/>
<path d="M22.2627 87.7841L22.2627 34.2852H21.9651L21.9651 87.7841H22.2627Z" fill="#E6E6E6"/>
<path d="M17.9777 27.791H93.2828C93.378 27.791 93.4692 27.8288 93.5364 27.896C93.6037 27.9633 93.6414 28.0545 93.6414 28.1496C93.6414 28.2447 93.6037 28.3359 93.5364 28.4032C93.4692 28.4704 93.378 28.5082 93.2828 28.5082H17.9777C17.8826 28.5082 17.7914 28.4704 17.7242 28.4032C17.6569 28.3359 17.6191 28.2447 17.6191 28.1496C17.6191 28.0545 17.6569 27.9633 17.7242 27.896C17.7914 27.8288 17.8826 27.791 17.9777 27.791Z" fill="#E6E6E6"/>
<path d="M90.2266 30.1825C90.3563 30.1815 90.4803 30.1294 90.5717 30.0373C90.6631 29.9453 90.7143 29.8209 90.7143 29.6912V28.6405C90.7143 28.5112 90.6629 28.3871 90.5715 28.2957C90.48 28.2042 90.356 28.1528 90.2266 28.1528C90.097 28.1528 89.9725 28.2041 89.8805 28.2955C89.7885 28.3868 89.7363 28.5109 89.7354 28.6405V29.6912C89.7363 29.8212 89.7884 29.9456 89.8803 30.0376C89.9722 30.1295 90.0966 30.1815 90.2266 30.1825Z" fill="#E6E6E6"/>
<path d="M23.4389 30.1825C23.5689 30.1815 23.6933 30.1295 23.7852 30.0376C23.8771 29.9456 23.9292 29.8212 23.9301 29.6912V28.6405C23.9292 28.5109 23.877 28.3868 23.785 28.2955C23.693 28.2041 23.5685 28.1528 23.4389 28.1528C23.3095 28.1528 23.1855 28.2042 23.094 28.2957C23.0026 28.3871 22.9512 28.5112 22.9512 28.6405V29.6912C22.9512 29.8209 23.0024 29.9453 23.0938 30.0373C23.1852 30.1294 23.3092 30.1815 23.4389 30.1825Z" fill="#E6E6E6"/>
<path opacity="0.6" d="M18.0931 57.5259L88.4316 57.5259V28.1533L18.0931 28.1533V57.5259Z" fill="#E0E0E0"/>
<path d="M19.0569 137.127H20.8643L20.8643 107.493H19.0569L19.0569 137.127Z" fill="#E6E6E6"/>
<path d="M61.4531 101.723H51.667V107.489H61.4531V101.723Z" fill="#E6E6E6"/>
<path d="M12.7988 107.493H51.667V101.726H12.7988V107.493Z" fill="#F5F5F5"/>
<path d="M61.4531 111.075H51.667V116.841H61.4531V111.075Z" fill="#E6E6E6"/>
<path d="M12.7988 116.844H51.667V111.078H12.7988V116.844Z" fill="#F5F5F5"/>
<path d="M61.4531 120.431H51.667V126.197H61.4531V120.431Z" fill="#E6E6E6"/>
<path d="M12.7988 126.197H51.667V120.431H12.7988V126.197Z" fill="#F5F5F5"/>
<path d="M57.9251 137.127H59.7324L59.7324 107.493H57.9251V137.127Z" fill="#E6E6E6"/>
<path d="M49.8597 137.127H51.667L51.667 107.493H49.8597V137.127Z" fill="#F5F5F5"/>
<path d="M12.8001 137.127H14.6074L14.6074 107.493H12.8001L12.8001 137.127Z" fill="#F5F5F5"/>
<path d="M82.8836 153.321C121.283 153.321 152.412 151.504 152.412 149.262C152.412 147.02 121.283 145.203 82.8836 145.203C44.4843 145.203 13.3555 147.02 13.3555 149.262C13.3555 151.504 44.4843 153.321 82.8836 153.321Z" fill="#F5F5F5"/>
<path d="M135.239 132.982H77.0036C76.4311 132.988 75.8636 132.875 75.3378 132.649C74.812 132.422 74.3396 132.088 73.9512 131.668C73.5627 131.247 73.267 130.75 73.083 130.208C72.8991 129.665 72.831 129.091 72.8833 128.521L80.0158 35.0096C80.1268 33.8048 80.6786 32.6834 81.5653 31.8603C82.452 31.0371 83.6112 30.5701 84.8209 30.5487H143.057C143.629 30.5412 144.197 30.6542 144.723 30.8804C145.249 31.1066 145.722 31.4408 146.111 31.8615C146.499 32.2821 146.795 32.7798 146.979 33.3221C147.162 33.8645 147.23 34.4394 147.177 35.0096L140.045 128.521C139.933 129.725 139.381 130.846 138.494 131.669C137.608 132.492 136.449 132.959 135.239 132.982Z" fill="#FFC100"/>
<path opacity="0.5" d="M135.239 132.982H77.0036C76.4311 132.988 75.8636 132.875 75.3378 132.649C74.812 132.422 74.3396 132.088 73.9512 131.668C73.5627 131.247 73.267 130.75 73.083 130.208C72.8991 129.665 72.831 129.091 72.8833 128.521L80.0158 35.0096C80.1268 33.8048 80.6786 32.6834 81.5653 31.8603C82.452 31.0371 83.6112 30.5701 84.8209 30.5487H143.057C143.629 30.5412 144.197 30.6542 144.723 30.8804C145.249 31.1066 145.722 31.4408 146.111 31.8615C146.499 32.2821 146.795 32.7798 146.979 33.3221C147.162 33.8645 147.23 34.4394 147.177 35.0096L140.045 128.521C139.933 129.725 139.381 130.846 138.494 131.669C137.608 132.492 136.449 132.959 135.239 132.982Z" fill="white"/>
<path d="M134.375 132.982H76.1354C75.563 132.988 74.9955 132.875 74.4696 132.649C73.9438 132.422 73.4714 132.088 73.083 131.668C72.6946 131.247 72.3988 130.75 72.2149 130.208C72.0309 129.665 71.9629 129.091 72.0151 128.521L79.1512 35.0096C79.2623 33.8042 79.8146 32.6823 80.702 31.8591C81.5895 31.0358 82.7496 30.5692 83.9599 30.5487H142.196C142.768 30.5412 143.336 30.6542 143.862 30.8804C144.388 31.1066 144.861 31.4408 145.25 31.8615C145.638 32.2821 145.934 32.7798 146.118 33.3221C146.301 33.8645 146.369 34.4394 146.316 35.0096L139.184 128.521C139.073 129.726 138.52 130.848 137.633 131.671C136.745 132.494 135.585 132.961 134.375 132.982Z" fill="#FFC100"/>
<path opacity="0.7" d="M134.375 132.982H76.1354C75.563 132.988 74.9955 132.875 74.4696 132.649C73.9438 132.422 73.4714 132.088 73.083 131.668C72.6946 131.247 72.3988 130.75 72.2149 130.208C72.0309 129.665 71.9629 129.091 72.0151 128.521L79.1512 35.0096C79.2623 33.8042 79.8146 32.6823 80.702 31.8591C81.5895 31.0358 82.7496 30.5692 83.9599 30.5487H142.196C142.768 30.5412 143.336 30.6542 143.862 30.8804C144.388 31.1066 144.861 31.4408 145.25 31.8615C145.638 32.2821 145.934 32.7798 146.118 33.3221C146.301 33.8645 146.369 34.4394 146.316 35.0096L139.184 128.521C139.073 129.726 138.52 130.848 137.633 131.671C136.745 132.494 135.585 132.961 134.375 132.982Z" fill="white"/>
<path d="M76.25 131.493C75.8682 131.499 75.4895 131.424 75.1385 131.274C74.7875 131.123 74.4721 130.901 74.213 130.62C73.9538 130.34 73.7567 130.008 73.6344 129.646C73.5121 129.284 73.4674 128.901 73.5032 128.521L80.5424 36.2504C80.6149 35.4469 80.9822 34.6987 81.5734 34.1499C82.1646 33.601 82.9381 33.2903 83.7447 33.2776H141.981C142.362 33.2719 142.741 33.3467 143.092 33.4972C143.443 33.6476 143.759 33.8704 144.018 34.1508C144.277 34.4313 144.474 34.7632 144.596 35.125C144.719 35.4867 144.763 35.8702 144.727 36.2504L137.688 128.521C137.616 129.324 137.249 130.071 136.659 130.62C136.068 131.169 135.296 131.48 134.49 131.493H76.25Z" fill="#FFC100"/>
<path opacity="0.2" d="M134.078 48.7977H92.4017C92.1753 48.8007 91.9508 48.756 91.7428 48.6665C91.5348 48.5771 91.3479 48.4448 91.1944 48.2784C91.0408 48.112 90.924 47.9152 90.8515 47.7007C90.779 47.4862 90.7525 47.2588 90.7737 47.0334C90.8185 46.5582 91.0366 46.1161 91.3864 45.7913C91.7363 45.4666 92.1934 45.282 92.6706 45.2727H134.347C134.573 45.2691 134.797 45.3133 135.005 45.4024C135.213 45.4914 135.4 45.6233 135.554 45.7895C135.707 45.9556 135.824 46.1522 135.897 46.3666C135.969 46.5809 135.996 46.8081 135.975 47.0334C135.932 47.5098 135.715 47.9537 135.365 48.2794C135.014 48.6052 134.556 48.7898 134.078 48.7977Z" fill="black"/>
<path opacity="0.3" d="M116.298 32.3663H109.567C109.512 32.3671 109.456 32.3561 109.405 32.3341C109.354 32.3121 109.308 32.2796 109.27 32.2387C109.232 32.1978 109.203 32.1494 109.185 32.0967C109.167 32.0439 109.161 31.988 109.166 31.9324C109.177 31.8157 109.231 31.7071 109.317 31.6272C109.402 31.5472 109.515 31.5015 109.632 31.4985H116.366C116.422 31.4983 116.477 31.5097 116.527 31.5319C116.578 31.5541 116.624 31.5867 116.661 31.6275C116.699 31.6683 116.727 31.7166 116.745 31.7691C116.763 31.8216 116.769 31.8772 116.764 31.9324C116.755 32.0498 116.701 32.1593 116.615 32.2395C116.529 32.3197 116.416 32.365 116.298 32.3663Z" fill="#FFC100"/>
<path d="M92.2071 47.0332C92.2667 46.4095 92.194 45.7803 91.9939 45.1866C91.7937 44.5929 91.4705 44.0481 91.0454 43.5878C90.6203 43.1276 90.1029 42.7621 89.527 42.5155C88.9511 42.2688 88.3296 42.1464 87.7031 42.1563H130.017C130.644 42.1464 131.265 42.2688 131.841 42.5155C132.417 42.7621 132.935 43.1276 133.36 43.5878C133.785 44.0481 134.108 44.5929 134.308 45.1866C134.508 45.7803 134.581 46.4095 134.521 47.0332H92.2071Z" fill="#F0F0F0"/>
<path d="M87.7147 42.1562C86.3912 42.1766 85.1222 42.6862 84.1522 43.5867C83.1821 44.4872 82.5798 45.7149 82.4612 47.0332L78.1258 103.86C78.0081 105.178 77.4065 106.405 76.4371 107.306C75.4676 108.207 74.199 108.716 72.876 108.737H115.19C116.514 108.716 117.783 108.207 118.753 107.306C119.723 106.406 120.325 105.178 120.444 103.86L124.779 47.0332C124.897 45.7152 125.498 44.4875 126.468 43.587C127.437 42.6864 128.706 42.1767 130.029 42.1562H87.7147Z" fill="white"/>
<path d="M110.682 103.86C110.623 104.484 110.695 105.113 110.895 105.706C111.096 106.3 111.419 106.845 111.844 107.305C112.269 107.766 112.786 108.131 113.362 108.378C113.938 108.624 114.56 108.747 115.186 108.737H72.8718C72.2454 108.747 71.6239 108.624 71.0479 108.378C70.472 108.131 69.9546 107.766 69.5295 107.305C69.1044 106.845 68.7813 106.3 68.5811 105.706C68.3809 105.113 68.3083 104.484 68.3679 103.86H110.682Z" fill="#F0F0F0"/>
<path d="M85.9136 102.738C86.0749 100.662 85.4223 98.9834 83.3496 98.9834H115.932C118.004 98.9834 119.564 100.88 118.499 102.738H85.9136Z" fill="#E0E0E0"/>
<path d="M110.682 103.86C110.798 102.54 111.398 101.31 112.368 100.407C113.338 99.5041 114.608 98.9929 115.932 98.9722H73.618C72.295 98.9926 71.0264 99.5023 70.0569 100.403C69.0875 101.303 68.4859 102.531 68.3682 103.849L110.682 103.86Z" fill="#F0F0F0"/>
<path d="M130.688 117.949H82.1161C81.9517 117.951 81.7887 117.919 81.6376 117.854C81.4866 117.789 81.3508 117.693 81.2393 117.573C81.1277 117.452 81.0427 117.309 80.9899 117.153C80.9371 116.998 80.9176 116.833 80.9327 116.669C80.9644 116.323 81.1224 116.002 81.3765 115.766C81.6306 115.529 81.9628 115.395 82.3097 115.389H130.885C131.049 115.387 131.212 115.42 131.362 115.485C131.513 115.55 131.648 115.646 131.759 115.767C131.871 115.887 131.955 116.03 132.008 116.185C132.061 116.341 132.08 116.506 132.065 116.669C132.033 117.014 131.875 117.336 131.621 117.572C131.367 117.808 131.035 117.943 130.688 117.949Z" fill="white"/>
<path d="M106.16 124.102H81.6467C81.4821 124.105 81.3189 124.073 81.1676 124.009C81.0162 123.944 80.8803 123.848 80.7686 123.727C80.6569 123.606 80.5719 123.463 80.5193 123.307C80.4667 123.151 80.4476 122.986 80.4633 122.822C80.495 122.477 80.6531 122.155 80.9071 121.919C81.1612 121.683 81.4935 121.549 81.8403 121.542H106.354C106.518 121.54 106.681 121.572 106.832 121.637C106.983 121.702 107.119 121.798 107.231 121.919C107.342 122.039 107.427 122.182 107.48 122.338C107.533 122.494 107.552 122.659 107.537 122.822C107.506 123.168 107.348 123.489 107.093 123.726C106.839 123.962 106.507 124.096 106.16 124.102Z" fill="white"/>
<path d="M123.133 124.103H113.203C113.039 124.106 112.876 124.074 112.724 124.009C112.573 123.944 112.437 123.848 112.325 123.728C112.214 123.607 112.129 123.464 112.076 123.308C112.023 123.152 112.004 122.987 112.02 122.823C112.052 122.477 112.21 122.156 112.464 121.919C112.718 121.683 113.05 121.549 113.397 121.543H123.326C123.491 121.541 123.653 121.574 123.804 121.639C123.955 121.704 124.091 121.8 124.202 121.92C124.313 122.041 124.398 122.183 124.451 122.339C124.504 122.494 124.524 122.659 124.51 122.823C124.478 123.168 124.32 123.49 124.066 123.726C123.812 123.962 123.48 124.096 123.133 124.103Z" fill="white"/>
<path d="M133.063 99.754L130.528 100.152C130.466 99.9172 130.368 99.6933 130.237 99.4886C130.108 99.3326 129.948 99.2045 129.768 99.1121L129.617 101.059C130.956 101.425 131.838 101.81 132.263 102.214C132.54 102.477 132.751 102.8 132.882 103.158C133.012 103.517 133.057 103.901 133.013 104.279C132.981 104.757 132.833 105.22 132.583 105.628C132.346 106.023 132.037 106.37 131.672 106.65C131.334 106.913 130.953 107.116 130.546 107.249C130.079 107.383 129.597 107.456 129.111 107.467L129.014 108.737H128.068L128.165 107.467C127.626 107.432 127.094 107.325 126.583 107.148C126.201 107.006 125.852 106.786 125.558 106.503C125.295 106.251 125.084 105.95 124.937 105.617C124.786 105.251 124.693 104.864 124.661 104.47L127.404 104.154C127.42 104.489 127.505 104.818 127.655 105.119C127.815 105.349 128.036 105.53 128.294 105.642L128.473 103.265C127.83 103.1 127.201 102.881 126.594 102.612C126.211 102.408 125.893 102.101 125.676 101.726C125.419 101.275 125.314 100.754 125.375 100.238C125.399 99.8556 125.499 99.4817 125.669 99.1382C125.839 98.7947 126.075 98.4884 126.364 98.2371C127.089 97.6527 127.994 97.3372 128.925 97.3442L128.975 96.6772H129.958L129.907 97.3442C130.714 97.3428 131.502 97.5936 132.159 98.0614C132.664 98.4909 132.987 99.0958 133.063 99.754ZM128.785 99.0798C128.549 99.1429 128.334 99.2665 128.161 99.4384C128.037 99.575 127.964 99.7495 127.953 99.9333C127.934 100.116 127.981 100.299 128.086 100.45C128.235 100.623 128.432 100.748 128.652 100.808L128.785 99.0798ZM129.262 105.71C129.587 105.656 129.89 105.509 130.133 105.287C130.314 105.114 130.426 104.881 130.449 104.631C130.467 104.42 130.403 104.211 130.27 104.046C130.039 103.808 129.748 103.637 129.427 103.552L129.262 105.71Z" fill="white"/>
<path d="M85.2931 57.9741H86.5015L86.2039 61.8685H84.999L85.2931 57.9741Z" fill="#FFC100"/>
<path d="M87.3738 57.9741H88.4962L89.7979 60.1257L89.9629 57.9741H91.096L90.7984 61.8685H89.6652L88.3707 59.7169L88.2057 61.8685H87.0762L87.3738 57.9741Z" fill="#FFC100"/>
<path d="M91.5107 57.9741H92.7694L93.4328 60.7783L94.5086 57.9741H95.7278L93.9994 61.8685H92.6977L91.5107 57.9741Z" fill="#FFC100"/>
<path d="M95.639 59.9247C95.6557 59.3654 95.8868 58.8338 96.2845 58.4401C96.7035 58.0731 97.2485 57.8828 97.8049 57.9094C98.0711 57.889 98.3385 57.9247 98.59 58.0142C98.8414 58.1038 99.0712 58.2453 99.2644 58.4294C99.4333 58.6299 99.5574 58.8641 99.6285 59.1164C99.6996 59.3687 99.7161 59.6333 99.6768 59.8924C99.6616 60.2851 99.5534 60.6685 99.3613 61.0113C99.189 61.2997 98.941 61.5354 98.6441 61.6926C98.3028 61.8634 97.9246 61.9472 97.5432 61.9364C97.173 61.9506 96.8046 61.8781 96.4674 61.7249C96.1852 61.5794 95.9576 61.3467 95.8183 61.0615C95.6565 60.7059 95.5945 60.3129 95.639 59.9247ZM96.8439 59.9247C96.7915 60.2173 96.8463 60.519 96.9981 60.7746C97.0669 60.8602 97.1552 60.928 97.2557 60.9723C97.3562 61.0166 97.4659 61.0361 97.5755 61.0292C97.6903 61.0346 97.805 61.015 97.9115 60.9716C98.018 60.9283 98.1138 60.8623 98.1922 60.7782C98.3821 60.5156 98.4815 60.1985 98.4755 59.8745C98.524 59.5949 98.4665 59.3072 98.3142 59.0677C98.2443 58.9827 98.1551 58.9155 98.0541 58.8719C97.953 58.8282 97.843 58.8093 97.7332 58.8167C97.6196 58.8137 97.5067 58.8353 97.4021 58.8798C97.2976 58.9244 97.2038 58.9909 97.1272 59.0748C96.9414 59.3204 96.8418 59.6204 96.8439 59.9283V59.9247Z" fill="#FFC100"/>
<path d="M100.519 57.9741H101.724L101.43 61.8685H100.222L100.519 57.9741Z" fill="#FFC100"/>
<path d="M105.005 60.2765L106.034 60.5957C105.955 60.8656 105.822 61.1168 105.643 61.3344C105.483 61.5301 105.277 61.684 105.044 61.7826C104.766 61.8937 104.469 61.9462 104.169 61.9368C103.819 61.9497 103.47 61.8861 103.147 61.7503C102.867 61.6103 102.64 61.3823 102.502 61.1013C102.319 60.7343 102.249 60.3211 102.301 59.9143C102.311 59.3561 102.536 58.8232 102.929 58.4261C103.339 58.0657 103.875 57.8803 104.42 57.9098C104.82 57.8834 105.218 57.9878 105.554 58.2074C105.839 58.4369 106.036 58.7591 106.109 59.1182L105.034 59.3549C105.016 59.2641 104.983 59.1769 104.937 59.0967C104.881 59.0068 104.801 58.9337 104.707 58.8852C104.608 58.8339 104.497 58.808 104.385 58.8098C104.257 58.8059 104.13 58.834 104.016 58.8916C103.902 58.9493 103.804 59.0346 103.732 59.1398C103.588 59.3687 103.511 59.6332 103.51 59.9036C103.454 60.2061 103.499 60.5186 103.639 60.7929C103.701 60.8734 103.783 60.9373 103.876 60.9792C103.969 61.0211 104.071 61.0396 104.173 61.0331C104.271 61.0395 104.37 61.0255 104.462 60.9922C104.555 60.9589 104.639 60.9069 104.711 60.8395C104.852 60.678 104.953 60.485 105.005 60.2765Z" fill="#FFC100"/>
<path d="M106.817 57.9741H110.044L109.983 58.8061H107.964L107.917 59.4264H109.779L109.718 60.2189H107.846L107.785 60.9863H109.865L109.796 61.8685H106.512L106.817 57.9741Z" fill="#FFC100"/>
<path d="M119.59 66.8959H84.6162L84.6879 65.9277H119.665L119.59 66.8959Z" fill="#FFC100"/>
<path d="M119.589 66.8955H84.6152L84.3857 69.8683H119.363L119.589 66.8955Z" fill="#F0F0F0"/>
<path d="M119.139 72.8379H84.1615L83.9355 75.8071H118.913L119.139 72.8379Z" fill="#F0F0F0"/>
<path d="M118.683 78.7764H83.7093L83.4834 81.7491H118.457L118.683 78.7764Z" fill="#F0F0F0"/>
<path d="M118.231 84.7178H83.2533L83.0273 87.6869H118.005L118.231 84.7178Z" fill="#F0F0F0"/>
<path d="M117.704 91.628H82.7266L82.8019 90.6562H117.779L117.704 91.628Z" fill="#FFC100"/>
<path d="M113.701 48.7974H120.97L120.64 53.1328H113.371L113.701 48.7974Z" fill="#F0F0F0"/>
<path d="M42.4271 76.3808L43.7252 76.9007C44.1991 77.0912 44.6146 77.4028 44.9301 77.8044L45.5254 78.5574C45.7176 78.7993 45.8185 79.101 45.8107 79.4097C45.8028 79.7185 45.6866 80.0147 45.4823 80.2464L44.8512 80.9636C44.7357 81.0952 44.5953 81.2025 44.438 81.2794C44.2807 81.3563 44.1097 81.4013 43.9349 81.4116C43.7601 81.4219 43.585 81.3975 43.4198 81.3397C43.2545 81.2819 43.1024 81.1918 42.9722 81.0748L42.3626 80.5369C42.3626 80.5369 40.4979 79.228 39.9492 77.496L40.3078 77.1374C40.5763 76.853 40.9083 76.6361 41.2766 76.5046C41.645 76.3731 42.0392 76.3307 42.4271 76.3808Z" fill="#FFB573"/>
<path d="M45.9848 63.801L45.5616 64.0807L45.0919 64.4034C44.7799 64.6258 44.4643 64.8553 44.1595 65.0883C43.5463 65.5653 42.951 66.0566 42.3988 66.5801C41.3084 67.5595 40.3726 68.6984 39.6233 69.9581C39.5336 70.1087 39.4547 70.2593 39.3794 70.4135L39.3221 70.5282C39.3365 70.4799 39.3485 70.4308 39.3579 70.3812C39.3701 70.3221 39.3701 70.2611 39.3579 70.2019C39.3256 70.0979 39.3221 70.3669 39.4045 70.6322C39.6244 71.3209 39.9114 71.9864 40.2616 72.6189C41.0003 74.0317 41.9255 75.4876 42.8004 76.922L42.8219 76.9615C42.9954 77.2469 43.0487 77.5895 42.97 77.9142C42.8914 78.2388 42.6873 78.519 42.4024 78.6935C42.1826 78.8253 41.9283 78.8879 41.6725 78.8732C41.4167 78.8585 41.1712 78.7671 40.968 78.611C40.2514 78.0534 39.5677 77.4548 38.9204 76.818C38.2583 76.174 37.6333 75.4927 37.0486 74.7776C36.3972 73.996 35.8444 73.1373 35.4026 72.2208C35.2702 71.9348 35.1576 71.6401 35.0655 71.3387C34.9473 70.9465 34.8845 70.5398 34.8791 70.1302C34.8765 69.8527 34.9066 69.5759 34.9687 69.3054C35.0049 69.151 35.0504 68.9989 35.105 68.85L35.1731 68.6671C35.2627 68.4197 35.3632 68.1794 35.4671 67.9499C36.3049 66.1222 37.4635 64.4595 38.8882 63.0408C39.562 62.352 40.2807 61.7087 41.0397 61.1151C41.4198 60.8211 41.8035 60.5342 42.2016 60.2652C42.4024 60.129 42.6032 59.9927 42.8112 59.8636L43.1303 59.67L43.4889 59.462C44.052 59.158 44.7098 59.0805 45.3281 59.2454C45.9463 59.4102 46.4783 59.8049 46.8153 60.3488C47.1522 60.8928 47.2688 61.5448 47.1411 62.1718C47.0134 62.7988 46.6511 63.3533 46.1282 63.7221L45.9848 63.801Z" fill="#FFB573"/>
<path d="M46.0279 58.1104C43.9337 58.1104 41.6387 59.0176 38.6982 62.6645C38.6982 64.8412 43.2919 67.7351 43.2919 67.7351C43.2919 67.7351 50.8224 58.0924 46.0279 58.1104Z" fill="#263238"/>
<path d="M30.4676 144.313C30.43 144.312 30.3926 144.306 30.3565 144.295C29.9226 144.141 29.5138 143.036 29.4887 142.419C29.4869 142.4 29.4911 142.381 29.5008 142.364C29.5104 142.348 29.525 142.334 29.5425 142.326C29.5591 142.316 29.5784 142.31 29.598 142.31C29.6177 142.31 29.637 142.316 29.6536 142.326C29.7002 142.366 30.7796 143.251 30.8298 143.847C30.8369 143.904 30.8319 143.963 30.8152 144.018C30.7986 144.074 30.7706 144.125 30.733 144.169C30.7018 144.211 30.662 144.246 30.6161 144.27C30.5703 144.295 30.5196 144.31 30.4676 144.313ZM29.7182 142.66C29.815 143.244 30.1485 144.004 30.4354 144.094C30.4638 144.103 30.4945 144.103 30.5224 144.092C30.5504 144.082 30.5741 144.062 30.5896 144.037C30.6096 144.013 30.6245 143.986 30.6331 143.956C30.6418 143.926 30.644 143.895 30.6398 143.865C30.6003 143.524 30.0696 142.975 29.7182 142.66Z" fill="#263238"/>
<path d="M31.1416 142.997C30.5725 142.966 30.0198 142.796 29.5315 142.502C29.5157 142.491 29.5033 142.476 29.4957 142.458C29.4881 142.44 29.4856 142.421 29.4884 142.402C29.4919 142.382 29.5007 142.364 29.5141 142.35C29.5274 142.335 29.5447 142.325 29.5637 142.319C29.6211 142.319 30.973 141.961 31.4822 142.262C31.5334 142.29 31.578 142.328 31.6132 142.375C31.6485 142.421 31.6735 142.474 31.6866 142.531C31.7049 142.597 31.7022 142.667 31.6791 142.731C31.656 142.795 31.6135 142.851 31.5575 142.89C31.4326 142.966 31.2878 143.003 31.1416 142.997ZM29.8614 142.456C30.3885 142.721 31.2025 142.9 31.4428 142.735C31.4787 142.71 31.5109 142.674 31.4894 142.578C31.4829 142.547 31.4695 142.518 31.4503 142.493C31.431 142.468 31.4064 142.448 31.3782 142.434C31.0806 142.251 30.324 142.362 29.8614 142.456Z" fill="#263238"/>
<path d="M25.774 142.18C26.8363 141.043 27.7365 139.765 28.4491 138.382C28.4491 138.382 31.7769 139.2 31.1242 140.175C29.9373 141.914 29.3599 145.49 30.8875 147.405C31.7589 148.498 30.3819 148.681 29.4532 148.211C28.0188 147.469 28.0654 147.189 27.3016 145.959C26.6561 144.909 26.4015 144.496 25.5086 144.045C24.7914 143.654 25.15 142.922 25.774 142.18Z" fill="#FFC100"/>
<path d="M53.9951 79.7261C53.9951 79.7261 49.1755 103.25 45.6398 113.316C41.9319 123.866 31.694 140.149 31.296 140.849C29.8401 140.458 28.542 139.949 27.6777 139.106C27.6777 139.106 32.4829 121.445 37.1662 109.988C38.9592 86.0696 42.8643 79.744 42.8643 79.744L53.9951 79.7261Z" fill="#263238"/>
<path opacity="0.2" d="M46.6326 92.3132C46.4139 96.8638 46.274 103.121 46.4784 110.738C47.9523 105.99 49.5552 99.5533 50.9035 93.7763C50.0034 92.575 48.6049 91.9977 46.6326 92.3132Z" fill="black"/>
<path d="M46.9229 50.8813C47.4285 52.9289 47.9233 56.2603 47.1165 58.0533C47.1165 58.0533 50.1359 58.1895 53.9944 61.2806C55.8124 58.6127 53.7075 58.0891 53.7075 58.0891C52.1046 57.7305 52.1834 55.579 52.187 54.0549L46.9229 50.8813Z" fill="#FFB573"/>
<path d="M46.1637 58.9672C44.6576 58.8023 45.6975 55.9407 46.4792 56.2204C48.4587 56.9376 52.8981 56.1415 54.2715 56.8981C55.645 57.6548 55.2971 59.2075 55.2971 59.2075C55.2971 59.2075 47.7845 59.1465 46.1637 58.9672Z" fill="#FFC100"/>
<path opacity="0.7" d="M46.1637 58.9672C44.6576 58.8023 45.6975 55.9407 46.4792 56.2204C48.4587 56.9376 52.8981 56.1415 54.2715 56.8981C55.645 57.6548 55.2971 59.2075 55.2971 59.2075C55.2971 59.2075 47.7845 59.1465 46.1637 58.9672Z" fill="white"/>
<path d="M54.949 47.2705C54.9992 47.5431 55.1821 47.7403 55.3614 47.708C55.5407 47.6758 55.6447 47.4283 55.5981 47.1558C55.5514 46.8833 55.365 46.686 55.1857 46.7183C55.0064 46.7506 54.9131 46.998 54.949 47.2705Z" fill="#263238"/>
<path d="M55.1094 46.7462L55.7333 46.4414C55.7333 46.4414 55.4859 47.0152 55.1094 46.7462Z" fill="#263238"/>
<path d="M55.3149 45.0825C55.3229 45.0631 55.3271 45.0424 55.3271 45.0215C55.3271 45.0006 55.3229 44.9798 55.3149 44.9605C55.3031 44.9189 55.2755 44.8835 55.2379 44.8621C55.2004 44.8406 55.1559 44.8348 55.114 44.8458C54.8624 44.9073 54.629 45.0279 54.4332 45.1975C54.2374 45.3671 54.0848 45.5809 53.9881 45.8212C53.9762 45.8626 53.9804 45.9069 53.9996 45.9454C54.0189 45.9839 54.0518 46.0138 54.092 46.0291C54.1334 46.0428 54.1785 46.0395 54.2175 46.02C54.2564 46.0005 54.2861 45.9664 54.3 45.9252C54.378 45.7351 54.5005 45.5666 54.6571 45.4337C54.8137 45.3008 54.9999 45.2074 55.2001 45.1613C55.2237 45.1569 55.2461 45.1476 55.2658 45.134C55.2856 45.1204 55.3023 45.1029 55.3149 45.0825Z" fill="#263238"/>
<path d="M55.2715 47.937C55.5845 48.5415 55.979 49.1002 56.4441 49.5973C56.3136 49.7132 56.1592 49.7989 55.9919 49.8485C55.8246 49.8981 55.6484 49.9103 55.4759 49.8842L55.2715 47.937Z" fill="#ED893E"/>
<path d="M45.5902 47.1302C46.3899 50.4579 46.666 51.8816 48.6275 53.3124C51.5931 55.4639 55.4229 53.7642 55.6165 50.2715C55.7887 47.123 54.4547 42.2138 50.9907 41.4464C47.5266 40.679 44.7905 43.8024 45.5902 47.1302Z" fill="#FFB573"/>
<path d="M52.0444 47.7434C54.0024 45.1543 55.2718 43.0601 54.3144 40.7687C53.5075 38.8538 51.2735 39.4132 50.9615 40.3707C45.0231 39.865 42.8895 42.0166 44.1159 45.5739C44.8976 47.8438 41.8639 46.6497 42.6026 49.5471C43.1656 51.7561 41.1682 52.5988 42.1831 53.8682C43.6461 55.7006 46.6655 53.3124 50.1116 54.6858C52.923 55.8118 57.1616 54.1085 52.0444 47.7434Z" fill="#263238"/>
<path d="M51.7172 48.2668C51.8789 48.5327 52.0952 48.7612 52.3517 48.9374C52.6082 49.1135 52.8992 49.2333 53.2054 49.2888C53.9835 49.4036 54.2525 48.5286 53.9226 47.7182C53.6357 47.001 52.8862 46.0507 52.1511 46.3125C51.416 46.5743 51.2761 47.5676 51.7172 48.2668Z" fill="#FFB573"/>
<path d="M52.8762 146.508C52.2505 146.432 51.6608 146.174 51.1801 145.766C51.1663 145.753 51.1563 145.736 51.1512 145.718C51.1461 145.699 51.1462 145.68 51.1514 145.662C51.1574 145.643 51.1687 145.626 51.184 145.613C51.1992 145.601 51.2178 145.593 51.2375 145.59C51.2948 145.59 52.6718 145.436 53.1452 145.816C53.1923 145.851 53.2312 145.895 53.2591 145.947C53.287 145.998 53.3032 146.055 53.3066 146.114C53.3215 146.185 53.3119 146.259 53.2793 146.324C53.2468 146.389 53.1932 146.441 53.1273 146.472C53.0472 146.502 52.9615 146.514 52.8762 146.508ZM51.51 145.769C51.9977 146.11 52.7758 146.408 53.0376 146.279C53.0771 146.257 53.1129 146.225 53.1057 146.128C53.1034 146.097 53.0942 146.066 53.0787 146.039C53.0632 146.012 53.0418 145.988 53.0161 145.97C52.7615 145.748 51.9833 145.741 51.51 145.769Z" fill="#263238"/>
<path d="M51.248 145.794C51.232 145.794 51.2163 145.789 51.202 145.782C51.1878 145.775 51.1753 145.764 51.1655 145.751C51.155 145.735 51.1494 145.716 51.1494 145.696C51.1494 145.676 51.155 145.657 51.1655 145.64C51.1942 145.59 51.8827 144.378 52.4672 144.231C52.5234 144.214 52.5827 144.209 52.6409 144.217C52.6991 144.225 52.7549 144.246 52.8043 144.278C52.8685 144.31 52.9202 144.363 52.9513 144.428C52.9824 144.493 52.9913 144.566 52.9764 144.636C52.8975 145.092 51.872 145.676 51.2731 145.802L51.248 145.794ZM52.5856 144.417H52.5138C52.1768 144.504 51.7213 145.117 51.4667 145.515C52.0261 145.321 52.7254 144.869 52.7756 144.582C52.7756 144.539 52.7756 144.489 52.6931 144.435C52.6594 144.42 52.6224 144.414 52.5856 144.417Z" fill="#263238"/>
<path d="M55.5416 147.767C52.637 147.541 50.679 145.547 50.8799 143.435C50.991 142.27 47.2688 142.166 47.2688 142.166C47.8569 145.777 47.1182 146.293 46.8743 147.225C46.6305 148.158 46.6915 149.19 47.4624 149.208C48.384 149.233 48.8143 149.058 49.9726 149.101C51.3138 149.155 52.7625 149.205 55.1471 149.208C56.0902 149.212 56.8325 147.867 55.5416 147.767Z" fill="#FFC100"/>
<path d="M59.0155 79.7261C59.0155 79.7261 58.7609 97.5447 57.3552 109.253C55.9495 120.961 51.1157 143.925 51.1157 143.925C49.8443 144.226 48.5192 144.213 47.2536 143.89C47.2536 143.89 45.726 125.96 48.2899 108.615C46.4073 90.4445 45.2275 79.7261 45.2275 79.7261H59.0155Z" fill="#263238"/>
<path d="M59.6762 63.2453C59.6152 64.6223 61.7883 67.8066 59.106 69.6498C59.608 70.7722 60.0312 78.3709 59.0163 79.7264C57.5353 80.8022 49.5207 80.6049 42.8795 79.7264C42.5962 76.9795 44.1095 71.2886 42.2556 62.4169C42.154 61.9312 42.1557 61.4296 42.2606 60.9445C42.3655 60.4595 42.5712 60.0019 42.8644 59.6016C43.1576 59.2012 43.5317 58.867 43.9624 58.6205C44.3931 58.3741 44.8709 58.221 45.3646 58.1712C45.924 58.1174 46.5157 58.0672 47.1217 58.0385C49.2384 57.8895 51.3629 57.8895 53.4796 58.0385C54.1645 58.103 54.8746 58.1891 55.5523 58.2859C56.733 58.4523 57.8095 59.0525 58.5719 59.9693C59.3343 60.8861 59.7279 62.054 59.6762 63.2453Z" fill="#FFC100"/>
<g opacity="0.3">
<path d="M42.4213 61.937L42.2743 62.0194C42.2611 62.0234 42.2489 62.0303 42.2387 62.0395C42.2285 62.0488 42.2204 62.0602 42.2151 62.0729C42.2099 62.0856 42.2075 62.0994 42.2081 62.1132C42.2088 62.1269 42.2125 62.1404 42.219 62.1525C42.2255 62.1647 42.2346 62.1753 42.2456 62.1835C42.2567 62.1917 42.2695 62.1974 42.283 62.2001C42.2965 62.2028 42.3104 62.2025 42.3238 62.1991C42.3372 62.1958 42.3497 62.1895 42.3603 62.1808L42.5253 62.0911C43.2425 62.3529 44.0063 62.9482 44.4474 63.0092C43.7302 62.3816 43.2245 61.9334 42.6544 62.0123C42.8229 61.9118 42.9879 61.8114 43.1528 61.7039C43.8055 61.9477 44.5155 62.4928 44.9207 62.5466C44.2609 61.9656 43.7875 61.5497 43.2676 61.6286L43.6262 61.3811L43.827 61.2341C44.4187 61.4887 45.0426 62.0302 45.4156 62.1055C44.8203 61.5174 44.4007 61.1014 43.8987 61.1839C44.0565 61.0656 44.2107 60.9472 44.3613 60.8253C44.9028 61.062 45.4765 61.5425 45.8172 61.625C45.2721 61.0835 44.8884 60.7034 44.4258 60.7751L44.8131 60.4524L44.9064 60.3735C45.3833 60.6245 45.8566 61.1194 46.1686 61.209C45.7168 60.6675 45.4012 60.291 44.9279 60.352C45.0498 60.248 45.1717 60.1404 45.2865 60.0292C45.7275 60.2623 46.1614 60.7177 46.4483 60.8002C46.0324 60.3018 45.7311 59.9575 45.308 60.0113L45.6881 59.6527C46.0718 59.8894 46.4376 60.3197 46.6922 60.4093C46.3336 59.936 46.1041 59.6097 45.7132 59.6276C45.7813 59.5595 45.8495 59.4949 45.914 59.4268L46.0288 59.3084C46.3874 59.5272 46.7209 59.9252 46.9539 60.0077C46.6384 59.5738 46.4125 59.269 46.0539 59.2905C46.1579 59.1829 46.2619 59.0718 46.3623 58.9606C46.685 59.1363 46.9898 59.4698 47.205 59.5344C46.9217 59.1758 46.7209 58.9104 46.3766 58.9463L46.434 58.8853L46.6491 58.6343C46.8957 58.8208 47.1519 58.9944 47.4165 59.1542C47.1583 58.8208 46.9755 58.5877 46.6671 58.6128C46.7495 58.5124 46.832 58.4048 46.9037 58.2972C46.9068 58.2945 46.9092 58.2912 46.9109 58.2875C46.9126 58.2838 46.9135 58.2798 46.9135 58.2757C46.9135 58.2716 46.9126 58.2676 46.9109 58.2639C46.9092 58.2602 46.9068 58.2569 46.9037 58.2542C46.8981 58.2498 46.8912 58.2474 46.884 58.2474C46.8769 58.2474 46.8699 58.2498 46.8643 58.2542C46.7926 58.3546 46.7173 58.4514 46.6384 58.5446C46.6549 58.3758 46.6076 58.2069 46.5057 58.0713H46.3838C46.4603 58.244 46.5261 58.4213 46.581 58.602C46.5165 58.6773 46.4483 58.749 46.3838 58.8208L46.3372 58.871C46.4053 58.6092 46.269 58.3833 46.061 58.0964H45.9929C46.0503 58.3187 46.2188 58.6235 46.287 58.9176L46.0001 59.208C46.0933 58.8781 45.8638 58.5877 45.5447 58.1753C45.5447 58.4227 45.8459 58.8494 45.9606 59.2511L45.8602 59.3515L45.663 59.5379C45.7526 59.1793 45.5088 58.8674 45.161 58.4263C45.161 58.6917 45.4873 59.1435 45.6128 59.5846L45.2542 59.8965C45.3295 59.5379 45.0892 59.1793 44.7629 58.7132C44.7629 58.9965 45.0534 59.4985 45.1717 59.9683L44.8884 60.2085C44.9709 59.8212 44.7127 59.4411 44.3577 58.9212C44.3577 59.2296 44.6733 59.7746 44.7988 60.2838L44.7235 60.3448C44.5944 60.4524 44.4617 60.5564 44.329 60.6604C44.433 60.2623 44.1856 59.8141 43.8449 59.2045C43.8198 59.5344 44.1139 60.1798 44.2035 60.75C44.0529 60.8648 43.9023 60.9723 43.7481 61.0835C43.9202 60.6317 43.6405 60.126 43.2532 59.4232C43.221 59.7818 43.558 60.5205 43.6549 61.148L43.5186 61.2413L43.0919 61.5174C43.2891 61.062 43.0488 60.5241 42.6974 59.7925C42.6795 59.8177 42.6616 59.8427 42.6472 59.8679C42.6723 60.2982 42.9233 60.9867 42.9771 61.5855C42.8193 61.6859 42.6544 61.7792 42.493 61.8688C42.6795 61.4887 42.5719 61.0584 42.3424 60.5205C42.2897 60.6728 42.2477 60.8285 42.2169 60.9867C42.3095 61.2977 42.3778 61.6154 42.4213 61.937Z" fill="#263238"/>
<path d="M51.5832 59.4512C51.0417 59.0926 50.5074 58.4723 50.1488 58.3396C50.6401 59.0138 50.9915 59.4907 51.5007 59.4907C51.325 59.5803 51.1421 59.6736 50.9843 59.7704C50.4895 59.4512 50.0018 58.8703 49.6754 58.7484C50.1273 59.3688 50.45 59.8063 50.9162 59.8242C50.7692 59.9067 50.6257 59.9927 50.4823 60.0788L50.3783 60.1433C49.9444 59.8206 49.5571 59.2576 49.2631 59.1178C49.6217 59.7274 49.8763 60.1469 50.3389 60.1613C50.199 60.2437 50.0627 60.3334 49.9265 60.423C49.532 60.1254 49.1734 59.6054 48.9045 59.4799C49.2344 60.0358 49.4639 60.423 49.9049 60.4374L49.4746 60.7278C49.134 60.4338 48.8399 59.9497 48.6032 59.8206C48.8686 60.3406 49.0551 60.7063 49.4459 60.7494L49.2129 60.9143L49.0838 61.0111C48.7682 60.7422 48.4957 60.2939 48.2769 60.1756C48.5244 60.6561 48.6965 60.9896 49.0551 61.0327C48.9332 61.1223 48.8148 61.212 48.6965 61.3052C48.4024 61.0829 48.155 60.7063 47.9506 60.6095C48.1765 61.0183 48.3307 61.3016 48.6678 61.3267L48.6032 61.3769L48.3486 61.5921C48.0833 61.3841 47.8574 61.0434 47.6709 60.9538C47.8753 61.3124 48.0295 61.5849 48.3271 61.61C48.2303 61.6961 48.1335 61.7893 48.0403 61.8861C48.0373 61.8885 48.0349 61.8915 48.0332 61.8949C48.0315 61.8983 48.0307 61.902 48.0307 61.9058C48.0307 61.9096 48.0315 61.9134 48.0332 61.9168C48.0349 61.9202 48.0373 61.9232 48.0403 61.9256C48.0456 61.9306 48.0526 61.9334 48.06 61.9334C48.0673 61.9334 48.0744 61.9306 48.0797 61.9256C48.1641 61.8364 48.2539 61.7526 48.3486 61.6745C48.259 61.9184 48.3881 62.1658 48.5602 62.5029C48.5307 62.2059 48.4816 61.9112 48.4132 61.6207C48.4885 61.5562 48.5638 61.4988 48.6427 61.4379L48.6965 61.3948C48.5746 61.671 48.7144 61.9471 48.9116 62.3344C48.8766 62.0052 48.8227 61.6784 48.7503 61.3554C48.8614 61.2693 48.969 61.1904 49.0838 61.1115C48.9403 61.4199 49.1196 61.7463 49.3706 62.1873C49.3957 61.9435 49.177 61.4701 49.1304 61.0613L49.2451 60.9789L49.4675 60.8283C49.324 61.1617 49.5141 61.5132 49.7866 62.0044C49.8117 61.7391 49.5786 61.2335 49.5248 60.7888L49.9157 60.5378C49.783 60.8785 49.9623 61.255 50.2098 61.7821C50.2528 61.5024 50.0484 60.9609 50.0054 60.4804L50.3245 60.2868C50.1811 60.6454 50.3747 61.0721 50.6472 61.6423C50.6939 61.3375 50.4679 60.7458 50.4249 60.2258L50.5074 60.1792L50.9485 59.9282C50.7835 60.3047 50.9485 60.7852 51.1923 61.445C51.2712 61.1223 51.0847 60.4374 51.0776 59.86C51.2461 59.7704 51.4111 59.6843 51.5832 59.6019C51.3393 60.0214 51.533 60.5629 51.8091 61.3195C51.8952 60.9609 51.68 60.19 51.6836 59.5552L51.8306 59.4835L52.3004 59.2755C52.0207 59.713 52.1964 60.3155 52.4474 61.151C52.5621 60.7637 52.3757 59.9174 52.4223 59.2253C52.5944 59.1536 52.7809 59.0891 52.9458 59.0245C52.6088 59.5015 52.8024 60.1649 53.0785 61.09C53.2076 60.6705 52.9996 59.7381 53.0534 58.9887L53.2148 58.9313C53.2266 58.9277 53.2375 58.9217 53.2469 58.9137C53.2563 58.9056 53.2639 58.8957 53.2693 58.8846C53.2747 58.8735 53.2777 58.8614 53.2782 58.8491C53.2787 58.8368 53.2766 58.8244 53.2722 58.8129C53.2633 58.7902 53.2462 58.7717 53.2242 58.7611C53.2023 58.7504 53.1771 58.7485 53.1538 58.7556L52.9781 58.8201C52.5629 58.5556 52.1652 58.2646 51.7876 57.9487H51.5007C51.9669 58.5046 52.3506 58.8775 52.8275 58.8847C52.6446 58.9528 52.4689 59.0317 52.286 59.1106C51.68 58.752 51.0668 58.1173 50.6759 57.9953C51.2353 58.6767 51.637 59.1608 52.1641 59.1644L51.7625 59.3508L51.5832 59.4512Z" fill="#263238"/>
<path d="M47.1047 66.1574C46.7102 65.7271 46.4341 65.4402 46.0468 65.4869L46.2261 65.2681L46.3265 65.139C46.6851 65.3147 47.0796 65.6733 47.3234 65.7271C46.9648 65.3327 46.703 65.053 46.3444 65.1103C46.4377 64.992 46.5273 64.8737 46.617 64.7517C46.9576 64.888 47.2983 65.1856 47.5206 65.2251C47.1943 64.8916 46.9684 64.6585 46.6277 64.7338C46.6464 64.7126 46.6632 64.6898 46.6779 64.6657C46.7425 64.576 46.8034 64.4864 46.8644 64.3931C47.1315 64.5522 47.4068 64.697 47.6892 64.827C47.3915 64.5222 47.1871 64.3107 46.8823 64.3716C46.954 64.2605 47.0222 64.1457 47.0831 64.013C47.0865 64.0059 47.0868 63.9977 47.0841 63.9903C47.0814 63.9829 47.0759 63.9769 47.0688 63.9736C47.0617 63.9703 47.0535 63.9699 47.0461 63.9726C47.0387 63.9753 47.0327 63.9808 47.0293 63.9879C46.9717 64.096 46.907 64.2002 46.8357 64.2999C46.8572 64.0417 46.6672 63.8373 46.409 63.5576C46.5176 63.837 46.6446 64.1089 46.7891 64.3716L46.617 64.6083L46.5739 64.6621C46.6206 64.3645 46.409 64.135 46.1185 63.8158C46.2385 64.1253 46.3775 64.427 46.5345 64.7195L46.2799 65.0422C46.3337 64.7015 46.0755 64.4398 45.7097 64.0632C45.7528 64.3071 46.0683 64.7015 46.244 65.0852L46.1544 65.1964L45.9787 65.4008C46.0289 65.0422 45.7528 64.7553 45.3583 64.3537C45.4049 64.6155 45.7635 65.0422 45.9356 65.4546L45.6272 65.8132C45.6631 65.4546 45.387 65.1283 45.0069 64.6908C45.0427 64.9741 45.387 65.4402 45.5555 65.8921L45.3009 66.1646C45.3404 65.7701 45.0391 65.4223 44.6268 64.9454C44.6626 65.2502 45.0356 65.7594 45.2184 66.2471L45.1503 66.3188C45.0356 66.4407 44.9136 66.5591 44.7917 66.6774C44.8527 66.2722 44.5586 65.8562 44.1534 65.286C44.1534 65.616 44.512 66.2256 44.6877 66.7814C44.5515 66.9105 44.4116 67.0396 44.2718 67.1615C44.3937 66.6953 44.0602 66.2256 43.594 65.5693C43.594 65.9279 44.0207 66.6236 44.1857 67.2368L44.0602 67.3444C43.9311 67.4556 43.7984 67.5631 43.6657 67.6707C43.8199 67.1723 43.4864 66.6415 43.0238 65.9028C43.0238 66.3045 43.4219 67.0719 43.5617 67.7496C43.4159 67.8643 43.2653 67.9755 43.1099 68.0831C43.1574 67.9148 43.1699 67.7385 43.1464 67.5651C43.123 67.3918 43.0642 67.2251 42.9736 67.0754C43.0167 67.5022 43.0525 67.9181 43.0812 68.3269L43.1314 68.2911C43.8665 68.474 44.6985 68.976 45.1431 68.9868C44.3686 68.4417 43.8092 68.0544 43.2605 68.1978C43.4183 68.0795 43.5725 67.9576 43.7231 67.8392C44.4008 68.0078 45.1575 68.4704 45.5735 68.4811C44.8563 67.9755 44.3363 67.6133 43.8271 67.7639C43.9418 67.6671 44.053 67.5739 44.1642 67.4735L44.3471 67.3049C44.9638 67.495 45.6452 67.9648 46.0217 67.9934C45.3691 67.4771 44.9029 67.1113 44.4116 67.2476C44.555 67.1149 44.6949 66.9786 44.8347 66.8388C45.3977 67.0145 46.0253 67.4448 46.3695 67.4735C45.7671 66.9965 45.3404 66.6595 44.8885 66.785C45.0069 66.6631 45.1252 66.5447 45.2471 66.4264L45.3296 66.3367C45.8316 66.534 46.3588 66.9714 46.6779 67.0288C46.1687 66.5411 45.8137 66.2005 45.3511 66.3116C45.4587 66.1933 45.5699 66.0714 45.6739 65.953C46.1364 66.1359 46.6206 66.5375 46.9146 66.5878C46.4484 66.1395 46.1221 65.8311 45.6954 65.9315C45.8101 65.8024 45.9213 65.6697 46.0289 65.5371C46.4305 65.7092 46.8429 66.0965 47.1047 66.1574Z" fill="#263238"/>
<path d="M53.3484 65.8952C53.0902 66.01 52.7424 66.4726 52.3587 66.7666L52.0252 66.6017C52.4161 66.5264 52.6599 66.1391 52.997 65.6048C52.7137 65.7267 52.3372 66.2323 51.9212 66.5515L51.8352 66.5049C51.6845 66.4295 51.5375 66.3471 51.3905 66.2682C51.7957 66.2072 52.1077 65.802 52.5344 65.2462C52.2189 65.3538 51.7455 65.8809 51.2614 66.1965C51.0965 66.1032 50.9351 66.01 50.7737 65.9096C51.2542 65.8917 51.6092 65.4326 52.1005 64.7943C51.7419 64.9163 51.2148 65.5115 50.6661 65.8486L50.5263 65.7626L50.1031 65.4793C50.6195 65.4793 51.0319 65.0095 51.6021 64.3497C51.2148 64.4573 50.6016 65.0669 49.9956 65.404C49.8402 65.2964 49.6896 65.1852 49.5437 65.0705C50.1247 65.0992 50.5801 64.5792 51.2148 63.8477C50.7881 63.9624 50.1139 64.6401 49.4505 64.9987L49.3178 64.8912C49.2999 64.8743 49.2761 64.8649 49.2515 64.8649C49.2268 64.8649 49.2031 64.8743 49.1851 64.8912C49.1685 64.9085 49.1592 64.9317 49.1592 64.9557C49.1592 64.9798 49.1685 65.0029 49.1851 65.0203L49.3322 65.135C49.3752 65.8917 49.1349 66.8348 49.2533 67.2651C49.5473 66.3614 49.7589 65.7124 49.4613 65.2318C49.619 65.3466 49.7804 65.4577 49.9418 65.5653C49.9776 66.2825 49.7589 67.1288 49.8701 67.5233C50.1426 66.6877 50.3362 66.0889 50.0529 65.6406L50.4115 65.8773L50.6267 66.0064C50.6267 66.6483 50.3757 67.4408 50.4546 67.7994C50.7594 67.0248 50.9745 66.4726 50.702 66.0458C50.8705 66.1427 51.0606 66.2359 51.2148 66.3291C51.2148 66.9208 50.9853 67.6416 51.057 67.9823C51.3367 67.2651 51.5339 66.7595 51.2829 66.365L51.7348 66.5945L51.8423 66.6483C51.8029 67.1826 51.5375 67.8173 51.577 68.1365C51.8961 67.5089 52.1149 67.0607 51.871 66.659L52.3121 66.8634C52.2726 67.3583 52.0288 67.9392 52.0682 68.2369C52.3587 67.6559 52.5595 67.2543 52.3372 66.8778C52.495 66.9495 52.6528 67.0176 52.8141 67.0822C52.7496 67.5269 52.4986 68.0361 52.5165 68.305C52.8141 67.7994 53.0185 67.448 52.8464 67.0965L53.1118 67.2041L53.2624 67.2615C53.205 67.6739 52.9755 68.14 52.9898 68.3875C53.2624 67.9249 53.4524 67.5986 53.2946 67.2722C53.4345 67.326 53.5743 67.3798 53.7178 67.4264C53.6891 67.785 53.5026 68.2046 53.5313 68.4305C53.7536 68.0217 53.8899 67.7348 53.7393 67.4336L53.8182 67.4623C53.9222 67.4946 54.0262 67.5304 54.1338 67.5591C54.0606 67.8607 54.0031 68.166 53.9616 68.4735C54.1624 68.1149 54.3202 67.8424 54.1589 67.5663C54.2857 67.6062 54.4151 67.6374 54.5461 67.6595C54.5532 67.6606 54.5605 67.659 54.5665 67.655C54.5724 67.6511 54.5767 67.645 54.5784 67.638C54.5797 67.6305 54.5782 67.6227 54.5743 67.6161C54.5703 67.6096 54.5642 67.6046 54.5569 67.6022C54.435 67.5771 54.3166 67.5448 54.1983 67.5089C54.4493 67.4515 54.5892 67.2149 54.7792 66.885C54.5999 66.9639 54.374 67.283 54.1158 67.4838L53.8397 67.3906L53.7752 67.3655C54.0728 67.3224 54.2306 67.0535 54.4493 66.6806C54.2449 66.7702 53.9975 67.1252 53.707 67.3404C53.5815 67.2938 53.4524 67.2471 53.3269 67.1934C53.664 67.1467 53.8433 66.8348 54.0907 66.365C53.872 66.4762 53.5923 66.9101 53.2731 67.1718L53.1404 67.118L52.893 67.0105C53.2516 66.9567 53.4453 66.6053 53.7142 66.114C53.4775 66.2323 53.1763 66.6985 52.8321 66.9854C52.6886 66.9244 52.5488 66.8599 52.4089 66.7917C52.8141 66.7415 53.04 66.3865 53.3484 65.8952Z" fill="#263238"/>
<path d="M51.2791 70.6756C51.5544 70.8168 51.8369 70.9437 52.1254 71.0558C51.8134 70.7725 51.591 70.5752 51.2934 70.6505C51.358 70.5358 51.4189 70.421 51.4727 70.2919C51.4744 70.2884 51.4753 70.2846 51.4755 70.2807C51.4756 70.2768 51.475 70.2729 51.4737 70.2693C51.4724 70.2656 51.4703 70.2622 51.4677 70.2594C51.4651 70.2565 51.4619 70.2542 51.4584 70.2525C51.4548 70.2509 51.451 70.2499 51.4471 70.2497C51.4432 70.2496 51.4393 70.2502 51.4357 70.2515C51.432 70.2528 51.4286 70.2549 51.4258 70.2575C51.4229 70.2601 51.4206 70.2633 51.4189 70.2668C51.3651 70.378 51.3078 70.4856 51.2468 70.5932C51.2468 70.335 51.046 70.1413 50.7735 69.876C50.8984 70.1468 51.0409 70.4091 51.2002 70.6613L51.046 70.9087L51.0065 70.9661C51.0316 70.6649 50.8093 70.4497 50.4973 70.1521C50.6373 70.4512 50.7941 70.7422 50.9671 71.0235L50.7376 71.3641C50.7699 71.0235 50.4937 70.7725 50.1065 70.4246C50.1638 70.6649 50.5224 71.0378 50.7017 71.4108L50.6193 71.5255C50.5691 71.5972 50.5117 71.669 50.4579 71.7407C50.4866 71.3821 50.1925 71.1095 49.773 70.7366C49.8375 70.9948 50.2212 71.3964 50.4184 71.8124C50.3252 71.9379 50.2284 72.0598 50.1316 72.171C50.1316 71.8124 49.8519 71.504 49.4431 71.0952C49.4969 71.3713 49.8698 71.8124 50.0634 72.2571C49.9869 72.3551 49.908 72.4519 49.8268 72.5475C49.8268 72.1495 49.522 71.8303 49.0809 71.3713C49.1347 71.6725 49.5399 72.1566 49.755 72.6336L49.6905 72.7089C49.5793 72.838 49.4682 72.9635 49.3534 73.0854C49.3893 72.6802 49.0665 72.2786 48.6362 71.7371C48.6649 72.067 49.0701 72.6515 49.2638 73.1966C49.1347 73.3328 49.0056 73.4691 48.8729 73.6018C48.9625 73.132 48.6004 72.6802 48.0947 72.0562C48.1306 72.4148 48.5896 73.0818 48.7904 73.6843L48.6757 73.799L48.2991 74.1576C48.4211 73.652 48.0553 73.1428 47.5497 72.4364C47.5497 72.838 48.0194 73.5803 48.2023 74.2293C48.0625 74.3548 47.919 74.4768 47.772 74.5879C47.9334 74.0285 47.5353 73.4655 46.9688 72.6802C46.9688 73.1213 47.4851 73.9317 47.6859 74.6596L47.5497 74.7672C47.54 74.7748 47.5319 74.7841 47.5259 74.7948C47.5199 74.8054 47.516 74.8172 47.5145 74.8293C47.513 74.8415 47.5139 74.8538 47.5172 74.8656C47.5204 74.8774 47.526 74.8885 47.5335 74.8981C47.5411 74.9078 47.5504 74.9158 47.5611 74.9219C47.5717 74.9279 47.5835 74.9318 47.5956 74.9333C47.6078 74.9348 47.6201 74.9339 47.6319 74.9306C47.6437 74.9273 47.6548 74.9218 47.6644 74.9142L47.8079 74.7959C48.5537 74.9286 49.418 75.3804 49.8626 75.3625C49.0522 74.8676 48.4713 74.5126 47.9334 74.6919C48.0804 74.5664 48.2274 74.4337 48.3709 74.301C49.0558 74.4266 49.8483 74.8389 50.2571 74.8246C49.5076 74.3656 48.9661 74.0393 48.4641 74.2114C48.5717 74.1074 48.6793 74.007 48.7832 73.8994L48.959 73.7201C49.5829 73.8707 50.2929 74.2939 50.6695 74.301C49.9845 73.8277 49.5004 73.4906 49.0163 73.6592C49.1526 73.5157 49.2817 73.3723 49.4108 73.2253C49.9881 73.3615 50.6372 73.7524 50.985 73.7596C50.3539 73.3221 49.9092 73.0137 49.4646 73.1643C49.5757 73.0388 49.6833 72.9097 49.7909 72.7806L49.8662 72.6838C50.3826 72.8487 50.942 73.254 51.2576 73.2898C50.7161 72.8344 50.3431 72.5188 49.8877 72.6623L50.1889 72.2822C50.6623 72.4328 51.1679 72.8021 51.4655 72.8344C50.9707 72.4184 50.6264 72.1172 50.2069 72.2571C50.3109 72.1208 50.4149 71.9809 50.5153 71.8411C50.9348 72.006 51.3723 72.3682 51.6377 72.4112C51.2145 72.0096 50.9205 71.7263 50.5368 71.8124C50.5942 71.7371 50.6479 71.6582 50.7017 71.5829C50.7555 71.5076 50.7627 71.4897 50.795 71.4466C51.1787 71.5972 51.5803 71.9307 51.8277 71.9702C51.4369 71.6116 51.1643 71.339 50.8129 71.4179C50.899 71.2936 50.9814 71.1681 51.0603 71.0414C51.4189 71.1562 51.7775 71.4323 51.9927 71.4574C51.6341 71.1454 51.4046 70.9267 51.0711 71.0235L51.1177 70.9518L51.2791 70.6756Z" fill="#263238"/>
<path d="M53.4523 74.6777C53.5288 74.5796 53.6077 74.4864 53.689 74.398C53.6352 74.649 53.7894 74.8785 54.0046 75.194C53.9364 74.9025 53.8514 74.6151 53.75 74.3334L53.9544 74.1254L54.001 74.0752C53.9149 74.3657 54.087 74.6239 54.3309 74.9789C54.2558 74.6571 54.1624 74.3398 54.0512 74.0286L54.3488 73.7453C54.2484 74.0716 54.4636 74.3728 54.772 74.796C54.772 74.5486 54.4922 74.1075 54.3918 73.7202L54.4994 73.627L54.7002 73.4477C54.5962 73.8063 54.8293 74.1218 55.1592 74.5772C55.1592 74.3083 54.8616 73.835 54.7504 73.4046C54.8688 73.3006 54.9871 73.2038 55.109 73.1034C55.0194 73.462 55.2453 73.8206 55.5537 74.3047C55.5537 74.0214 55.2919 73.505 55.1951 73.0353L55.4892 72.8058C55.3887 73.1895 55.6362 73.5768 55.9733 74.1111C55.9733 73.8027 55.6864 73.2433 55.5788 72.7341L55.6577 72.6731L56.0629 72.3755C55.9446 72.7663 56.1741 73.2218 56.4932 73.8457C56.5291 73.5158 56.2601 72.8596 56.1848 72.2894C56.339 72.1818 56.4932 72.0742 56.651 71.9703C56.4609 72.4149 56.7227 72.9313 57.0885 73.6485C57.1315 73.2899 56.8195 72.5404 56.7299 71.9093L56.8662 71.8232C57.0132 71.7336 57.1602 71.6439 57.3072 71.5615C57.0813 72.0276 57.3323 72.6014 57.6658 73.4011C57.734 73.003 57.4471 72.1854 57.4076 71.4969C57.569 71.4037 57.734 71.314 57.9025 71.2316C57.6264 71.7443 57.9025 72.3791 58.2898 73.2648C58.3651 72.8309 58.0459 71.9308 58.0065 71.1813L58.1571 71.106C58.1681 71.101 58.178 71.0939 58.1861 71.085C58.1943 71.0761 58.2006 71.0656 58.2046 71.0542C58.2086 71.0429 58.2103 71.0308 58.2095 71.0187C58.2088 71.0067 58.2056 70.9949 58.2001 70.9841C58.1948 70.973 58.1873 70.9631 58.178 70.9549C58.1688 70.9467 58.158 70.9404 58.1464 70.9364C58.1347 70.9324 58.1223 70.9307 58.11 70.9315C58.0977 70.9323 58.0857 70.9356 58.0746 70.9411L57.9097 71.0272C57.2104 70.7403 56.4574 70.1163 56.0199 70.041C56.7084 70.6937 57.2032 71.1634 57.7662 71.1168C57.5941 71.2065 57.4256 71.3069 57.257 71.4037C56.6116 71.1383 55.9231 70.5682 55.5214 70.5C56.1597 71.106 56.6187 71.5364 57.1423 71.4754L56.7658 71.7121L56.5578 71.8519C55.9768 71.5722 55.3708 71.0092 55.005 70.9232C55.5752 71.5328 55.9804 71.9631 56.486 71.8985C56.3247 72.0097 56.1669 72.1245 56.0091 72.2571C55.4748 72.0025 54.9333 71.4862 54.5747 71.4073C55.1019 71.9667 55.4748 72.3611 55.9374 72.3073C55.8047 72.4077 55.6684 72.5082 55.5394 72.6121L55.4425 72.691C54.9764 72.4221 54.5209 71.9093 54.2125 71.8089C54.6429 72.3683 54.9297 72.752 55.421 72.709L55.0445 73.0174C54.6142 72.7735 54.1946 72.3002 53.9113 72.2069C54.3094 72.7197 54.5855 73.0747 55.023 73.0389C54.8903 73.15 54.7612 73.2612 54.6321 73.3975C54.2735 73.1464 53.9149 72.7018 53.6567 72.605C53.983 73.0891 54.2161 73.4262 54.607 73.4226L54.3954 73.6126L54.2771 73.7274C53.9185 73.4943 53.6101 73.0855 53.377 73.0102C53.6818 73.4548 53.8934 73.7668 54.2556 73.7632C54.1444 73.8672 54.0368 73.9712 53.9328 74.0788C53.6173 73.8959 53.3232 73.5517 53.1081 73.4799C53.3806 73.8385 53.5707 74.1182 53.9185 74.0967L53.8611 74.1541C53.7858 74.233 53.7069 74.3155 53.6352 74.398C53.3447 74.2258 53.0794 73.9138 52.8857 73.8493C53.1332 74.19 53.3053 74.4302 53.6029 74.4195C53.5135 74.5162 53.4297 74.6179 53.3519 74.7243C53.3489 74.727 53.3464 74.7303 53.3447 74.734C53.3431 74.7377 53.3422 74.7417 53.3422 74.7458C53.3422 74.7499 53.3431 74.7539 53.3447 74.7576C53.3464 74.7613 53.3489 74.7646 53.3519 74.7673C53.3543 74.7703 53.3573 74.7727 53.3607 74.7744C53.3641 74.776 53.3678 74.7769 53.3716 74.7769C53.3754 74.7769 53.3792 74.776 53.3826 74.7744C53.386 74.7727 53.389 74.7703 53.3914 74.7673L53.4523 74.6777Z" fill="#263238"/>
<path d="M49.2491 79.7877C49.3926 79.6539 49.5324 79.5176 49.6687 79.3789C50.2353 79.5546 50.8592 79.985 51.2071 80.0136C50.6046 79.5367 50.1779 79.1996 49.7261 79.3216C49.8444 79.2032 49.9627 79.0813 50.0847 78.963L50.1671 78.8733C50.6692 79.0705 51.1927 79.508 51.5155 79.5654C51.0063 79.0741 50.6512 78.737 50.1851 78.8482C50.2962 78.7299 50.4038 78.608 50.5114 78.4896C50.974 78.6725 51.4581 79.0741 51.7521 79.1243C51.2824 78.6761 50.9561 78.3641 50.5329 78.4681L50.8664 78.0736C51.2752 78.2637 51.6876 78.651 51.9422 78.7119C51.5477 78.2852 51.268 77.9948 50.8664 78.045L51.0457 77.8262L51.1461 77.6971C51.5226 77.8728 51.9027 78.2278 52.1466 78.2852C51.788 77.8872 51.5262 77.6111 51.1676 77.6684C51.2609 77.5501 51.3505 77.4318 51.4366 77.3098C51.7952 77.4461 52.1179 77.7437 52.3402 77.7832C52.0175 77.4497 51.7916 77.2166 51.4509 77.2919L51.5011 77.2238C51.5621 77.1341 51.6266 77.0445 51.6876 76.9512C51.9539 77.1085 52.2279 77.2521 52.5088 77.3815C52.2147 77.0803 52.0067 76.8688 51.7019 76.9261C51.7752 76.8164 51.8422 76.7027 51.9027 76.5855C51.9046 76.5822 51.9058 76.5785 51.9063 76.5748C51.9068 76.571 51.9065 76.5672 51.9055 76.5635C51.9045 76.5599 51.9028 76.5564 51.9005 76.5534C51.8982 76.5504 51.8953 76.5479 51.892 76.546C51.8887 76.5441 51.8851 76.5429 51.8813 76.5424C51.8775 76.542 51.8737 76.5422 51.87 76.5432C51.8664 76.5442 51.8629 76.5459 51.8599 76.5483C51.8569 76.5506 51.8544 76.5535 51.8525 76.5568C51.7928 76.6644 51.7282 76.7684 51.6589 76.8688C51.6589 76.6106 51.4904 76.4062 51.2322 76.1265C51.3358 76.4045 51.4555 76.6763 51.5908 76.9405L51.4222 77.1772L51.3792 77.2309C51.4258 76.9333 51.2142 76.7038 50.9202 76.3847C51.0427 76.6919 51.1815 76.9924 51.3362 77.2847C51.2537 77.3959 51.1712 77.5035 51.0852 77.6075C51.1389 77.2704 50.8807 77.005 50.515 76.6321C50.558 76.8759 50.8915 77.2704 51.0493 77.6541C51.017 77.6899 50.9883 77.7294 50.9596 77.7652L50.7839 77.9696C50.8341 77.6111 50.558 77.3242 50.1636 76.9225C50.2102 77.1843 50.5688 77.6075 50.7409 78.0234L50.4325 78.382C50.4684 78.0234 50.1922 77.6971 49.8121 77.2596C49.8444 77.5393 50.1707 78.0091 50.3572 78.4609L50.1026 78.7335C50.142 78.3354 49.8444 77.9912 49.432 77.5142C49.4679 77.819 49.8408 78.3282 50.0237 78.8159L49.9556 78.8877L49.597 79.2463C49.6579 78.841 49.3603 78.4215 48.9551 77.8549C48.9551 78.1848 49.3316 78.7944 49.4894 79.3502L49.077 79.7304C49.1953 79.2642 48.8654 78.7944 48.3957 78.1382C48.3957 78.4968 48.826 79.1925 48.9909 79.8057L48.8654 79.9132C48.7363 80.0244 48.6037 80.132 48.471 80.236C48.6252 79.7411 48.2917 79.2104 47.8291 78.4717C47.8291 78.8697 48.2164 79.6228 48.3598 80.2934H48.6359C48.7471 80.2001 48.8583 80.1069 48.9658 80.0101C49.0734 79.9132 49.0914 79.8989 49.1523 79.8415C49.5763 80.0013 49.9906 80.1857 50.3931 80.3938H50.6656C50.1277 79.967 49.6974 79.6622 49.2491 79.7877Z" fill="#263238"/>
<path d="M47.2656 78.6831C47.2656 79.0417 47.5346 79.6298 47.7246 80.2287L47.9972 80.2502C47.9649 79.8055 47.6601 79.3142 47.2656 78.6831Z" fill="#263238"/>
<path d="M48.6895 80.3005L49.2309 80.3328C49.0572 80.2708 48.8694 80.2596 48.6895 80.3005Z" fill="#263238"/>
<path d="M59.1249 79.5469C59.136 79.526 59.1455 79.5045 59.1536 79.4823L59.0245 79.4357L58.96 79.4142C59.061 79.3973 59.1554 79.3526 59.2325 79.2851C59.2648 79.1918 59.297 79.0914 59.3257 78.9803C59.1917 79.1274 59.0466 79.264 58.8918 79.3891L58.5009 79.2492C58.838 79.199 59.0173 78.8906 59.2648 78.4173C59.046 78.5284 58.7663 78.9623 58.4472 79.2277L58.3145 79.1739L58.067 79.0663C58.4256 79.009 58.6193 78.6611 58.8882 78.1663C58.6516 78.2882 58.3503 78.7544 58.0061 79.0412L57.5829 78.8476C57.9415 78.7723 58.1639 78.4173 58.4723 77.926C58.2141 78.0407 57.8662 78.5069 57.4825 78.801L57.149 78.636C57.5399 78.5571 57.7838 78.1698 58.1208 77.6355C57.8375 77.761 57.461 78.2667 57.0451 78.5822L56.959 78.5392L56.5143 78.2989C56.9195 78.238 57.2315 77.8328 57.6582 77.2805C57.3427 77.3881 56.8693 77.9152 56.3852 78.2272C56.2203 78.1376 56.0589 78.0407 55.8975 77.9439C56.3781 77.9224 56.7331 77.467 57.2243 76.8287C56.8658 76.947 56.3386 77.5459 55.79 77.883L55.6501 77.7969C55.5067 77.7037 55.3668 77.6104 55.227 77.51C55.7433 77.51 56.1557 77.0403 56.7259 76.384C56.3386 76.4916 55.7254 77.1012 55.1194 77.4383L54.664 77.1012C55.2485 77.1299 55.7039 76.61 56.3386 75.8784C55.9119 75.9968 55.2377 76.6709 54.5743 77.0295L54.4416 76.9255C54.432 76.918 54.4209 76.9124 54.4091 76.9092C54.3973 76.9059 54.385 76.905 54.3729 76.9065C54.3483 76.9095 54.326 76.9222 54.3108 76.9417C54.2955 76.9611 54.2887 76.9859 54.2917 77.0104C54.2947 77.035 54.3074 77.0573 54.3269 77.0725L54.4739 77.1837C54.517 77.9403 54.2767 78.887 54.395 79.3138C54.6891 78.4137 54.9006 77.7646 54.603 77.2805C54.7608 77.3989 54.9222 77.51 55.0835 77.6176C55.1194 78.3133 54.9006 79.1811 55.0118 79.5755C55.2843 78.7364 55.478 78.1412 55.1947 77.6929C55.3202 77.7718 55.4421 77.8543 55.5533 77.9296L55.7685 78.0587C55.7685 78.7006 55.5174 79.4931 55.5963 79.8517C55.9011 79.0735 56.1163 78.5249 55.8438 78.0945C56.0123 78.1949 56.2024 78.2882 56.3565 78.3778C56.3565 78.9695 56.127 79.6939 56.1988 80.031C56.4785 79.3138 56.6757 78.8117 56.4247 78.4173L56.8765 78.6432L56.9841 78.697C56.9446 79.2349 56.6793 79.866 56.7187 80.1887C57.0379 79.5576 57.2566 79.1129 57.0128 78.7113L57.4538 78.9157C57.418 79.3962 57.1885 79.9521 57.2064 80.2569H57.2243C57.5076 79.6975 57.6977 79.303 57.4789 78.9301L57.9559 79.1381C57.9021 79.4966 57.73 79.8983 57.6762 80.1816L57.773 80.1636C58.0025 79.762 58.1316 79.4464 57.9882 79.1524L58.2499 79.2564L58.4041 79.3173C58.3546 79.5703 58.2875 79.8196 58.2033 80.0632L58.3683 80.013C58.4341 79.9128 58.4747 79.7982 58.4865 79.6789C58.4984 79.5597 58.4812 79.4393 58.4364 79.3281L58.8595 79.4823C58.847 79.6035 58.8242 79.7235 58.7914 79.8409C58.8461 79.8135 58.8988 79.7824 58.9492 79.7477C58.9509 79.6558 58.9273 79.5653 58.8811 79.4859L58.96 79.511L59.1249 79.5469Z" fill="#263238"/>
<path d="M45.326 72.0771C45.3493 72.0697 45.3689 72.0537 45.3808 72.0324C45.3928 72.0111 45.3963 71.9861 45.3906 71.9624C45.3839 71.9386 45.3681 71.9185 45.3466 71.9064C45.325 71.8943 45.2996 71.8912 45.2758 71.8978L45.0965 71.9516C44.4618 71.5392 43.8415 70.7862 43.4255 70.6284C43.9777 71.3994 44.3758 71.9516 44.9423 71.9983C44.7559 72.0556 44.5838 72.1202 44.3865 72.1883C43.9562 71.905 43.5331 71.4711 43.1852 71.1842C43.1852 71.2667 43.1852 71.3456 43.1852 71.4281C43.5438 71.8943 43.8558 72.2062 44.261 72.2349C44.1212 72.2851 43.9849 72.3389 43.8486 72.3963L43.6155 72.4931C43.4624 72.3777 43.3175 72.2519 43.1816 72.1166C43.1816 72.217 43.1816 72.3138 43.1816 72.4142C43.291 72.479 43.4136 72.5183 43.5402 72.529L43.1816 72.6975C43.1816 72.7477 43.1816 72.7979 43.1816 72.8481L43.6657 72.6401C43.3968 73.0418 43.5582 73.5976 43.7805 74.3686C43.8917 74.01 43.7231 73.2318 43.7805 72.5971L43.9311 72.5361L44.4116 72.3604C44.1032 72.78 44.2395 73.3932 44.4367 74.2395C44.5766 73.8629 44.4367 73.0059 44.5335 72.321C44.7128 72.26 44.8921 72.2027 45.0714 72.1524C44.7128 72.6079 44.8563 73.2784 45.0714 74.2251C45.2256 73.8127 45.0714 72.8696 45.1826 72.1238L45.326 72.0771Z" fill="#263238"/>
<path d="M43.1104 74.3119C43.1104 74.3549 43.1319 74.3944 43.1462 74.441C43.192 74.1295 43.192 73.813 43.1462 73.5015C43.1354 73.7776 43.1247 74.0501 43.1104 74.3119Z" fill="#263238"/>
<path d="M44.3791 79.5582L44.2465 79.3466C44.5369 78.7729 45.1179 78.1812 45.2111 77.8154C44.5871 78.3713 44.1353 78.7657 44.1999 79.2713C44.0923 79.1064 43.9811 78.9486 43.8699 78.7872C44.1389 78.2601 44.6696 77.7114 44.7593 77.3851C44.1855 77.8943 43.7803 78.2565 43.8233 78.7227L43.5257 78.3139L43.454 78.2171C43.7301 77.7581 44.2536 77.3134 44.3648 77.0086C43.7946 77.4246 43.4002 77.7258 43.436 78.1955L43.1348 77.8118C43.393 77.3887 43.8735 76.9799 43.9739 76.7002C43.4504 77.0839 43.0882 77.3493 43.1169 77.776L42.8946 77.5106V77.6612L43.0237 77.819C42.9789 77.8084 42.9333 77.8012 42.8874 77.7975C42.8874 77.8513 42.8874 77.9015 42.8874 77.9553L43.0954 77.9051L43.3213 78.2063C43.1762 78.1635 43.0218 78.1635 42.8766 78.2063V78.4286C43.0473 78.3687 43.2223 78.3219 43.4002 78.2888L43.4576 78.3641L43.748 78.7801C43.4515 78.7154 43.1417 78.7573 42.873 78.8984C42.873 78.9629 42.873 79.0311 42.873 79.0956C43.1897 79.0139 43.5105 78.9492 43.8341 78.902C43.9381 79.0598 44.0385 79.2175 44.1353 79.3789C43.7946 79.2211 43.4181 79.3395 42.8982 79.5618C42.8982 79.6084 42.8982 79.6622 42.8982 79.7052H42.977C43.3752 79.6031 43.7786 79.5229 44.1855 79.465L44.2716 79.6048L44.4258 79.8809L44.6266 79.906C44.5333 79.8092 44.458 79.6837 44.3791 79.5582Z" fill="#263238"/>
<path d="M42.9775 76.3018V76.4704C43.0785 76.3761 43.1633 76.2658 43.2286 76.144L42.9775 76.3018Z" fill="#263238"/>
<path d="M45.0859 79.9877L45.4051 80.0235C45.6742 79.6656 45.8926 79.2722 46.0541 78.8545C45.6811 79.1862 45.3554 79.5675 45.0859 79.9877Z" fill="#263238"/>
<path d="M44.7229 79.9665C45.0205 79.3605 45.5476 78.7366 45.6229 78.3564C44.999 78.9804 44.5471 79.4322 44.6045 79.9522L44.7229 79.9665Z" fill="#263238"/>
<path d="M42.931 76.9438C42.931 77.0406 42.931 77.1338 42.9131 77.2271C43.1674 76.9855 43.398 76.7202 43.6016 76.4346C43.3565 76.5738 43.131 76.7451 42.931 76.9438Z" fill="#263238"/>
</g>
<path d="M67.8231 68.1764L69.4081 66.4946L71.6063 69.5893C71.6063 69.5893 69.7524 70.9018 67.9773 70.8516L67.7729 70.3962C67.6089 70.0475 67.5281 69.6656 67.5368 69.2804C67.5455 68.8952 67.6435 68.5173 67.8231 68.1764Z" fill="#FFB573"/>
<path d="M71.9653 66.6593L72.5857 67.8248C72.7218 68.0808 72.751 68.3802 72.667 68.6577C72.583 68.9352 72.3926 69.1682 72.1374 69.3058L71.621 69.5891L69.4229 66.4944L70.6815 66.1358C70.9231 66.062 71.1827 66.0738 71.4166 66.1691C71.6504 66.2645 71.8443 66.4377 71.9653 66.6593Z" fill="#FFB573"/>
<path d="M59.4601 62.1413L59.5964 62.8262L59.747 63.5434C59.8545 64.0275 59.9585 64.5152 60.0805 64.9778C60.3136 65.9388 60.5933 66.882 60.8909 67.7928C61.1878 68.6674 61.5473 69.5195 61.9667 70.3424C62.302 71.0192 62.7453 71.6369 63.2791 72.1712L62.5189 71.8126C62.2966 71.784 62.2536 71.8521 62.3719 71.8485C62.5603 71.8283 62.7436 71.7748 62.9134 71.6907C63.4507 71.4441 63.9624 71.145 64.441 70.7978C64.9753 70.4392 65.5168 70.0161 66.0511 69.5822C66.5854 69.1483 67.1269 68.6857 67.6504 68.259L67.7078 68.2159C67.9323 68.0326 68.213 67.9321 68.5029 67.9313C68.7927 67.9306 69.074 68.0296 69.2994 68.2117C69.5249 68.3938 69.6808 68.648 69.741 68.9315C69.8011 69.2151 69.7619 69.5106 69.6299 69.7687C69.2698 70.4556 68.8687 71.1202 68.4286 71.7589C67.9801 72.4057 67.4915 73.0237 66.9655 73.6092C66.3916 74.2554 65.7428 74.8308 65.0327 75.3233C64.5877 75.6236 64.1055 75.8647 63.5983 76.0405C63.2713 76.1546 62.9318 76.2293 62.587 76.2628C62.1593 76.3008 61.7282 76.2693 61.3104 76.1696C61.0663 76.1109 60.8361 76.0049 60.6327 75.8576L60.5466 75.7931C59.4452 74.9681 58.5177 73.9334 57.8177 72.7486C57.4902 72.2155 57.1962 71.6776 56.9356 71.1349C56.675 70.5922 56.4359 70.0496 56.2184 69.5069C55.8034 68.4358 55.4514 67.3414 55.1641 66.2293C55.0243 65.6771 54.8916 65.1284 54.7804 64.5726C54.7266 64.2929 54.6693 64.0168 54.6226 63.7335C54.576 63.4502 54.533 63.1848 54.4864 62.8478C54.4034 62.2035 54.5735 61.5521 54.9608 61.0306C55.3481 60.5091 55.9226 60.158 56.5633 60.0513C57.2041 59.9445 57.8613 60.0902 58.3968 60.4579C58.9324 60.8256 59.3045 61.3866 59.435 62.023L59.4601 62.1413Z" fill="#FFB573"/>
<path d="M56.0216 58.3757C58.1086 58.5908 59.7761 59.975 60.9415 64.3821C60.045 65.6229 54.3972 68.3446 54.3972 68.3446C54.3972 68.3446 51.2523 57.8844 56.0216 58.3757Z" fill="#263238"/>
</g>
<defs>
<clipPath id="clip0_2216_232669">
<rect width="161.255" height="159" fill="white"/>
</clipPath>
</defs>
</svg>
