<svg width="57" height="58" viewBox="0 0 57 58" fill="none" xmlns="http://www.w3.org/2000/svg">
<g clip-path="url(#clip0_2792_95696)">
<path fill-rule="evenodd" clip-rule="evenodd" d="M49.875 16.5313V50.375C49.875 52.2647 49.1243 54.0769 47.7881 55.4131C46.4519 56.7493 44.6397 57.5 42.75 57.5H39.1875V53.9375H42.75C43.6948 53.9375 44.601 53.5622 45.2691 52.8941C45.9372 52.226 46.3125 51.3198 46.3125 50.375V16.5313H39.1875C37.7702 16.5313 36.411 15.9683 35.4089 14.9661C34.4067 13.964 33.8438 12.6048 33.8438 11.1875V4.0625H14.25C13.3052 4.0625 12.399 4.43783 11.7309 5.10593C11.0628 5.77403 10.6875 6.68017 10.6875 7.625V39.6875H7.125V7.625C7.125 5.73533 7.87567 3.92306 9.21186 2.58686C10.5481 1.25067 12.3603 0.5 14.25 0.5L33.8438 0.5L49.875 16.5313ZM5.7 42.7156H0V56.9621H2.81794V52.1812H5.67863C6.70106 52.1812 7.57031 51.9781 8.28638 51.5649C9.00956 51.1481 9.56175 50.5852 9.93581 49.8763C10.3241 49.1323 10.5212 48.3035 10.5094 47.4644C10.5094 46.5738 10.3206 45.7687 9.9465 45.0526C9.57444 44.3408 9.0056 43.751 8.30775 43.3533C7.59525 42.9258 6.72956 42.7156 5.7 42.7156ZM7.64156 47.4644C7.65441 47.9338 7.55035 48.399 7.33875 48.8182C7.14892 49.1831 6.85343 49.4824 6.49088 49.6768C6.07616 49.8819 5.61744 49.9822 5.15494 49.9689H2.80725V44.96H5.1585C5.93512 44.96 6.54431 45.1738 6.9825 45.6048C7.42069 46.0394 7.64156 46.6593 7.64156 47.4644ZM11.9771 42.7156V56.9621H17.1784C18.6069 56.9621 19.7933 56.6771 20.7338 56.1178C21.6855 55.5483 22.4287 54.6877 22.8534 53.6632C23.3166 52.5944 23.5517 51.3048 23.5517 49.8014C23.5517 48.3052 23.3201 47.0298 22.8534 45.9718C22.4337 44.959 21.6976 44.1092 20.7551 43.5493C19.8146 42.9935 18.6212 42.7156 17.1748 42.7156H11.9771ZM14.7951 45.0134H16.8008C17.6842 45.0134 18.4039 45.1916 18.9703 45.5549C19.5583 45.9395 20.0019 46.5084 20.2314 47.1723C20.5129 47.8884 20.6518 48.7826 20.6518 49.8549C20.6629 50.5654 20.5814 51.2744 20.4096 51.9639C20.2826 52.5077 20.0449 53.0195 19.7113 53.4673C19.4014 53.8668 18.9907 54.1766 18.5214 54.365C17.9716 54.5707 17.3877 54.6699 16.8008 54.6571H14.7951V45.0134ZM28.1295 51.2941V56.9621H25.3151V42.7156H34.3924V45.0419H28.1295V49.0213H33.8509V51.2941H28.1295Z" fill="black"/>
</g>
<defs>
<clipPath id="clip0_2792_95696">
<rect width="57" height="57" fill="white" transform="translate(0 0.5)"/>
</clipPath>
</defs>
</svg>
