<svg width="159" height="159" viewBox="0 0 159 159" fill="none" xmlns="http://www.w3.org/2000/svg">
<path d="M79.5003 153.619C119.524 153.619 151.969 134.887 151.969 111.78C151.969 88.673 119.524 69.9409 79.5003 69.9409C39.4767 69.9409 7.03125 88.673 7.03125 111.78C7.03125 134.887 39.4767 153.619 79.5003 153.619Z" fill="#FAFAFA"/>
<path d="M128.945 143.536C140.976 143.536 150.728 137.905 150.728 130.959C150.728 124.013 140.976 118.382 128.945 118.382C116.915 118.382 107.162 124.013 107.162 130.959C107.162 137.905 116.915 143.536 128.945 143.536Z" fill="#EBEBEB"/>
<path d="M40.7632 151.12L17.0945 137.446C16.3917 137.042 16.3917 136.384 17.0945 135.98L76.5032 101.687C76.8975 101.487 77.3333 101.383 77.7752 101.383C78.2172 101.383 78.653 101.487 79.0472 101.687L102.716 115.361C103.419 115.768 103.419 116.423 102.716 116.827L43.304 151.12C42.9102 151.319 42.475 151.423 42.0336 151.423C41.5922 151.423 41.1571 151.319 40.7632 151.12Z" fill="#EBEBEB"/>
<path d="M71.7651 101.687L8.83296 135.325C8.11428 135.741 8.11428 136.416 8.83296 136.829L13.6411 139.602C14.0443 139.808 14.4906 139.915 14.9433 139.915C15.3961 139.915 15.8424 139.808 16.2455 139.602L79.1809 105.967C79.8996 105.55 79.8996 104.88 79.1809 104.463L74.3727 101.687C73.9692 101.48 73.5223 101.373 73.0689 101.373C72.6156 101.373 72.1687 101.48 71.7651 101.687Z" fill="#EBEBEB"/>
<path d="M92.4902 28.9475L93.0308 29.2719L104.148 22.8515L103.604 22.5303L92.4902 28.9475Z" fill="#FAFAFA"/>
<path d="M103.605 22.5305L93.0312 28.6329V17.5602L103.608 11.4609L103.605 22.5305Z" fill="white"/>
<path d="M105.169 9.37158L92.0098 16.9686V31.0401L105.169 23.4431V9.37158ZM104.148 22.8516L93.0178 29.272V17.5601L104.148 11.1428V22.8516Z" fill="#F0F0F0"/>
<path d="M104.148 22.8518L103.604 22.5306L103.608 11.4611L104.148 11.1431V22.8518Z" fill="#E0E0E0"/>
<path d="M105.169 9.37146L104.619 9.05664L91.46 16.6568L92.0101 16.9717L105.169 9.37146Z" fill="#FAFAFA"/>
<path d="M91.46 16.6567L92.0101 16.9716V31.0399L91.46 30.7251V16.6567Z" fill="#E0E0E0"/>
<path d="M103.193 22.1994L93.4434 27.828V25.0137L95.8792 19.3851L97.3993 20.7906L96.8523 23.1502L100.22 15.9507L103.193 19.3851V22.1994Z" fill="#F0F0F0"/>
<path d="M97.3068 16.6661C97.0964 16.8027 96.9214 16.9871 96.7959 17.2044C96.6705 17.4216 96.5982 17.6654 96.585 17.9158C96.585 18.3738 96.903 18.5518 97.3068 18.3324C97.5172 18.1958 97.6923 18.0114 97.8177 17.7942C97.9432 17.577 98.0155 17.3332 98.0287 17.0827C98.0287 16.6216 97.7043 16.4371 97.3068 16.6661Z" fill="#F0F0F0"/>
<path d="M92.4902 46.2434L93.0308 46.5678L104.148 40.1474L103.604 39.8262L92.4902 46.2434Z" fill="#FAFAFA"/>
<path d="M103.605 39.8264L93.0312 45.9288V34.8561L103.608 28.7568L103.605 39.8264Z" fill="white"/>
<path d="M105.169 26.6675L92.0098 34.2645V48.336L105.169 40.739V26.6675ZM104.148 40.1475L93.0178 46.5647V34.856L104.148 28.4387V40.1475Z" fill="#F0F0F0"/>
<path d="M104.148 40.1477L103.604 39.8265L103.608 28.757L104.148 28.439V40.1477Z" fill="#E0E0E0"/>
<path d="M105.169 26.6674L104.619 26.3525L91.46 33.9496L92.0101 34.2644L105.169 26.6674Z" fill="#FAFAFA"/>
<path d="M91.46 33.9497L92.0101 34.2645V48.336L91.46 48.0212V33.9497Z" fill="#E0E0E0"/>
<path d="M103.193 39.4958L93.4434 45.1244V42.3101L95.8792 36.6815L97.3993 38.087L96.8523 40.4466L100.22 33.2471L103.193 36.6815V39.4958Z" fill="#F0F0F0"/>
<path d="M97.3068 33.9625C97.0964 34.0991 96.9214 34.2835 96.7959 34.5007C96.6705 34.7179 96.5982 34.9617 96.585 35.2122C96.585 35.6701 96.903 35.8482 97.3068 35.6288C97.5172 35.4922 97.6923 35.3078 97.8177 35.0906C97.9432 34.8734 98.0155 34.6296 98.0287 34.3791C98.0287 33.918 97.7043 33.7335 97.3068 33.9625Z" fill="#F0F0F0"/>
<path d="M92.6838 114.33C92.6838 114.33 91.0938 107.442 94.5918 100.72C96.5475 96.9644 100.265 94.926 102.179 94.7924C104.326 94.6461 106.396 96.586 104.348 99.0473C102.399 101.388 98.8625 102.288 96.4394 108.441C94.8494 112.499 94.8653 115.536 94.8653 115.536L92.6838 114.33Z" fill="#FFC100"/>
<path opacity="0.5" d="M92.6838 114.33C92.6838 114.33 91.0938 107.442 94.5918 100.72C96.5475 96.9644 100.265 94.926 102.179 94.7924C104.326 94.6461 106.396 96.586 104.348 99.0473C102.399 101.388 98.8625 102.288 96.4394 108.441C94.8494 112.499 94.8653 115.536 94.8653 115.536L92.6838 114.33Z" fill="white"/>
<path d="M94.0792 112.604C94.0951 112.604 94.111 112.602 94.126 112.597C94.141 112.592 94.1548 112.583 94.1666 112.573C94.1784 112.562 94.188 112.549 94.1949 112.535C94.2017 112.52 94.2056 112.505 94.2064 112.489C93.7549 104.902 98.7125 98.6529 102.376 96.6367C102.39 96.6316 102.402 96.6232 102.412 96.6121C102.422 96.6011 102.429 96.5879 102.433 96.5735C102.437 96.5592 102.437 96.5441 102.434 96.5297C102.43 96.5152 102.424 96.5018 102.414 96.4905C102.391 96.466 102.36 96.4499 102.327 96.4447C102.293 96.4395 102.259 96.4455 102.23 96.4618C98.5122 98.5066 93.4814 104.835 93.9393 112.505C93.9416 112.521 93.9471 112.536 93.9555 112.55C93.9638 112.563 93.9749 112.575 93.988 112.584C94.0011 112.594 94.016 112.6 94.0317 112.603C94.0473 112.607 94.0635 112.607 94.0792 112.604Z" fill="white"/>
<path d="M94.8557 115.536C95.2818 113.799 96.6142 111.7 99.3077 109.853C102.001 108.005 105.668 106.355 105.264 104.644C104.86 102.933 102.03 102.905 99.9945 103.785C97.9593 104.666 93.2466 108.718 93.714 114.915L94.8557 115.536Z" fill="#FFC100"/>
<path opacity="0.65" d="M94.8557 115.536C95.2818 113.799 96.6142 111.7 99.3077 109.853C102.001 108.005 105.668 106.355 105.264 104.644C104.86 102.933 102.03 102.905 99.9945 103.785C97.9593 104.666 93.2466 108.718 93.714 114.915L94.8557 115.536Z" fill="white"/>
<path d="M94.4453 113.243C94.4739 113.243 94.5018 113.234 94.5247 113.216C94.5476 113.199 94.5643 113.175 94.5725 113.148C95.1863 109.475 100.802 104.978 103.302 104.326C103.317 104.325 103.331 104.32 103.345 104.312C103.358 104.304 103.369 104.293 103.377 104.28C103.386 104.268 103.391 104.253 103.394 104.238C103.396 104.223 103.395 104.208 103.391 104.193C103.376 104.163 103.351 104.14 103.321 104.128C103.29 104.116 103.256 104.115 103.225 104.126C100.605 104.81 94.9573 109.306 94.3213 113.126C94.3213 113.183 94.3658 113.237 94.439 113.243H94.4453Z" fill="white"/>
<path d="M11.9502 136.304C11.9653 136.136 12.0228 135.975 12.1174 135.836C12.212 135.697 12.3405 135.585 12.4908 135.509L66.2137 101.737V52.3138L72.8758 44.0713C74.0197 42.5125 74.6829 40.6533 74.7838 38.7225V10.8721C74.7838 9.20892 73.639 8.57292 72.2398 9.4506L12.4908 46.5739C12.3405 46.6495 12.212 46.7622 12.1174 46.9013C12.0228 47.0404 11.9653 47.2014 11.9502 47.3689V136.304Z" fill="#FFC100"/>
<path opacity="0.3" d="M71.0949 18.2976C71.0949 16.6345 69.9151 15.9413 68.4619 16.7458L13.7659 47.0162C13.2136 47.2927 12.5877 47.3862 11.9787 47.2833C11.9772 47.3119 11.9772 47.3406 11.9787 47.3692V136.218C12.0083 136.068 12.0711 135.927 12.1624 135.804C12.2538 135.681 12.3713 135.581 12.5066 135.509L66.2295 101.738V52.3141L71.1108 46.2721L71.0949 18.2976Z" fill="black"/>
<path d="M12.4399 137.014C12.837 137.206 13.2732 137.304 13.7145 137.301C14.1558 137.297 14.5903 137.191 14.9839 136.991L69.6799 106.721C71.1364 105.916 72.313 103.916 72.313 102.269V19.3376C72.313 17.6777 71.1364 16.9812 69.6799 17.7858L14.9839 48.0562C14.5905 48.2563 14.1562 48.3627 13.7149 48.3671C13.2736 48.3715 12.8372 48.2738 12.4399 48.0816C12.3038 48.0187 12.1867 47.9208 12.1007 47.7979C12.0147 47.675 11.9627 47.5315 11.9502 47.382V136.304C11.9604 136.456 12.0114 136.601 12.0975 136.726C12.1837 136.851 12.302 136.95 12.4399 137.014Z" fill="#FFC100"/>
<path opacity="0.3" d="M12.4399 137.014C12.837 137.206 13.2732 137.304 13.7145 137.301C14.1558 137.297 14.5903 137.191 14.9839 136.991L69.6799 106.721C71.1364 105.916 72.313 103.916 72.313 102.269V19.3376C72.313 17.6777 71.1364 16.9812 69.6799 17.7858L14.9839 48.0562C14.5905 48.2563 14.1562 48.3627 13.7149 48.3671C13.2736 48.3715 12.8372 48.2738 12.4399 48.0816C12.3038 48.0187 12.1867 47.9208 12.1007 47.7979C12.0147 47.675 11.9627 47.5315 11.9502 47.382V136.304C11.9604 136.456 12.0114 136.601 12.0975 136.726C12.1837 136.851 12.302 136.95 12.4399 137.014Z" fill="white"/>
<path opacity="0.3" d="M13.6738 48.3645C13.2482 48.3756 12.8269 48.2782 12.4495 48.0814C12.3115 48.0198 12.1925 47.9225 12.1048 47.7995C12.017 47.6765 11.9636 47.5323 11.9502 47.3818V136.304C11.9604 136.456 12.0114 136.601 12.0975 136.726C12.1837 136.851 12.302 136.95 12.4399 137.013C12.8171 137.211 13.2384 137.31 13.6642 137.3L13.6738 48.3645Z" fill="white"/>
<path d="M20.9883 47.3499C20.9684 47.3499 20.9487 47.3538 20.9304 47.3615C20.912 47.3692 20.8954 47.3805 20.8815 47.3948C20.8675 47.409 20.8566 47.4258 20.8493 47.4443C20.842 47.4628 20.8384 47.4826 20.8388 47.5025V130.758C20.8388 130.8 20.8556 130.841 20.8854 130.871C20.9152 130.9 20.9557 130.917 20.9978 130.917C21.04 130.917 21.0804 130.9 21.1103 130.871C21.1401 130.841 21.1568 130.8 21.1568 130.758V47.5025C21.1575 47.4809 21.1534 47.4594 21.1449 47.4395C21.1365 47.4196 21.1238 47.4018 21.1078 47.3873C21.0917 47.3728 21.0728 47.3619 21.0521 47.3555C21.0315 47.349 21.0097 47.3471 20.9883 47.3499ZM16.1006 50.1737C16.061 50.1737 16.023 50.1895 15.9949 50.2175C15.9669 50.2455 15.9512 50.2835 15.9512 50.3232V133.582C15.9512 133.622 15.9669 133.66 15.9949 133.688C16.023 133.716 16.061 133.731 16.1006 133.731C16.1403 133.731 16.1783 133.716 16.2063 133.688C16.2343 133.66 16.2501 133.622 16.2501 133.582V50.3232C16.2501 50.2846 16.2353 50.2475 16.2086 50.2197C16.1819 50.1918 16.1455 50.1753 16.107 50.1737H16.1006ZM18.5461 48.7618C18.5061 48.7618 18.4678 48.7774 18.4392 48.8054C18.4107 48.8333 18.3942 48.8713 18.3934 48.9112V132.17C18.3942 132.21 18.4107 132.248 18.4392 132.276C18.4678 132.304 18.5061 132.319 18.5461 132.319C18.5857 132.319 18.6237 132.304 18.6517 132.276C18.6798 132.248 18.6955 132.21 18.6955 132.17V48.9112C18.6955 48.8727 18.6807 48.8356 18.654 48.8077C18.6273 48.7799 18.5909 48.7634 18.5524 48.7618H18.5461Z" fill="#FFC100"/>
<path d="M26.0569 52.133L24.8008 51.408L81.2553 18.813L82.5146 19.538L26.0569 52.133Z" fill="#F0F0F0"/>
<path d="M82.5142 19.5381V106.244L26.0342 138.852L26.0564 52.1331L82.5142 19.5381Z" fill="#FAFAFA"/>
<path d="M82.2121 20.0564V106.072L26.3363 138.33L26.3585 52.3048L82.2121 20.0564ZM82.5301 19.5381L26.0564 52.1331L26.0342 138.852L82.5142 106.244V19.5381H82.5301Z" fill="#EBEBEB"/>
<path d="M26.0569 52.1332L26.0346 138.852L24.8135 138.146L24.8008 51.4082L26.0346 52.1173L26.0569 52.1332Z" fill="#E0E0E0"/>
<path d="M98.3192 113.978V115.434L41.8615 148.023L41.2255 147.663C37.4164 145.454 34.2535 142.284 32.0526 138.47C29.8518 134.656 28.6901 130.331 28.6836 125.928V58.6487L85.1381 26.0537L86.4101 26.7788V93.3298C86.4097 97.5136 87.5099 101.624 89.6003 105.248C91.6906 108.872 94.6976 111.883 98.3192 113.978Z" fill="#F0F0F0"/>
<path d="M86.3979 93.3298V26.7788L29.9434 59.3738V125.928C29.9439 130.113 31.0456 134.224 33.1376 137.848C35.2297 141.472 38.2385 144.482 41.862 146.576L98.3197 113.981C94.6952 111.887 91.6854 108.877 89.5928 105.252C87.5001 101.627 86.3982 97.5154 86.3979 93.3298ZM30.2105 125.928V59.5328L86.1181 27.259V93.3298C86.125 97.4816 87.2006 101.562 89.2412 105.177C91.2819 108.793 94.2189 111.823 97.7696 113.974L41.862 146.251C38.3211 144.169 35.3842 141.199 33.3409 137.635C31.2977 134.071 30.2188 130.036 30.2105 125.928Z" fill="#E0E0E0"/>
<path d="M97.7691 113.975L41.8615 146.252C38.3205 144.169 35.3836 141.199 33.3404 137.635C31.2972 134.071 30.2183 130.036 30.21 125.928V59.5331L86.1175 27.2593V93.3301C86.1245 97.4819 87.2001 101.562 89.2407 105.178C91.2814 108.793 94.2184 111.823 97.7691 113.975Z" fill="#FAFAFA"/>
<path d="M29.94 125.928V59.374L28.668 58.6489V125.928C28.6746 130.333 29.837 134.659 32.039 138.473C34.241 142.288 37.4054 145.458 41.2162 147.667L41.8522 148.026V146.576C38.23 144.482 35.2224 141.471 33.1315 137.847C31.0406 134.223 29.9399 130.112 29.94 125.928Z" fill="#E0E0E0"/>
<path opacity="0.15" d="M41.8613 146.573V148.023L98.3222 115.431V113.978L41.8613 146.573Z" fill="black"/>
<path d="M68.8063 44.3516L82.28 36.5702C82.598 36.3794 82.881 36.5161 82.881 36.8882C82.8662 37.0901 82.804 37.2856 82.6996 37.4591C82.5952 37.6326 82.4515 37.779 82.28 37.8867L68.8063 45.6681C68.4724 45.8589 68.2021 45.7222 68.2021 45.3501C68.2159 45.1476 68.2779 44.9512 68.383 44.7775C68.4881 44.6038 68.6333 44.4578 68.8063 44.3516Z" fill="#E0E0E0"/>
<path d="M68.8063 49.567L82.28 41.7855C82.598 41.5947 82.881 41.7314 82.881 42.1035C82.8662 42.3054 82.804 42.501 82.6996 42.6744C82.5952 42.8479 82.4515 42.9944 82.28 43.102L68.8063 50.8803C68.4724 51.0711 68.2021 50.9344 68.2021 50.5623C68.2163 50.3603 68.2786 50.1646 68.3837 49.9914C68.4888 49.8183 68.6337 49.6728 68.8063 49.567Z" fill="#E0E0E0"/>
<path d="M73.8503 44.0467L82.2805 39.1781C82.5985 38.9873 82.8815 39.124 82.8815 39.4961C82.8666 39.698 82.8045 39.8936 82.7001 40.067C82.5957 40.2405 82.4519 40.3869 82.2805 40.4946L73.8503 45.3632C73.5323 45.554 73.2461 45.4172 73.2461 45.0452C73.2598 44.8426 73.3218 44.6462 73.4269 44.4725C73.532 44.2988 73.6772 44.1528 73.8503 44.0467Z" fill="#E0E0E0"/>
<path d="M36.5854 78.3712L80.622 52.9471C80.9559 52.7563 81.2231 52.8931 81.2231 53.2651C81.2097 53.4674 81.1482 53.6636 81.0436 53.8373C80.9391 54.011 80.7945 54.1571 80.622 54.2636L36.5854 79.7036C36.2674 79.8976 35.9844 79.7609 35.9844 79.3856C35.9973 79.1811 36.0585 78.9825 36.163 78.8062C36.2675 78.6299 36.4122 78.4808 36.5854 78.3712Z" fill="#E0E0E0"/>
<path d="M36.5854 80.9784L80.622 55.5384C80.9559 55.3476 81.2231 55.4844 81.2231 55.8564C81.2097 56.0587 81.1482 56.2549 81.0436 56.4286C80.9391 56.6023 80.7945 56.7484 80.622 56.8549L36.5854 82.2822C36.2674 82.4762 35.9844 82.3395 35.9844 81.9642C36.0017 81.7647 36.0649 81.5718 36.1692 81.4008C36.2735 81.2298 36.4159 81.0852 36.5854 80.9784Z" fill="#E0E0E0"/>
<path d="M36.5854 83.5863L80.622 58.1463C80.9559 57.9555 81.2231 58.0923 81.2231 58.4643C81.2097 58.6666 81.1482 58.8628 81.0436 59.0365C80.9391 59.2102 80.7945 59.3564 80.622 59.4629L36.5854 84.906C36.2674 85.1 35.9844 84.9633 35.9844 84.588C35.9993 84.3857 36.0614 84.1897 36.1658 84.0157C36.2702 83.8418 36.4139 83.6947 36.5854 83.5863Z" fill="#E0E0E0"/>
<path d="M36.5854 86.1938L80.622 60.7538C80.9559 60.563 81.2231 60.6997 81.2231 61.0718C81.2097 61.274 81.1482 61.4702 81.0436 61.6439C80.9391 61.8176 80.7945 61.9638 80.622 62.0703L36.5854 87.4976C36.2674 87.6915 35.9844 87.5548 35.9844 87.1796C36.0012 86.9799 36.0642 86.7868 36.1685 86.6157C36.2729 86.4446 36.4156 86.3002 36.5854 86.1938Z" fill="#E0E0E0"/>
<path d="M36.5854 91.4599L80.622 66.0199C80.9559 65.826 81.2231 65.9627 81.2231 66.3379C81.2089 66.5405 81.1471 66.7368 81.0426 66.9109C80.9382 67.0849 80.7941 67.2319 80.622 67.3396L36.5854 92.7637C36.2674 92.9545 35.9844 92.8178 35.9844 92.4457C36.0012 92.2461 36.0642 92.053 36.1685 91.8819C36.2729 91.7108 36.4156 91.5663 36.5854 91.4599Z" fill="#E0E0E0"/>
<path d="M36.5854 94.0676L80.622 68.6435C80.9559 68.4495 81.2231 68.5862 81.2231 68.9456C81.2089 69.1481 81.1471 69.3444 81.0426 69.5185C80.9382 69.6925 80.7941 69.8395 80.622 69.9473L36.5854 95.3872C36.2674 95.5781 35.9844 95.4413 35.9844 95.0693C35.9988 94.8668 36.0607 94.6706 36.1651 94.4965C36.2695 94.3225 36.4135 94.1755 36.5854 94.0676Z" fill="#E0E0E0"/>
<path d="M36.5854 96.6723L80.622 71.2514C80.9559 71.0574 81.2231 71.1941 81.2231 71.5535C81.2089 71.756 81.1471 71.9523 81.0426 72.1264C80.9382 72.3005 80.7941 72.4474 80.622 72.5552L36.5854 97.9761C36.2674 98.1701 35.9844 98.0333 35.9844 97.6581C36.0021 97.4587 36.0656 97.266 36.1698 97.095C36.274 96.9241 36.4162 96.7794 36.5854 96.6723Z" fill="#E0E0E0"/>
<path d="M36.5854 99.2797L80.622 73.8588C80.9559 73.6648 81.2231 73.8016 81.2231 74.1768C81.2089 74.3793 81.1471 74.5756 81.0426 74.7497C80.9382 74.9238 80.7941 75.0707 80.622 75.1785L36.5854 100.584C36.2674 100.778 35.9844 100.641 35.9844 100.281C35.9998 100.079 36.0621 99.8834 36.1664 99.7095C36.2708 99.5356 36.4142 99.3885 36.5854 99.2797Z" fill="#E0E0E0"/>
<path d="M36.5864 104.546L80.623 79.1216C80.9569 78.9308 81.224 79.0643 81.224 79.4396C81.2107 79.6419 81.1492 79.838 81.0446 80.0117C80.9401 80.1854 80.7955 80.3316 80.623 80.4381L36.5864 105.878C36.2684 106.069 35.9854 105.932 35.9854 105.56C35.9978 105.355 36.0588 105.157 36.1633 104.98C36.2678 104.804 36.4128 104.655 36.5864 104.546Z" fill="#E0E0E0"/>
<path d="M36.5864 107.166L80.623 81.7261C80.9569 81.5353 81.224 81.6688 81.224 82.0441C81.2107 82.2463 81.1492 82.4425 81.0446 82.6162C80.9401 82.7899 80.7955 82.9361 80.623 83.0426L36.5864 108.457C36.2684 108.648 35.9854 108.511 35.9854 108.139C36.0041 107.942 36.068 107.751 36.1722 107.582C36.2765 107.414 36.4182 107.271 36.5864 107.166Z" fill="#E0E0E0"/>
<path d="M36.5864 109.761L60.1883 96.1249C60.5063 95.9341 60.7894 96.0708 60.7894 96.4429C60.7745 96.6448 60.7123 96.8403 60.6079 97.0138C60.5035 97.1872 60.3598 97.3337 60.1883 97.4414L36.5864 111.077C36.2684 111.268 35.9854 111.131 35.9854 110.759C36.0002 110.557 36.0624 110.362 36.1668 110.188C36.2712 110.015 36.4149 109.868 36.5864 109.761Z" fill="#E0E0E0"/>
<path d="M36.5864 114.394L52.267 105.328C52.585 105.137 52.868 105.271 52.868 105.646C52.8546 105.848 52.7931 106.045 52.6885 106.218C52.584 106.392 52.4395 106.538 52.267 106.645L36.5864 115.711C36.2684 115.902 35.9854 115.765 35.9854 115.393C36.0002 115.191 36.0624 114.995 36.1668 114.822C36.2712 114.648 36.4149 114.502 36.5864 114.394Z" fill="#FFC100"/>
<path d="M39.4315 69.3941C39.4349 69.3327 39.4523 69.2729 39.4824 69.2192C39.5026 69.1789 39.5333 69.1448 39.5714 69.1206L39.9626 68.8917C39.9763 68.8813 39.9931 68.8758 40.0103 68.8758C40.0275 68.8758 40.0442 68.8813 40.058 68.8917C40.0727 68.9084 40.0835 68.9282 40.0895 68.9497C40.0956 68.9712 40.0967 68.9937 40.0929 69.0157C40.0817 69.2409 40.0487 69.4646 39.9944 69.6835C39.9345 69.9254 39.8481 70.1601 39.7368 70.3831C39.6167 70.6186 39.4682 70.8386 39.2948 71.0382C39.1152 71.2499 38.8999 71.4285 38.6588 71.566C38.4829 71.6798 38.2798 71.7446 38.0705 71.7537C37.9087 71.7539 37.7529 71.6925 37.6348 71.5819C37.5005 71.4451 37.405 71.275 37.3581 71.089C37.2853 70.843 37.2447 70.5886 37.2373 70.3322C37.2373 70.1478 37.2373 69.9358 37.2373 69.6962C37.2373 69.4566 37.2373 69.2446 37.2373 69.0602C37.2499 68.7592 37.2903 68.4601 37.3581 68.1666C37.4181 67.8853 37.5109 67.6121 37.6348 67.3525C37.7494 67.1095 37.8959 66.8827 38.0705 66.6784C38.2365 66.4813 38.4356 66.3145 38.6588 66.1855C38.8489 66.0605 39.0678 65.9861 39.2948 65.9692C39.4624 65.9712 39.6238 66.0332 39.7495 66.1441C39.8714 66.2521 39.9606 66.392 40.0071 66.548C40.0643 66.7262 40.0974 66.9112 40.1057 67.0981C40.1091 67.1554 40.097 67.2125 40.0707 67.2635C40.0502 67.309 40.0171 67.3476 39.9753 67.3748L39.5841 67.6006C39.5702 67.609 39.5543 67.6134 39.538 67.6134C39.5218 67.6134 39.5058 67.609 39.4919 67.6006C39.4745 67.5873 39.4607 67.5699 39.4518 67.5498C39.4429 67.5298 39.4392 67.5079 39.441 67.4861C39.4311 67.3992 39.4075 67.3144 39.3711 67.2349C39.3405 67.1653 39.2909 67.1058 39.228 67.0632C39.1575 67.0234 39.0763 67.0068 38.9958 67.0155C38.8824 67.0324 38.7739 67.0736 38.6778 67.1363C38.5562 67.2088 38.4485 67.3025 38.3598 67.413C38.2653 67.5272 38.1862 67.6534 38.1245 67.7882C38.059 67.9292 38.0109 68.0776 37.9814 68.2302C37.9472 68.385 37.927 68.5425 37.921 68.7009C37.921 68.8948 37.921 69.1047 37.921 69.3369C37.921 69.569 37.921 69.7725 37.921 69.957C37.9242 70.0946 37.9445 70.2313 37.9814 70.364C38.0046 70.4651 38.054 70.5583 38.1245 70.6343C38.1873 70.6968 38.2714 70.7331 38.3598 70.7361C38.4729 70.7331 38.583 70.699 38.6778 70.6375C38.7953 70.5656 38.9023 70.4778 38.9958 70.3767C39.0856 70.2803 39.1635 70.1736 39.228 70.0587C39.2902 69.9512 39.3404 69.8371 39.3774 69.7185C39.4064 69.6125 39.4245 69.5038 39.4315 69.3941Z" fill="#FFC100"/>
<path d="M40.5418 67.1363C40.552 66.852 40.586 66.569 40.6435 66.2904C40.7021 66.0175 40.7906 65.752 40.9075 65.4986C41.0224 65.2537 41.1688 65.0249 41.3431 64.818C41.5218 64.608 41.7373 64.4323 41.9791 64.2997C42.1615 64.1784 42.374 64.1102 42.5929 64.1025C42.6731 64.1022 42.7527 64.1177 42.8269 64.1483C42.9012 64.1789 42.9686 64.2238 43.0253 64.2806C43.1539 64.4177 43.2458 64.5851 43.2925 64.7672C43.357 65.0047 43.3923 65.2493 43.3974 65.4954C43.3974 65.5876 43.3974 65.6894 43.3974 65.8134C43.3974 65.9374 43.3974 66.0455 43.3974 66.1664C43.3974 66.2872 43.3974 66.4049 43.3974 66.5193C43.3974 66.6338 43.3974 66.7419 43.3974 66.8373C43.3888 67.1218 43.3547 67.4049 43.2956 67.6832C43.237 67.9561 43.1485 68.2216 43.0317 68.475C42.918 68.7213 42.7703 68.9504 42.5929 69.1556C42.4194 69.3604 42.2118 69.5337 41.9791 69.6675C41.7892 69.7907 41.5693 69.8599 41.3431 69.8679C41.1809 69.8673 41.0251 69.8047 40.9075 69.693C40.7798 69.5545 40.689 69.3861 40.6435 69.2033C40.5818 68.9663 40.5477 68.723 40.5418 68.4782C40.5418 68.386 40.5418 68.2842 40.5418 68.1602V67.4543C40.5354 67.3398 40.5386 67.2317 40.5418 67.1363ZM42.7296 65.9088C42.7405 65.7832 42.7265 65.6568 42.6883 65.5367C42.6501 65.4166 42.5885 65.3053 42.507 65.2092C42.3671 65.0915 42.189 65.0979 41.9632 65.2283C41.7248 65.3727 41.5354 65.5854 41.4194 65.8388C41.2767 66.137 41.1997 66.4623 41.1937 66.7928C41.1937 66.9868 41.1937 67.1967 41.1937 67.4288C41.1937 67.661 41.1937 67.8677 41.1937 68.0648C41.1836 68.1901 41.1983 68.316 41.2371 68.4356C41.2758 68.5551 41.3378 68.6657 41.4194 68.7612C41.5562 68.8757 41.7374 68.8662 41.9632 68.7358C42.1999 68.5922 42.389 68.3821 42.507 68.1316C42.6498 67.8336 42.7258 67.508 42.7296 67.1776C42.7296 66.9836 42.7296 66.7737 42.7296 66.5416C42.7296 66.3095 42.736 66.0932 42.7296 65.9088Z" fill="#FFC100"/>
<path d="M46.2145 67.1266C46.1604 67.1584 46.1191 67.1615 46.0905 67.1266L46.0269 67.0598L44.6722 64.7447V67.8103C44.6713 67.8675 44.6583 67.9238 44.634 67.9756C44.6155 68.0214 44.5833 68.0602 44.5418 68.0869L44.1507 68.3127C44.1379 68.3239 44.1215 68.33 44.1045 68.33C44.0876 68.33 44.0712 68.3239 44.0584 68.3127C44.0443 68.2961 44.0336 68.2769 44.0271 68.2562C44.0205 68.2354 44.0182 68.2135 44.0203 68.1919V63.3869C44.0207 63.3296 44.0338 63.2732 44.0584 63.2215C44.0769 63.1758 44.1091 63.1369 44.1507 63.1102L44.4909 62.9131C44.545 62.8813 44.5863 62.8813 44.6149 62.9131L44.6785 62.983L46.03 65.2981V62.2325C46.0313 62.175 46.0454 62.1185 46.0714 62.0672C46.0887 62.0207 46.1212 61.9815 46.1636 61.9559L46.5547 61.7301C46.5666 61.7184 46.5826 61.7119 46.5993 61.7119C46.6159 61.7119 46.6319 61.7184 46.6438 61.7301C46.6591 61.7453 46.6708 61.7638 46.6779 61.7842C46.6851 61.8046 46.6875 61.8263 46.6851 61.8478V66.6559C46.685 66.7126 46.6708 66.7683 46.6438 66.8181C46.6263 66.8644 46.5953 66.9043 46.5547 66.9326L46.2145 67.1266Z" fill="#FFC100"/>
<path d="M49.6914 59.9114C49.7042 59.9002 49.7206 59.894 49.7375 59.894C49.7545 59.894 49.7709 59.9002 49.7836 59.9114C49.7975 59.9275 49.8081 59.9461 49.8146 59.9664C49.8212 59.9866 49.8236 60.0079 49.8218 60.029V60.5601C49.8213 60.6163 49.8083 60.6717 49.7836 60.7223C49.7642 60.7683 49.7323 60.808 49.6914 60.8368L48.8233 61.3392V65.416C48.8228 65.4736 48.8087 65.5303 48.7819 65.5813C48.7636 65.6272 48.7314 65.6661 48.6897 65.6926L48.2986 65.9184C48.2863 65.9294 48.2705 65.9354 48.2541 65.9354C48.2376 65.9354 48.2218 65.9294 48.2095 65.9184C48.1942 65.9026 48.1825 65.8835 48.1753 65.8626C48.1682 65.8417 48.1657 65.8195 48.1682 65.7976V61.7208L47.3001 62.2232C47.2873 62.2344 47.2709 62.2406 47.254 62.2406C47.237 62.2406 47.2206 62.2344 47.2078 62.2232C47.1937 62.2067 47.183 62.1875 47.1765 62.1667C47.1699 62.1459 47.1676 62.1241 47.1697 62.1024V61.5745C47.1702 61.5183 47.1832 61.4629 47.2078 61.4123C47.2273 61.3663 47.2592 61.3266 47.3001 61.2979L49.6914 59.9114Z" fill="#FFC100"/>
<path d="M51.6817 58.76C52.0856 58.5278 52.3909 58.496 52.6008 58.6614C52.8106 58.8268 52.9188 59.1702 52.9188 59.679C52.9212 60.0259 52.8664 60.3708 52.7566 60.6998C52.653 61.0086 52.4911 61.2947 52.2796 61.5425L52.9474 62.9957C52.9515 63.0199 52.9515 63.0447 52.9474 63.0689C52.9466 63.1152 52.9358 63.1608 52.9156 63.2024C52.8998 63.24 52.8732 63.2721 52.8393 63.2947L52.429 63.5332C52.3654 63.5713 52.3177 63.5713 52.2859 63.5332C52.2581 63.5075 52.2364 63.476 52.2223 63.4409L51.5863 62.0735L50.9503 62.4456V64.1787C50.9495 64.2359 50.9365 64.2923 50.9122 64.3441C50.8937 64.3898 50.8615 64.4287 50.82 64.4554L50.4288 64.6811C50.4164 64.693 50.3999 64.6996 50.3827 64.6996C50.3655 64.6996 50.349 64.693 50.3366 64.6811C50.3227 64.6651 50.3122 64.6464 50.3056 64.6262C50.2991 64.606 50.2966 64.5846 50.2984 64.5635V59.7585C50.2989 59.7013 50.3119 59.6448 50.3366 59.5931C50.3551 59.5474 50.3873 59.5085 50.4288 59.4818L51.6817 58.76ZM50.9567 61.5234L51.6595 61.1195C51.8362 61.0223 51.9868 60.8837 52.0983 60.7157C52.2185 60.5179 52.2762 60.2885 52.2637 60.0574C52.2637 59.7776 52.2096 59.6249 52.0983 59.5931C51.9431 59.572 51.7858 59.6119 51.6595 59.7044L50.9567 60.1019V61.5234Z" fill="#FFC100"/>
<path d="M55.1351 56.7695C55.186 56.7377 55.2242 56.7377 55.2496 56.7695C55.2835 56.8136 55.3073 56.8646 55.3196 56.9189L56.5025 60.9384C56.5047 60.9553 56.5047 60.9724 56.5025 60.9893C56.5009 61.0458 56.4868 61.1012 56.4612 61.1515C56.4429 61.1982 56.4107 61.2382 56.369 61.266L56.0223 61.4663C55.9587 61.5013 55.911 61.5077 55.8856 61.4663C55.8609 61.4406 55.8433 61.4088 55.8347 61.3741L55.6248 60.6681L54.0984 61.5522L53.8917 62.5062C53.8794 62.5589 53.8612 62.6101 53.8377 62.6588C53.8085 62.7198 53.7606 62.77 53.7009 62.8019L53.3543 63.0023C53.3419 63.0141 53.3254 63.0207 53.3082 63.0207C53.291 63.0207 53.2745 63.0141 53.2621 63.0023C53.2482 62.9862 53.2377 62.9675 53.2311 62.9473C53.2246 62.9271 53.2221 62.9058 53.2239 62.8846C53.2222 62.8656 53.2222 62.8464 53.2239 62.8274L54.4101 57.4404C54.4241 57.362 54.4465 57.2852 54.4769 57.2115C54.5009 57.1564 54.5422 57.1106 54.5945 57.0811L55.1351 56.7695ZM55.3991 59.8827L54.868 58.0669L54.3369 60.4964L55.3991 59.8827Z" fill="#FFC100"/>
<path d="M58.9569 58.1175C58.9627 58.0566 58.98 57.9972 59.0078 57.9426C59.0289 57.9029 59.0595 57.8691 59.0968 57.844L59.4879 57.6183C59.5017 57.6079 59.5184 57.6024 59.5356 57.6024C59.5528 57.6024 59.5696 57.6079 59.5833 57.6183C59.5986 57.6347 59.61 57.6544 59.6166 57.6759C59.6232 57.6974 59.6249 57.7201 59.6215 57.7423C59.6075 57.9675 59.5735 58.191 59.5197 58.4101C59.4624 58.6528 59.3759 58.8877 59.2622 59.1097C59.1451 59.3507 59 59.577 58.8297 59.7838C58.6484 59.9938 58.4334 60.1722 58.1937 60.3117C58.0178 60.4255 57.8147 60.4903 57.6054 60.4993C57.4432 60.4987 57.2873 60.4362 57.1697 60.3244C57.037 60.1877 56.9417 60.019 56.8931 59.8347C56.8219 59.5885 56.7824 59.3341 56.7754 59.0779C56.7754 58.8903 56.7754 58.6867 56.7754 58.4578C56.7754 58.2288 56.7754 58.0189 56.7754 57.8218C56.7871 57.5209 56.8265 57.2218 56.8931 56.9282C56.9564 56.6489 57.0491 56.3771 57.1697 56.1173C57.2856 55.874 57.432 55.6464 57.6054 55.44C57.7725 55.2447 57.9714 55.0792 58.1937 54.9502C58.3831 54.8239 58.6024 54.7493 58.8297 54.734C58.9884 54.7311 59.1433 54.7827 59.2685 54.8803C59.3915 54.9886 59.4808 55.1298 59.5261 55.2873C59.5834 55.4656 59.6176 55.6505 59.6279 55.8375C59.6293 55.8949 59.6162 55.9518 59.5897 56.0028C59.5693 56.0475 59.5361 56.0851 59.4943 56.1109L59.1032 56.3399C59.089 56.3477 59.0732 56.3518 59.057 56.3518C59.0409 56.3518 59.0251 56.3477 59.0109 56.3399C58.9823 56.3399 58.9664 56.2858 58.9601 56.2254C58.9527 56.138 58.929 56.0528 58.8901 55.9742C58.8594 55.9055 58.8098 55.8471 58.747 55.8057C58.6776 55.763 58.5954 55.7461 58.5149 55.758C58.4015 55.7736 58.293 55.8137 58.1969 55.8756C58.0757 55.9501 57.9681 56.0447 57.8789 56.1555C57.7855 56.2694 57.7064 56.3943 57.6435 56.5275C57.5798 56.6692 57.5318 56.8174 57.5004 56.9695C57.4663 57.1254 57.446 57.2839 57.44 57.4434C57.44 57.6342 57.44 57.8472 57.44 58.0794C57.44 58.3115 57.44 58.515 57.44 58.6995C57.443 58.8371 57.4633 58.9739 57.5004 59.1065C57.5242 59.2074 57.5734 59.3005 57.6435 59.3768C57.7063 59.4397 57.7901 59.4771 57.8789 59.4817C57.9922 59.4779 58.1023 59.4426 58.1969 59.38C58.315 59.3091 58.4222 59.2212 58.5149 59.1192C58.6903 58.9328 58.8209 58.7087 58.8965 58.4641C58.9289 58.3511 58.9491 58.2349 58.9569 58.1175Z" fill="#FFC100"/>
<path d="M62.4396 52.5528C62.4515 52.5412 62.4675 52.5347 62.4841 52.5347C62.5008 52.5347 62.5168 52.5412 62.5287 52.5528C62.5438 52.5682 62.5553 52.5867 62.5625 52.607C62.5696 52.6274 62.5722 52.6491 62.57 52.6705V53.1984C62.5703 53.2561 62.5561 53.313 62.5287 53.3637C62.5112 53.4092 62.4801 53.448 62.4396 53.475L61.5683 53.9775V58.0574C61.5678 58.1137 61.5547 58.1691 61.5301 58.2196C61.5107 58.2656 61.4788 58.3053 61.4379 58.3341L61.0468 58.5599C61.0335 58.5699 61.0173 58.5754 61.0007 58.5754C60.984 58.5754 60.9678 58.5699 60.9545 58.5599C60.9406 58.5432 60.93 58.524 60.9234 58.5032C60.9169 58.4825 60.9145 58.4607 60.9164 58.439V54.3782L60.0451 54.8806C60.0318 54.8907 60.0156 54.8961 59.999 54.8961C59.9823 54.8961 59.9661 54.8907 59.9529 54.8806C59.9389 54.864 59.9283 54.8447 59.9217 54.824C59.9152 54.8033 59.9128 54.7814 59.9147 54.7598V54.2319C59.9152 54.1757 59.9282 54.1203 59.9529 54.0697C59.9713 54.0231 60.0035 53.9832 60.0451 53.9552L62.4396 52.5528Z" fill="#FFC100"/>
<path opacity="0.2" d="M75.62 97.0376V95.6766C72.6117 97.4161 70.1599 102.097 70.1599 106.11L71.1807 105.522C71.1807 102.256 73.1746 98.4527 75.62 97.0376ZM79.5568 100.685C79.5568 97.7913 77.7919 96.4557 75.62 97.7086C73.448 98.9616 71.6863 102.336 71.6863 105.229C71.6863 108.123 73.4512 109.459 75.62 108.206C77.7887 106.953 79.5568 103.579 79.5568 100.685ZM72.1856 104.94C72.1856 102.425 73.7215 99.4863 75.6104 98.3955C75.744 98.3192 75.8744 98.2588 76.0016 98.2015L72.211 105.449C72.2047 105.28 72.1856 105.112 72.1856 104.94ZM72.3319 106.177L76.6026 98.0203C77.7061 97.8295 78.5742 98.4941 78.8986 99.7852L74.6501 107.901C73.553 108.101 72.6753 107.449 72.3414 106.171L72.3319 106.177ZM79.0099 100.517C79.0099 100.666 79.0289 100.835 79.0289 100.987C79.0289 103.506 77.4898 106.441 75.6009 107.532C75.4847 107.599 75.3648 107.66 75.2416 107.713L79.0099 100.517ZM75.62 94.3251C72.052 96.3857 69.1455 101.935 69.1455 106.695C69.1455 111.456 72.052 113.653 75.62 111.589C79.1879 109.526 82.0977 103.986 82.0977 99.216C82.0977 94.446 79.1816 92.2645 75.62 94.3251ZM75.62 110.909C72.3319 112.817 69.6575 110.785 69.6575 106.4C69.6575 102.014 72.3319 96.9041 75.62 95.0056C78.9081 93.1072 81.5857 95.1297 81.5857 99.5149C81.5857 103.9 78.9113 109.01 75.62 110.909ZM80.072 100.393C80.072 103.658 78.0781 107.465 75.62 108.877V110.238C78.6314 108.498 81.0832 103.821 81.0832 99.8043L80.072 100.393Z" fill="#FFC100"/>
<path d="M64.6492 119.472L40.3636 133.503C40.3062 133.54 40.2408 133.564 40.1727 133.571C40.1045 133.579 40.0356 133.57 39.9715 133.546C39.9073 133.521 39.8498 133.483 39.8035 133.432C39.7573 133.381 39.7236 133.321 39.7053 133.255V133.213C39.6651 133.062 39.6743 132.902 39.7315 132.757C39.7887 132.612 39.891 132.488 40.0233 132.405L64.309 118.372C64.3656 118.337 64.4297 118.316 64.4961 118.31C64.5624 118.304 64.6292 118.314 64.6911 118.339C64.7529 118.364 64.8081 118.403 64.8522 118.453C64.8963 118.503 64.928 118.562 64.945 118.627V118.668C64.9897 118.816 64.985 118.974 64.9316 119.12C64.8783 119.265 64.7792 119.389 64.6492 119.472Z" fill="#E0E0E0"/>
<path d="M58.8078 126.141L41.8012 135.999C41.7409 136.036 41.6732 136.06 41.6029 136.068C41.5325 136.077 41.4612 136.07 41.3938 136.048C41.3264 136.027 41.2645 135.99 41.2124 135.942C41.1603 135.894 41.1192 135.836 41.092 135.77V135.748C41.0334 135.606 41.0282 135.448 41.0773 135.302C41.1264 135.156 41.2265 135.034 41.3592 134.956L58.369 125.098C58.4285 125.061 58.4954 125.038 58.5649 125.03C58.6345 125.022 58.7049 125.029 58.7712 125.052C58.8375 125.075 58.898 125.111 58.9483 125.16C58.9986 125.209 59.0375 125.268 59.0622 125.333V125.356C59.1202 125.495 59.1264 125.651 59.0798 125.795C59.0332 125.939 58.9367 126.062 58.8078 126.141Z" fill="#E0E0E0"/>
<path d="M86.7151 110.136L69.7084 119.994C69.6483 120.032 69.5806 120.056 69.5101 120.065C69.4396 120.074 69.3681 120.067 69.3005 120.045C69.2329 120.023 69.1709 119.987 69.1189 119.939C69.0669 119.89 69.026 119.831 68.9993 119.765V119.743C68.9407 119.601 68.9354 119.443 68.9845 119.297C69.0336 119.152 69.1338 119.029 69.2664 118.951L86.273 109.093C86.3329 109.057 86.4 109.034 86.4696 109.026C86.5392 109.019 86.6097 109.026 86.676 109.049C86.7424 109.071 86.8031 109.108 86.8537 109.156C86.9044 109.204 86.9439 109.263 86.9695 109.329V109.351C87.0274 109.491 87.0337 109.646 86.987 109.79C86.9404 109.934 86.844 110.057 86.7151 110.136Z" fill="#E0E0E0"/>
<path d="M54.6669 117.978C54.3644 118.705 53.8974 119.351 53.3027 119.867C53.2486 119.925 53.1808 119.969 53.1055 119.994C52.9879 120.016 52.9497 119.918 52.9338 119.784C52.9205 119.563 52.9344 119.341 52.9751 119.123C53.026 118.687 53.0896 118.255 53.1596 117.822C53.2783 117.127 53.4055 116.433 53.5412 115.739C53.6652 115.447 53.7829 115.151 53.8942 114.849C54.2179 113.977 54.4887 113.086 54.7051 112.181C54.9181 111.291 55.1153 110.321 54.9531 109.402C54.9372 109.313 54.8196 109.243 54.775 109.341C54.3934 110.187 54.2599 111.211 54.0691 112.143L53.4013 115.386C53.3854 115.46 53.3726 115.529 53.3567 115.603C53.1447 116.116 52.9137 116.615 52.6635 117.1C52.5172 117.387 52.3646 117.666 52.2056 117.94C52.0676 118.208 51.9081 118.464 51.7286 118.706C51.4837 118.999 51.1657 118.907 51.0195 118.535C50.9886 118.455 50.9673 118.371 50.9559 118.287C51.184 118.055 51.3739 117.789 51.5187 117.498C51.697 117.172 51.8491 116.833 51.9735 116.483C52.1029 116.108 52.2018 115.723 52.2692 115.332C52.3105 115.075 52.4059 114.68 52.2501 114.464C52.0943 114.248 51.8717 114.442 51.7509 114.645C51.5593 114.982 51.3945 115.333 51.258 115.695C50.9465 116.443 50.7783 117.244 50.7619 118.054C50.7603 118.085 50.7603 118.116 50.7619 118.147C50.7364 118.166 50.7142 118.188 50.6856 118.207C50.619 118.264 50.537 118.3 50.45 118.31C50.3629 118.321 50.2748 118.305 50.1967 118.265C50.1187 118.225 50.0542 118.163 50.0116 118.086C49.969 118.01 49.9501 117.922 49.9573 117.835C49.9573 117.711 49.8079 117.66 49.757 117.768C49.5853 118.15 49.5726 118.627 49.3659 118.98C49.2705 119.139 49.0955 119.336 48.9397 119.221C48.899 119.187 48.8667 119.145 48.8452 119.096C48.8237 119.047 48.8136 118.995 48.8157 118.942C48.8348 118.884 48.8571 118.83 48.873 118.773C48.9143 118.652 48.7521 118.566 48.6949 118.649C48.6422 118.721 48.6122 118.808 48.609 118.897C48.5104 119.18 48.4055 119.46 48.291 119.73C48.2449 119.441 48.2449 119.145 48.291 118.856C48.3101 118.741 48.1161 118.665 48.0939 118.789C48.0149 119.175 47.9086 119.556 47.7759 119.927C47.7091 120.115 47.6328 120.299 47.5501 120.481C47.4752 120.69 47.3679 120.887 47.2321 121.063C47.1685 121.126 47.0762 121.187 46.9967 121.139C46.9172 121.091 46.9045 120.894 46.9014 120.77C46.9014 120.563 46.9013 120.354 46.9172 120.134C46.948 119.726 47.0129 119.32 47.1112 118.923C47.143 118.786 46.949 118.697 46.9077 118.834C46.7228 119.467 46.4944 120.086 46.224 120.687C46.0936 120.977 45.9569 121.263 45.8042 121.533C45.7343 121.661 45.5498 121.944 45.3972 121.937C45.429 121.88 45.4576 121.823 45.4894 121.769C45.8336 121.121 46.1281 120.448 46.3703 119.756C46.6236 119.058 46.7892 118.332 46.8632 117.593C46.881 117.495 46.8741 117.393 46.843 117.297C46.8119 117.202 46.7577 117.116 46.6851 117.046C46.7584 116.673 46.767 116.29 46.7106 115.914C46.5865 115.25 46.0936 115.005 45.6103 115.157C45.0315 115.339 44.5736 115.921 44.1729 116.471C43.3727 117.573 42.7395 118.787 42.2935 120.074C42.0598 120.746 41.8718 121.433 41.7307 122.131C41.5971 122.793 41.4127 123.594 41.6416 124.246C42.1822 125.798 43.6864 124.37 44.2937 123.61C44.6529 123.146 44.9721 122.652 45.2477 122.134C45.3344 122.16 45.427 122.159 45.5128 122.13C45.5987 122.102 45.6738 122.048 45.7279 121.975C45.9311 121.728 46.0952 121.452 46.2145 121.155C46.383 120.805 46.5325 120.446 46.6787 120.077C46.6787 120.214 46.6787 120.35 46.6787 120.487C46.6511 120.718 46.6783 120.952 46.7582 121.171C46.7905 121.232 46.84 121.282 46.9005 121.314C46.9611 121.347 47.0299 121.361 47.0985 121.355C47.4388 121.323 47.6391 120.78 47.7886 120.439C47.9036 120.176 48.0024 119.907 48.0843 119.632C48.1059 119.774 48.1388 119.914 48.1829 120.051C48.1868 120.071 48.1965 120.088 48.2109 120.102C48.2252 120.116 48.2434 120.124 48.2629 120.127C48.2825 120.13 48.3024 120.127 48.3199 120.118C48.3375 120.109 48.3518 120.094 48.361 120.077C48.4903 119.799 48.608 119.516 48.714 119.228C48.758 119.303 48.8229 119.364 48.9007 119.404C48.9785 119.443 49.066 119.459 49.1528 119.45C49.6203 119.336 49.7029 118.671 49.8524 118.15C49.9152 118.27 50.0113 118.369 50.1291 118.436C50.2345 118.492 50.3538 118.518 50.473 118.509C50.5922 118.501 50.7067 118.459 50.8032 118.388C50.8467 118.595 50.9495 118.784 51.099 118.932C51.1829 119.024 51.299 119.079 51.4229 119.087C51.5468 119.094 51.6689 119.054 51.7636 118.973C52.0169 118.708 52.2252 118.403 52.3805 118.07C52.5777 117.727 52.7684 117.374 52.9497 117.015L53.1532 116.592C53.0356 117.18 52.9274 117.771 52.8352 118.366C52.7971 118.617 52.7621 118.868 52.7335 119.123C52.6979 119.333 52.6851 119.546 52.6953 119.759C52.7335 120.109 52.9561 120.303 53.22 120.195C53.3893 120.106 53.5412 119.987 53.6684 119.845C53.8391 119.682 53.9965 119.505 54.139 119.317C54.4325 118.925 54.6761 118.497 54.8641 118.045C54.9213 117.94 54.721 117.848 54.6669 117.978ZM54.2249 112.375C54.333 111.85 54.4348 111.326 54.5429 110.804C54.6117 110.464 54.7009 110.128 54.81 109.799C54.827 110.37 54.7671 110.94 54.6319 111.494C54.492 112.13 54.3139 112.785 54.1422 113.402C54.0341 113.755 53.9196 114.102 53.7988 114.445C53.9419 113.758 54.085 113.062 54.2249 112.369V112.375ZM44.6308 122.735C44.3126 123.246 43.9264 123.712 43.4829 124.119C43.2814 124.297 43.0594 124.451 42.8214 124.577C42.5925 124.697 42.3412 124.786 42.125 124.596C41.7084 124.23 41.7561 123.473 41.842 122.904C41.9331 122.316 42.0584 121.734 42.2172 121.161C42.5235 120.04 42.9611 118.959 43.521 117.94C43.7959 117.44 44.104 116.958 44.4432 116.499C44.8057 116.016 45.235 115.482 45.7661 115.374C46.5229 115.221 46.5706 116.115 46.4212 117.008C46.1844 117.06 45.9737 117.194 45.8265 117.387C45.4132 117.94 45.1345 118.583 45.0124 119.263C44.9614 119.481 44.9232 119.702 44.898 119.924C44.7087 120.051 44.4893 120.126 44.262 120.14C43.9281 120.14 43.9757 119.584 44.0107 119.285C44.0498 118.958 44.131 118.637 44.2524 118.331C44.2842 118.255 44.1538 118.143 44.1189 118.223C43.9726 118.563 43.8731 118.921 43.8231 119.288C43.75 119.594 43.7896 119.916 43.9344 120.195C44.1061 120.424 44.3892 120.369 44.6086 120.306C44.6965 120.277 44.7826 120.243 44.8661 120.204C44.8358 120.598 44.8518 120.994 44.9139 121.384C44.9377 121.589 44.9946 121.789 45.0824 121.975C44.9425 122.23 44.7867 122.484 44.6308 122.729V122.735ZM46.3703 117.278C46.2899 117.684 46.1739 118.082 46.0237 118.468C45.8386 118.954 45.5412 119.39 45.1555 119.74C45.2338 119.257 45.3683 118.786 45.5562 118.334C45.6633 118.053 45.8147 117.791 46.0046 117.558C46.0915 117.45 46.1997 117.362 46.3226 117.298L46.3703 117.278ZM45.2128 121.73C45.1873 121.638 45.1714 121.53 45.1555 121.457C45.1258 121.302 45.1056 121.144 45.0951 120.986C45.0665 120.68 45.0665 120.371 45.0951 120.064C45.1973 119.995 45.294 119.919 45.3845 119.835C45.8704 119.339 46.2198 118.725 46.3989 118.054C46.4657 117.841 46.5325 117.603 46.5865 117.358C46.5865 117.377 46.5865 117.396 46.5865 117.425C46.5929 117.5 46.5929 117.575 46.5865 117.651C46.5106 118.271 46.3731 118.883 46.1763 119.476C45.9247 120.257 45.6022 121.014 45.2128 121.737V121.73ZM50.9972 117.342C51.0969 116.703 51.2786 116.08 51.5378 115.488C51.6469 115.194 51.7933 114.915 51.9735 114.658C51.9894 114.636 52.0816 114.537 52.1102 114.563C52.1388 114.588 52.1293 114.661 52.1293 114.68C52.1372 114.757 52.1372 114.833 52.1293 114.909C52.1081 115.081 52.0795 115.253 52.0434 115.425C51.9123 116.105 51.674 116.761 51.3375 117.368C51.2269 117.578 51.0959 117.777 50.9463 117.962C50.9485 117.755 50.9655 117.547 50.9972 117.342ZM61.2431 114.273L61.1446 114.251C61.17 113.755 61.1732 113.256 61.1636 112.766C61.1477 111.812 61.0873 110.887 60.9824 109.958C60.9824 109.863 60.9601 109.767 60.9442 109.672C60.9919 109.386 61.0333 109.1 61.0651 108.81C61.1223 108.247 61.1605 107.538 60.7471 107.204C60.693 107.16 60.6072 107.163 60.5944 107.261C60.5331 107.912 60.5663 108.567 60.693 109.208C60.693 109.316 60.7216 109.427 60.7344 109.526C60.6619 109.985 60.5664 110.44 60.4481 110.89C60.3006 111.465 60.1158 112.03 59.8948 112.582C59.7867 112.855 59.6691 113.125 59.545 113.389C59.4389 113.677 59.2454 113.924 58.9917 114.095C58.9395 113.984 58.9165 113.862 58.9249 113.739C58.9249 113.621 58.7723 113.542 58.7405 113.676C58.7339 113.707 58.7254 113.738 58.715 113.768C58.7405 113.45 58.7755 113.132 58.8232 112.814C58.8391 112.709 58.6705 112.62 58.6419 112.731C58.5552 113.092 58.4338 113.443 58.2794 113.78C58.1991 113.957 58.1077 114.128 58.0059 114.292C57.9487 114.388 57.8246 114.61 57.7197 114.585C57.4812 114.553 57.6593 113.631 57.7197 113.44C57.7197 113.383 57.7483 113.329 57.7642 113.272C57.8851 112.995 57.9964 112.709 58.0822 112.416C58.1236 112.302 57.9678 112.197 57.9169 112.302C57.8254 112.49 57.7468 112.685 57.6816 112.884C57.4039 113.547 57.0709 114.185 56.6862 114.792C56.4541 115.154 56.1488 115.717 55.764 115.778C55.5414 115.809 55.4683 115.612 55.4619 115.358C55.8533 114.932 56.1927 114.461 56.4731 113.955C56.6798 113.58 57.6911 111.51 56.7562 111.599C56.3491 111.637 56.0947 112.168 55.9166 112.591C55.6939 113.116 55.5234 113.661 55.4079 114.219C55.3538 114.486 55.3061 114.76 55.2775 115.033C55.2726 115.114 55.2726 115.195 55.2775 115.275C54.9844 115.589 54.6593 115.871 54.3076 116.118C54.2312 116.169 54.3457 116.318 54.4125 116.274C54.7296 116.058 55.0265 115.814 55.2997 115.545C55.3123 115.616 55.3348 115.685 55.3665 115.749C55.5955 116.181 56.0598 115.968 56.3205 115.698C56.7163 115.239 57.0519 114.732 57.319 114.188C57.3731 114.086 57.4272 113.984 57.478 113.87C57.4335 114.188 57.4144 114.62 57.6434 114.741C57.8724 114.862 58.149 114.48 58.2794 114.235C58.3771 114.06 58.4642 113.88 58.5401 113.695C58.5401 113.806 58.5243 113.917 58.5211 114.013C58.5179 114.108 58.6006 114.181 58.661 114.14C58.7146 114.101 58.7619 114.054 58.8009 114C58.8241 114.083 58.8583 114.162 58.9027 114.235C58.915 114.254 58.9323 114.268 58.9526 114.277C58.9728 114.286 58.9952 114.289 59.0171 114.286C59.5546 114.127 59.844 113.31 60.0825 112.731C60.3393 112.111 60.5519 111.473 60.7185 110.823C60.763 110.642 60.8075 110.457 60.8456 110.273C60.8838 110.67 60.9156 111.068 60.9347 111.465C60.9946 112.368 61.0021 113.274 60.957 114.178C60.5062 114.187 60.0699 114.338 59.7104 114.61C59.185 114.942 58.7186 115.359 58.3303 115.844C57.951 116.333 57.7602 116.941 57.7929 117.558C57.831 118.147 58.1108 118.652 58.5656 118.789C59.5196 119.082 60.3337 117.835 60.6994 116.833C60.9626 116.055 61.1156 115.244 61.1541 114.423C61.189 114.42 61.2241 114.42 61.2591 114.423C61.3735 114.521 61.3735 114.315 61.2431 114.283V114.273ZM55.57 114.49C55.6539 114.044 55.7719 113.606 55.923 113.179C56.0406 112.734 56.2581 112.32 56.559 111.971C56.6194 111.914 56.7816 111.79 56.8547 111.838C56.9279 111.885 56.9533 112.073 56.9342 112.213C56.8965 112.452 56.8336 112.686 56.7466 112.912C56.5886 113.333 56.3916 113.737 56.1583 114.121C55.9582 114.456 55.7317 114.775 55.481 115.075C55.5001 114.843 55.5446 114.623 55.57 114.499V114.49ZM60.8297 108.89C60.7548 108.437 60.7334 107.977 60.7661 107.519C60.9601 107.875 60.8933 108.454 60.8297 108.899V108.89ZM60.7725 115.619C60.5722 116.728 60.1206 117.997 59.2684 118.481C59.176 118.548 59.0694 118.592 58.9568 118.611C58.8443 118.63 58.7289 118.623 58.6196 118.59C58.5104 118.557 58.4102 118.499 58.3269 118.421C58.2436 118.343 58.1795 118.247 58.1395 118.14C58.038 117.863 57.9965 117.568 58.0179 117.273C58.0393 116.979 58.123 116.692 58.2635 116.433C58.6024 115.862 59.0694 115.377 59.6277 115.018C59.9928 114.707 60.4423 114.512 60.9188 114.458C60.8898 114.85 60.8409 115.241 60.7725 115.628V115.619Z" fill="#455A64"/>
<path d="M28.8486 127.34C28.8948 129.102 29.138 130.854 29.5737 132.562L36.4139 128.628L38.236 123.33L36.4139 122.983L28.8486 127.34Z" fill="#E0E0E0"/>
<path d="M35.8005 121.918L22.3555 129.68V135.325L35.8005 127.562L38.2427 123.33L35.8005 121.918Z" fill="#FFC100"/>
<path d="M27.51 128.017C27.5132 128.014 27.5172 128.011 27.5216 128.009C27.5259 128.007 27.5306 128.006 27.5354 128.006C27.5402 128.006 27.5449 128.007 27.5493 128.009C27.5536 128.011 27.5576 128.014 27.5608 128.017C27.5694 128.026 27.5759 128.037 27.5798 128.048C27.5836 128.06 27.5848 128.072 27.5831 128.084V130.778C27.5833 130.809 27.5757 130.839 27.5608 130.867C27.552 130.893 27.534 130.916 27.51 130.93L27.2905 131.057C27.2836 131.064 27.2745 131.067 27.2651 131.067C27.2557 131.067 27.2467 131.064 27.2397 131.057C27.2311 131.049 27.2246 131.038 27.2207 131.027C27.2169 131.015 27.2157 131.003 27.2174 130.991V129.89L26.3938 130.361V131.461C26.3944 131.493 26.3867 131.525 26.3715 131.553C26.3606 131.579 26.3431 131.601 26.3206 131.617L26.1012 131.744C26.094 131.75 26.085 131.753 26.0758 131.753C26.0666 131.753 26.0576 131.75 26.0503 131.744C26.0418 131.736 26.0353 131.725 26.0314 131.713C26.0276 131.702 26.0264 131.69 26.0281 131.677V128.981C26.0279 128.949 26.0355 128.917 26.0503 128.889C26.0603 128.863 26.0781 128.84 26.1012 128.825L26.3206 128.698C26.3279 128.692 26.3369 128.689 26.3461 128.689C26.3553 128.689 26.3643 128.692 26.3715 128.698C26.3798 128.707 26.3861 128.718 26.3899 128.731C26.3937 128.743 26.3951 128.755 26.3938 128.768V129.836L27.211 129.366V128.294C27.2112 128.262 27.2188 128.23 27.2333 128.202C27.2441 128.176 27.2617 128.154 27.2842 128.138L27.51 128.017Z" fill="white"/>
<path d="M29.2564 129.398C29.2634 129.391 29.2724 129.388 29.2818 129.388C29.2912 129.388 29.3003 129.391 29.3072 129.398C29.3216 129.416 29.3284 129.438 29.3263 129.461V129.76C29.3261 129.791 29.3196 129.821 29.3072 129.849C29.2971 129.875 29.2794 129.897 29.2564 129.913L28.067 130.6C28.0601 130.606 28.051 130.609 28.0416 130.609C28.0322 130.609 28.0232 130.606 28.0162 130.6C28.0076 130.591 28.0011 130.58 27.9972 130.569C27.9934 130.557 27.9922 130.545 27.9939 130.533V127.836C27.9937 127.804 28.0014 127.773 28.0162 127.744C28.0259 127.718 28.0437 127.696 28.067 127.68L29.2564 127.013C29.2634 127.006 29.2724 127.003 29.2818 127.003C29.2912 127.003 29.3003 127.006 29.3072 127.013C29.3232 127.031 29.3312 127.055 29.3295 127.079V127.375C29.3278 127.407 29.3202 127.438 29.3072 127.467C29.2963 127.492 29.2787 127.513 29.2564 127.528L28.3819 128.033V128.695L29.1959 128.227C29.1992 128.224 29.2032 128.221 29.2075 128.219C29.2119 128.217 29.2166 128.216 29.2214 128.216C29.2262 128.216 29.2309 128.217 29.2352 128.219C29.2396 128.221 29.2436 128.224 29.2468 128.227C29.2554 128.236 29.2619 128.247 29.2658 128.258C29.2696 128.27 29.2708 128.282 29.2691 128.294V128.59C29.2689 128.622 29.2613 128.654 29.2468 128.682C29.2369 128.707 29.219 128.729 29.1959 128.743L28.3819 129.213V129.906L29.2564 129.398Z" fill="white"/>
<path d="M30.4481 126.319C30.6739 126.189 30.8456 126.17 30.9633 126.265C31.0314 126.342 31.0823 126.433 31.1124 126.531C31.1426 126.629 31.1514 126.733 31.1382 126.835C31.1391 127.029 31.1079 127.223 31.0459 127.407C30.9881 127.579 30.8986 127.739 30.782 127.878L31.1636 128.692C31.1662 128.705 31.1662 128.719 31.1636 128.733C31.1633 128.76 31.1568 128.786 31.1445 128.809C31.1351 128.829 31.1209 128.847 31.1032 128.86L30.871 128.994C30.8361 129.013 30.8106 129.016 30.7915 128.994C30.7759 128.979 30.764 128.96 30.7566 128.94L30.4004 128.173L30.0411 128.383V129.353C30.0413 129.385 30.0336 129.417 30.0188 129.445C30.0089 129.471 29.9911 129.494 29.9679 129.509L29.7485 129.636C29.7415 129.642 29.7324 129.646 29.7231 129.646C29.7137 129.646 29.7046 129.642 29.6976 129.636C29.6893 129.628 29.6829 129.618 29.6791 129.607C29.6752 129.596 29.674 129.584 29.6754 129.573V126.882C29.6752 126.85 29.6828 126.819 29.6976 126.79C29.7075 126.764 29.7253 126.742 29.7485 126.727L30.4481 126.319ZM30.0411 127.868L30.4354 127.642C30.5326 127.586 30.6162 127.509 30.6802 127.417C30.7465 127.304 30.7786 127.175 30.7725 127.045C30.7725 126.889 30.7407 126.803 30.6802 126.787C30.6375 126.78 30.5937 126.781 30.5516 126.792C30.5095 126.802 30.4699 126.821 30.4354 126.847L30.0411 127.076V127.868Z" fill="white"/>
<path d="M32.754 127.387C32.7575 127.384 32.7617 127.381 32.7664 127.379C32.771 127.377 32.776 127.376 32.781 127.376C32.786 127.376 32.791 127.377 32.7956 127.379C32.8003 127.381 32.8045 127.384 32.808 127.387C32.8228 127.406 32.8297 127.43 32.8271 127.454V127.75C32.8266 127.782 32.8201 127.813 32.808 127.842C32.7971 127.868 32.7781 127.889 32.754 127.903L31.5678 128.589C31.5643 128.593 31.5601 128.596 31.5554 128.598C31.5508 128.6 31.5458 128.601 31.5408 128.601C31.5358 128.601 31.5308 128.6 31.5262 128.598C31.5215 128.596 31.5173 128.593 31.5138 128.589C31.4989 128.571 31.4921 128.547 31.4947 128.523V125.829C31.4952 125.798 31.5016 125.766 31.5138 125.737C31.5247 125.711 31.5437 125.69 31.5678 125.677L32.7349 125.002C32.7419 124.996 32.7509 124.993 32.7603 124.993C32.7697 124.993 32.7788 124.996 32.7858 125.002C32.8017 125.021 32.8097 125.045 32.808 125.069V125.365C32.8067 125.397 32.7991 125.428 32.7858 125.457C32.7739 125.482 32.7565 125.504 32.7349 125.521L31.8604 126.023V126.688L32.6745 126.217C32.6815 126.211 32.6905 126.207 32.6999 126.207C32.7093 126.207 32.7183 126.211 32.7253 126.217C32.7336 126.226 32.7398 126.237 32.7436 126.248C32.7475 126.26 32.7488 126.272 32.7476 126.284V126.58C32.7478 126.612 32.7402 126.643 32.7253 126.672C32.7135 126.697 32.6961 126.719 32.6745 126.735L31.8572 127.2V127.89L32.754 127.387Z" fill="white"/>
<path d="M122.789 128.091L120.903 127.372L121.527 126.097L122.684 127.184L122.789 128.091Z" fill="black"/>
<path d="M124.758 124.691C124.758 124.691 124.828 125.922 124.844 126.31C124.86 126.698 123.2 127.9 122.789 128.09L122.684 127.2C122.306 127.646 121.986 128.137 121.73 128.663C121.412 129.213 120.999 130.253 120.121 130.965C118.821 132.018 116.795 132.555 114.731 132.609C112.667 132.663 111.488 132.161 110.915 131.712C110.343 131.264 110.146 130.736 110.295 130.215C110.445 129.693 124.758 124.691 124.758 124.691Z" fill="#263238"/>
<path d="M119.25 120.468L119.228 119.756C118.846 119.756 118.796 120.777 118.239 121.68C117.427 123.032 116.445 124.275 115.317 125.378C113.215 127.286 111.342 128.463 110.407 129.318C109.135 130.46 111.339 132.298 114.706 132.123C116.376 132.037 119.349 131.21 120.188 130.215C121.028 129.22 121.546 127.693 122.22 126.981C122.895 126.268 124.329 125.55 124.749 124.679C124.981 124.202 124.863 123.089 124.733 122.135C124.612 121.263 124.59 119.928 124.097 120.036L124.059 120.481C123.858 120.862 123.391 121.489 122.039 121.708C121.381 121.832 119.371 121.883 119.25 120.468Z" fill="#37474F"/>
<path opacity="0.15" d="M120.971 121.752C120.335 121.695 119.638 121.479 119.381 120.897V120.878C119.417 121.125 119.396 121.377 119.32 121.615C119.243 121.852 119.113 122.069 118.939 122.249C118.335 122.948 114.506 127.899 114.506 127.899C114.506 127.899 118.067 123.819 118.748 123.05C119.759 121.915 120.077 121.778 120.996 121.756L120.971 121.752Z" fill="black"/>
<path opacity="0.15" d="M120.124 123.066C120.133 123.118 120.162 123.164 120.204 123.196C120.246 123.228 120.298 123.242 120.35 123.237C120.403 123.231 120.451 123.206 120.485 123.166C120.519 123.126 120.537 123.074 120.535 123.021C120.528 122.967 120.501 122.917 120.458 122.884C120.415 122.85 120.36 122.834 120.306 122.84C120.279 122.843 120.253 122.851 120.229 122.864C120.206 122.877 120.185 122.894 120.168 122.915C120.151 122.936 120.138 122.96 120.131 122.986C120.124 123.012 120.121 123.039 120.124 123.066Z" fill="black"/>
<path opacity="0.15" d="M119.126 124.16C119.131 124.2 119.147 124.237 119.173 124.268C119.199 124.299 119.234 124.321 119.272 124.332C119.311 124.343 119.352 124.343 119.39 124.331C119.428 124.319 119.462 124.295 119.487 124.264C119.512 124.233 119.528 124.195 119.531 124.155C119.535 124.115 119.526 124.075 119.507 124.039C119.488 124.004 119.459 123.975 119.423 123.957C119.388 123.938 119.348 123.93 119.308 123.934C119.281 123.937 119.255 123.945 119.231 123.958C119.208 123.971 119.187 123.988 119.17 124.009C119.153 124.03 119.14 124.054 119.133 124.08C119.126 124.106 119.123 124.133 119.126 124.16Z" fill="black"/>
<path opacity="0.15" d="M118.124 125.254C118.131 125.308 118.158 125.358 118.201 125.392C118.244 125.426 118.299 125.441 118.353 125.435C118.38 125.432 118.406 125.424 118.43 125.411C118.453 125.398 118.474 125.381 118.491 125.36C118.508 125.339 118.52 125.315 118.528 125.289C118.535 125.263 118.538 125.236 118.535 125.209C118.532 125.183 118.523 125.157 118.511 125.133C118.498 125.11 118.48 125.089 118.459 125.072C118.438 125.055 118.414 125.043 118.388 125.035C118.363 125.028 118.336 125.025 118.309 125.028C118.282 125.03 118.255 125.038 118.231 125.051C118.207 125.064 118.186 125.081 118.169 125.102C118.152 125.123 118.139 125.147 118.131 125.173C118.124 125.2 118.121 125.227 118.124 125.254Z" fill="black"/>
<path opacity="0.15" d="M117.126 126.348C117.133 126.402 117.16 126.452 117.203 126.486C117.246 126.52 117.301 126.535 117.355 126.529C117.382 126.526 117.408 126.518 117.432 126.505C117.455 126.492 117.476 126.475 117.493 126.454C117.51 126.433 117.522 126.409 117.53 126.383C117.537 126.357 117.54 126.33 117.536 126.303C117.528 126.251 117.499 126.205 117.457 126.173C117.415 126.141 117.363 126.127 117.31 126.133C117.258 126.138 117.21 126.164 117.176 126.204C117.141 126.244 117.124 126.295 117.126 126.348Z" fill="black"/>
<path opacity="0.15" d="M116.127 127.442C116.134 127.495 116.161 127.545 116.203 127.578C116.245 127.612 116.299 127.628 116.353 127.623C116.38 127.621 116.406 127.613 116.43 127.6C116.454 127.587 116.476 127.57 116.493 127.549C116.51 127.528 116.523 127.504 116.531 127.478C116.538 127.451 116.541 127.424 116.538 127.397C116.531 127.343 116.504 127.294 116.462 127.26C116.419 127.226 116.366 127.21 116.312 127.216C116.285 127.218 116.258 127.226 116.234 127.239C116.21 127.251 116.189 127.269 116.172 127.29C116.155 127.311 116.142 127.335 116.134 127.361C116.127 127.387 116.124 127.415 116.127 127.442Z" fill="black"/>
<path d="M120.334 123.127C120.35 123.125 120.364 123.119 120.377 123.109C120.389 123.1 120.398 123.087 120.404 123.073C120.409 123.058 120.41 123.042 120.407 123.027C120.403 123.012 120.396 122.998 120.385 122.987C120.344 122.945 119.358 121.985 118.064 122.052C118.042 122.054 118.022 122.065 118.008 122.081C117.994 122.098 117.986 122.119 117.987 122.141C117.988 122.152 117.991 122.162 117.996 122.172C118.001 122.182 118.008 122.19 118.016 122.197C118.024 122.204 118.034 122.21 118.044 122.213C118.055 122.217 118.066 122.218 118.076 122.217C119.298 122.153 120.264 123.095 120.274 123.104C120.282 123.112 120.291 123.118 120.302 123.122C120.312 123.126 120.323 123.127 120.334 123.127Z" fill="#263238"/>
<path d="M119.336 124.217C119.355 124.215 119.373 124.206 119.387 124.192C119.394 124.184 119.4 124.175 119.405 124.165C119.409 124.155 119.411 124.144 119.411 124.133C119.411 124.122 119.409 124.111 119.405 124.101C119.4 124.091 119.394 124.082 119.387 124.074C119.345 124.033 118.359 123.072 117.062 123.142C117.051 123.143 117.04 123.146 117.031 123.151C117.021 123.156 117.012 123.163 117.005 123.171C116.998 123.179 116.993 123.189 116.989 123.199C116.986 123.21 116.985 123.22 116.986 123.231C116.987 123.253 116.997 123.273 117.013 123.287C117.029 123.301 117.05 123.309 117.071 123.308C118.293 123.244 119.262 124.182 119.272 124.192C119.28 124.2 119.29 124.207 119.301 124.211C119.312 124.216 119.324 124.218 119.336 124.217Z" fill="#263238"/>
<path d="M118.337 125.314C118.347 125.314 118.357 125.311 118.366 125.307C118.374 125.303 118.382 125.296 118.388 125.289C118.396 125.281 118.402 125.272 118.406 125.262C118.411 125.252 118.413 125.241 118.413 125.23C118.413 125.219 118.411 125.208 118.406 125.198C118.402 125.188 118.396 125.179 118.388 125.171C118.347 125.133 117.361 124.172 116.064 124.239C116.042 124.242 116.022 124.252 116.008 124.269C115.994 124.285 115.986 124.306 115.987 124.328C115.989 124.35 115.999 124.369 116.015 124.384C116.031 124.398 116.052 124.405 116.073 124.405C117.294 124.341 118.264 125.282 118.274 125.289C118.282 125.298 118.291 125.305 118.302 125.309C118.314 125.314 118.326 125.315 118.337 125.314Z" fill="#263238"/>
<path d="M117.342 126.408C117.352 126.408 117.362 126.406 117.371 126.401C117.38 126.397 117.387 126.391 117.393 126.383C117.401 126.375 117.407 126.366 117.411 126.357C117.416 126.347 117.418 126.336 117.418 126.326C117.418 126.315 117.416 126.304 117.411 126.294C117.407 126.285 117.401 126.276 117.393 126.268C117.352 126.227 116.366 125.267 115.069 125.333C115.058 125.334 115.047 125.337 115.038 125.342C115.028 125.347 115.019 125.354 115.012 125.362C115.005 125.37 115 125.38 114.996 125.39C114.993 125.401 114.992 125.412 114.992 125.422C114.993 125.433 114.995 125.444 115 125.453C115.005 125.463 115.011 125.472 115.019 125.479C115.027 125.486 115.036 125.492 115.047 125.495C115.057 125.498 115.068 125.5 115.078 125.499C116.299 125.435 117.266 126.376 117.276 126.386C117.285 126.394 117.295 126.4 117.307 126.404C117.318 126.408 117.33 126.409 117.342 126.408Z" fill="#263238"/>
<path d="M116.336 127.518C116.357 127.516 116.376 127.507 116.39 127.493C116.405 127.477 116.414 127.456 116.414 127.434C116.414 127.412 116.405 127.391 116.39 127.375C115.763 126.78 114.931 126.446 114.066 126.443C114.044 126.445 114.023 126.455 114.008 126.472C113.993 126.488 113.986 126.51 113.986 126.532C113.987 126.543 113.99 126.554 113.995 126.564C114 126.573 114.007 126.582 114.015 126.589C114.023 126.596 114.033 126.602 114.043 126.605C114.054 126.608 114.065 126.61 114.075 126.609C115.297 126.545 116.263 127.483 116.273 127.493C116.281 127.501 116.291 127.508 116.302 127.512C116.313 127.516 116.325 127.519 116.336 127.518Z" fill="#263238"/>
<path d="M138.226 134.034C138.512 135.643 138.89 136.69 139.58 137.57C140.27 138.451 141.504 138.553 142.423 138.359C143.711 138.089 144.967 137.192 145.476 135.348C145.772 134.238 145.568 132.966 145.139 131.49L138.226 134.034Z" fill="#263238"/>
<path d="M141.808 121.67C142.263 121.651 142.657 123.813 143.179 125.96C143.735 128.262 144.607 129.483 145.026 131.032C145.608 133.175 145.573 134.177 144.963 135.592C144.352 137.007 141.185 138.731 139.624 136.994C138.352 135.579 138.1 133.872 137.938 131.678C137.844 129.811 137.656 127.951 137.375 126.103C137.092 124.475 136.79 122.901 137.162 122.672C137.22 122.91 137.286 123.212 137.347 123.444C137.391 123.623 137.544 124.503 137.798 124.481C137.794 124.274 137.77 124.067 137.728 123.864C137.68 123.681 137.702 123.487 137.792 123.32C137.914 123.176 138.081 123.077 138.266 123.037C138.7 122.891 139.141 122.768 139.589 122.669C139.811 122.62 140.036 122.584 140.263 122.56C140.657 122.497 141.056 122.466 141.455 122.468C141.511 122.479 141.565 122.501 141.611 122.534C141.658 122.567 141.697 122.61 141.726 122.659C141.759 122.737 141.778 122.822 141.78 122.907C141.799 123.058 141.836 123.207 141.891 123.349C141.913 123.413 141.967 123.486 142.031 123.464C142.094 123.441 142.094 123.375 142.088 123.32C142.059 123.057 142.002 122.869 141.955 122.564C141.932 122.424 141.885 122.246 141.869 122.09C141.853 121.934 141.827 121.81 141.808 121.67Z" fill="#37474F"/>
<path opacity="0.15" d="M143.418 131.77C143.425 131.801 143.422 131.832 143.411 131.862C143.399 131.891 143.379 131.916 143.354 131.934C143.328 131.952 143.298 131.962 143.266 131.963C143.235 131.964 143.204 131.955 143.177 131.938C143.151 131.922 143.13 131.897 143.117 131.869C143.104 131.84 143.1 131.808 143.106 131.777C143.111 131.746 143.125 131.718 143.147 131.695C143.169 131.672 143.196 131.656 143.227 131.649C143.247 131.644 143.269 131.644 143.289 131.647C143.31 131.651 143.33 131.658 143.348 131.67C143.365 131.681 143.381 131.696 143.393 131.713C143.405 131.73 143.413 131.749 143.418 131.77Z" fill="black"/>
<path opacity="0.15" d="M143.1 130.278C143.107 130.309 143.105 130.341 143.093 130.37C143.082 130.399 143.062 130.425 143.036 130.443C143.011 130.461 142.98 130.471 142.949 130.471C142.917 130.472 142.887 130.463 142.86 130.447C142.834 130.43 142.813 130.406 142.8 130.377C142.787 130.348 142.783 130.316 142.788 130.285C142.794 130.255 142.808 130.226 142.83 130.203C142.851 130.18 142.879 130.164 142.91 130.157C142.93 130.153 142.951 130.152 142.972 130.156C142.993 130.159 143.012 130.167 143.03 130.178C143.048 130.189 143.063 130.204 143.075 130.221C143.087 130.238 143.096 130.258 143.1 130.278Z" fill="black"/>
<path opacity="0.15" d="M142.782 128.869C142.789 128.9 142.786 128.932 142.775 128.961C142.764 128.991 142.744 129.016 142.718 129.034C142.692 129.052 142.662 129.062 142.63 129.063C142.599 129.063 142.568 129.055 142.542 129.038C142.515 129.021 142.494 128.997 142.481 128.968C142.469 128.94 142.465 128.908 142.47 128.877C142.475 128.846 142.49 128.817 142.511 128.794C142.533 128.772 142.561 128.756 142.591 128.749C142.612 128.744 142.633 128.743 142.654 128.747C142.674 128.75 142.694 128.758 142.712 128.769C142.73 128.781 142.745 128.795 142.757 128.812C142.769 128.83 142.778 128.849 142.782 128.869Z" fill="black"/>
<path opacity="0.15" d="M142.464 127.483C142.47 127.513 142.468 127.545 142.457 127.575C142.445 127.604 142.425 127.629 142.4 127.647C142.374 127.665 142.344 127.675 142.312 127.676C142.281 127.677 142.25 127.668 142.223 127.651C142.197 127.634 142.176 127.61 142.163 127.581C142.15 127.553 142.146 127.521 142.152 127.49C142.157 127.459 142.171 127.43 142.193 127.408C142.214 127.385 142.242 127.369 142.273 127.362C142.293 127.357 142.315 127.357 142.335 127.36C142.356 127.364 142.376 127.371 142.393 127.383C142.411 127.394 142.427 127.408 142.439 127.426C142.451 127.443 142.459 127.462 142.464 127.483Z" fill="black"/>
<path opacity="0.15" d="M138.921 128.132C138.927 128.162 138.925 128.194 138.914 128.224C138.902 128.253 138.882 128.278 138.857 128.296C138.831 128.314 138.801 128.324 138.769 128.325C138.738 128.326 138.707 128.317 138.68 128.3C138.654 128.283 138.633 128.259 138.62 128.23C138.607 128.202 138.603 128.17 138.609 128.139C138.614 128.108 138.628 128.079 138.65 128.057C138.672 128.034 138.699 128.018 138.73 128.011C138.75 128.006 138.772 128.006 138.792 128.009C138.813 128.013 138.833 128.02 138.851 128.032C138.868 128.043 138.884 128.057 138.896 128.075C138.908 128.092 138.916 128.111 138.921 128.132Z" fill="black"/>
<path opacity="0.15" d="M139.234 129.531C139.238 129.551 139.239 129.572 139.235 129.593C139.232 129.613 139.224 129.633 139.213 129.65C139.201 129.668 139.187 129.683 139.17 129.694C139.152 129.706 139.133 129.714 139.113 129.718C139.082 129.725 139.05 129.723 139.02 129.712C138.991 129.7 138.966 129.68 138.948 129.654C138.93 129.628 138.92 129.598 138.919 129.566C138.918 129.535 138.927 129.504 138.944 129.477C138.961 129.451 138.986 129.43 139.015 129.417C139.044 129.405 139.076 129.401 139.107 129.407C139.138 129.413 139.167 129.428 139.189 129.45C139.212 129.472 139.227 129.5 139.234 129.531Z" fill="black"/>
<path opacity="0.15" d="M139.545 130.936C139.552 130.967 139.549 130.999 139.538 131.028C139.526 131.057 139.506 131.083 139.481 131.101C139.455 131.119 139.425 131.129 139.393 131.129C139.362 131.13 139.331 131.122 139.304 131.105C139.278 131.088 139.257 131.064 139.244 131.035C139.231 131.006 139.227 130.975 139.233 130.944C139.238 130.913 139.252 130.884 139.274 130.861C139.296 130.838 139.323 130.823 139.354 130.816C139.374 130.811 139.396 130.81 139.416 130.814C139.437 130.817 139.457 130.825 139.475 130.836C139.492 130.847 139.508 130.862 139.52 130.879C139.532 130.896 139.54 130.916 139.545 130.936Z" fill="black"/>
<path opacity="0.15" d="M139.876 132.431C139.881 132.452 139.881 132.473 139.877 132.494C139.873 132.515 139.865 132.535 139.853 132.553C139.842 132.571 139.826 132.586 139.809 132.598C139.791 132.61 139.771 132.619 139.751 132.623C139.73 132.628 139.708 132.628 139.687 132.624C139.666 132.62 139.646 132.612 139.628 132.6C139.61 132.589 139.595 132.574 139.583 132.556C139.571 132.538 139.563 132.519 139.558 132.498C139.549 132.455 139.558 132.411 139.581 132.375C139.605 132.339 139.642 132.314 139.684 132.305C139.726 132.296 139.77 132.305 139.806 132.328C139.842 132.352 139.867 132.389 139.876 132.431Z" fill="black"/>
<path opacity="0.15" d="M141.294 132.984L138.823 122.592L139.405 122.509L141.294 132.984Z" fill="black"/>
<path d="M143.29 131.884H143.265C142.193 131.779 140.422 132.097 139.767 132.52C139.758 132.526 139.748 132.53 139.737 132.532C139.727 132.534 139.716 132.533 139.705 132.531C139.695 132.529 139.685 132.524 139.677 132.518C139.668 132.512 139.661 132.504 139.655 132.495C139.644 132.476 139.641 132.455 139.646 132.434C139.65 132.413 139.663 132.395 139.681 132.383C140.377 131.932 142.164 131.607 143.287 131.722C143.308 131.722 143.328 131.73 143.343 131.745C143.358 131.76 143.366 131.78 143.366 131.801C143.366 131.822 143.358 131.843 143.343 131.858C143.328 131.873 143.308 131.881 143.287 131.881L143.29 131.884Z" fill="#263238"/>
<path d="M142.959 130.38C142.946 130.383 142.932 130.383 142.918 130.38C142.075 130.097 140.183 130.536 139.42 131.016C139.402 131.027 139.38 131.03 139.359 131.025C139.339 131.021 139.32 131.008 139.309 130.99C139.303 130.981 139.299 130.971 139.297 130.961C139.295 130.95 139.296 130.94 139.298 130.929C139.3 130.919 139.305 130.909 139.311 130.901C139.317 130.892 139.325 130.885 139.334 130.879C140.116 130.37 142.069 129.925 142.959 130.221C142.977 130.224 142.994 130.234 143.005 130.248C143.017 130.263 143.023 130.28 143.023 130.299C143.023 130.317 143.017 130.335 143.005 130.349C142.994 130.363 142.977 130.373 142.959 130.377V130.38Z" fill="#263238"/>
<path d="M142.649 128.984C142.634 128.989 142.619 128.989 142.604 128.984C141.762 128.701 139.869 129.14 139.106 129.62C139.088 129.628 139.068 129.629 139.049 129.623C139.031 129.618 139.014 129.606 139.004 129.589C138.993 129.573 138.988 129.553 138.991 129.534C138.993 129.514 139.003 129.496 139.017 129.483C139.803 128.978 141.755 128.529 142.642 128.825C142.653 128.828 142.662 128.833 142.671 128.84C142.679 128.846 142.686 128.855 142.691 128.864C142.695 128.874 142.698 128.885 142.699 128.895C142.699 128.906 142.697 128.917 142.693 128.927C142.691 128.939 142.685 128.951 142.678 128.96C142.67 128.97 142.66 128.978 142.649 128.984Z" fill="#263238"/>
<path d="M142.34 127.594H142.296C141.453 127.311 139.561 127.75 138.798 128.23C138.789 128.236 138.779 128.24 138.769 128.242C138.758 128.244 138.748 128.244 138.737 128.242C138.727 128.24 138.717 128.236 138.708 128.23C138.7 128.224 138.692 128.217 138.686 128.208C138.68 128.199 138.676 128.19 138.674 128.179C138.672 128.169 138.672 128.158 138.674 128.148C138.676 128.138 138.681 128.128 138.686 128.119C138.692 128.11 138.7 128.103 138.709 128.097C139.494 127.588 141.447 127.143 142.334 127.435C142.344 127.439 142.354 127.444 142.362 127.451C142.371 127.458 142.377 127.467 142.382 127.477C142.387 127.487 142.39 127.497 142.39 127.508C142.39 127.519 142.389 127.53 142.385 127.54C142.382 127.552 142.377 127.564 142.369 127.573C142.362 127.583 142.351 127.59 142.34 127.594Z" fill="#263238"/>
<path d="M139.354 68.6881C140.41 82.0791 141.059 100.313 141.059 100.313C141.154 101.331 142.134 105.672 142.624 110.686C143.142 115.978 143.562 125.89 143.562 125.89C143.562 125.89 139.86 127.881 136.861 126.882C136.861 126.882 133.646 110.187 132.11 103.951C130.654 98.0491 128.377 86.8618 128.377 86.8618L126.828 97.9441C126.828 97.9441 127.032 101.76 126.921 104.431C126.787 107.538 124.806 122.465 124.806 122.465C124.806 122.465 120.78 124.825 117.661 122.43C117.661 122.43 117.12 101.843 117.025 98.1063C116.853 90.7764 117.708 76.5713 117.979 67.1108L139.354 68.6881Z" fill="#263238"/>
<path d="M133.909 84.105C134.189 87.3125 134.502 90.519 134.847 93.7245C135.015 95.323 135.19 96.9236 135.372 98.5263L135.645 100.927L135.785 102.126C135.83 102.527 135.913 102.921 135.973 103.319C136.501 106.499 137.315 112.267 137.881 115.438C138.447 118.608 139.07 121.769 139.725 124.923C139.301 121.731 138.843 118.544 138.352 115.364C137.856 112.184 137.08 106.41 136.533 103.236C136.469 102.838 136.386 102.444 136.339 102.047L136.192 100.848L135.89 98.4531C135.691 96.8568 135.479 95.2615 135.254 93.6672C134.843 90.4745 134.395 87.2871 133.909 84.105Z" fill="black"/>
<path d="M119.082 83.1948C118.745 86.1872 118.567 89.1987 118.446 92.2069C118.325 95.2152 118.198 98.2489 118.312 101.241C118.427 104.234 118.462 109.296 118.576 112.308C118.691 115.319 118.824 118.324 119.002 121.329C119.051 118.317 119.061 115.306 119.031 112.298C119.012 109.29 118.958 104.246 118.894 101.238L118.84 98.9835L118.824 98.4175V97.8578V96.7321L118.882 92.2197L118.955 87.7072C118.983 86.2031 119.031 84.699 119.082 83.1948Z" fill="black"/>
<path d="M128.377 86.8649L127.07 79.5319C127.07 79.5319 123.436 79.0008 121.572 77.3281C121.572 77.3281 122.774 79.5541 126.202 80.4064L127.519 86.8872L126.829 97.9441L128.377 86.8649Z" fill="black"/>
<path d="M112.572 45.7923C112.597 45.1563 112.89 44.6539 113.659 44.1387C114.26 43.7865 114.789 43.3236 115.217 42.7745C115.64 42.2085 116.359 41.1527 116.791 40.7997C117.224 40.4467 116.706 39.9443 115.946 40.0333C115.186 40.1224 113.465 40.9873 113.052 41.9032C112.638 42.819 112.365 44.762 112.572 45.7923Z" fill="#F28F8F"/>
<path d="M122.462 42.7682C120.713 42.9018 118.62 42.9018 116.808 46.2471C114.938 49.7038 113.383 52.429 113.383 52.429C113.018 50.8309 112.772 49.2078 112.648 47.5732C112.499 45.1755 112.562 44.1261 113.322 42.7491C114.402 41.2506 115.376 39.6791 116.238 38.0459C114.897 38.1147 113.564 38.2988 112.254 38.596C112.046 38.6417 111.864 38.7674 111.748 38.9458C111.682 39.0794 111.685 39.2416 111.621 39.3783C111.516 39.564 111.348 39.7061 111.147 39.779C110.747 39.9698 110.279 40.1383 110.088 40.539C109.983 40.7616 109.983 41.0256 109.894 41.2545C109.742 41.6393 109.376 41.8905 109.09 42.1513C108.775 42.5097 108.571 42.9514 108.502 43.4233C107.891 45.891 107.726 48.4 107.726 52.2255C107.726 54.8808 107.885 58.5156 108.794 60.5253C109.704 62.5351 111.532 64.8056 114.216 62.1153C116.9 59.425 121.581 51.9679 121.581 51.9679L122.462 42.7682Z" fill="#FFA8A7"/>
<path d="M113.619 42.2944C113.166 42.4687 112.745 42.7158 112.372 43.0258C112.477 43.2346 112.533 43.4645 112.536 43.6982C112.539 43.9318 112.488 44.163 112.388 44.3742C112.07 45.1882 111.459 45.5031 111.612 46.2822C111.604 46.0322 111.666 45.785 111.792 45.569C111.918 45.353 112.103 45.177 112.324 45.061C113.208 44.5204 113.723 42.7651 113.619 42.2944Z" fill="#F28F8F"/>
<path d="M122.278 42.6572C120.615 42.8353 118.91 42.9275 117.269 45.1758C115.628 47.424 113.323 52.1718 113.323 52.1718L113.383 52.4389C113.383 52.4389 114.735 54.1561 115.008 57.546C115.097 58.525 114.979 59.5116 114.664 60.4426C114.348 61.3735 113.842 62.2283 113.177 62.952C112.931 63.1042 112.664 63.2179 112.385 63.2891C112.385 63.2891 113.053 63.7788 114.022 63.0951C114.992 62.4114 122.462 51.6948 122.462 51.6948L122.278 42.6572Z" fill="#F0F0F0"/>
<path d="M113.278 51.9522L113.382 52.4292C113.382 52.4292 114.263 55.5138 113.141 57.8543C112.018 60.1948 110.4 60.4333 109.557 60.3601C108.632 60.2806 108.326 59.1517 108.326 59.1517L108.155 58.3599C108.039 58.4519 107.957 58.5788 107.92 58.7215C107.882 58.8642 107.892 59.0151 107.948 59.1517C108.302 60.1354 108.727 61.092 109.22 62.0137C109.732 62.9391 111.446 64.2747 112.921 63.4606C114.397 62.6465 115.316 60.6463 115.316 57.9878C115.316 55.3294 114.705 53.6344 114.292 53.0684C113.879 52.5023 113.144 51.2939 113.144 51.2939L113.278 51.9522Z" fill="#E0E0E0"/>
<path d="M139.682 44.0563C139.682 44.0563 142.026 45.9961 140.919 50.7629C140.208 53.8734 139.712 57.0291 139.434 60.2075C139.262 62.7197 139.545 71.1913 139.545 71.1913C135.745 75.7323 119.855 74.5716 117.883 70.4376C117.883 70.4376 117.657 54.3659 119.095 48.6737C119.909 45.4492 121.053 43.5857 122.275 42.6571L127.681 41.3851L132.587 41.3247L139.682 44.0563Z" fill="#E6E6E6"/>
<path d="M137.495 16.88C137.612 16.6893 137.691 16.4774 137.727 16.2563C137.762 16.0352 137.754 15.8092 137.702 15.5913C137.651 15.3734 137.557 15.1677 137.426 14.9862C137.294 14.8046 137.129 14.6507 136.938 14.5331C136.748 14.4156 136.536 14.3367 136.314 14.301C136.093 14.2654 135.867 14.2736 135.649 14.3253C135.432 14.377 135.226 14.4711 135.044 14.6022C134.863 14.7334 134.709 14.899 134.591 15.0896L133.691 16.5524C133.624 16.6874 133.594 16.8379 133.605 16.9884C133.615 17.1388 133.666 17.2837 133.752 17.4078C133.97 17.7667 134.269 18.069 134.626 18.29C134.983 18.5111 135.388 18.6446 135.806 18.6798C135.954 18.7005 136.104 18.682 136.243 18.6262C136.381 18.5704 136.503 18.4792 136.595 18.3618L137.495 16.899V16.88Z" fill="#455A64"/>
<path d="M135.806 18.6734C135.954 18.6941 136.104 18.6756 136.243 18.6198C136.381 18.564 136.503 18.4728 136.595 18.3554L137.495 16.8926C137.647 16.6455 137.734 16.3637 137.746 16.0737C137.759 15.7838 137.698 15.4954 137.568 15.2358C137.72 15.6938 137.288 16.387 136.789 17.1979C136.289 18.0088 135.676 18.3968 134.448 17.7099C133.555 17.2106 133.663 16.6637 133.79 16.4029L133.691 16.5651C133.624 16.7 133.594 16.8506 133.605 17.0011C133.615 17.1515 133.666 17.2964 133.752 17.4205C133.972 17.7758 134.273 18.0744 134.629 18.292C134.986 18.5097 135.389 18.6403 135.806 18.6734Z" fill="#37474F"/>
<path d="M137.402 23.8791C138.119 22.6834 138.335 21.2535 138.004 19.8994C137.673 18.5452 136.822 17.376 135.635 16.6451C134.449 15.9142 133.021 15.6806 131.663 15.9948C130.305 16.309 129.126 17.1457 128.381 18.3236C127.97 18.9914 127.999 19.9136 128.568 20.9789C129.703 23.0809 132.559 24.8395 134.947 24.9062C136.14 24.9412 136.989 24.5469 137.402 23.8791Z" fill="#FFC100"/>
<path d="M137.215 21.2239C136.079 19.1251 133.224 17.3633 130.836 17.2966C129.643 17.2616 128.791 17.6591 128.381 18.3237L108.553 50.5085C108.143 51.1763 108.175 52.0985 108.741 53.1638C109.876 55.2658 112.732 57.0243 115.12 57.0943C116.312 57.1261 117.165 56.7317 117.575 56.0671L137.402 23.8792C137.812 23.2145 137.781 22.2764 137.215 21.2239Z" fill="#FFC100"/>
<path opacity="0.2" d="M137.215 21.2239C136.079 19.1251 133.224 17.3633 130.836 17.2966C129.643 17.2616 128.791 17.6591 128.381 18.3237L108.553 50.5085C108.143 51.1763 108.175 52.0985 108.741 53.1638C109.876 55.2658 112.732 57.0243 115.12 57.0943C116.312 57.1261 117.165 56.7317 117.575 56.0671L137.402 23.8792C137.812 23.2145 137.781 22.2764 137.215 21.2239Z" fill="white"/>
<path d="M114.001 59.1107C111.546 59.0407 108.611 57.2313 107.444 55.0721C106.862 53.9909 106.83 53.0274 107.253 52.3437L108.776 49.8664C109.199 49.1827 110.074 48.7757 111.301 48.8107C113.756 48.8806 116.691 50.6901 117.858 52.8493C118.44 53.9305 118.472 54.894 118.049 55.5809L116.526 58.0549C116.103 58.7386 115.228 59.1489 114.001 59.1107Z" fill="#FFC100"/>
<path opacity="0.35" d="M114.001 59.1107C111.546 59.0407 108.611 57.2313 107.444 55.0721C106.862 53.9909 106.83 53.0274 107.253 52.3437L108.776 49.8664C109.199 49.1827 110.074 48.7757 111.301 48.8107C113.756 48.8806 116.691 50.6901 117.858 52.8493C118.44 53.9305 118.472 54.894 118.049 55.5809L116.526 58.0549C116.103 58.7386 115.228 59.1489 114.001 59.1107Z" fill="white"/>
<path d="M109.775 51.2877C112.23 51.3577 115.165 53.1639 116.332 55.3263C116.917 56.4044 116.946 57.3679 116.523 58.0548C116.1 58.7417 115.228 59.1455 114.001 59.1105C111.546 59.0406 108.611 57.2311 107.444 55.0719C106.862 53.9907 106.83 53.0272 107.253 52.3435C107.676 51.6598 108.547 51.2528 109.775 51.2877Z" fill="#FFC100"/>
<path opacity="0.15" d="M109.775 51.2877C112.23 51.3577 115.165 53.1639 116.332 55.3263C116.917 56.4044 116.946 57.3679 116.523 58.0548C116.1 58.7417 115.228 59.1455 114.001 59.1105C111.546 59.0406 108.611 57.2311 107.444 55.0719C106.862 53.9907 106.83 53.0272 107.253 52.3435C107.676 51.6598 108.547 51.2528 109.775 51.2877Z" fill="black"/>
<path d="M89.6387 82.3211C90.0044 81.7296 90.7613 81.3671 91.8266 81.4085C93.9508 81.4689 96.4948 83.0335 97.506 84.9065C98.0117 85.8414 98.0371 86.6777 97.6714 87.2692L96.4535 88.4649C96.2091 88.6819 95.9225 88.8459 95.6116 88.9466C95.3007 89.0473 94.9724 89.0825 94.6472 89.05C92.6883 88.996 90.3479 87.5522 89.4161 85.8287C89.2413 85.5527 89.1254 85.2436 89.0756 84.9208C89.0258 84.5979 89.0432 84.2683 89.1267 83.9525L89.6387 82.3211Z" fill="#FFC100"/>
<g opacity="0.15">
<path d="M89.6387 82.3211C90.0044 81.7296 90.7613 81.3671 91.8266 81.4085C93.9508 81.4689 96.4948 83.0335 97.506 84.9065C98.0117 85.8414 98.0371 86.6777 97.6714 87.2692L96.4535 88.4649C96.2091 88.6819 95.9225 88.8459 95.6116 88.9466C95.3007 89.0473 94.9724 89.0825 94.6472 89.05C92.6883 88.996 90.3479 87.5522 89.4161 85.8287C89.2413 85.5527 89.1254 85.2436 89.0756 84.9208C89.0258 84.5979 89.0432 84.2683 89.1267 83.9525L89.6387 82.3211Z" fill="black"/>
</g>
<path d="M91.8265 81.4087C93.9508 81.4691 96.4947 83.0337 97.506 84.9067C98.0116 85.8416 98.0371 86.6779 97.6714 87.2694L115.552 58.2424C115.918 57.6477 115.893 56.8114 115.387 55.8765C114.376 54.0034 111.835 52.4389 109.708 52.3785C108.646 52.3467 107.886 52.6965 107.52 53.2911L89.6387 82.3213C89.9948 81.7267 90.7612 81.3769 91.8265 81.4087Z" fill="#FFC100"/>
<path d="M96.2983 88.5697C96.6386 88.0418 96.6163 87.2977 96.1584 86.4391C95.2521 84.7632 92.9625 83.3672 91.0481 83.3195C90.0941 83.2972 89.4231 83.6025 89.0988 84.1336V84.1495C87.9603 86.013 85.7216 91.6416 85.9887 94.4463L86.0396 94.4781C86.0489 94.6315 86.0935 94.7806 86.17 94.9138C86.3743 95.2431 86.6537 95.5195 86.9854 95.7201C87.317 95.9207 87.6914 96.04 88.078 96.0681C88.2249 96.0737 88.3713 96.0477 88.5073 95.9918C91.1213 94.9742 95.1662 90.4077 96.2983 88.5697Z" fill="#FFC100"/>
<path opacity="0.2" d="M115.388 55.8763C115.196 55.5296 114.968 55.2044 114.707 54.9064L96.8259 83.9525C97.0875 84.2499 97.3158 84.5752 97.5064 84.9224C97.5382 84.9829 97.5636 85.0433 97.5922 85.1037L115.477 56.0735C115.435 55.9972 115.435 55.9367 115.388 55.8763ZM118.288 54.0192C118.27 53.9193 118.247 53.8205 118.218 53.7235L135.854 25.1035C138.169 21.3479 138.159 19.7674 137.32 18.2124C137.819 19.7483 135.698 23.1668 135.412 23.6184L117.636 52.4705C117.715 52.5946 117.788 52.7186 117.858 52.8426L116.332 55.3198C116.534 55.6848 116.678 56.0783 116.761 56.4869L118.288 54.0192ZM87.2095 95.8585L88.1381 95.4419C88.1381 95.4419 88.8123 95.5118 90.822 93.6833C92.8318 91.8548 94.0434 89.8673 96.1581 86.4393C95.9322 86.0359 95.653 85.6647 95.3281 85.3358C95.3058 85.3804 92.9494 89.9468 89.9952 93.1745C89.1178 94.1516 88.1308 95.0244 87.0537 95.7758C87.1046 95.8044 87.1555 95.833 87.2095 95.8585Z" fill="white"/>
<path d="M86.7324 94.577L85.9915 95.779C85.6735 96.3037 85.1488 97.7856 85.5654 98.0432C85.982 98.3007 87.0727 97.1687 87.3971 96.644L88.138 95.4451C88.138 95.4451 88.1221 95.1271 87.5688 94.8091C87.0155 94.4911 86.7324 94.577 86.7324 94.577Z" fill="#455A64"/>
<path d="M86.1027 97.9447C86.0888 97.8699 86.0594 97.7989 86.0165 97.7362C85.9735 97.6736 85.9178 97.6206 85.8531 97.5807C85.7884 97.5409 85.716 97.515 85.6407 97.5049C85.5654 97.4947 85.4888 97.5005 85.4158 97.5217C85.3903 97.7698 85.438 97.9669 85.5652 98.0464C85.6924 98.1259 85.8864 98.0751 86.1027 97.9447Z" fill="#263238"/>
<path d="M116.23 38.0459C116.685 38.0459 117.524 38.5356 118.182 38.9649C118.841 39.3942 119.454 39.426 119.238 39.9189C119.141 40.0572 119.009 40.1671 118.855 40.2375C118.701 40.3079 118.532 40.3363 118.364 40.3196C117.999 40.3048 117.638 40.2373 117.292 40.1193C118.071 40.7902 118.246 41.0574 118.014 41.2927C117.696 41.6329 117.117 41.5916 116.646 41.3595C116.91 41.6298 117.209 41.7697 117.073 42.0273C116.936 42.2848 116.456 42.3643 115.896 42.2626C115.538 42.2007 115.193 42.0792 114.875 41.9032C114.281 42.0622 113.619 42.2912 113.619 42.2912C114.235 40.7345 115.118 39.2976 116.23 38.0459Z" fill="#FFA8A7"/>
<path d="M116.646 41.34C116.328 41.1588 116.01 40.9298 115.692 40.7422C115.37 40.5735 114.997 40.5326 114.646 40.6277C114.28 40.6722 113.914 40.7422 113.549 40.8122C113.183 40.8821 112.817 40.9394 112.445 40.9871C112.801 40.8853 113.164 40.7963 113.53 40.7072C113.895 40.6182 114.258 40.5482 114.63 40.4942C114.818 40.4675 115.009 40.4568 115.199 40.4624C115.396 40.4734 115.585 40.5395 115.746 40.6532C116.071 40.8758 116.35 41.1174 116.646 41.34Z" fill="#F28F8F"/>
<path d="M117.292 40.1061C117.009 39.9249 116.726 39.7436 116.437 39.5751C116.291 39.4956 116.144 39.4034 116.001 39.3429C115.848 39.2988 115.687 39.2837 115.528 39.2984C115.21 39.2984 114.863 39.3588 114.532 39.4002C114.202 39.4415 113.864 39.486 113.527 39.5147C113.845 39.4288 114.182 39.3588 114.516 39.2952C114.849 39.2307 115.186 39.1871 115.524 39.1649C115.701 39.1517 115.878 39.1733 116.046 39.2285C116.201 39.3022 116.35 39.3883 116.491 39.486C116.772 39.6738 117.04 39.8811 117.292 40.1061Z" fill="#F28F8F"/>
<path d="M133.86 26.9985C133.86 26.9985 134.919 26.9985 135.695 28.296C136.086 28.932 136.414 30.1436 135.695 33.702C135.42 35.0817 134.939 36.4122 134.267 37.6484C134.073 38.0485 133.731 38.3575 133.313 38.5101L133.212 35.8294L133.192 33.9596C133.192 33.9596 131.892 32.4014 131.676 31.0689C131.399 29.3581 131.717 28.6299 131.717 28.6299L133.86 26.9985Z" fill="#37474F"/>
<path d="M134.231 27.0655C133.872 25.5773 131.85 23.9078 128.158 23.946C125.133 23.9809 123.435 25.1289 122.5 26.9542C121.565 28.7796 122.402 31.0119 122.402 31.0119L131.834 29.7844L134.231 27.0655Z" fill="#37474F"/>
<path d="M135.704 36.4398C134.69 37.0472 133.659 36.1472 133.659 36.1472L133.806 41.6772C133.806 41.6772 133.764 42.7489 132.127 43.7919C129.805 45.2706 128.788 45.6554 127.846 47.1373C126.918 44.8095 125.964 43.5312 127.388 41.6327L127.312 40.3607C126.76 40.4315 126.202 40.4496 125.646 40.4148C124.406 40.3003 123.572 39.3749 123.121 38.0679C122.456 36.1345 122.04 33.0022 122.568 29.606C122.663 28.9473 122.984 28.3423 123.477 27.8951C125.779 25.8567 128.587 27.0651 130.693 27.7329C131.548 27.9719 132.459 27.9102 133.275 27.558C132.61 28.3944 132.321 29.1798 132.527 32.9831C132.674 33.2362 132.869 33.4586 133.1 33.6382C133.574 34.0007 133.876 32.9672 134.229 32.5506C134.402 32.3846 134.611 32.2611 134.84 32.1899C135.069 32.1187 135.311 32.1017 135.547 32.1402C135.784 32.1788 136.008 32.2719 136.203 32.4121C136.397 32.5523 136.556 32.7358 136.668 32.9481C136.836 33.2401 136.945 33.5626 136.987 33.8969C137.03 34.2312 137.006 34.5706 136.916 34.8954C136.826 35.2203 136.673 35.5241 136.465 35.7892C136.257 36.0543 135.998 36.2755 135.704 36.4398Z" fill="#FFA8A7"/>
<path d="M128.645 30.7988L130.037 31.3012C130.101 31.1113 130.089 30.904 130.003 30.7231C129.917 30.5421 129.764 30.4016 129.576 30.3313C129.485 30.2987 129.387 30.2849 129.29 30.2909C129.193 30.2969 129.098 30.3225 129.011 30.3662C128.924 30.4099 128.846 30.4707 128.783 30.545C128.72 30.6194 128.673 30.7057 128.645 30.7988Z" fill="#37474F"/>
<path d="M123.503 31.1994L124.908 30.6938C124.88 30.6008 124.832 30.5145 124.769 30.4403C124.706 30.366 124.629 30.3054 124.542 30.262C124.455 30.2185 124.36 30.1933 124.262 30.1877C124.165 30.1821 124.068 30.1964 123.976 30.2295C123.788 30.3 123.635 30.4398 123.547 30.6202C123.458 30.8006 123.443 31.0078 123.503 31.1994Z" fill="#37474F"/>
<path d="M129.516 32.2265C129.519 32.3461 129.488 32.4641 129.424 32.5655C129.361 32.667 129.269 32.7473 129.16 32.7964C129.051 32.8455 128.929 32.8611 128.812 32.8412C128.694 32.8214 128.584 32.7669 128.497 32.6849C128.41 32.6028 128.349 32.4967 128.323 32.3801C128.296 32.2635 128.305 32.1416 128.347 32.0299C128.39 31.9181 128.465 31.8216 128.563 31.7524C128.66 31.6833 128.776 31.6446 128.896 31.6414C128.975 31.6389 129.054 31.652 129.128 31.6801C129.202 31.7082 129.27 31.7506 129.327 31.805C129.385 31.8594 129.431 31.9246 129.464 31.997C129.496 32.0693 129.514 32.1473 129.516 32.2265Z" fill="#263238"/>
<path d="M125.026 32.2899C125.029 32.4087 124.998 32.526 124.935 32.627C124.872 32.728 124.781 32.8082 124.673 32.8576C124.565 32.9071 124.444 32.9235 124.327 32.9048C124.209 32.8862 124.1 32.8333 124.013 32.7527C123.925 32.6722 123.863 32.5677 123.835 32.4522C123.806 32.3367 123.813 32.2155 123.853 32.1036C123.893 31.9917 123.966 31.8942 124.061 31.8232C124.157 31.7523 124.271 31.7111 124.39 31.7048C124.472 31.6915 124.556 31.6971 124.635 31.721C124.715 31.745 124.788 31.7867 124.849 31.843C124.911 31.8994 124.958 31.9688 124.989 32.0462C125.019 32.1236 125.032 32.2069 125.026 32.2899Z" fill="#263238"/>
<path d="M127.226 31.0308L126.975 34.8913L124.901 34.2744C125.424 33.0329 126.218 31.9245 127.226 31.0308Z" fill="#F28F8F"/>
<path d="M132.544 32.6748C132.451 35.3078 131.548 35.5018 130.617 35.664C129.38 35.8834 128.763 35.222 126.549 35.2506C125.207 35.2665 124.791 35.6704 124.031 35.9947C123.471 36.2332 123.01 36.1696 122.787 35.6767C122.48 34.7628 122.325 33.8044 122.33 32.8402C122.236 34.2782 122.29 35.7221 122.492 37.1491C122.689 38.3829 123.153 39.4355 123.843 40.0111C124.797 40.7997 126.778 41.1018 129.249 40.5262C131.72 39.9506 132.639 38.9108 132.928 38.0331C133.857 35.1711 133.463 33.8482 133.781 33.3076C134.099 32.767 132.544 32.6748 132.544 32.6748Z" fill="#37474F"/>
<path d="M126.861 36.0364C128.133 35.9951 128.54 36.2177 128.61 37.0826C128.712 38.3197 128.658 38.7362 128.184 38.8062C127.628 38.8921 127.23 38.9302 127.195 38.5772C127.142 38.3121 127.166 38.0372 127.265 37.7854C127.459 37.5437 127.389 37.5119 126.836 37.531C126.282 37.5501 126.289 37.6487 126.457 37.8172C126.578 37.9412 126.572 38.3642 126.575 38.609C126.578 38.8539 126.518 38.9811 125.72 38.927C125.023 38.8698 125.134 38.3101 125.134 37.2448C125.134 36.5166 125.43 36.0841 126.861 36.0364Z" fill="#FFA8A7"/>
<path d="M128.059 36.2139L126.005 36.5319C126.019 36.6683 126.06 36.8004 126.127 36.9204C126.193 37.0404 126.283 37.1458 126.391 37.2301C126.499 37.3145 126.623 37.3761 126.756 37.4113C126.888 37.4465 127.027 37.4546 127.162 37.435C127.441 37.388 127.691 37.2342 127.858 37.0063C128.026 36.7783 128.098 36.4941 128.059 36.2139Z" fill="#B16668"/>
<path d="M127.792 36.5289C127.876 36.5241 127.96 36.5305 128.043 36.548C128.005 36.7675 127.9 36.9699 127.742 37.1271C127.584 37.2843 127.382 37.3887 127.162 37.4256C127.052 37.4448 126.939 37.4448 126.828 37.4256C126.843 37.181 126.951 36.9514 127.13 36.7845C127.31 36.6175 127.547 36.526 127.792 36.5289Z" fill="#F28F8F"/>
<path d="M126.844 46.9468C126.844 46.9468 125.928 45.2233 125.925 44.5459L127.019 43.4043L127.375 46.225L126.844 46.9468Z" fill="#FFC100"/>
<path opacity="0.2" d="M126.844 46.9468C126.844 46.9468 125.928 45.2233 125.925 44.5459L127.019 43.4043L127.375 46.225L126.844 46.9468Z" fill="black"/>
<path d="M128.345 46.3331L130.215 45.0483L131.785 46.0946L128.911 47.5796L128.345 46.3331Z" fill="#FFC100"/>
<path opacity="0.2" d="M128.345 46.3331L130.215 45.0483L131.785 46.0946L128.911 47.5796L128.345 46.3331Z" fill="black"/>
<path d="M129.664 63.7028C129.486 57.6608 128.138 49.9874 128.243 48.5183L127.215 48.4229C126.513 50.1878 124.945 59.9822 125.018 64.1543C124.974 65.6108 126.395 68.2883 127.374 68.3328C128.354 68.3774 129.69 64.5868 129.664 63.7028Z" fill="#FFC100"/>
<path opacity="0.1" d="M129.664 63.7028C129.486 57.6608 128.138 49.9874 128.243 48.5183L127.215 48.4229C126.513 50.1878 124.945 59.9822 125.018 64.1543C124.974 65.6108 126.395 68.2883 127.374 68.3328C128.354 68.3774 129.69 64.5868 129.664 63.7028Z" fill="white"/>
<path opacity="0.5" d="M127.136 48.6547C127.168 48.5625 127.187 48.5021 127.215 48.4321L128.242 48.5275C128.234 48.6779 128.234 48.8287 128.242 48.9791C127.848 48.9948 127.459 48.8809 127.136 48.6547Z" fill="black"/>
<path d="M128.37 46.1904C128.049 46.1428 127.724 46.1311 127.4 46.1554C127.161 46.3769 126.971 46.6468 126.844 46.9472C126.859 47.4603 126.986 47.9639 127.216 48.4227C127.37 48.5118 127.542 48.5665 127.719 48.5829C127.896 48.5994 128.075 48.5773 128.243 48.5181C128.58 48.2665 128.835 47.9215 128.978 47.526C128.957 47.0187 128.739 46.5395 128.37 46.1904Z" fill="#FFC100"/>
<path opacity="0.1" d="M128.37 46.1904C128.049 46.1428 127.724 46.1311 127.4 46.1554C127.161 46.3769 126.971 46.6468 126.844 46.9472C126.859 47.4603 126.986 47.9639 127.216 48.4227C127.37 48.5118 127.542 48.5665 127.719 48.5829C127.896 48.5994 128.075 48.5773 128.243 48.5181C128.58 48.2665 128.835 47.9215 128.978 47.526C128.957 47.0187 128.739 46.5395 128.37 46.1904Z" fill="white"/>
<path d="M128.351 46.1869C128.382 46.1869 128.427 46.2633 128.459 46.2696C129.171 45.8753 129.282 45.7449 129.473 45.7958C129.832 45.8944 130.697 47.3858 130.914 47.8628C131.13 48.3398 131.092 48.3398 131.747 47.8946C132.897 47.1036 133.898 46.1153 134.704 44.9753C135.21 44.2429 135.602 43.4376 135.865 42.5872C135.865 42.5872 135.102 41.5569 134.876 41.1625C134.44 40.3993 134.199 40.0941 133.763 40.164V40.6633C133.693 41.3343 133.003 41.9798 132.078 42.7971C131.152 43.6143 129.648 44.3871 129.295 44.7496C128.923 45.1882 128.605 45.671 128.351 46.1869Z" fill="#F5F5F5"/>
<path d="M124.974 46.7946C125.082 47.0649 125.928 44.9216 126.351 44.9597C126.554 44.9756 127.025 45.548 127.413 46.1554H127.706C127.482 45.6371 127.327 45.0919 127.244 44.5336C127.149 43.8086 127.413 41.643 127.413 41.643L127.349 40.8066L126.974 40.8225C126.837 40.9771 126.714 41.1442 126.608 41.3218C126.201 42.0087 125.136 43.5987 125.018 44.4128C124.87 45.1986 124.855 46.0038 124.974 46.7946Z" fill="#F5F5F5"/>
<path d="M131.373 58.7476C130.882 58.2197 130.465 57.6282 130.132 56.9891C129.703 56.1782 129.547 55.6312 129.229 54.9666L128.911 54.3306C128.89 54.2749 128.856 54.2248 128.813 54.1843C128.757 54.1475 128.691 54.1293 128.624 54.1321C128.557 54.135 128.493 54.1588 128.441 54.2002C128.258 54.3215 128.108 54.4872 128.006 54.6818C127.905 54.8765 127.854 55.0937 127.859 55.3132C127.874 55.7515 127.943 56.1863 128.065 56.6075C128.126 56.8873 128.399 57.9208 128.399 57.9208L131.373 58.7476Z" fill="#F28F8F"/>
<path d="M144.69 47.7765C143.644 45.3088 142.331 44.9368 138.845 43.9351C136.956 47.1628 138.365 53.4337 138.365 53.4337L139.955 60.8495C139.955 60.8495 134.514 60.6809 133.554 60.2389C132.593 59.7969 129.878 57.5804 128.981 56.9285C127.757 56.0445 127.242 56.2576 126.704 56.4134C124.946 56.9317 124.57 57.1384 124.224 57.4342C124.122 57.5274 124.046 57.6449 124.002 57.7755C123.958 57.9062 123.948 58.0458 123.972 58.1815C123.502 58.3055 122.786 58.3913 122.802 59.1863C122.792 59.4001 122.812 59.6143 122.863 59.8223C122.744 59.8589 122.642 59.9367 122.576 60.0418C122.243 60.5569 123.142 62.0547 123.629 62.3822C123.972 62.6144 124.408 62.5889 124.968 62.4331C125.442 62.2996 125.149 61.8385 125.149 61.8385L125.83 61.7844C127.435 62.6207 127.795 64.5319 129.789 64.7164C130.6 64.7552 131.408 64.8444 132.209 64.9835C136.562 65.8071 140.839 68.3384 144.588 68.1444C148.249 67.9536 147.88 66.0392 147.628 63.8164C147.422 61.8321 145.889 50.594 144.69 47.7765Z" fill="#FFA8A7"/>
<path d="M139.812 60.1025L139.971 60.8403C141.676 61.0343 143.619 61.9756 144.137 62.8214C143.635 61.4445 142.818 60.4841 139.812 60.1025Z" fill="#F28F8F"/>
<path d="M138.769 43.6904C140.041 44.0688 142.29 44.4473 143.269 45.4235C144.249 46.3998 144.904 46.9722 145.673 50.1935C146.443 53.4149 147.384 61.0819 147.794 62.4429C148.204 63.8039 148.538 64.7134 147.794 65.5434C146.875 63.0852 144.274 60.9865 139.975 60.8402C139.265 60.8402 139.431 59.9593 139.18 59.142C138.928 58.3248 137.993 53.5039 137.59 51.9012C137.186 50.2985 136.597 45.3917 138.769 43.6904Z" fill="#F0F0F0"/>
<path d="M139.456 60.4838L139.354 60.8018C140.824 61.2201 142.18 61.9684 143.317 62.9896C144.999 64.5987 145.381 65.9184 145.466 66.7611C145.552 67.6038 145.466 68.1062 144.83 68.1317L144.249 68.1539C144.249 68.1539 144.369 68.4719 145.47 68.3829C146.424 68.3066 147.346 68.0395 147.797 67.0568C148.004 66.6678 148.121 66.2379 148.142 65.798C148.162 65.3581 148.085 64.9192 147.915 64.5128C147.597 63.6288 146.754 62.0674 144.14 60.9862C141.994 60.1022 139.456 60.4838 139.456 60.4838Z" fill="#E0E0E0"/>
<path d="M123.989 58.194L126.062 57.4658L123.992 57.876C123.97 57.9808 123.969 58.0889 123.989 58.194Z" fill="#F28F8F"/>
<path d="M122.879 59.8194L125.293 59.1484L122.838 59.5205C122.84 59.6214 122.854 59.7217 122.879 59.8194Z" fill="#F28F8F"/>
<path d="M123.353 60.856C123.45 60.97 123.578 61.0538 123.721 61.0976C123.863 61.1457 124.011 61.1735 124.16 61.1803L124.125 61.1612C124.208 61.2821 124.297 61.3997 124.383 61.5142L124.427 61.4411C124.357 61.4382 124.288 61.45 124.222 61.4758C124.157 61.5015 124.098 61.5406 124.049 61.5905C123.958 61.6867 123.899 61.809 123.88 61.9403C123.927 61.8242 124 61.7207 124.093 61.6382C124.184 61.567 124.296 61.5298 124.411 61.5333H124.507L124.453 61.4538C124.367 61.333 124.281 61.2153 124.192 61.1008V61.0817H124.17C124.027 61.0768 123.886 61.0576 123.747 61.0245C123.604 60.9996 123.469 60.9419 123.353 60.856Z" fill="#F28F8F"/>
<path d="M124.045 61.0819C124.346 61.079 124.646 61.0588 124.945 61.0215C124.945 61.0215 124.986 61.1932 125.314 61.4508C125.484 61.5674 125.662 61.6735 125.845 61.7688L125.164 61.8228C125.055 61.7145 124.925 61.6301 124.781 61.5754C124.638 61.5206 124.485 61.4966 124.331 61.5048L124.045 61.0819Z" fill="#F28F8F"/>
</svg>
